<?xml version="1.0" encoding="UTF-8"?>
<svg id="_Слой_1" data-name="Слой 1" xmlns="http://www.w3.org/2000/svg" viewBox="0 0 150 28">
  <defs>
    <style>
      .cls-1 {
        fill: #000;
        stroke-width: 0px;
      }

      .cls-2 {
        opacity: .2;
      }
    </style>
  </defs>
  <g class="cls-2">
    <path class="cls-1" d="M30.01,18.31v-1.16h.92v-4.67h-.92v-1.16h2.87c.94,0,1.65.24,2.14.71.49.48.73,1.18.73,2.12v1.32c0,.94-.24,1.64-.73,2.12-.49.48-1.2.71-2.14.71h-2.87ZM32.24,17.12h.66c.53,0,.92-.14,1.17-.42s.37-.67.37-1.18v-1.4c0-.51-.12-.91-.37-1.18s-.64-.41-1.17-.41h-.66v4.59Z"/>
    <path class="cls-1" d="M39.49,18.45c-.49,0-.93-.1-1.3-.31-.38-.21-.67-.51-.88-.89-.21-.38-.31-.83-.31-1.35v-.12c0-.52.1-.97.31-1.35.21-.38.5-.68.87-.89.37-.21.8-.31,1.3-.31s.91.11,1.27.32.64.52.84.9c.2.38.3.83.3,1.33v.43h-3.6c.01.34.14.62.38.83s.53.32.88.32.61-.08.78-.23c.17-.15.29-.32.38-.51l1.03.54c-.09.17-.23.36-.4.56-.18.2-.41.38-.7.52-.29.14-.67.21-1.12.21ZM38.28,15.27h2.31c-.03-.29-.14-.52-.34-.69-.2-.17-.47-.26-.79-.26s-.61.09-.81.26-.32.4-.37.69Z"/>
    <path class="cls-1" d="M43.33,20.31v-6.94h1.24v.6h.18c.11-.19.29-.36.53-.51s.58-.22,1.03-.22c.4,0,.77.1,1.11.29.34.2.61.48.82.86s.31.84.31,1.38v.16c0,.54-.1,1-.31,1.38-.21.38-.48.67-.82.86s-.71.29-1.11.29c-.3,0-.55-.04-.75-.1s-.37-.16-.49-.27c-.12-.11-.22-.22-.29-.33h-.18v2.56h-1.26ZM45.92,17.36c.39,0,.72-.12.97-.37.26-.25.38-.61.38-1.09v-.1c0-.48-.13-.84-.39-1.09-.26-.25-.58-.37-.97-.37s-.71.12-.97.37c-.26.25-.39.61-.39,1.09v.1c0,.48.13.84.39,1.09.26.25.58.37.97.37Z"/>
    <path class="cls-1" d="M50.03,18.31v-6.98h1.26v6.98h-1.26Z"/>
    <path class="cls-1" d="M55.38,18.45c-.49,0-.93-.1-1.33-.3s-.7-.49-.93-.87c-.23-.38-.34-.83-.34-1.37v-.16c0-.53.11-.99.34-1.37.23-.38.54-.67.93-.87.39-.2.83-.3,1.33-.3s.93.1,1.33.3c.39.2.7.49.93.87.23.38.34.83.34,1.37v.16c0,.53-.11.99-.34,1.37-.23.38-.54.67-.93.87s-.83.3-1.33.3ZM55.38,17.34c.39,0,.7-.12.96-.37.25-.25.38-.61.38-1.07v-.1c0-.46-.12-.82-.37-1.07-.25-.25-.57-.37-.96-.37s-.71.12-.96.37-.38.61-.38,1.07v.1c0,.47.13.82.38,1.07.25.25.57.37.96.37Z"/>
    <path class="cls-1" d="M60,20.31v-1.1h2.69c.19,0,.28-.1.28-.3v-1.25h-.18c-.05.11-.14.23-.25.34-.11.11-.27.21-.46.28-.19.07-.44.11-.74.11-.39,0-.72-.09-1.01-.26-.29-.18-.51-.42-.67-.73s-.24-.67-.24-1.08v-2.95h1.26v2.85c0,.37.09.65.27.84.18.19.44.28.78.28.38,0,.68-.13.9-.38s.32-.61.32-1.07v-2.51h1.26v5.83c0,.34-.1.61-.3.81-.2.2-.46.3-.8.3h-3.11Z"/>
    <path class="cls-1" d="M69.86,18.31l-1.58-4.95h1.34l1.15,4.03h.18l1.15-4.03h1.34l-1.58,4.95h-2Z"/>
    <path class="cls-1" d="M75.25,12.79c-.23,0-.42-.07-.57-.22s-.23-.34-.23-.58.08-.43.23-.58.35-.22.57-.22.42.07.58.22.23.34.23.58-.08.43-.23.58-.35.22-.58.22ZM74.63,18.31v-4.95h1.26v4.95h-1.26Z"/>
    <path class="cls-1" d="M79.15,18.45c-.35,0-.67-.06-.95-.18s-.5-.3-.66-.54c-.16-.24-.25-.52-.25-.86s.08-.62.25-.85c.16-.23.39-.4.68-.52s.62-.17.99-.17h1.36v-.28c0-.23-.07-.42-.22-.57-.15-.15-.38-.22-.7-.22s-.54.07-.7.21c-.15.14-.25.33-.3.55l-1.16-.39c.08-.25.21-.48.38-.69.18-.21.41-.38.71-.51s.66-.19,1.08-.19c.65,0,1.17.16,1.55.49.38.33.57.8.57,1.42v1.85c0,.2.09.3.28.3h.4v1.04h-.84c-.25,0-.45-.06-.61-.18-.16-.12-.24-.28-.24-.48h0s-.19,0-.19,0c-.03.08-.09.18-.18.31-.09.13-.24.24-.44.34s-.47.15-.82.15ZM79.37,17.43c.35,0,.64-.1.86-.29.22-.2.33-.46.33-.78v-.1h-1.27c-.23,0-.42.05-.55.15-.13.1-.2.24-.2.42s.07.33.21.44.34.17.61.17Z"/>
    <path class="cls-1" d="M88.97,18.45c-.48,0-.91-.11-1.3-.32-.39-.22-.7-.53-.93-.95s-.34-.92-.34-1.52v-1.68c0-.9.25-1.59.76-2.07.5-.48,1.19-.72,2.05-.72s1.52.23,1.99.68.7,1.07.7,1.85v.04h-1.3v-.08c0-.25-.05-.47-.15-.67-.1-.2-.26-.36-.46-.47-.21-.12-.47-.17-.78-.17-.47,0-.83.14-1.1.43-.27.29-.4.67-.4,1.17v1.72c0,.49.13.88.4,1.17.27.3.64.44,1.12.44s.83-.13,1.05-.38c.22-.25.33-.57.33-.96v-.1h-1.66v-1.12h2.95v3.57h-1.22v-.67h-.18c-.05.11-.12.23-.22.36-.1.13-.26.23-.46.32-.21.09-.49.13-.85.13Z"/>
    <path class="cls-1" d="M94.17,12.79c-.23,0-.42-.07-.57-.22s-.23-.34-.23-.58.08-.43.23-.58.35-.22.57-.22.43.07.58.22c.15.15.23.34.23.58s-.08.43-.23.58c-.15.15-.35.22-.58.22ZM93.54,18.31v-4.95h1.26v4.95h-1.26Z"/>
    <path class="cls-1" d="M98.42,18.31c-.33,0-.59-.1-.79-.3-.2-.2-.3-.47-.3-.81v-2.79h-1.24v-1.04h1.24v-1.54h1.26v1.54h1.36v1.04h-1.36v2.57c0,.2.09.3.28.3h.96v1.04h-1.4Z"/>
    <path class="cls-1" d="M101.38,18.31v-6.98h1.32v2.88h2.59v-2.88h1.32v6.98h-1.32v-2.9h-2.59v2.9h-1.32Z"/>
    <path class="cls-1" d="M110.19,18.39c-.39,0-.72-.09-1.01-.26-.29-.18-.51-.42-.67-.73s-.24-.67-.24-1.08v-2.95h1.26v2.85c0,.37.09.65.27.84.18.19.44.28.78.28.38,0,.68-.13.9-.38s.32-.61.32-1.07v-2.51h1.26v4.95h-1.24v-.65h-.18c-.08.17-.23.33-.45.49-.22.16-.55.24-1,.24Z"/>
    <path class="cls-1" d="M117.76,18.45c-.45,0-.79-.08-1.03-.23-.24-.15-.42-.32-.53-.51h-.18v.6h-1.24v-6.98h1.26v2.6h.18c.07-.12.17-.23.29-.34s.29-.19.49-.26c.2-.07.45-.1.75-.1.4,0,.77.1,1.11.29.34.2.61.48.82.86s.31.84.31,1.38v.16c0,.54-.1,1-.31,1.38-.21.38-.48.67-.82.86-.34.2-.71.29-1.11.29ZM117.38,17.36c.39,0,.71-.12.97-.37.26-.25.39-.61.39-1.09v-.1c0-.48-.13-.84-.38-1.09-.26-.25-.58-.37-.97-.37s-.71.12-.97.37c-.26.25-.39.61-.39,1.09v.1c0,.48.13.84.39,1.09.26.25.58.37.97.37Z"/>
  </g>
</svg>