<?xml version="1.0" encoding="UTF-8"?>
<svg id="_Слой_1" data-name="Слой 1" xmlns="http://www.w3.org/2000/svg" viewBox="0 0 150 28">
  <defs>
    <style>
      .cls-1 {
        fill: #fff;
      }

      .cls-1, .cls-2 {
        stroke-width: 0px;
      }

      .cls-2 {
        fill: #000;
        opacity: .2;
      }
    </style>
  </defs>
  <rect class="cls-2" x="0" width="150" height="28" rx="4.66" ry="4.66"/>
  <g>
    <path class="cls-1" d="M36.87,17.6c-.88,0-1.58-.24-2.09-.72-.52-.48-.78-1.17-.78-2.07v-1.68c0-.9.26-1.59.78-2.07.52-.48,1.22-.72,2.09-.72s1.58.24,2.09.72c.52.48.78,1.17.78,2.07v1.68c0,.9-.26,1.59-.78,2.07-.52.48-1.22.72-2.09.72ZM36.87,16.42c.49,0,.87-.14,1.15-.43.27-.29.41-.67.41-1.15v-1.76c0-.48-.14-.86-.41-1.15-.27-.29-.66-.43-1.15-.43s-.87.14-1.14.43c-.28.29-.41.67-.41,1.15v1.76c0,.48.14.86.41,1.15.28.29.66.43,1.14.43Z"/>
    <path class="cls-1" d="M41.28,19.45v-6.94h1.24v.6h.18c.11-.19.29-.36.53-.51.24-.15.58-.22,1.03-.22.4,0,.77.1,1.11.29.34.2.61.48.82.86s.31.84.31,1.38v.16c0,.54-.1,1-.31,1.38-.21.38-.48.67-.82.86-.34.2-.71.29-1.11.29-.3,0-.55-.04-.75-.1-.2-.07-.37-.16-.49-.27s-.22-.22-.29-.33h-.18v2.56h-1.26ZM43.87,16.5c.39,0,.72-.12.97-.37s.38-.61.38-1.09v-.1c0-.48-.13-.84-.39-1.09-.26-.25-.58-.37-.97-.37s-.71.12-.97.37c-.26.25-.39.61-.39,1.09v.1c0,.48.13.84.39,1.09s.58.37.97.37Z"/>
    <path class="cls-1" d="M50.23,17.6c-.49,0-.93-.1-1.3-.31-.38-.21-.67-.51-.88-.89-.21-.38-.31-.83-.31-1.35v-.12c0-.52.1-.97.31-1.35s.5-.68.87-.89.8-.31,1.3-.31.91.11,1.27.32c.36.22.64.52.84.9.2.38.3.83.3,1.33v.43h-3.6c.01.34.14.61.38.83s.53.32.88.32.61-.08.78-.23c.17-.15.29-.32.38-.51l1.03.54c-.09.17-.23.36-.4.56-.18.2-.41.38-.7.52-.29.14-.67.21-1.12.21ZM49.03,14.41h2.31c-.03-.29-.14-.52-.34-.69-.2-.17-.47-.26-.79-.26s-.61.09-.81.26c-.2.17-.32.4-.37.69Z"/>
    <path class="cls-1" d="M54.07,17.46v-4.95h1.24v.65h.18c.08-.17.23-.34.45-.49.22-.16.55-.23,1-.23.39,0,.72.09,1.01.26.29.18.51.42.67.73.16.31.24.67.24,1.08v2.95h-1.26v-2.85c0-.37-.09-.65-.27-.84-.18-.19-.44-.28-.78-.28-.39,0-.69.13-.9.38-.21.26-.32.61-.32,1.07v2.51h-1.26Z"/>
    <path class="cls-1" d="M64.06,11.93c-.23,0-.42-.07-.57-.22-.16-.15-.23-.34-.23-.58s.08-.43.23-.58c.16-.15.35-.22.57-.22s.43.07.58.22c.15.15.23.34.23.58s-.08.43-.23.58c-.15.15-.35.22-.58.22ZM63.43,17.46v-4.95h1.26v4.95h-1.26Z"/>
    <path class="cls-1" d="M66.42,17.46v-4.95h1.24v.65h.18c.08-.17.23-.34.45-.49.22-.16.55-.23,1-.23.39,0,.72.09,1.01.26.29.18.51.42.67.73.16.31.24.67.24,1.08v2.95h-1.26v-2.85c0-.37-.09-.65-.27-.84-.18-.19-.44-.28-.78-.28-.39,0-.69.13-.9.38-.21.26-.32.61-.32,1.07v2.51h-1.26Z"/>
    <path class="cls-1" d="M78.75,17.6c-.45,0-.79-.08-1.03-.23-.24-.15-.42-.32-.53-.51h-.18v.6h-1.24v-6.98h1.26v2.6h.18c.07-.12.17-.23.29-.34.12-.11.29-.19.49-.26.2-.07.45-.1.75-.1.4,0,.77.1,1.11.29.34.2.61.48.82.86s.31.84.31,1.38v.16c0,.54-.1,1-.31,1.38-.21.38-.48.67-.82.86-.34.2-.71.29-1.11.29ZM78.37,16.5c.39,0,.71-.12.97-.37s.39-.61.39-1.09v-.1c0-.48-.13-.84-.38-1.09-.26-.25-.58-.37-.97-.37s-.71.12-.97.37c-.26.25-.39.61-.39,1.09v.1c0,.48.13.84.39,1.09s.58.37.97.37Z"/>
    <path class="cls-1" d="M82.48,17.46v-4.95h1.24v.56h.18c.07-.2.19-.35.36-.44.17-.09.37-.14.59-.14h.6v1.12h-.62c-.32,0-.58.08-.79.25-.21.17-.31.43-.31.78v2.81h-1.26Z"/>
    <path class="cls-1" d="M89.12,17.6c-.49,0-.93-.1-1.33-.3-.39-.2-.7-.49-.93-.87s-.34-.83-.34-1.37v-.16c0-.53.11-.99.34-1.37.23-.38.54-.67.93-.87.39-.2.83-.3,1.33-.3s.93.1,1.33.3c.39.2.7.49.93.87.23.38.34.83.34,1.37v.16c0,.53-.11.99-.34,1.37s-.54.67-.93.87c-.39.2-.83.3-1.33.3ZM89.12,16.48c.39,0,.7-.12.96-.37s.38-.61.38-1.07v-.1c0-.47-.12-.82-.37-1.07-.25-.25-.57-.37-.96-.37s-.71.12-.96.37c-.25.25-.38.61-.38,1.07v.1c0,.47.13.82.38,1.07.25.25.57.37.96.37Z"/>
    <path class="cls-1" d="M93.61,17.46l-.7-4.95h1.25l.44,4.1h.18l.64-4.1h2.01l.64,4.1h.18l.44-4.1h1.25l-.7,4.95h-2.08l-.64-4.1h-.18l-.64,4.1h-2.08Z"/>
    <path class="cls-1" d="M103.43,17.6c-.65,0-1.17-.14-1.59-.42s-.66-.68-.75-1.2l1.16-.3c.05.23.12.42.23.55.11.13.25.23.41.28.16.06.34.08.53.08.29,0,.51-.05.65-.15s.21-.23.21-.38-.07-.27-.2-.35c-.13-.08-.35-.15-.64-.2l-.28-.05c-.35-.07-.66-.16-.95-.27-.29-.12-.52-.28-.69-.48-.17-.21-.26-.47-.26-.8,0-.49.18-.87.54-1.13.36-.26.83-.39,1.42-.39.55,0,1.01.12,1.38.37.37.25.6.57.72.97l-1.17.36c-.05-.25-.16-.43-.32-.54-.16-.11-.36-.16-.6-.16s-.42.04-.55.12-.19.2-.19.34c0,.16.07.28.2.35.13.08.31.13.54.17l.28.05c.37.07.71.15,1.01.26.3.11.54.27.72.47s.26.48.26.82c0,.52-.19.92-.56,1.2s-.88.42-1.51.42Z"/>
    <path class="cls-1" d="M109.19,17.6c-.49,0-.93-.1-1.3-.31-.38-.21-.67-.51-.88-.89-.21-.38-.31-.83-.31-1.35v-.12c0-.52.1-.97.31-1.35s.5-.68.87-.89.8-.31,1.3-.31.91.11,1.27.32c.36.22.64.52.84.9.2.38.3.83.3,1.33v.43h-3.6c.01.34.14.61.38.83s.53.32.88.32.61-.08.78-.23c.17-.15.29-.32.38-.51l1.03.54c-.09.17-.23.36-.4.56-.18.2-.41.38-.7.52-.29.14-.67.21-1.12.21ZM107.99,14.41h2.31c-.03-.29-.14-.52-.34-.69-.2-.17-.47-.26-.79-.26s-.61.09-.81.26c-.2.17-.32.4-.37.69Z"/>
    <path class="cls-1" d="M113.03,17.46v-4.95h1.24v.56h.18c.07-.2.19-.35.36-.44.17-.09.37-.14.59-.14h.6v1.12h-.62c-.32,0-.58.08-.79.25-.21.17-.31.43-.31.78v2.81h-1.26Z"/>
  </g>
</svg>