<?xml version="1.0" encoding="utf-8"?>
<!-- Generator: Adobe Illustrator 27.8.1, SVG Export Plug-In . SVG Version: 6.00 Build 0)  -->
<svg version="1.1" id="_Слой_1" xmlns="http://www.w3.org/2000/svg" xmlns:xlink="http://www.w3.org/1999/xlink" x="0px"
	 y="0px" viewBox="0 0 1429.4 1429.4" style="enable-background:new 0 0 1429.4 1429.4;" xml:space="preserve">
<style type="text/css">
	.st0{fill:#0079FF;}
	.st1{fill:#00DFA2;}
</style>
<path d="M329.5,0h770.4c182,0,329.5,147.5,329.5,329.5v770.4c0,182-147.5,329.5-329.5,329.5H329.5c-182,0-329.5-147.5-329.5-329.5
	V329.5C0,147.5,147.5,0,329.5,0z"/>
<path class="st0" d="M1320.3,385.9c-529.6,0-958.9,429.3-958.9,958.9c0,28.5,1.3,56.7,3.7,84.6h734.9c182,0,329.5-147.5,329.5-329.5
	V392C1393.6,388,1357.2,385.9,1320.3,385.9z"/>
<g>
	<path class="st1" d="M1302.3,386.1c-3.1,0.1-6.2,0.1-9.3,0.2c-1.7,0-3.4,0.1-5.1,0.2c-2.9,0.1-5.8,0.2-8.6,0.3
		c-1.7,0.1-3.4,0.1-5.1,0.2c-2.9,0.1-5.9,0.3-8.8,0.5c-1.6,0.1-3.1,0.2-4.7,0.3c-3.4,0.2-6.9,0.4-10.3,0.7c-1,0.1-2.1,0.1-3.1,0.2
		c-4.5,0.3-9,0.7-13.5,1.1c-0.8,0.1-1.6,0.2-2.4,0.2c-3.7,0.3-7.3,0.7-11,1.1c-1.4,0.1-2.8,0.3-4.2,0.5c-3.1,0.3-6.1,0.7-9.2,1
		c-1.5,0.2-3,0.4-4.6,0.5c-3,0.4-6,0.8-9,1.2c-1.4,0.2-2.9,0.4-4.3,0.6c-3.3,0.4-6.5,0.9-9.8,1.4c-1.1,0.2-2.3,0.3-3.4,0.5
		c-8.9,1.3-17.8,2.8-26.6,4.4c-0.8,0.1-1.5,0.3-2.3,0.4c-3.6,0.7-7.2,1.3-10.8,2c-1.2,0.2-2.3,0.5-3.5,0.7c-3.3,0.6-6.5,1.3-9.8,2
		c-1.2,0.2-2.4,0.5-3.6,0.8c-3.3,0.7-6.7,1.4-10,2.2c-1,0.2-2,0.4-3,0.7c-4,0.9-8,1.9-12,2.8c-0.3,0.1-0.5,0.1-0.8,0.2
		c-8.9,2.2-17.7,4.4-26.5,6.8c-0.6,0.2-1.2,0.3-1.8,0.5c-3.7,1-7.4,2.1-11.1,3.1c-0.8,0.2-1.7,0.5-2.5,0.7c-3.5,1-7,2.1-10.5,3.1
		c-0.8,0.2-1.6,0.5-2.3,0.7c-3.8,1.2-7.7,2.4-11.5,3.6c-0.4,0.1-0.7,0.2-1.1,0.4c-13,4.2-25.8,8.6-38.6,13.3
		c-0.4,0.2-0.8,0.3-1.2,0.5c-3.8,1.4-7.6,2.8-11.3,4.3c-0.5,0.2-1.1,0.4-1.6,0.6c-3.8,1.5-7.6,3-11.3,4.5c-0.4,0.1-0.7,0.3-1.1,0.4
		c-16.8,6.8-33.3,14-49.7,21.7c-0.3,0.1-0.6,0.3-0.9,0.4c-3.8,1.8-7.5,3.6-11.2,5.4c-0.3,0.2-0.7,0.3-1,0.5c-4,1.9-7.9,3.9-11.8,5.9
		c0,0,0,0,0,0c-228.7,236.3-566.9,614.5-220.8,452.9c490.2-228.8,902.8-412.6,551.5-65.4s-514.6-8.2-502.4,208.3
		c12.2,216.5,142.9,441.2,290,241s275.8-424.9,315.6-322.7c24.6,63.2,84.4,149.2,92.4,200c8.8-26.4,14.3-54.4,16-83.3l-1.5-728.6
		c-0.6-0.1-1.2-0.1-1.8-0.2c-3.7-0.4-7.4-0.8-11.2-1.2c-0.6-0.1-1.2-0.1-1.8-0.2c-3.8-0.4-7.6-0.7-11.4-1c-0.6-0.1-1.3-0.1-1.9-0.1
		c-3.8-0.3-7.6-0.6-11.4-0.9c-0.8-0.1-1.6-0.1-2.4-0.2c-3.6-0.2-7.3-0.5-11-0.7c-1.1-0.1-2.1-0.1-3.2-0.2c-3.4-0.2-6.8-0.4-10.2-0.5
		c-1.5-0.1-3.1-0.1-4.6-0.2c-2.9-0.1-5.9-0.2-8.9-0.3c-2.3-0.1-4.6-0.1-6.9-0.1c-2.2,0-4.4-0.1-6.7-0.1c-4.5-0.1-9.1-0.1-13.6-0.1
		c-4.5,0-9.1,0-13.6,0.1C1305.2,386,1303.8,386.1,1302.3,386.1z"/>
	<path class="st1" d="M1397.2,1242.1c-10.4,4.6-26.2,5.5-48.9,1.7c-72.8-12-89.7,65.3-88.7,144.3
		C1319.3,1355,1367.6,1303.9,1397.2,1242.1z"/>
</g>
</svg>
