<?xml version="1.0" encoding="UTF-8"?>
<svg id="_Слой_1" data-name="Слой 1" xmlns="http://www.w3.org/2000/svg" viewBox="0 0 1429.4 1429.4">
  <defs>
    <style>
      .cls-1 {
        fill: #fff;
      }

      .cls-2 {
        fill: #0079ff;
      }
    </style>
  </defs>
  <rect class="cls-2" x="0" width="1429.4" height="1429.4" rx="329.49" ry="329.49"/>
  <path class="cls-1" d="m714.93,994.07c-80.92,0-145.29-22.21-193.1-66.67-47.82-44.44-71.72-108.04-71.72-190.8v-154.48c0-82.76,23.91-146.35,71.72-190.8,47.82-44.44,112.18-66.67,193.1-66.67s145.29,22.23,193.1,66.67c47.82,44.45,71.72,108.04,71.72,190.8v154.48c0,82.76-23.91,146.36-71.72,190.8-47.82,44.45-112.18,66.67-193.1,66.67Zm0-108.5c45.36,0,80.6-13.17,105.75-39.54,25.13-26.35,37.7-61.61,37.7-105.75v-161.84c0-44.14-12.57-79.38-37.7-105.75-25.14-26.35-60.39-39.54-105.75-39.54s-79.85,13.19-105.29,39.54c-25.44,26.36-38.16,61.61-38.16,105.75v161.84c0,44.14,12.72,79.4,38.16,105.75,25.43,26.37,60.53,39.54,105.29,39.54Zm42.3,261.15c-30.04,0-54.41-9.35-73.1-28.05-18.71-18.71-28.05-43.68-28.05-74.94v-62.53h117.7v44.14c0,18.39,8.58,27.58,25.75,27.58h54.25v93.79h-96.55Z"/>
</svg>