<?xml version="1.0" encoding="UTF-8"?>
<svg id="_Слой_1" data-name="Слой 1" xmlns="http://www.w3.org/2000/svg" viewBox="0 0 1429.4 1429.4">
  <defs>
    <style>
      .cls-1 {
        fill: #fff;
      }

      .cls-2 {
        fill: #ff0060;
      }
    </style>
  </defs>
  <rect class="cls-2" x="0" width="1429.4" height="1429.4" rx="329.49" ry="329.49"/>
  <path class="cls-1" d="m720.45,1024.71c-49.65,0-93.49-8.89-131.49-26.67-38.02-17.77-67.74-43.22-89.19-76.32-21.47-33.1-32.18-72.94-32.18-119.54v-25.75h119.54v25.75c0,38.62,11.95,67.59,35.86,86.9,23.91,19.31,56.39,28.96,97.47,28.96s72.79-8.28,93.33-24.83c20.53-16.55,30.8-37.7,30.8-63.45,0-17.77-5.06-32.18-15.17-43.22s-24.83-20.07-44.14-27.13c-19.31-7.04-42.76-13.63-70.34-19.77l-21.15-4.6c-44.14-9.8-82-22.21-113.56-37.24-31.58-15.01-55.79-34.78-72.64-59.31-16.87-24.51-25.29-56.39-25.29-95.63s9.34-72.79,28.05-100.69c18.69-27.89,45.06-49.34,79.08-64.37,34.02-15.01,74.02-22.53,120-22.53s86.9,7.82,122.76,23.45c35.86,15.63,64.05,38.94,84.6,69.88,20.53,30.96,30.8,69.74,30.8,116.32v27.59h-119.54v-27.59c0-24.51-4.76-44.28-14.25-59.31-9.51-15.01-23.15-26.05-40.92-33.1-17.79-7.04-38.94-10.57-63.45-10.57-36.78,0-63.91,6.9-81.38,20.69-17.47,13.79-26.21,32.64-26.21,56.55,0,15.95,4.14,29.42,12.41,40.46,8.28,11.03,20.69,20.23,37.24,27.59,16.55,7.36,37.7,13.79,63.45,19.31l21.15,4.6c45.98,9.81,85.98,22.38,120,37.7,34.02,15.33,60.53,35.56,79.54,60.69,18.99,25.14,28.51,57.33,28.51,96.55s-9.97,73.72-29.88,103.45c-19.93,29.74-48.13,53.03-84.6,69.88-36.48,16.85-79.54,25.29-129.19,25.29Z"/>
</svg>