<?xml version="1.0" encoding="utf-8"?>
<!-- Generator: Adobe Illustrator 24.0.0, SVG Export Plug-In . SVG Version: 6.00 Build 0)  -->
<svg version="1.1" id="a" xmlns="http://www.w3.org/2000/svg" xmlns:xlink="http://www.w3.org/1999/xlink" x="0px" y="0px"
	 viewBox="0 0 16 16" style="enable-background:new 0 0 16 16;" xml:space="preserve">
<style type="text/css">
	.st0{fill:#FFAE0B;}
</style>
<path d="M3.9,0h8.3C14.3,0,16,1.7,16,3.9v8.3c0,2.1-1.7,3.9-3.9,3.9H3.9C1.7,16,0,14.3,0,12.1V3.9C0,1.7,1.7,0,3.9,0z"/>
<g>
	<path class="st0" d="M6.8,12.7c-0.7-0.3-1.3-0.6-1.8-1c-0.5-0.4-0.8-0.9-1-1.4C3.8,9.7,3.7,9.1,3.8,8.5s0.2-1.3,0.5-2
		c0.3-0.7,0.6-1.2,1-1.7c0.4-0.5,0.9-0.8,1.4-1c0.5-0.2,1.1-0.3,1.7-0.3C9,3.5,9.6,3.7,10.3,4c0.6,0.3,1.2,0.6,1.6,1
		c0.4,0.4,0.7,0.9,0.9,1.4c0.2,0.5,0.3,1,0.2,1.5c0,0.5-0.1,1-0.3,1.5c-0.1,0.3-0.3,0.7-0.5,1c-0.2,0.3-0.4,0.6-0.6,0.9
		c-0.2,0.2-0.5,0.4-0.8,0.5c-0.3,0.1-0.6,0.1-1-0.1c-0.2-0.1-0.3-0.2-0.5-0.3C9.2,11.2,9,11,8.9,10.8c-0.1-0.2-0.1-0.4-0.1-0.6l0,0
		c-0.1,0.1-0.2,0.2-0.4,0.3c-0.2,0.1-0.4,0.1-0.6,0.1c-0.2,0-0.4-0.1-0.7-0.2c-0.3-0.1-0.5-0.3-0.7-0.5C6.3,9.7,6.1,9.4,6.1,9.2
		C6,8.9,6,8.6,6,8.3c0-0.3,0.1-0.6,0.3-1C6.4,7,6.6,6.7,6.8,6.5C7,6.3,7.2,6.1,7.4,6c0.2-0.1,0.5-0.2,0.8-0.2c0.3,0,0.5,0,0.8,0.1
		C9.3,5.9,9.5,6,9.6,6.1C9.8,6.3,9.9,6.4,10,6.5c0.1,0.1,0.1,0.3,0.1,0.4l0,0l0.2-0.4l0.7,0.3L9.8,9.9c-0.1,0.2-0.1,0.4,0,0.6
		c0,0.2,0.2,0.3,0.4,0.4c0.2,0.1,0.4,0.1,0.6,0c0.2-0.1,0.4-0.3,0.6-0.6c0.2-0.3,0.4-0.7,0.6-1.3c0.1-0.3,0.2-0.6,0.2-1
		c0-0.3,0-0.7,0-1c-0.1-0.3-0.2-0.7-0.4-1c-0.2-0.3-0.4-0.6-0.7-0.8C10.8,5,10.4,4.8,10,4.6C9.4,4.4,8.9,4.3,8.4,4.2
		c-0.5,0-1,0.1-1.4,0.3S6.2,5,5.9,5.4C5.5,5.8,5.2,6.3,5,6.9C4.8,7.5,4.6,8,4.6,8.5c0,0.5,0,1,0.2,1.4c0.2,0.4,0.5,0.8,0.8,1.2
		s0.9,0.6,1.5,0.9c0.3,0.1,0.5,0.2,0.8,0.2c0.3,0.1,0.5,0.1,0.7,0.1c0.2,0,0.4,0,0.5,0L9,13.1c-0.2,0-0.4,0-0.6,0
		c-0.3,0-0.5-0.1-0.8-0.1C7.3,12.9,7.1,12.8,6.8,12.7z M7.5,9.8c0.3,0.1,0.6,0.2,0.8,0.1c0.2,0,0.5-0.2,0.6-0.4
		C9.2,9.3,9.4,9,9.5,8.6c0.2-0.4,0.2-0.7,0.2-1c0-0.3-0.1-0.5-0.2-0.6C9.4,6.8,9.1,6.7,8.9,6.6C8.6,6.5,8.4,6.5,8.1,6.5
		S7.7,6.7,7.5,6.9C7.3,7.1,7.1,7.3,7,7.6C6.9,7.9,6.8,8.2,6.8,8.4c0,0.3,0,0.6,0.1,0.8C7,9.5,7.2,9.6,7.5,9.8z"/>
</g>
</svg>
