<?xml version="1.0" encoding="UTF-8"?><svg id="a" xmlns="http://www.w3.org/2000/svg" xmlns:xlink="http://www.w3.org/1999/xlink" viewBox="0 0 16 16"><defs><style>.c{fill:#fff;}.d{fill:url(#b);}</style><linearGradient id="b" x1="0" y1="8" x2="16" y2="8" gradientTransform="matrix(1, 0, 0, 1, 0, 0)" gradientUnits="userSpaceOnUse"><stop offset="0" stop-color="#ff073d"/><stop offset="1" stop-color="#ff77c1"/></linearGradient></defs><rect class="d" width="16" height="16" rx="3.87" ry="3.87"/><g><path class="c" d="M6.75,6.16l.5-3.05,.5,3.05c.14,.86,.81,1.53,1.67,1.67l3.05,.5-3.05,.5c-.86,.14-1.53,.81-1.67,1.67l-.5,3.05-.5-3.05c-.14-.86-.81-1.53-1.67-1.67l-3.05-.5,3.05-.5c.86-.14,1.53-.81,1.67-1.67Z"/><path class="c" d="M10.57,3.71l.21-1.27,.21,1.27c.06,.36,.34,.63,.69,.69l1.27,.21-1.27,.21c-.36,.06-.63,.34-.69,.69l-.21,1.27-.21-1.27c-.06-.36-.34-.63-.69-.69l-1.27-.21,1.27-.21c.36-.06,.63-.34,.69-.69Z"/></g></svg>