<?xml version="1.0" encoding="utf-8"?>
<!-- Generator: Adobe Illustrator 26.1.0, SVG Export Plug-In . SVG Version: 6.00 Build 0)  -->
<svg version="1.1" id="a" xmlns="http://www.w3.org/2000/svg" xmlns:xlink="http://www.w3.org/1999/xlink" x="0px" y="0px"
	 viewBox="0 0 16 16" style="enable-background:new 0 0 16 16;" xml:space="preserve">
<style type="text/css">
	.st0{fill:url(#SVGID_1_);}
	.st1{fill:#0081FF;}
	.st2{filter:url(#Adobe_OpacityMaskFilter);}
	.st3{opacity:0.3;mask:url(#SVGID_00000049218626328475847500000008336897906008211125_);}
	.st4{fill:#FFFFFF;}
	.st5{font-family:'Gilroy-Semibold';}
	.st6{font-size:9.4736px;}
</style>
<g>
	<g>
		
			<linearGradient id="SVGID_1_" gradientUnits="userSpaceOnUse" x1="1.2875" y1="3.2875" x2="14.6905" y2="16.6905" gradientTransform="matrix(1 0 0 -1 0 18)">
			<stop  offset="0" style="stop-color:#00FFFF"/>
			<stop  offset="1" style="stop-color:#0000FF"/>
		</linearGradient>
		<path class="st0" d="M3.2,15.5c-1.5,0-2.7-1.2-2.7-2.7V3.2c0-1.5,1.2-2.7,2.7-2.7h9.6c1.5,0,2.7,1.2,2.7,2.7v9.6
			c0,1.5-1.2,2.7-2.7,2.7H3.2z"/>
		<path class="st1" d="M12.8,1C14,1,15,2,15,3.2v9.6c0,1.2-1,2.2-2.2,2.2H3.2C2,15,1,14,1,12.8V3.2C1,2,2,1,3.2,1H12.8 M12.8,0H3.2
			C1.4,0,0,1.4,0,3.2v9.6C0,14.6,1.4,16,3.2,16h9.6c1.8,0,3.2-1.4,3.2-3.2V3.2C16,1.4,14.6,0,12.8,0L12.8,0z"/>
	</g>
	<defs>
		<filter id="Adobe_OpacityMaskFilter" filterUnits="userSpaceOnUse" x="0" y="0" width="16" height="16">
			<feColorMatrix  type="matrix" values="1 0 0 0 0  0 1 0 0 0  0 0 1 0 0  0 0 0 1 0"/>
		</filter>
	</defs>
	
		<mask maskUnits="userSpaceOnUse" x="0" y="0" width="16" height="16" id="SVGID_00000049218626328475847500000008336897906008211125_">
		<g class="st2">
			
				<image style="overflow:visible;enable-background:new    ;" width="20" height="20" xlink:href="B378E7CB.jpg"  transform="matrix(1 0 0 1 -2 -2)">
			</image>
		</g>
	</mask>
	<g class="st3">
		<path class="st4" d="M3.2,15.5c-1.5,0-2.7-1.2-2.7-2.7V3.2c0-1.5,1.2-2.7,2.7-2.7h9.6c1.5,0,2.7,1.2,2.7,2.7v9.6
			c0,1.5-1.2,2.7-2.7,2.7H3.2z"/>
		<path class="st4" d="M12.8,1C14,1,15,2,15,3.2v9.6c0,1.2-1,2.2-2.2,2.2H3.2C2,15,1,14,1,12.8V3.2C1,2,2,1,3.2,1H12.8 M12.8,0H3.2
			C1.4,0,0,1.4,0,3.2v9.6C0,14.6,1.4,16,3.2,16h9.6c1.8,0,3.2-1.4,3.2-3.2V3.2C16,1.4,14.6,0,12.8,0L12.8,0z"/>
	</g>
</g>
<g>
	<text transform="matrix(1 0 0 1 4.2061 11.2734)" class="st4 st5 st6">Q</text>
</g>
</svg>
