<?xml version="1.0" encoding="utf-8"?>
<!-- Generator: Adobe Illustrator 26.1.0, SVG Export Plug-In . SVG Version: 6.00 Build 0)  -->
<svg version="1.1" id="a" xmlns="http://www.w3.org/2000/svg" xmlns:xlink="http://www.w3.org/1999/xlink" x="0px" y="0px"
	 viewBox="0 0 16 16" style="enable-background:new 0 0 16 16;" xml:space="preserve">
<style type="text/css">
	.st0{fill:url(#SVGID_1_);}
	.st1{fill:#FFFFFF;}
</style>
<linearGradient id="SVGID_1_" gradientUnits="userSpaceOnUse" x1="0" y1="10" x2="16" y2="10" gradientTransform="matrix(1 0 0 -1 0 18)">
	<stop  offset="0" style="stop-color:#FEAF9F"/>
	<stop  offset="1" style="stop-color:#FE6D73"/>
</linearGradient>
<path class="st0" d="M3.9,0h8.3C14.3,0,16,1.7,16,3.9v8.3c0,2.1-1.7,3.9-3.9,3.9H3.9C1.7,16,0,14.3,0,12.1V3.9C0,1.7,1.7,0,3.9,0z"
	/>
<path class="st1" d="M11.1,9.5c-0.1-0.1-0.2-0.2-0.3-0.4c0.1,0,0.3-0.1,0.4-0.1c1.6-0.5,2.7-1.4,2.5-2.1c0,0,0,0,0-0.1
	c0,0,0,0-0.1,0c-0.2,0-0.4-0.1-0.4-0.3c-0.1-0.2,0-0.4,0.2-0.4c0,0,0.1-0.1,0-0.1c0,0,0,0,0,0c-0.2-0.7-1.6-0.9-3.2-0.4
	c-0.2,0.1-0.3,0.1-0.5,0.2c0-0.2,0-0.4,0-0.6c0-1.6-0.5-3-1.2-3c0,0,0,0-0.1,0c0,0-0.1,0-0.1,0.1c0,0.2-0.2,0.3-0.4,0.3
	c-0.2,0-0.3-0.1-0.4-0.3c0,0,0-0.1-0.1-0.1c0,0,0,0,0,0c-0.7,0-1.3,1.3-1.4,2.9c0,0.3,0,0.5,0,0.7C6.2,5.8,6.1,5.8,6,5.8
	C4.5,5.2,3,5.3,2.8,6c0,0,0,0,0,0.1c0,0,0,0.1,0,0.1C3,6.2,3,6.4,3,6.6C2.9,6.8,2.7,6.9,2.6,6.8c0,0-0.1,0-0.1,0c0,0,0,0,0,0
	C2.2,7.5,3.3,8.5,4.8,9.1c0.1,0,0.2,0.1,0.2,0.1C5,9.2,4.9,9.3,4.9,9.4c-1,1.3-1.3,2.7-0.8,3.1c0,0,0,0,0.1,0c0,0,0.1,0,0.1,0
	c0.1-0.1,0.3-0.1,0.5,0c0.1,0.1,0.2,0.3,0.1,0.5c0,0,0,0.1,0,0.1c0,0,0,0,0,0c0.6,0.4,1.8-0.3,2.8-1.6c0.1-0.1,0.2-0.3,0.3-0.4
	c0.1,0.1,0.1,0.2,0.2,0.3c0.9,1.3,2.1,2.1,2.7,1.7c0,0,0,0,0.1,0c0,0,0-0.1,0-0.1c-0.1-0.2,0-0.4,0.1-0.5c0.2-0.1,0.4-0.1,0.5,0
	c0,0,0.1,0,0.1,0c0,0,0,0,0,0C12.2,12.2,12,10.8,11.1,9.5z M7.5,9.4c-0.7-0.2-1.1-1-0.8-1.7c0.2-0.7,1-1.1,1.7-0.8
	c0.7,0.2,1.1,1,0.8,1.7C9,9.3,8.2,9.6,7.5,9.4z"/>
</svg>
