<?xml version="1.0" encoding="UTF-8"?>
<svg id="_Слой_1" data-name="Слой 1" xmlns="http://www.w3.org/2000/svg" viewBox="0 0 1280 640">
  <defs>
    <style>
      .cls-1, .cls-2, .cls-3 {
        stroke-width: 0px;
      }

      .cls-1, .cls-4 {
        fill: #000;
      }

      .cls-2 {
        fill: #305cd8;
      }

      .cls-3, .cls-5 {
        fill: #fff;
      }

      .cls-5 {
        stroke-width: 20px;
      }

      .cls-5, .cls-6, .cls-4 {
        stroke: #000;
        stroke-miterlimit: 10;
      }

      .cls-6 {
        fill: #e8da31;
      }

      .cls-6, .cls-4 {
        stroke-width: 3px;
      }
    </style>
  </defs>
  <rect class="cls-2" x="0" width="1281" height="640"/>
  <path class="cls-1" d="M1124.5,218l-963.8,72.65c-11.35.86-20.98,11.28-21.49,23.29l-3.34,77.66c-.52,12,8.27,21.04,19.62,20.19l963.8-72.65c11.35-.86,20.98-11.28,21.49-23.29l3.34-77.66c.52-12-8.27-21.04-19.62-20.19Z"/>
  <path class="cls-5" d="M1092.1,244.15H205.5c-11.93,0-22.81,9.67-24.29,21.6l-12.23,98.27c-1.48,11.93,6.98,21.6,18.92,21.6h886.6c11.93,0,22.81-9.67,24.29-21.6l12.23-98.27c1.48-11.93-6.98-21.6-18.92-21.6Z"/>
  <path class="cls-4" d="M1044.98,363.59l-578.31,9.65c-7.78.13-14.83,3.31-15.73,7.11l-7.46,31.28c-.91,3.8,4.67,6.77,12.45,6.64l578.31-9.65c7.78-.13,14.83-3.31,15.73-7.11l7.46-31.28c.91-3.8-4.67-6.77-12.45-6.64Z"/>
  <path class="cls-6" d="M1032.3,353.72l-555,29.06c-7.47.39-14.12,3.81-14.85,7.64l-6.03,31.51c-.73,3.83,4.73,6.61,12.2,6.22l555-29.06c7.47-.39,14.12-3.81,14.85-7.64l6.03-31.51c.73-3.83-4.73-6.61-12.2-6.22Z"/>
  <g>
    <path class="cls-1" d="M239.29,342.01l-7.6-47.26h17.8l5.27,38.36h-9.24l20.73-38.36h16.76l5.36,38.36h-9.16l20.65-38.36h18.14l-25.49,47.26h-19.27l-4.84-30.41h5.79l-15.72,30.41h-19.18Z"/>
    <path class="cls-1" d="M338.99,342.88c-5.18,0-9.72-.89-13.61-2.68-3.89-1.78-6.93-4.32-9.11-7.6-2.19-3.28-3.28-7.14-3.28-11.58,0-5.18,1.21-9.82,3.63-13.91,2.42-4.09,5.83-7.31,10.24-9.68,4.41-2.36,9.55-3.54,15.42-3.54,5.07,0,9.39.89,12.96,2.68,3.57,1.79,6.31,4.23,8.21,7.34,1.9,3.11,2.85,6.71,2.85,10.8,0,1.44-.1,2.85-.3,4.23-.2,1.38-.45,2.71-.73,3.97h-36.72l1.81-9.42h25.92l-8.12,2.5c.46-1.84.45-3.41-.04-4.71-.49-1.3-1.31-2.3-2.46-3.02-1.15-.72-2.56-1.08-4.23-1.08-2.36,0-4.23.63-5.62,1.9-1.38,1.27-2.38,2.91-2.98,4.92-.6,2.02-.91,4.12-.91,6.31,0,2.94.79,5.03,2.38,6.26,1.58,1.24,3.9,1.86,6.96,1.86,1.78,0,3.57-.27,5.36-.82,1.78-.55,3.43-1.37,4.92-2.46l8.12,11.84c-3.23,2.19-6.58,3.71-10.06,4.58-3.49.86-7.01,1.3-10.58,1.3Z"/>
    <path class="cls-1" d="M366.81,342.01l12.79-64.1h19.52l-12.79,64.1h-19.53Z"/>
    <path class="cls-1" d="M422.79,342.88c-5.18,0-9.71-.91-13.56-2.72-3.86-1.81-6.85-4.36-8.99-7.65-2.13-3.28-3.2-7.11-3.2-11.49,0-5.18,1.27-9.82,3.8-13.91,2.53-4.09,6.05-7.31,10.54-9.68,4.49-2.36,9.65-3.54,15.46-3.54s10.54,1.24,14.69,3.71c4.15,2.48,7.05,5.85,8.73,10.11l-16.59,7.6c-.81-2.19-1.89-3.74-3.24-4.67-1.35-.92-2.87-1.38-4.54-1.38s-3.28.45-4.67,1.34c-1.38.89-2.46,2.12-3.24,3.67-.78,1.55-1.17,3.4-1.17,5.53,0,2.25.63,4.09,1.9,5.53,1.27,1.44,3.11,2.16,5.53,2.16,1.9,0,3.57-.46,5.01-1.38,1.44-.92,2.71-2.48,3.8-4.67l14.25,8.29c-2.3,4.15-5.57,7.37-9.81,9.68-4.23,2.3-9.14,3.46-14.73,3.46Z"/>
    <path class="cls-1" d="M475.32,342.88c-5.18,0-9.71-.91-13.56-2.72-3.86-1.81-6.84-4.36-8.94-7.65-2.1-3.28-3.15-7.11-3.15-11.49,0-5.18,1.27-9.82,3.8-13.91,2.53-4.09,6.02-7.31,10.45-9.68,4.43-2.36,9.5-3.54,15.21-3.54,5.24,0,9.78.91,13.61,2.72,3.83,1.81,6.8,4.35,8.9,7.6,2.1,3.25,3.15,7.1,3.15,11.53,0,5.18-1.27,9.82-3.8,13.91-2.54,4.09-6,7.32-10.41,9.68-4.41,2.36-9.49,3.54-15.25,3.54ZM476.44,327.67c1.73,0,3.23-.45,4.49-1.34,1.27-.89,2.26-2.16,2.98-3.8.72-1.64,1.08-3.58,1.08-5.83,0-2.02-.6-3.79-1.81-5.31-1.21-1.53-2.94-2.29-5.18-2.29-1.67,0-3.15.45-4.45,1.34-1.3.89-2.3,2.16-3.02,3.8-.72,1.64-1.08,3.58-1.08,5.83s.62,4.08,1.86,5.49c1.24,1.41,2.95,2.12,5.14,2.12Z"/>
    <path class="cls-1" d="M576.83,293.89c3.63,0,6.8.82,9.5,2.46,2.71,1.64,4.67,4.09,5.87,7.34,1.21,3.25,1.32,7.33.35,12.23l-5.18,26.09h-19.53l4.75-23.59c.58-2.82.46-4.88-.35-6.18-.81-1.3-1.99-1.94-3.54-1.94-1.79,0-3.34.62-4.67,1.86-1.33,1.24-2.3,3.38-2.94,6.44l-4.67,23.41h-19.53l4.75-23.59c.58-2.82.46-4.88-.35-6.18-.81-1.3-1.99-1.94-3.54-1.94-1.79,0-3.36.65-4.71,1.94-1.35,1.3-2.35,3.53-2.98,6.7l-4.58,23.07h-19.53l9.42-47.26h18.4l-1.99,9.94-2.85-.35c2.13-3.57,4.75-6.21,7.86-7.91,3.11-1.7,6.28-2.55,9.5-2.55,2.59,0,5.02.5,7.3,1.51,2.27,1.01,4.19,2.54,5.75,4.58,1.55,2.05,2.48,4.65,2.76,7.82l-5.1-1.64c2.02-3.86,4.72-6.87,8.12-9.03,3.4-2.16,7.29-3.24,11.66-3.24Z"/>
    <path class="cls-1" d="M624.43,342.88c-5.18,0-9.72-.89-13.61-2.68-3.89-1.78-6.93-4.32-9.11-7.6-2.19-3.28-3.28-7.14-3.28-11.58,0-5.18,1.21-9.82,3.63-13.91,2.42-4.09,5.83-7.31,10.24-9.68,4.41-2.36,9.55-3.54,15.42-3.54,5.07,0,9.39.89,12.96,2.68,3.57,1.79,6.31,4.23,8.21,7.34,1.9,3.11,2.85,6.71,2.85,10.8,0,1.44-.1,2.85-.3,4.23-.2,1.38-.45,2.71-.73,3.97h-36.72l1.81-9.42h25.92l-8.12,2.5c.46-1.84.45-3.41-.04-4.71-.49-1.3-1.31-2.3-2.46-3.02-1.15-.72-2.56-1.08-4.23-1.08-2.36,0-4.23.63-5.62,1.9-1.38,1.27-2.38,2.91-2.98,4.92-.6,2.02-.91,4.12-.91,6.31,0,2.94.79,5.03,2.38,6.26,1.58,1.24,3.9,1.86,6.95,1.86,1.79,0,3.57-.27,5.36-.82,1.79-.55,3.43-1.37,4.92-2.46l8.12,11.84c-3.23,2.19-6.58,3.71-10.06,4.58-3.49.86-7.01,1.3-10.58,1.3Z"/>
    <path class="cls-1" d="M699.77,342.88c-3.11,0-6.16-.85-9.16-2.55-3-1.7-5.46-4.18-7.39-7.43-1.93-3.25-2.89-7.21-2.89-11.88,0-3.92.66-7.52,1.99-10.8,1.32-3.28,3.15-6.15,5.49-8.6,2.33-2.45,5.01-4.35,8.03-5.7,3.02-1.35,6.23-2.03,9.63-2.03,3.68,0,6.88.75,9.59,2.25,2.71,1.5,4.65,4.02,5.83,7.56,1.18,3.54,1.28,8.42.3,14.64-.81,5.07-2.17,9.45-4.1,13.13-1.93,3.69-4.33,6.51-7.21,8.47-2.88,1.96-6.25,2.94-10.11,2.94ZM707.11,327.5c1.73,0,3.23-.45,4.49-1.34,1.27-.89,2.26-2.14,2.98-3.76.72-1.61,1.08-3.51,1.08-5.7s-.62-3.97-1.86-5.36c-1.24-1.38-2.95-2.07-5.14-2.07-1.67,0-3.15.45-4.45,1.34-1.3.89-2.3,2.15-3.02,3.76-.72,1.61-1.08,3.51-1.08,5.7s.62,3.97,1.86,5.36c1.24,1.38,2.95,2.07,5.14,2.07ZM711.69,342.01l1.3-6.39,3.2-17.28,2.5-17.11,1.3-6.48h19.53l-9.42,47.26h-18.4Z"/>
    <path class="cls-1" d="M738.65,342.01l12.79-64.1h19.53l-4.67,23.33-4.23,17.11-2.94,14.17-1.9,9.5h-18.57ZM772.69,342.88c-3.11,0-5.9-.53-8.38-1.6-2.48-1.07-4.42-2.85-5.83-5.36-1.41-2.51-2.12-5.89-2.12-10.15,0-4.03.46-7.95,1.38-11.75.92-3.8,2.3-7.21,4.15-10.24,1.84-3.02,4.15-5.43,6.91-7.21,2.76-1.79,5.96-2.68,9.59-2.68,3.17,0,6.23.85,9.2,2.55,2.97,1.7,5.41,4.16,7.34,7.39,1.93,3.23,2.89,7.2,2.89,11.92,0,3.86-.66,7.44-1.99,10.76-1.33,3.31-3.15,6.19-5.49,8.64-2.33,2.45-5.01,4.35-8.04,5.7-3.02,1.35-6.24,2.03-9.63,2.03ZM769.49,327.5c1.73,0,3.22-.45,4.49-1.34,1.27-.89,2.26-2.14,2.98-3.76.72-1.61,1.08-3.51,1.08-5.7s-.62-3.97-1.86-5.36c-1.24-1.38-2.95-2.07-5.14-2.07-1.67,0-3.15.45-4.45,1.34-1.3.89-2.3,2.15-3.02,3.76-.72,1.61-1.08,3.51-1.08,5.7s.62,3.97,1.86,5.36c1.24,1.38,2.95,2.07,5.14,2.07Z"/>
    <path class="cls-1" d="M826.85,342.88c-5.18,0-9.71-.91-13.56-2.72-3.86-1.81-6.84-4.36-8.94-7.65-2.1-3.28-3.15-7.11-3.15-11.49,0-5.18,1.27-9.82,3.8-13.91,2.53-4.09,6.02-7.31,10.45-9.68,4.43-2.36,9.5-3.54,15.21-3.54,5.24,0,9.78.91,13.61,2.72,3.83,1.81,6.8,4.35,8.9,7.6,2.1,3.25,3.15,7.1,3.15,11.53,0,5.18-1.27,9.82-3.8,13.91-2.54,4.09-6,7.32-10.41,9.68-4.41,2.36-9.49,3.54-15.25,3.54ZM827.98,327.67c1.73,0,3.22-.45,4.49-1.34,1.27-.89,2.26-2.16,2.98-3.8.72-1.64,1.08-3.58,1.08-5.83,0-2.02-.6-3.79-1.81-5.31-1.21-1.53-2.94-2.29-5.18-2.29-1.67,0-3.15.45-4.45,1.34-1.3.89-2.3,2.16-3.02,3.8-.72,1.64-1.08,3.58-1.08,5.83s.62,4.08,1.86,5.49c1.24,1.41,2.95,2.12,5.14,2.12Z"/>
    <path class="cls-1" d="M879.12,342.88c-3.11,0-6.16-.85-9.16-2.55-3-1.7-5.46-4.18-7.39-7.43-1.93-3.25-2.89-7.21-2.89-11.88,0-3.92.66-7.52,1.99-10.8,1.32-3.28,3.15-6.15,5.49-8.6,2.33-2.45,5.01-4.35,8.03-5.7,3.02-1.35,6.23-2.03,9.63-2.03,3.68,0,6.88.75,9.59,2.25,2.71,1.5,4.65,4.02,5.83,7.56,1.18,3.54,1.28,8.42.3,14.64-.81,5.07-2.17,9.45-4.1,13.13-1.93,3.69-4.33,6.51-7.21,8.47-2.88,1.96-6.25,2.94-10.11,2.94ZM886.47,327.5c1.73,0,3.23-.45,4.49-1.34,1.27-.89,2.26-2.14,2.98-3.76.72-1.61,1.08-3.51,1.08-5.7s-.62-3.97-1.86-5.36c-1.24-1.38-2.95-2.07-5.14-2.07-1.67,0-3.15.45-4.45,1.34-1.3.89-2.3,2.15-3.02,3.76-.72,1.61-1.08,3.51-1.08,5.7s.62,3.97,1.86,5.36c1.24,1.38,2.95,2.07,5.14,2.07ZM891.04,342.01l1.3-6.39,3.2-17.28,2.5-17.11,1.3-6.48h19.53l-9.42,47.26h-18.4Z"/>
    <path class="cls-1" d="M918,342.01l9.42-47.26h18.4l-2.68,13.39-1.81-3.8c1.96-3.74,4.68-6.42,8.16-8.04,3.48-1.61,7.47-2.42,11.97-2.42l-3.46,17.28c-.81-.12-1.54-.2-2.2-.26s-1.34-.09-2.03-.09c-3.23,0-5.83.72-7.82,2.16-1.99,1.44-3.33,3.83-4.02,7.17l-4.41,21.86h-19.52Z"/>
    <path class="cls-1" d="M979,342.88c-3.11,0-6.16-.85-9.16-2.55-3-1.7-5.46-4.18-7.39-7.43s-2.89-7.21-2.89-11.88c0-3.92.66-7.52,1.99-10.8s3.15-6.15,5.49-8.6c2.33-2.45,5.01-4.35,8.04-5.7,3.02-1.35,6.23-2.03,9.63-2.03,3.17,0,5.97.53,8.42,1.6,2.45,1.07,4.38,2.85,5.79,5.36,1.41,2.51,2.12,5.89,2.12,10.15,0,4.03-.46,7.95-1.38,11.75-.92,3.8-2.3,7.21-4.15,10.24-1.84,3.02-4.15,5.43-6.91,7.21-2.76,1.79-5.96,2.68-9.59,2.68ZM986.34,327.5c1.73,0,3.22-.45,4.49-1.34,1.27-.89,2.26-2.14,2.98-3.76.72-1.61,1.08-3.51,1.08-5.7s-.62-3.97-1.86-5.36c-1.24-1.38-2.95-2.07-5.14-2.07-1.67,0-3.15.45-4.45,1.34-1.3.89-2.3,2.15-3.02,3.76-.72,1.61-1.08,3.51-1.08,5.7s.62,3.97,1.86,5.36c1.24,1.38,2.95,2.07,5.14,2.07ZM990.83,342.01l1.3-6.39,3.2-17.28,2.51-17.11,4.67-23.33h19.53l-12.79,64.1h-18.4Z"/>
    <path class="cls-1" d="M1028.41,342.88c-3.17,0-5.76-.92-7.78-2.76-2.02-1.84-3.02-4.09-3.02-6.74,0-3.22,1.15-5.88,3.46-7.95,2.3-2.07,5.15-3.11,8.55-3.11s5.83.89,7.82,2.68c1.99,1.79,2.98,4,2.98,6.65,0,2.07-.53,3.96-1.6,5.66-1.07,1.7-2.49,3.05-4.28,4.06-1.79,1.01-3.83,1.51-6.13,1.51ZM1024,318.86l3.54-37.32h23.33l-11.32,37.32h-15.55Z"/>
  </g>
  <g>
    <path class="cls-3" d="M1087.96,242.37l.94-4.72h-1.87l.34-1.67h5.9l-.34,1.67h-1.87l-.94,4.72h-2.16Z"/>
    <path class="cls-3" d="M1092.55,242.37l1.28-6.39h1.75l1.71,4.17h-.93l3.29-4.17h1.83l-1.26,6.39h-1.96l.67-3.43.31-.02-2.21,2.88h-.95l-1.24-2.89.37.03-.69,3.43h-1.96Z"/>
  </g>
  <g>
    <path class="cls-1" d="M488.15,415.57l11.88-20.32,2.05-.11,6.08,19.38-2.08.11-5.57-18.25.84-.04-10.96,19.12-2.24.12ZM492.45,410.09l.87-1.73,11.42-.6.4,1.67-12.68.66Z"/>
    <path class="cls-1" d="M520.34,398.97c1.33-.07,2.43.13,3.31.6.88.47,1.51,1.18,1.88,2.14.38.96.46,2.11.25,3.48l-1.24,8.48-1.99.1,1.24-8.51c.22-1.48,0-2.61-.64-3.4-.65-.79-1.74-1.15-3.28-1.07-1.57.08-2.85.58-3.85,1.5-.99.91-1.62,2.24-1.89,3.98l-1.16,8-1.99.1,2.15-14.89,1.91-.1-.62,4.28-.46-.71c.64-1.31,1.52-2.28,2.62-2.92,1.1-.64,2.35-1,3.76-1.07Z"/>
    <path class="cls-1" d="M536.25,413.2c-1.25.07-2.38-.13-3.38-.58-1-.45-1.79-1.13-2.39-2.04-.59-.91-.92-2.01-.99-3.3-.07-1.25.08-2.42.44-3.51.36-1.09.89-2.05,1.59-2.88.71-.83,1.56-1.49,2.56-1.98,1-.48,2.09-.76,3.29-.82,1.29-.07,2.4.11,3.32.52.92.41,1.65,1.04,2.18,1.88.53.84.83,1.88.9,3.12.09,1.78-.15,3.38-.73,4.79-.58,1.42-1.45,2.55-2.61,3.4-1.16.85-2.55,1.31-4.18,1.4ZM536.58,411.41c1.23-.06,2.32-.42,3.25-1.06.93-.64,1.65-1.5,2.15-2.57.5-1.08.71-2.28.64-3.61-.08-1.46-.56-2.57-1.46-3.33-.89-.76-2.11-1.1-3.64-1.02-1.22.06-2.29.42-3.24,1.07-.94.65-1.66,1.51-2.16,2.58-.5,1.07-.71,2.27-.64,3.62.08,1.44.56,2.54,1.45,3.3.89.76,2.11,1.1,3.64,1.02ZM541.52,412.78l.62-4.28.69-3.02.12-3.1.67-4.48,1.99-.1-2.17,14.89-1.91.1Z"/>
    <path class="cls-1" d="M548.61,399.29l.22-1.67,9.12-.48-.25,1.67-9.09.48ZM553.68,412.28c-.84.04-1.57-.1-2.19-.43-.62-.33-1.06-.83-1.33-1.49s-.33-1.46-.2-2.41l1.98-13.75,1.99-.1-1.98,13.67c-.14.93-.03,1.63.32,2.12.35.49.97.71,1.85.66.41-.02.81-.1,1.2-.25.39-.14.73-.35,1.04-.63l.56,1.49c-.45.38-.96.66-1.53.83-.57.17-1.14.27-1.7.3Z"/>
    <path class="cls-1" d="M566.42,411.62c-1.37.07-2.56-.12-3.59-.58-1.03-.46-1.84-1.15-2.44-2.05-.6-.91-.93-2-1-3.27-.09-1.68.2-3.21.86-4.56.66-1.36,1.62-2.45,2.87-3.27,1.25-.83,2.7-1.28,4.35-1.37,1.37-.07,2.56.12,3.59.57,1.03.45,1.84,1.13,2.44,2.04.6.91.94,2,1,3.27.09,1.68-.2,3.2-.86,4.56-.66,1.36-1.61,2.45-2.85,3.29-1.24.83-2.7,1.29-4.36,1.38ZM566.47,409.84c1.23-.06,2.32-.42,3.25-1.06.93-.64,1.65-1.5,2.15-2.58.5-1.08.71-2.28.64-3.61-.08-1.46-.56-2.57-1.46-3.33-.89-.76-2.11-1.1-3.64-1.02-1.22.06-2.29.42-3.24,1.07-.94.65-1.66,1.51-2.16,2.58s-.71,2.27-.64,3.62c.08,1.44.56,2.54,1.45,3.3.89.76,2.11,1.1,3.64,1.02Z"/>
    <path class="cls-1" d="M577.44,410.9l3.06-21.04,1.99-.1-3.06,21.04-1.99.1Z"/>
    <path class="cls-1" d="M584.52,416.13c-.69.04-1.36-.05-2.01-.25-.65-.2-1.17-.5-1.57-.89l.99-1.52c.34.32.72.56,1.16.73.44.17.93.23,1.47.2.64-.03,1.21-.24,1.73-.61.51-.38,1.04-1.03,1.57-1.95l1.37-2.35.24-.29,8.04-14.13,2.05-.11-9.9,17.21c-.57.97-1.11,1.73-1.62,2.29-.51.56-1.05.97-1.61,1.22-.56.25-1.19.4-1.9.44ZM588.97,410.72l-4.58-14.96,2.02-.11,4.02,13.35-1.46,1.71Z"/>
    <path class="cls-1" d="M610.02,409.19l-2.05.11,2.9-19.85,13.47-.71-.27,1.81-11.42.6-2.63,18.03ZM611.31,398.97l10.38-.54-.27,1.81-10.41.55.3-1.82Z"/>
    <path class="cls-1" d="M625.03,408.41l2.15-14.88,1.91-.1-.61,4.39-.26-.75c.59-1.32,1.4-2.32,2.45-2.97,1.04-.66,2.37-1.03,3.98-1.11l-.26,1.96c-.09,0-.18,0-.27,0-.08,0-.18,0-.29,0-1.57.08-2.84.6-3.82,1.57-.97.96-1.6,2.37-1.88,4.22l-1.1,7.57-1.99.1Z"/>
    <path class="cls-1" d="M642.5,407.63c-1.37.07-2.56-.12-3.59-.59s-1.84-1.15-2.44-2.05c-.6-.91-.93-2-1-3.27-.09-1.68.2-3.2.86-4.56.66-1.36,1.62-2.45,2.87-3.27s2.7-1.28,4.35-1.37c1.37-.07,2.56.12,3.59.57s1.84,1.13,2.44,2.04.93,2,1,3.27c.09,1.68-.2,3.2-.86,4.56-.66,1.36-1.61,2.45-2.85,3.29s-2.69,1.29-4.36,1.38ZM642.54,405.86c1.24-.06,2.32-.42,3.25-1.06s1.65-1.5,2.15-2.58c.5-1.08.71-2.28.64-3.61-.08-1.46-.56-2.57-1.45-3.33-.89-.76-2.11-1.1-3.64-1.02-1.22.06-2.29.42-3.24,1.07s-1.66,1.51-2.16,2.58c-.5,1.07-.71,2.27-.64,3.62.08,1.44.56,2.54,1.45,3.3.89.76,2.11,1.1,3.64,1.02Z"/>
    <path class="cls-1" d="M653.52,406.91l3.06-21.04,1.99-.1-3.06,21.04-1.99.1Z"/>
    <path class="cls-1" d="M667.64,406.32c-1.37.07-2.56-.12-3.59-.59s-1.84-1.15-2.44-2.05c-.6-.91-.93-2-1-3.27-.09-1.68.2-3.2.86-4.56.66-1.36,1.62-2.45,2.87-3.27s2.7-1.28,4.35-1.37c1.37-.07,2.56.12,3.59.57,1.03.45,1.84,1.13,2.44,2.04.6.91.93,2,1,3.27.09,1.68-.2,3.2-.86,4.56-.66,1.36-1.61,2.45-2.85,3.29s-2.69,1.29-4.36,1.38ZM667.69,404.54c1.23-.06,2.32-.42,3.25-1.06.93-.64,1.65-1.5,2.15-2.58.5-1.08.71-2.28.64-3.61-.08-1.46-.56-2.57-1.46-3.33-.89-.76-2.11-1.1-3.64-1.02-1.22.06-2.29.42-3.24,1.07-.94.65-1.66,1.51-2.16,2.58-.5,1.07-.71,2.27-.64,3.62.08,1.44.56,2.54,1.45,3.3.89.76,2.11,1.1,3.64,1.02Z"/>
    <path class="cls-1" d="M682.06,405.42l-4.42-14.54,1.99-.1,4.03,13.49-.95.05,8.04-14.13,2.08-.11-8.74,15.23-2.02.11Z"/>
    <path class="cls-1" d="M690.66,409.08l2-5.31.26,1.22c-.41.02-.76-.1-1.06-.37-.3-.27-.46-.6-.48-1.02-.02-.47.12-.86.42-1.17.3-.32.66-.49,1.07-.51.41-.02.76.1,1.05.35.29.26.44.6.46,1.03.01.24-.02.48-.09.7-.07.22-.19.49-.36.82l-1.92,4.18-1.35.07Z"/>
    <path class="cls-1" d="M712.09,403.99c-1.25.07-2.38-.13-3.38-.58-1-.45-1.79-1.13-2.39-2.04-.59-.91-.92-2-.99-3.3-.07-1.25.08-2.42.44-3.51.36-1.09.89-2.05,1.59-2.88.71-.83,1.56-1.49,2.56-1.98,1-.48,2.09-.76,3.29-.82,1.29-.07,2.4.1,3.32.52.92.41,1.65,1.04,2.18,1.88.53.84.83,1.88.9,3.12.09,1.78-.15,3.38-.73,4.79-.58,1.42-1.45,2.55-2.61,3.4-1.16.85-2.55,1.32-4.18,1.4ZM712.42,402.2c1.24-.06,2.32-.42,3.25-1.06.93-.64,1.65-1.5,2.15-2.58.5-1.08.71-2.28.64-3.61-.08-1.46-.56-2.57-1.45-3.33-.89-.76-2.11-1.1-3.64-1.02-1.22.06-2.29.42-3.24,1.07-.94.65-1.66,1.51-2.16,2.58-.5,1.07-.71,2.27-.64,3.62.08,1.44.56,2.54,1.45,3.3s2.11,1.1,3.64,1.02ZM717.36,403.57l.62-4.28.69-3.02.12-3.1.67-4.48,1.99-.1-2.18,14.89-1.91.1Z"/>
    <path class="cls-1" d="M734.64,402.67l-2.05.11,2.9-19.85,13.47-.71-.27,1.81-11.42.6-2.63,18.03ZM735.94,392.44l10.38-.54-.27,1.82-10.41.54.3-1.82Z"/>
    <path class="cls-1" d="M755.61,401.71c-1.29.07-2.38-.14-3.25-.62-.88-.48-1.5-1.2-1.87-2.15-.37-.96-.47-2.1-.29-3.45l1.24-8.48,1.99-.1-1.24,8.48c-.2,1.47.01,2.61.66,3.41.64.8,1.71,1.16,3.21,1.08,1.55-.08,2.83-.58,3.82-1.49.99-.92,1.62-2.24,1.89-3.98l1.16-8,1.99-.1-2.18,14.89-1.91.1.62-4.28.46.68c-.63,1.31-1.49,2.29-2.59,2.94-1.1.65-2.33,1.01-3.7,1.08Z"/>
    <path class="cls-1" d="M768.29,400.91l3.06-21.04,1.99-.1-3.06,21.04-1.99.1Z"/>
    <path class="cls-1" d="M775.84,400.51l3.06-21.04,1.99-.1-3.06,21.04-1.99.1Z"/>
    <path class="cls-1" d="M783.29,393.37l.25-1.76,7.35-.38-.25,1.76-7.35.38Z"/>
    <path class="cls-1" d="M799.76,399.43c-.95.05-1.9,0-2.84-.17-.94-.17-1.79-.42-2.56-.77-.77-.34-1.39-.74-1.86-1.18l.92-1.68c.47.44,1.05.83,1.74,1.15.68.32,1.43.56,2.25.71.81.15,1.62.21,2.43.17,1.16-.06,2.17-.26,3.02-.61.85-.34,1.51-.82,1.97-1.42.46-.6.66-1.32.62-2.14-.03-.65-.25-1.17-.64-1.56-.4-.38-.9-.68-1.51-.91-.61-.22-1.29-.42-2.03-.58-.74-.17-1.48-.35-2.22-.56-.74-.2-1.43-.47-2.05-.79-.63-.32-1.14-.77-1.53-1.33-.4-.56-.62-1.28-.66-2.16-.06-1.23.22-2.31.84-3.24.63-.92,1.52-1.65,2.67-2.18,1.15-.53,2.5-.83,4.03-.91,1.16-.06,2.29.02,3.38.25,1.09.22,2.02.6,2.8,1.12l-.78,1.73c-.74-.49-1.57-.84-2.5-1.06-.93-.22-1.9-.31-2.91-.25-1.14.06-2.13.27-2.98.63-.84.36-1.49.85-1.93,1.47s-.65,1.33-.6,2.16c.03.66.24,1.18.63,1.57.39.39.89.7,1.51.93.62.23,1.3.43,2.04.61.74.18,1.48.36,2.22.56.74.2,1.43.45,2.05.76.62.32,1.14.74,1.54,1.27.4.53.63,1.23.67,2.09.07,1.25-.22,2.34-.87,3.27s-1.56,1.65-2.74,2.17c-1.18.52-2.55.82-4.1.9Z"/>
    <path class="cls-1" d="M810.48,385.58l.22-1.67,9.12-.48-.25,1.67-9.09.48ZM815.55,398.57c-.84.04-1.57-.1-2.19-.43-.62-.33-1.06-.83-1.33-1.49s-.33-1.46-.2-2.41l1.98-13.75,1.99-.1-1.99,13.67c-.14.93-.03,1.63.32,2.12.35.49.97.71,1.85.66.41-.02.81-.1,1.2-.25.39-.14.73-.35,1.04-.63l.56,1.49c-.45.38-.96.65-1.53.83-.57.17-1.14.27-1.7.3Z"/>
    <path class="cls-1" d="M828.01,397.92c-1.25.07-2.38-.13-3.38-.58-1-.45-1.79-1.13-2.39-2.04-.59-.91-.92-2-.99-3.3-.07-1.25.08-2.42.44-3.51.36-1.09.89-2.05,1.59-2.88.71-.83,1.56-1.49,2.56-1.98,1-.48,2.09-.76,3.29-.82,1.29-.07,2.4.1,3.32.52.92.41,1.65,1.04,2.18,1.88.53.84.83,1.88.9,3.12.09,1.78-.15,3.38-.73,4.79-.58,1.42-1.45,2.55-2.61,3.4-1.16.85-2.55,1.32-4.18,1.4ZM828.34,396.13c1.24-.06,2.32-.42,3.25-1.06.93-.64,1.65-1.5,2.14-2.58.5-1.08.71-2.28.64-3.61-.08-1.46-.56-2.57-1.45-3.33-.89-.76-2.11-1.1-3.64-1.02-1.22.06-2.29.42-3.24,1.07-.94.65-1.66,1.51-2.16,2.58-.5,1.07-.71,2.27-.64,3.62.08,1.44.56,2.54,1.45,3.3s2.11,1.1,3.64,1.02ZM833.28,397.5l.62-4.28.69-3.02.12-3.1.67-4.48,1.99-.1-2.18,14.89-1.91.1Z"/>
    <path class="cls-1" d="M847.43,396.9c-1.4.07-2.63-.12-3.67-.58s-1.87-1.14-2.47-2.05c-.6-.91-.93-2-1-3.27-.09-1.68.2-3.21.86-4.56.66-1.36,1.62-2.45,2.88-3.27,1.26-.83,2.72-1.28,4.39-1.37,1.37-.07,2.55.12,3.56.56s1.81,1.14,2.4,2.08l-1.63,1.07c-.45-.73-1.05-1.25-1.78-1.57-.74-.32-1.61-.45-2.62-.4-1.23.07-2.32.42-3.26,1.07-.94.65-1.66,1.51-2.16,2.58s-.71,2.27-.64,3.62c.08,1.44.56,2.54,1.45,3.3.89.76,2.12,1.1,3.7,1.02.95-.05,1.83-.28,2.62-.69.79-.41,1.44-.97,1.92-1.69l1.49,1.02c-.59.91-1.42,1.65-2.5,2.2-1.08.55-2.25.86-3.53.93Z"/>
    <path class="cls-1" d="M856.32,396.3l3.06-21.04,1.99-.1-3.06,21.04-1.99.1ZM858.5,392.24l.27-2.46,10.28-8.92,2.83-.15-7.73,6.68-1.05.9-4.61,3.96ZM867.83,395.69l-5.06-7.42,1.3-1.56,6.09,8.86-2.33.12Z"/>
    <path class="cls-1" d="M880.65,395.02l2.9-19.85,7.46-.39c1.98-.1,3.68.14,5.09.73s2.51,1.46,3.29,2.61c.78,1.15,1.22,2.54,1.3,4.17.09,1.72-.11,3.31-.61,4.77-.5,1.46-1.25,2.73-2.28,3.82-1.02,1.09-2.27,1.95-3.73,2.59-1.47.64-3.13,1.01-4.98,1.1l-8.45.44ZM882.97,393.1l6.09-.32c2.08-.11,3.85-.62,5.31-1.54,1.46-.92,2.56-2.14,3.3-3.65.74-1.51,1.06-3.21.96-5.1-.07-1.25-.39-2.34-.99-3.25-.59-.92-1.45-1.61-2.57-2.08-1.12-.47-2.52-.66-4.18-.57l-5.56.29-2.36,16.22Z"/>
    <path class="cls-1" d="M910.15,393.62c-1.4.07-2.64-.12-3.7-.58-1.07-.46-1.9-1.14-2.5-2.05-.6-.91-.94-2.01-1-3.3-.09-1.68.19-3.2.83-4.55.64-1.35,1.56-2.43,2.76-3.25,1.19-.82,2.57-1.28,4.12-1.36,1.31-.07,2.45.12,3.43.57.98.45,1.76,1.12,2.34,2.03.58.91.91,2.02.98,3.33.02.3.01.6,0,.91-.02.31-.05.61-.09.89l-12.94.68.17-1.5,11.76-.62-.78.6c.12-1.19-.01-2.18-.41-2.96-.4-.79-.98-1.37-1.74-1.75-.76-.38-1.66-.55-2.69-.49-1.2.06-2.25.41-3.15,1.05-.91.64-1.59,1.49-2.06,2.56-.47,1.07-.67,2.29-.59,3.67.08,1.48.56,2.59,1.46,3.34.89.75,2.19,1.08,3.89.99.99-.05,1.9-.26,2.72-.64.83-.37,1.49-.86,2.01-1.47l.97,1.38c-.66.73-1.49,1.31-2.51,1.75-1.02.44-2.11.69-3.27.75Z"/>
    <path class="cls-1" d="M923.89,392.76l-4.42-14.54,1.99-.1,4.03,13.49-.95.05,8.04-14.13,2.08-.11-8.74,15.23-2.02.11Z"/>
    <path class="cls-1" d="M941.61,391.97c-1.4.07-2.64-.12-3.7-.58-1.07-.46-1.9-1.14-2.5-2.05-.6-.91-.94-2-1-3.3-.09-1.68.19-3.2.83-4.55.64-1.35,1.56-2.43,2.76-3.25,1.19-.82,2.57-1.28,4.12-1.36,1.31-.07,2.46.12,3.43.57.98.45,1.76,1.12,2.34,2.03.58.91.91,2.02.98,3.33.02.3.01.6,0,.91-.02.31-.05.61-.09.89l-12.94.68.17-1.5,11.76-.62-.78.6c.12-1.19-.01-2.17-.41-2.96-.4-.79-.98-1.37-1.74-1.75-.76-.38-1.66-.55-2.68-.49-1.2.06-2.25.41-3.15,1.05-.9.64-1.59,1.49-2.06,2.56s-.67,2.29-.6,3.67c.08,1.48.56,2.59,1.46,3.34.89.75,2.19,1.08,3.89.99.99-.05,1.9-.26,2.72-.64.83-.37,1.49-.86,2.01-1.47l.97,1.38c-.66.73-1.49,1.31-2.51,1.75-1.02.44-2.11.69-3.27.75Z"/>
    <path class="cls-1" d="M951.81,391.3l3.06-21.04,1.99-.1-3.06,21.04-1.99.1Z"/>
    <path class="cls-1" d="M965.94,390.7c-1.37.07-2.56-.12-3.59-.59s-1.84-1.15-2.44-2.05c-.6-.91-.94-2-1-3.27-.09-1.68.2-3.2.86-4.56.66-1.36,1.62-2.45,2.87-3.27s2.7-1.28,4.35-1.37c1.37-.07,2.56.12,3.59.57,1.03.45,1.84,1.13,2.44,2.04.6.91.93,2,1,3.27.09,1.68-.2,3.2-.86,4.56-.66,1.36-1.61,2.45-2.85,3.29-1.24.83-2.69,1.29-4.36,1.38ZM965.98,388.92c1.23-.06,2.32-.42,3.25-1.06s1.65-1.5,2.14-2.57.71-2.28.64-3.61c-.08-1.46-.56-2.57-1.45-3.33-.89-.76-2.11-1.1-3.64-1.02-1.22.06-2.29.42-3.24,1.07s-1.66,1.51-2.16,2.58c-.5,1.07-.71,2.28-.64,3.62.08,1.44.56,2.54,1.45,3.3.89.76,2.11,1.1,3.64,1.02Z"/>
    <path class="cls-1" d="M976.15,395.48l2.96-20.39,1.91-.1-.62,4.28-.66,2.99-.15,3.1-1.45,10.01-1.99.1ZM985.16,389.69c-1.27.07-2.37-.1-3.3-.52-.93-.41-1.66-1.04-2.18-1.88-.52-.85-.83-1.88-.91-3.12-.1-1.81.15-3.43.73-4.84s1.45-2.53,2.61-3.37c1.16-.84,2.55-1.3,4.18-1.39,1.27-.07,2.4.12,3.39.57.99.45,1.78,1.12,2.38,2.03.6.91.94,2.01,1,3.3.07,1.27-.08,2.45-.43,3.54-.36,1.09-.89,2.04-1.61,2.87-.72.83-1.57,1.48-2.56,1.98-.99.49-2.09.77-3.31.83ZM985.04,387.93c1.23-.07,2.31-.42,3.24-1.06.92-.64,1.63-1.5,2.13-2.58.5-1.08.71-2.28.64-3.61-.08-1.46-.56-2.57-1.44-3.33s-2.1-1.1-3.66-1.02c-1.22.06-2.29.42-3.22,1.07-.93.65-1.65,1.51-2.14,2.57s-.71,2.27-.64,3.62c.08,1.44.55,2.54,1.44,3.3.88.76,2.1,1.1,3.66,1.02Z"/>
    <path class="cls-1" d="M1002.73,388.77c-1.4.07-2.64-.12-3.7-.58-1.07-.46-1.9-1.14-2.5-2.05-.6-.91-.94-2-1-3.3-.09-1.68.19-3.2.83-4.55.64-1.35,1.56-2.43,2.76-3.25,1.2-.82,2.57-1.28,4.12-1.36,1.31-.07,2.46.12,3.43.57.98.45,1.76,1.12,2.34,2.03.58.91.91,2.02.98,3.33.02.3.01.6,0,.91-.02.31-.05.61-.09.89l-12.94.68.17-1.5,11.76-.62-.78.6c.12-1.19-.01-2.17-.41-2.96-.4-.79-.98-1.37-1.74-1.75-.76-.38-1.66-.55-2.68-.49-1.2.06-2.25.41-3.15,1.05-.91.64-1.59,1.49-2.06,2.56-.47,1.07-.67,2.29-.6,3.67.08,1.48.56,2.59,1.46,3.34.89.75,2.19,1.08,3.89.99.99-.05,1.9-.26,2.72-.64.83-.37,1.49-.86,2.01-1.47l.97,1.38c-.66.73-1.49,1.31-2.51,1.75-1.02.44-2.11.69-3.27.75Z"/>
    <path class="cls-1" d="M1012.93,388.1l2.15-14.89,1.91-.1-.61,4.39-.26-.75c.59-1.32,1.4-2.31,2.45-2.97s2.37-1.03,3.98-1.11l-.26,1.96c-.09,0-.18,0-.27,0s-.18,0-.3,0c-1.57.08-2.84.6-3.82,1.56-.97.96-1.6,2.37-1.88,4.22l-1.09,7.57-1.99.1Z"/>
  </g>
</svg>