<?xml version="1.0" encoding="UTF-8"?>
<svg id="_Слой_1" data-name="Слой 1" xmlns="http://www.w3.org/2000/svg" xmlns:xlink="http://www.w3.org/1999/xlink" viewBox="0 0 1280 817.06">
  <defs>
    <style>
      @keyframes floating {
        0% {
            translate: -3px -20px;
        }

        100% {
            translate: -20px 20px;
        }
      }

      @keyframes floating-2 {
        0% {
            translate: -10px 10px;
        }
        
        100% {
            translate: -1px -10px;
        }
      }

      .cls-1, .cls-2, .cls-4 {
        animation: floating 2s alternate ease-in-out infinite;
      }

      .cls-3, .cls-5, .cls-7 {
        animation: floating-2 1.5s alternate ease-in-out infinite;
      }

      .cls-1, .cls-2, .cls-3, .cls-4 {
        stroke: #000;
        stroke-miterlimit: 10;
      }

      .cls-1, .cls-2, .cls-4 {
        stroke-width: 10px;
      }

      .cls-1, .cls-5 {
        fill: #e8da31;
      }

      .cls-6 {
        fill: url(#_Безымянный_градиент_2);
      }

      .cls-6, .cls-7, .cls-5 {
        stroke-width: 0px;
      }

      .cls-7 {
        fill: #000;
      }

      .cls-2, .cls-3 {
        fill: #fff;
      }

      .cls-3 {
        stroke-width: 20px;
      }

      .cls-4 {
        fill: none;
      }
    </style>
    <linearGradient id="_Безымянный_градиент_2" data-name="Безымянный градиент 2" x1="640.5" y1="728.53" x2="640.5" y2="88.53" gradientUnits="userSpaceOnUse">
      <stop offset="0" stop-color="#305cd8" stop-opacity="0"/>
      <stop offset="0" stop-color="rgba(48, 92, 216, .08)" stop-opacity=".08"/>
      <stop offset=".03" stop-color="rgba(48, 92, 216, .27)" stop-opacity=".27"/>
      <stop offset=".06" stop-color="rgba(48, 92, 216, .45)" stop-opacity=".45"/>
      <stop offset=".08" stop-color="rgba(48, 92, 216, .6)" stop-opacity=".6"/>
      <stop offset=".11" stop-color="rgba(48, 92, 216, .72)" stop-opacity=".72"/>
      <stop offset=".15" stop-color="rgba(48, 92, 216, .83)" stop-opacity=".83"/>
      <stop offset=".19" stop-color="rgba(48, 92, 216, .91)" stop-opacity=".91"/>
      <stop offset=".24" stop-color="rgba(48, 92, 216, .96)" stop-opacity=".96"/>
      <stop offset=".31" stop-color="rgba(48, 92, 216, .99)" stop-opacity=".99"/>
      <stop offset=".5" stop-color="#305cd8"/>
      <stop offset=".69" stop-color="rgba(48, 92, 216, .99)" stop-opacity=".99"/>
      <stop offset=".76" stop-color="rgba(48, 92, 216, .96)" stop-opacity=".96"/>
      <stop offset=".81" stop-color="rgba(48, 92, 216, .91)" stop-opacity=".91"/>
      <stop offset=".85" stop-color="rgba(48, 92, 216, .83)" stop-opacity=".83"/>
      <stop offset=".89" stop-color="rgba(48, 92, 216, .72)" stop-opacity=".72"/>
      <stop offset=".92" stop-color="rgba(48, 92, 216, .6)" stop-opacity=".6"/>
      <stop offset=".94" stop-color="rgba(48, 92, 216, .45)" stop-opacity=".45"/>
      <stop offset=".97" stop-color="rgba(48, 92, 216, .27)" stop-opacity=".27"/>
      <stop offset=".99" stop-color="rgba(48, 92, 216, .08)" stop-opacity=".08"/>
      <stop offset="1" stop-color="#305cd8" stop-opacity="0"/>
    </linearGradient>
  </defs>
  <rect class="cls-6" x="0" y="88.53" width="1281" height="640"/>
  <rect class="cls-3" x="171.68" y="179.19" width="932.64" height="437.87" rx="106.83" ry="106.83"/>
  <g>
    <rect class="cls-1" x="982.29" y="390.43" width="53.91" height="370.67" transform="translate(418.29 -424.66) rotate(29.73)"/>
    <g>
      <rect class="cls-2" x="910.88" y="507.97" width="53.24" height="56" rx="17.89" ry="17.89" transform="translate(195.06 -248.22) rotate(16.81)"/>
      <path class="cls-2" d="M1090.44,565.96c-.89,2.59-2.48,6.51-5.27,10.77-3.83,5.86-6.88,7.7-10.79,12.46-5.75,6.99-4.01,8.91-9.24,17.01-6.92,10.69-10.83,8.71-18.78,19.77-5.73,7.97-3.91,9.31-10.54,18.48-6.8,9.4-8.38,7.54-12.58,14.67-5.32,9.03-4,14.06-10.13,21.71-3.03,3.78-6.27,6.2-8.39,7.59-.31.45-2.02,2.79-5.29,3.37-2.07.36-4.27-.06-6.12-1.36l-85.22-59.65c-3.45-2.42-4.51-7.06-2.44-10.73l74.31-132.12c2.39-4.25,7.95-5.49,11.92-2.64,32.21,23.1,64.43,46.2,96.64,69.3,3.65,2.62,4.51,7.68,1.94,11.36Z"/>
      <line class="cls-4" x1="963.72" y1="516.8" x2="1031.55" y2="561.92"/>
      <line class="cls-4" x1="943.94" y1="551.95" x2="1011.87" y2="597.68"/>
      <line class="cls-4" x1="921.48" y1="594.18" x2="988.83" y2="638.23"/>
    </g>
    <path class="cls-2" d="M1098.31,326.42l6.52-10.62,85.43,52.41-16.87,27.49,45.07-1.69h0l39.48,24.22-40.88,66.62-39.48-24.22h0l-18.91-40.95-16.24,26.47-85.43-52.41,7.63-12.43c-33.38-9.47-66.77-18.94-100.15-28.41,44.61-8.83,89.22-17.65,133.83-26.48Z"/>
  </g>
  <g>
    <rect class="cls-2" x="219.9" y="106.64" width="51.25" height="91.63" rx="17.89" ry="17.89" transform="translate(393.82 400.51) rotate(-152.71)"/>
    <path class="cls-2" d="M200.65,180.15c-1.62,2.08-3.95,5.41-5.94,9.9-2.72,6.16-2.61,9.59-4.4,15.24-2.64,8.3-5.1,7.9-8.89,16.38-5.01,11.19-1.36,13.31-6.12,25.52-3.44,8.8-5.47,8.04-9.4,18.2-4.03,10.42-1.7,10.72-5.25,17.85-4.5,9.03-9.26,10.6-12.23,19.56-1.47,4.42-1.72,8.32-1.74,10.75-.2.49-1.2,3.1.05,6.04.79,1.86,2.28,3.42,4.3,4.23l92.83,37.55c3.76,1.52,8.06-.06,9.94-3.65l67.74-129.24c2.18-4.16.26-9.29-4.11-11.01-35.53-13.9-71.07-27.81-106.6-41.71-4.02-1.57-8.57.38-10.19,4.39Z"/>
    <line class="cls-4" x1="306.75" y1="256.71" x2="234.77" y2="225.58"/>
    <line class="cls-4" x1="288.73" y1="291.1" x2="216.21" y2="260.21"/>
    <line class="cls-4" x1="266.41" y1="331.36" x2="195.54" y2="300.07"/>
  </g>
  <g>
    <path class="cls-7" d="M353.19,361.14c-5.83.51-11.44.35-16.8-.47-5.37-.82-9.57-2.01-12.6-3.57l7.08-17.13c3.3,1.78,7.09,3.03,11.38,3.73,4.28.71,8.4.89,12.34.55,3.86-.33,6.57-1.04,8.14-2.13,1.56-1.09,2.28-2.33,2.16-3.73-.11-1.31-1.04-2.21-2.78-2.68-1.74-.47-3.94-.79-6.6-.98-2.67-.18-5.5-.45-8.51-.82-3.01-.36-5.89-1.06-8.63-2.11-2.74-1.04-5.03-2.63-6.87-4.75-1.84-2.12-2.92-5.07-3.25-8.85-.46-5.34.71-9.95,3.52-13.84,2.81-3.89,6.82-6.99,12.05-9.3,5.22-2.31,11.2-3.76,17.94-4.35,4.76-.41,9.41-.34,13.93.22,4.52.56,8.5,1.56,11.93,3l-6.84,17.11c-3.46-1.69-6.96-2.71-10.51-3.06-3.55-.35-6.8-.4-9.76-.15-3.86.33-6.57,1.05-8.13,2.13-1.56,1.09-2.29,2.29-2.17,3.6.11,1.32,1.04,2.23,2.78,2.74,1.74.51,3.93.9,6.56,1.17,2.63.27,5.47.58,8.53.94,3.05.36,5.91,1.04,8.56,2.05,2.65,1.01,4.92,2.55,6.8,4.63,1.88,2.07,2.98,5,3.31,8.78.46,5.34-.73,9.96-3.58,13.85-2.85,3.89-6.87,6.95-12.06,9.18-5.19,2.23-11.15,3.64-17.89,4.22Z"/>
    <path class="cls-7" d="M394.5,356.44l10.32-93.03,23.42-2.03-10.32,93.03-23.42,2.03ZM416.32,343.13l2.53-29.52,29.01-29.21,29.58-2.56-34.43,35.52-12.46,11.01-14.24,14.77ZM444.05,352.15l-17.63-24.3,14.97-19.3,30.14,41.22-27.49,2.38Z"/>
    <path class="cls-7" d="M476.71,349.32l7.52-68.08,23.42-2.03-7.64,68.09-23.29,2.02ZM498.39,272.69c-4.11.36-7.45-.49-10.03-2.55-2.58-2.05-4.01-4.68-4.28-7.89-.33-3.78.78-7.04,3.31-9.79,2.54-2.74,6.1-4.32,10.71-4.71,4.03-.35,7.36.4,10,2.24,2.64,1.84,4.1,4.36,4.38,7.57.35,4.03-.76,7.46-3.33,10.28-2.57,2.83-6.16,4.45-10.76,4.84Z"/>
    <path class="cls-7" d="M515.17,345.99l10.32-93.03,23.42-2.03-10.32,93.03-23.42,2.03Z"/>
    <path class="cls-7" d="M553.74,342.65l10.32-93.03,23.42-2.03-10.32,93.03-23.42,2.03Z"/>
    <path class="cls-7" d="M618.42,338.17c-5.83.51-11.44.35-16.8-.47-5.37-.82-9.57-2.01-12.6-3.57l7.08-17.13c3.3,1.78,7.09,3.03,11.38,3.73,4.28.71,8.4.89,12.34.55,3.86-.33,6.57-1.04,8.14-2.13,1.56-1.09,2.28-2.33,2.16-3.73-.11-1.31-1.04-2.21-2.78-2.68-1.74-.47-3.94-.79-6.6-.98-2.67-.18-5.5-.45-8.51-.82-3.01-.36-5.89-1.06-8.63-2.11-2.74-1.05-5.03-2.63-6.87-4.75-1.84-2.12-2.92-5.06-3.25-8.84-.46-5.34.71-9.95,3.52-13.84,2.81-3.89,6.83-6.99,12.05-9.3,5.22-2.32,11.2-3.76,17.94-4.35,4.76-.41,9.41-.34,13.93.22,4.52.56,8.49,1.56,11.93,3l-6.84,17.11c-3.46-1.69-6.96-2.71-10.51-3.06-3.55-.35-6.8-.4-9.76-.15-3.86.33-6.57,1.05-8.14,2.13-1.56,1.09-2.29,2.29-2.17,3.6.11,1.32,1.04,2.23,2.78,2.74,1.74.51,3.93.9,6.56,1.17,2.63.27,5.47.58,8.52.94,3.05.36,5.9,1.04,8.56,2.05,2.65,1.01,4.92,2.55,6.79,4.63,1.88,2.07,2.98,5,3.31,8.78.46,5.34-.73,9.96-3.58,13.85-2.85,3.89-6.87,6.95-12.06,9.18-5.19,2.23-11.15,3.64-17.89,4.22Z"/>
  </g>
  <g>
    <path class="cls-7" d="M580.97,433.42l5.97-17.83,50.46,6.16-5.84,17.84-50.59-6.18ZM603.44,486.99c-5.49-.67-10.02-2.29-13.58-4.86-3.56-2.57-5.91-5.99-7.04-10.27-1.13-4.27-.8-9.18,1.01-14.71l19.12-58.16,24.46,2.99-19.11,58.03c-.75,2.61-.7,4.68.16,6.23.86,1.54,2.53,2.46,5.02,2.77,1.29.16,2.53.13,3.73-.07,1.2-.2,2.44-.57,3.73-1.11l1.3,17.15c-2.85,1.22-5.9,1.96-9.15,2.21-3.26.26-6.47.19-9.65-.2Z"/>
    <path class="cls-7" d="M666.78,494.73c-7.38-.9-13.66-3-18.83-6.29-5.17-3.29-8.97-7.52-11.38-12.69-2.42-5.17-3.24-10.93-2.46-17.29.94-7.72,3.63-14.41,8.07-20.05,4.43-5.64,10.09-9.83,16.95-12.56,6.87-2.73,14.46-3.59,22.79-2.57,7.47.91,13.76,3.03,18.89,6.36,5.12,3.33,8.88,7.53,11.26,12.61,2.38,5.08,3.18,10.84,2.4,17.28-.94,7.72-3.63,14.41-8.07,20.05-4.43,5.64-10.04,9.84-16.82,12.58-6.78,2.75-14.38,3.6-22.79,2.57ZM670.57,475.46c3.26.4,6.24-.07,8.92-1.39,2.69-1.33,4.92-3.38,6.7-6.17,1.78-2.79,2.91-6.2,3.41-10.23.46-3.78-.29-7.09-2.25-9.94-1.96-2.85-5.04-4.54-9.25-5.05-3.26-.4-6.26.07-8.99,1.39-2.73,1.32-4.99,3.38-6.76,6.16-1.78,2.79-2.91,6.16-3.39,10.1-.49,4.04.27,7.44,2.28,10.21,2.01,2.77,5.12,4.42,9.33,4.93Z"/>
    <path class="cls-7" d="M752.39,505.18c-7.38-.9-13.66-3-18.83-6.29-5.17-3.29-8.97-7.52-11.38-12.69-2.42-5.17-3.24-10.93-2.46-17.29.94-7.72,3.63-14.41,8.07-20.05,4.43-5.64,10.09-9.83,16.95-12.56,6.87-2.73,14.46-3.59,22.79-2.57,7.47.91,13.76,3.03,18.89,6.36,5.13,3.33,8.88,7.53,11.26,12.61,2.38,5.08,3.18,10.84,2.4,17.28-.94,7.72-3.63,14.41-8.07,20.05-4.43,5.64-10.04,9.84-16.82,12.58-6.78,2.75-14.38,3.6-22.79,2.57ZM756.18,485.92c3.26.4,6.23-.07,8.92-1.39,2.69-1.33,4.92-3.38,6.7-6.17s2.91-6.2,3.41-10.23c.46-3.78-.29-7.09-2.25-9.94-1.96-2.85-5.04-4.54-9.25-5.05-3.26-.4-6.26.06-8.99,1.39-2.73,1.32-4.99,3.38-6.76,6.16-1.78,2.79-2.91,6.16-3.39,10.1-.49,4.04.27,7.44,2.28,10.21,2.01,2.77,5.12,4.42,9.33,4.93Z"/>
    <path class="cls-7" d="M799.39,509.74l30.72-93.2,24.46,2.99-30.72,93.2-24.46-2.99Z"/>
    <path class="cls-7" d="M866.7,519.14c-6.09-.74-11.81-2.12-17.14-4.12-5.33-2-9.38-4.13-12.16-6.38l10.97-16.04c3,2.54,6.62,4.64,10.86,6.29,4.24,1.65,8.42,2.73,12.54,3.23,4.03.49,6.97.35,8.81-.43,1.84-.78,2.84-1.89,3.02-3.35.17-1.37-.59-2.49-2.27-3.35-1.68-.86-3.87-1.67-6.56-2.43-2.7-.76-5.55-1.66-8.56-2.68-3.01-1.02-5.81-2.36-8.39-4.03-2.58-1.67-4.59-3.78-6.02-6.35-1.43-2.57-1.9-5.83-1.42-9.78.68-5.58,2.88-10.06,6.61-13.44,3.72-3.38,8.51-5.69,14.37-6.93,5.86-1.25,12.3-1.44,19.34-.58,4.98.61,9.72,1.69,14.24,3.24,4.51,1.55,8.38,3.44,11.59,5.66l-10.72,16.07c-3.18-2.48-6.55-4.28-10.12-5.42-3.56-1.13-6.89-1.89-9.98-2.26-4.03-.49-6.97-.35-8.81.43-1.84.78-2.84,1.85-3.01,3.23-.17,1.37.59,2.51,2.26,3.41,1.67.9,3.83,1.77,6.47,2.62,2.64.85,5.49,1.78,8.54,2.81,3.05,1.03,5.83,2.35,8.34,3.96,2.5,1.61,4.49,3.69,5.97,6.22,1.48,2.53,1.97,5.77,1.49,9.72-.68,5.58-2.91,10.05-6.67,13.43-3.77,3.37-8.55,5.64-14.36,6.81s-12.23,1.32-19.26.46Z"/>
  </g>
  <path class="cls-5" d="M777.56,370.04c-44.18,0-67.95-35.81-53.09-79.99-14.86,44.18-62.72,79.99-106.9,79.99,44.18,0,67.95,35.81,53.09,79.99,14.86-44.18,62.72-79.99,106.9-79.99Z"/>
  <g>
    <path class="cls-7" d="M648.69,386.41l16.1-28.45,9.12-.48,7.97,27.19-9.24.48-5.66-23.01,3.62-.19-12.11,23.94-9.79.51ZM656.54,381.18l3.35-6.88,12.66-.66,1.37,6.63-17.38.91Z"/>
    <path class="cls-7" d="M683.38,384.59l4.06-27.82,7.63-.4,11.22,16.21-3.23.17,2.47-16.93,9.04-.47-4.06,27.82-7.63.4-11.22-16.21,3.22-.17-2.46,16.93-9.04.47Z"/>
    <path class="cls-7" d="M715,382.93l4.06-27.82,12.43-.65c2.91-.15,5.44.19,7.59,1.02,2.15.83,3.83,2.09,5.05,3.78,1.22,1.69,1.89,3.73,2.02,6.14.13,2.44-.18,4.65-.93,6.63-.75,1.99-1.86,3.71-3.32,5.18s-3.22,2.63-5.28,3.47c-2.06.84-4.35,1.33-6.86,1.46l-14.75.77ZM725.35,375.14l4.33-.23c1.65-.09,3.01-.52,4.09-1.3,1.08-.78,1.87-1.79,2.38-3.04.51-1.25.73-2.62.65-4.12-.06-1.08-.32-1.97-.79-2.68-.47-.71-1.14-1.24-2.02-1.59-.87-.35-1.94-.49-3.2-.42l-3.54.19-1.91,13.19Z"/>
  </g>
</svg>