<?xml version="1.0" encoding="UTF-8"?>
<svg id="_Слой_1" data-name="Слой 1" xmlns="http://www.w3.org/2000/svg" xmlns:xlink="http://www.w3.org/1999/xlink" viewBox="0 0 1280 640">
  <defs>
    <style>
      .cls-1 {
        fill: #fff;
      }

      .cls-2 {
        fill: #ff0060;
      }

      .cls-3 {
        fill: #00dfa2;
      }

      .cls-4 {
        fill: #f6fa70;
      }

      .cls-5 {
        clip-path: url(#clippath);
      }

      .cls-6 {
        fill: none;
      }

      .cls-7 {
        fill: #0079ff;
      }
    </style>
    <clipPath id="clippath">
      <rect class="cls-6" x="669.62" y="32.49" width="615.47" height="592.17"/>
    </clipPath>
  </defs>
  <rect width="1280" height="640"/>
  <g class="cls-5">
    <g>
      <g id="_Повтор_по_сетке_" data-name="&amp;lt;Повтор по сетке&amp;gt;">
        <g>
          <rect class="cls-2" x="671.87" y="34.75" width="10.88" height="10.88" transform="translate(226.8 -467.16) rotate(45)"/>
          <rect class="cls-3" x="742.38" y="34.75" width="10.88" height="10.88" transform="translate(247.45 -517.02) rotate(45)"/>
          <rect class="cls-4" x="673.53" y="103.59" width="10.88" height="10.88" transform="translate(275.96 -448.17) rotate(45)"/>
          <rect class="cls-7" x="742.38" y="103.59" width="10.88" height="10.88" transform="translate(296.13 -496.85) rotate(45)"/>
        </g>
      </g>
      <g id="_Повтор_по_сетке_-2" data-name="&amp;lt;Повтор по сетке&amp;gt;">
        <g>
          <rect class="cls-2" x="810.41" y="34.75" width="10.88" height="10.88" transform="translate(267.37 -565.12) rotate(45)"/>
          <rect class="cls-3" x="880.91" y="34.75" width="10.88" height="10.88" transform="translate(288.02 -614.97) rotate(45)"/>
          <rect class="cls-4" x="812.07" y="103.59" width="10.88" height="10.88" transform="translate(316.54 -546.13) rotate(45)"/>
          <rect class="cls-7" x="880.91" y="103.59" width="10.88" height="10.88" transform="translate(336.7 -594.81) rotate(45)"/>
        </g>
      </g>
      <g id="_Повтор_по_сетке_-3" data-name="&amp;lt;Повтор по сетке&amp;gt;">
        <g>
          <rect class="cls-2" x="948.94" y="34.75" width="10.88" height="10.88" transform="translate(307.95 -663.08) rotate(45)"/>
          <rect class="cls-3" x="1019.44" y="34.75" width="10.88" height="10.88" transform="translate(328.6 -712.93) rotate(45)"/>
          <rect class="cls-4" x="950.6" y="103.59" width="10.88" height="10.88" transform="translate(357.11 -644.09) rotate(45)"/>
          <rect class="cls-7" x="1019.44" y="103.59" width="10.88" height="10.88" transform="translate(377.28 -692.77) rotate(45)"/>
        </g>
      </g>
      <g id="_Повтор_по_сетке_-4" data-name="&amp;lt;Повтор по сетке&amp;gt;">
        <g>
          <rect class="cls-2" x="1087.47" y="34.75" width="10.88" height="10.88" transform="translate(348.52 -761.04) rotate(45)"/>
          <rect class="cls-3" x="1157.97" y="34.75" width="10.88" height="10.88" transform="translate(369.17 -810.89) rotate(45)"/>
          <rect class="cls-4" x="1089.13" y="103.59" width="10.88" height="10.88" transform="translate(397.69 -742.05) rotate(45)"/>
          <rect class="cls-7" x="1157.97" y="103.59" width="10.88" height="10.88" transform="translate(417.85 -790.72) rotate(45)"/>
        </g>
      </g>
      <g id="_Повтор_по_сетке_-5" data-name="&amp;lt;Повтор по сетке&amp;gt;">
        <g>
          <rect class="cls-2" x="1226.01" y="34.75" width="10.88" height="10.88" transform="translate(389.1 -858.99) rotate(45)"/>
          <rect class="cls-4" x="1227.66" y="103.59" width="10.88" height="10.88" transform="translate(438.26 -840) rotate(45)"/>
        </g>
      </g>
      <g id="_Повтор_по_сетке_-6" data-name="&amp;lt;Повтор по сетке&amp;gt;">
        <g>
          <rect class="cls-2" x="671.87" y="176.43" width="10.88" height="10.88" transform="translate(326.98 -425.67) rotate(45)"/>
          <rect class="cls-3" x="742.38" y="176.43" width="10.88" height="10.88" transform="translate(347.63 -475.52) rotate(45)"/>
          <rect class="cls-4" x="673.53" y="245.27" width="10.88" height="10.88" transform="translate(376.15 -406.68) rotate(45)"/>
          <rect class="cls-7" x="742.38" y="245.27" width="10.88" height="10.88" transform="translate(396.31 -455.36) rotate(45)"/>
        </g>
      </g>
      <g id="_Повтор_по_сетке_-7" data-name="&amp;lt;Повтор по сетке&amp;gt;">
        <g>
          <rect class="cls-2" x="810.41" y="176.43" width="10.88" height="10.88" transform="translate(367.56 -523.62) rotate(45)"/>
          <rect class="cls-3" x="880.91" y="176.43" width="10.88" height="10.88" transform="translate(388.2 -573.48) rotate(45)"/>
          <rect class="cls-4" x="812.07" y="245.27" width="10.88" height="10.88" transform="translate(416.72 -504.63) rotate(45)"/>
          <rect class="cls-7" x="880.91" y="245.27" width="10.88" height="10.88" transform="translate(436.88 -553.31) rotate(45)"/>
        </g>
      </g>
      <g id="_Повтор_по_сетке_-8" data-name="&amp;lt;Повтор по сетке&amp;gt;">
        <g>
          <rect class="cls-2" x="948.94" y="176.43" width="10.88" height="10.88" transform="translate(408.13 -621.58) rotate(45)"/>
          <rect class="cls-3" x="1019.44" y="176.43" width="10.88" height="10.88" transform="translate(428.78 -671.43) rotate(45)"/>
          <rect class="cls-4" x="950.6" y="245.27" width="10.88" height="10.88" transform="translate(457.3 -602.59) rotate(45)"/>
          <rect class="cls-7" x="1019.44" y="245.27" width="10.88" height="10.88" transform="translate(477.46 -651.27) rotate(45)"/>
        </g>
      </g>
      <g id="_Повтор_по_сетке_-9" data-name="&amp;lt;Повтор по сетке&amp;gt;">
        <g>
          <rect class="cls-2" x="1087.47" y="176.43" width="10.88" height="10.88" transform="translate(448.71 -719.54) rotate(45)"/>
          <rect class="cls-3" x="1157.97" y="176.43" width="10.88" height="10.88" transform="translate(469.36 -769.39) rotate(45)"/>
          <rect class="cls-4" x="1089.13" y="245.27" width="10.88" height="10.88" transform="translate(497.87 -700.55) rotate(45)"/>
          <rect class="cls-7" x="1157.97" y="245.27" width="10.88" height="10.88" transform="translate(518.03 -749.23) rotate(45)"/>
        </g>
      </g>
      <g id="_Повтор_по_сетке_-10" data-name="&amp;lt;Повтор по сетке&amp;gt;">
        <g>
          <rect class="cls-2" x="1226.01" y="176.43" width="10.88" height="10.88" transform="translate(489.28 -817.5) rotate(45)"/>
          <rect class="cls-4" x="1227.66" y="245.27" width="10.88" height="10.88" transform="translate(538.45 -798.51) rotate(45)"/>
        </g>
      </g>
      <g id="_Повтор_по_сетке_-11" data-name="&amp;lt;Повтор по сетке&amp;gt;">
        <g>
          <rect class="cls-2" x="671.87" y="318.11" width="10.88" height="10.88" transform="translate(427.16 -384.17) rotate(45)"/>
          <rect class="cls-3" x="742.38" y="318.11" width="10.88" height="10.88" transform="translate(447.81 -434.02) rotate(45)"/>
          <rect class="cls-4" x="673.53" y="386.95" width="10.88" height="10.88" transform="translate(476.33 -365.18) rotate(45)"/>
          <rect class="cls-7" x="742.38" y="386.95" width="10.88" height="10.88" transform="translate(496.49 -413.86) rotate(45)"/>
        </g>
      </g>
      <g id="_Повтор_по_сетке_-12" data-name="&amp;lt;Повтор по сетке&amp;gt;">
        <g>
          <rect class="cls-2" x="810.41" y="318.11" width="10.88" height="10.88" transform="translate(467.74 -482.13) rotate(45)"/>
          <rect class="cls-3" x="880.91" y="318.11" width="10.88" height="10.88" transform="translate(488.39 -531.98) rotate(45)"/>
          <rect class="cls-4" x="812.07" y="386.95" width="10.88" height="10.88" transform="translate(516.9 -463.14) rotate(45)"/>
          <rect class="cls-7" x="880.91" y="386.95" width="10.88" height="10.88" transform="translate(537.07 -511.82) rotate(45)"/>
        </g>
      </g>
      <g id="_Повтор_по_сетке_-13" data-name="&amp;lt;Повтор по сетке&amp;gt;">
        <g>
          <rect class="cls-2" x="948.94" y="318.11" width="10.88" height="10.88" transform="translate(508.31 -580.08) rotate(45)"/>
          <rect class="cls-3" x="1019.44" y="318.11" width="10.88" height="10.88" transform="translate(528.96 -629.94) rotate(45)"/>
          <rect class="cls-4" x="950.6" y="386.95" width="10.88" height="10.88" transform="translate(557.48 -561.09) rotate(45)"/>
          <rect class="cls-7" x="1019.44" y="386.95" width="10.88" height="10.88" transform="translate(577.64 -609.77) rotate(45)"/>
        </g>
      </g>
      <g id="_Повтор_по_сетке_-14" data-name="&amp;lt;Повтор по сетке&amp;gt;">
        <g>
          <rect class="cls-2" x="1087.47" y="318.11" width="10.88" height="10.88" transform="translate(548.89 -678.04) rotate(45)"/>
          <rect class="cls-3" x="1157.97" y="318.11" width="10.88" height="10.88" transform="translate(569.54 -727.89) rotate(45)"/>
          <rect class="cls-4" x="1089.13" y="386.95" width="10.88" height="10.88" transform="translate(598.05 -659.05) rotate(45)"/>
          <rect class="cls-7" x="1157.97" y="386.95" width="10.88" height="10.88" transform="translate(618.22 -707.73) rotate(45)"/>
        </g>
      </g>
      <g id="_Повтор_по_сетке_-15" data-name="&amp;lt;Повтор по сетке&amp;gt;">
        <g>
          <rect class="cls-2" x="1226.01" y="318.11" width="10.88" height="10.88" transform="translate(589.46 -776) rotate(45)"/>
          <rect class="cls-4" x="1227.66" y="386.95" width="10.88" height="10.88" transform="translate(638.63 -757.01) rotate(45)"/>
        </g>
      </g>
      <g id="_Повтор_по_сетке_-16" data-name="&amp;lt;Повтор по сетке&amp;gt;">
        <g>
          <rect class="cls-2" x="671.87" y="459.78" width="10.88" height="10.88" transform="translate(527.35 -342.67) rotate(45)"/>
          <rect class="cls-3" x="742.38" y="459.78" width="10.88" height="10.88" transform="translate(547.99 -392.52) rotate(45)"/>
          <rect class="cls-4" x="673.53" y="528.63" width="10.88" height="10.88" transform="translate(576.51 -323.68) rotate(45)"/>
          <rect class="cls-7" x="742.38" y="528.63" width="10.88" height="10.88" transform="translate(596.67 -372.36) rotate(45)"/>
        </g>
      </g>
      <g id="_Повтор_по_сетке_-17" data-name="&amp;lt;Повтор по сетке&amp;gt;">
        <g>
          <rect class="cls-2" x="810.41" y="459.78" width="10.88" height="10.88" transform="translate(567.92 -440.63) rotate(45)"/>
          <rect class="cls-3" x="880.91" y="459.78" width="10.88" height="10.88" transform="translate(588.57 -490.48) rotate(45)"/>
          <rect class="cls-4" x="812.07" y="528.63" width="10.88" height="10.88" transform="translate(617.09 -421.64) rotate(45)"/>
          <rect class="cls-7" x="880.91" y="528.63" width="10.88" height="10.88" transform="translate(637.25 -470.32) rotate(45)"/>
        </g>
      </g>
      <g id="_Повтор_по_сетке_-18" data-name="&amp;lt;Повтор по сетке&amp;gt;">
        <g>
          <rect class="cls-2" x="948.94" y="459.78" width="10.88" height="10.88" transform="translate(608.5 -538.59) rotate(45)"/>
          <rect class="cls-3" x="1019.44" y="459.78" width="10.88" height="10.88" transform="translate(629.15 -588.44) rotate(45)"/>
          <rect class="cls-4" x="950.6" y="528.63" width="10.88" height="10.88" transform="translate(657.66 -519.6) rotate(45)"/>
          <rect class="cls-7" x="1019.44" y="528.63" width="10.88" height="10.88" transform="translate(677.82 -568.28) rotate(45)"/>
        </g>
      </g>
      <g id="_Повтор_по_сетке_-19" data-name="&amp;lt;Повтор по сетке&amp;gt;">
        <g>
          <rect class="cls-2" x="1087.47" y="459.78" width="10.88" height="10.88" transform="translate(649.07 -636.55) rotate(45)"/>
          <rect class="cls-3" x="1157.97" y="459.78" width="10.88" height="10.88" transform="translate(669.72 -686.4) rotate(45)"/>
          <rect class="cls-4" x="1089.13" y="528.63" width="10.88" height="10.88" transform="translate(698.24 -617.55) rotate(45)"/>
          <rect class="cls-7" x="1157.97" y="528.63" width="10.88" height="10.88" transform="translate(718.4 -666.23) rotate(45)"/>
        </g>
      </g>
      <g id="_Повтор_по_сетке_-20" data-name="&amp;lt;Повтор по сетке&amp;gt;">
        <g>
          <rect class="cls-2" x="1226.01" y="459.78" width="10.88" height="10.88" transform="translate(689.65 -734.5) rotate(45)"/>
          <rect class="cls-4" x="1227.66" y="528.63" width="10.88" height="10.88" transform="translate(738.81 -715.51) rotate(45)"/>
        </g>
      </g>
      <g id="_Повтор_по_сетке_-21" data-name="&amp;lt;Повтор по сетке&amp;gt;">
        <g>
          <rect class="cls-2" x="671.87" y="601.46" width="10.88" height="10.88" transform="translate(627.53 -301.18) rotate(45)"/>
          <rect class="cls-3" x="742.38" y="601.46" width="10.88" height="10.88" transform="translate(648.18 -351.03) rotate(45)"/>
        </g>
      </g>
      <g id="_Повтор_по_сетке_-22" data-name="&amp;lt;Повтор по сетке&amp;gt;">
        <g>
          <rect class="cls-2" x="810.41" y="601.46" width="10.88" height="10.88" transform="translate(668.1 -399.13) rotate(45)"/>
          <rect class="cls-3" x="880.91" y="601.46" width="10.88" height="10.88" transform="translate(688.75 -448.99) rotate(45)"/>
        </g>
      </g>
      <g id="_Повтор_по_сетке_-23" data-name="&amp;lt;Повтор по сетке&amp;gt;">
        <g>
          <rect class="cls-2" x="948.94" y="601.46" width="10.88" height="10.88" transform="translate(708.68 -497.09) rotate(45)"/>
          <rect class="cls-3" x="1019.44" y="601.46" width="10.88" height="10.88" transform="translate(729.33 -546.94) rotate(45)"/>
        </g>
      </g>
      <g id="_Повтор_по_сетке_-24" data-name="&amp;lt;Повтор по сетке&amp;gt;">
        <g>
          <rect class="cls-2" x="1087.47" y="601.46" width="10.88" height="10.88" transform="translate(749.25 -595.05) rotate(45)"/>
          <rect class="cls-3" x="1157.97" y="601.46" width="10.88" height="10.88" transform="translate(769.9 -644.9) rotate(45)"/>
        </g>
      </g>
      <g id="_Повтор_по_сетке_-25" data-name="&amp;lt;Повтор по сетке&amp;gt;">
        <rect class="cls-2" x="1226.01" y="601.46" width="10.88" height="10.88" transform="translate(789.83 -693.01) rotate(45)"/>
      </g>
    </g>
  </g>
  <polygon points="652.47 0 175.33 0 0 0 0 320 0 640 105.42 640 175.33 640 863.3 640 652.47 0"/>
  <polygon class="cls-1" points="76.36 59.3 93.19 62.38 122.63 54.32 105.46 105.99 89.29 114.62 78.43 99.28 76.36 59.3"/>
  <g>
    <g>
      <path class="cls-1" d="m77.26,321.17l9.18-34.93h11.48l9.18,34.93h-6.79l-1.9-7.68h-12.48l-1.9,7.68h-6.79Zm10.23-13.77h9.38l-4.24-17.02h-.9l-4.24,17.02Z"/>
      <path class="cls-1" d="m112.99,321.17v-34.93h12.53l6.94,30.44h.9v-30.44h6.49v34.93h-12.52l-6.94-30.44h-.9v30.44h-6.49Z"/>
      <path class="cls-1" d="m145.72,321.17l9.18-34.93h11.48l9.18,34.93h-6.79l-1.9-7.68h-12.47l-1.9,7.68h-6.79Zm10.23-13.77h9.38l-4.24-17.02h-.9l-4.24,17.02Z"/>
      <path class="cls-1" d="m186.34,321.17v-28.94h-10.18v-5.99h26.95v5.99h-10.18v28.94h-6.59Z"/>
      <path class="cls-1" d="m221.47,321.87c-4.39,0-7.88-1.2-10.48-3.62s-3.89-5.86-3.89-10.35v-8.38c0-4.49,1.3-7.94,3.89-10.35,2.59-2.41,6.09-3.62,10.48-3.62s7.88,1.21,10.48,3.62c2.6,2.41,3.89,5.86,3.89,10.35v8.38c0,4.49-1.3,7.94-3.89,10.35-2.59,2.41-6.09,3.62-10.48,3.62Zm0-5.89c2.46,0,4.37-.71,5.74-2.15,1.36-1.43,2.05-3.34,2.05-5.74v-8.78c0-2.4-.68-4.31-2.05-5.74-1.36-1.43-3.28-2.15-5.74-2.15s-4.33.72-5.71,2.15c-1.38,1.43-2.07,3.34-2.07,5.74v8.78c0,2.4.69,4.31,2.07,5.74,1.38,1.43,3.29,2.15,5.71,2.15Z"/>
      <path class="cls-1" d="m243.33,321.17v-34.93h6.59v28.94h15.97v5.99h-22.56Z"/>
      <path class="cls-1" d="m275.36,321.17v-12.03l-11.88-22.9h7.33l7.39,14.97h.9l7.39-14.97h7.33l-11.88,22.9v12.03h-6.59Z"/>
      <path class="cls-1" d="m313.09,321.17v-34.93h21.96v5.99h-15.37v8.43h14.17v5.99h-14.17v14.52h-6.59Z"/>
      <path class="cls-1" d="m341.43,321.17v-34.93h15.17c2.2,0,4.11.38,5.74,1.15,1.63.77,2.89,1.85,3.79,3.24.9,1.4,1.35,3.04,1.35,4.94v.6c0,2.1-.5,3.79-1.5,5.09-1,1.3-2.23,2.25-3.69,2.84v.9c1.33.07,2.36.52,3.09,1.37.73.85,1.1,1.97,1.1,3.37v11.43h-6.59v-10.48c0-.8-.21-1.45-.62-1.95s-1.11-.75-2.07-.75h-9.18v13.17h-6.59Zm6.59-19.16h7.88c1.56,0,2.79-.42,3.67-1.27.88-.85,1.32-1.97,1.32-3.37v-.5c0-1.4-.43-2.52-1.3-3.37-.87-.85-2.1-1.27-3.69-1.27h-7.88v9.78Z"/>
      <path class="cls-1" d="m388.24,321.87c-4.39,0-7.88-1.2-10.48-3.62-2.59-2.41-3.89-5.86-3.89-10.35v-8.38c0-4.49,1.3-7.94,3.89-10.35,2.6-2.41,6.09-3.62,10.48-3.62s7.88,1.21,10.48,3.62c2.59,2.41,3.89,5.86,3.89,10.35v8.38c0,4.49-1.3,7.94-3.89,10.35-2.6,2.41-6.09,3.62-10.48,3.62Zm0-5.89c2.46,0,4.38-.71,5.74-2.15,1.36-1.43,2.04-3.34,2.04-5.74v-8.78c0-2.4-.68-4.31-2.04-5.74-1.37-1.43-3.28-2.15-5.74-2.15s-4.33.72-5.71,2.15c-1.38,1.43-2.07,3.34-2.07,5.74v8.78c0,2.4.69,4.31,2.07,5.74,1.38,1.43,3.29,2.15,5.71,2.15Z"/>
      <path class="cls-1" d="m410.1,321.17v-34.93h6.59v28.94h15.97v5.99h-22.55Z"/>
      <path class="cls-1" d="m451.21,321.87c-4.39,0-7.88-1.2-10.48-3.62-2.6-2.41-3.89-5.86-3.89-10.35v-8.38c0-4.49,1.3-7.94,3.89-10.35,2.59-2.41,6.09-3.62,10.48-3.62s7.88,1.21,10.48,3.62c2.6,2.41,3.89,5.86,3.89,10.35v8.38c0,4.49-1.3,7.94-3.89,10.35-2.59,2.41-6.09,3.62-10.48,3.62Zm0-5.89c2.46,0,4.38-.71,5.74-2.15,1.36-1.43,2.05-3.34,2.05-5.74v-8.78c0-2.4-.68-4.31-2.05-5.74-1.36-1.43-3.28-2.15-5.74-2.15s-4.33.72-5.71,2.15c-1.38,1.43-2.07,3.34-2.07,5.74v8.78c0,2.4.69,4.31,2.07,5.74,1.38,1.43,3.28,2.15,5.71,2.15Z"/>
      <path class="cls-1" d="m478.86,321.17l-8.88-34.93h6.79l7.39,30.69h.7l7.39-30.69h6.79l-8.88,34.93h-11.28Z"/>
    </g>
    <g>
      <path class="cls-1" d="m78.27,356.09v-13.16h7.82v1.09h-6.62v4.93h6.07v1.09h-6.07v6.05h-1.2Z"/>
      <path class="cls-1" d="m93.84,356.36c-.94,0-1.76-.17-2.47-.5s-1.26-.84-1.66-1.51c-.4-.68-.6-1.53-.6-2.56v-8.86h1.2v8.86c0,1.18.31,2.05.93,2.62.62.57,1.49.86,2.6.86s1.98-.29,2.6-.86c.62-.57.93-1.44.93-2.62v-8.86h1.2v8.86c0,1.03-.2,1.88-.59,2.56-.39.68-.95,1.18-1.66,1.51-.71.33-1.54.5-2.48.5Z"/>
      <path class="cls-1" d="m102.45,356.09v-13.16h1.2v12.07h6.92v1.09h-8.12Z"/>
      <path class="cls-1" d="m113.49,356.09v-13.16h1.2v12.07h6.92v1.09h-8.12Z"/>
      <path class="cls-1" d="m123.58,351.77v-1.05h5.57v1.05h-5.57Z"/>
      <path class="cls-1" d="m137.4,356.36c-.94,0-1.78-.17-2.52-.5-.74-.33-1.32-.84-1.75-1.52s-.64-1.55-.64-2.6v-.36h1.2v.36c0,1.22.35,2.12,1.04,2.7.7.58,1.58.87,2.66.87s1.93-.25,2.52-.76c.59-.51.88-1.16.88-1.95,0-.53-.13-.95-.39-1.27s-.61-.58-1.07-.77c-.46-.19-.99-.37-1.59-.52l-1.2-.3c-.71-.19-1.35-.42-1.92-.71-.56-.28-1.01-.65-1.33-1.11-.33-.46-.49-1.04-.49-1.76s.18-1.33.55-1.86c.37-.53.88-.93,1.53-1.21.65-.28,1.41-.42,2.28-.42s1.64.15,2.34.45c.7.3,1.25.74,1.65,1.33.41.58.61,1.31.61,2.19v.88h-1.2v-.88c0-.69-.15-1.25-.45-1.67-.3-.43-.71-.74-1.22-.94-.51-.2-1.09-.3-1.73-.3-.92,0-1.67.21-2.27.63-.6.42-.89,1.03-.89,1.81,0,.53.12.95.37,1.26.25.31.59.56,1.03.75.45.19.97.36,1.57.51l1.2.3c.69.16,1.32.38,1.9.65.58.27,1.04.64,1.39,1.11.35.47.53,1.09.53,1.85s-.19,1.43-.57,1.99c-.38.56-.92,1-1.61,1.31-.69.31-1.5.46-2.42.46Z"/>
      <path class="cls-1" d="m148.12,356.09v-12.07h-4.4v-1.09h10v1.09h-4.4v12.07h-1.2Z"/>
      <path class="cls-1" d="m154.03,356.09l4.31-13.16h2.14l4.31,13.16h-1.26l-1.13-3.5h-5.98l-1.13,3.5h-1.26Zm2.73-4.59h5.3l-2.54-7.86h-.23l-2.54,7.86Z"/>
      <path class="cls-1" d="m172.13,356.36c-1.54,0-2.77-.46-3.69-1.36-.92-.91-1.38-2.24-1.38-4v-2.97c0-1.75.46-3.09,1.38-4,.92-.91,2.15-1.36,3.69-1.36s2.7.43,3.51,1.29,1.21,2.03,1.21,3.51v.09h-1.2v-.13c0-1.08-.29-1.96-.86-2.64-.57-.68-1.46-1.02-2.66-1.02s-2.17.37-2.85,1.11c-.68.74-1.03,1.78-1.03,3.12v3.05c0,1.34.34,2.38,1.03,3.12.68.74,1.63,1.11,2.85,1.11s2.09-.34,2.66-1.02c.57-.68.86-1.56.86-2.64v-.28h1.2v.24c0,1.48-.4,2.65-1.21,3.51s-1.98,1.29-3.51,1.29Z"/>
      <path class="cls-1" d="m180.27,356.09v-13.16h1.2v5.94h.23l6.09-5.94h1.69l-6.81,6.5,7.03,6.66h-1.71l-6.3-6.05h-.23v6.05h-1.2Z"/>
      <path class="cls-1" d="m199.28,356.09l-2.31-13.16h1.22l2.11,12.45h.23l2.73-12.45h2.22l2.73,12.45h.23l2.11-12.45h1.22l-2.31,13.16h-2.24l-2.73-12.45h-.23l-2.73,12.45h-2.24Z"/>
      <path class="cls-1" d="m214.87,356.09v-13.16h7.95v1.09h-6.75v4.93h6.22v1.09h-6.22v4.96h6.83v1.09h-8.03Z"/>
      <path class="cls-1" d="m225.57,356.09v-1.09h1.88v-10.98h-1.88v-1.09h6.52c.75,0,1.42.14,2.01.41.59.28,1.05.66,1.38,1.16.33.5.5,1.07.5,1.72v.15c0,.61-.12,1.12-.36,1.52-.24.4-.53.71-.87.94s-.67.39-1,.49v.23c.33.08.66.23,1.01.46.34.23.63.55.86.95.23.4.35.91.35,1.52v.19c0,.71-.17,1.33-.52,1.84s-.82.91-1.41,1.17c-.6.27-1.27.4-2.02.4h-6.47Zm3.08-7.18h3.35c.86,0,1.54-.22,2.04-.65s.74-1,.74-1.7v-.19c0-.7-.25-1.27-.74-1.7-.5-.43-1.18-.65-2.04-.65h-3.35v4.89Zm0,6.09h3.27c.94,0,1.65-.22,2.13-.66.48-.44.72-1.03.72-1.77v-.15c0-.74-.24-1.33-.72-1.77s-1.19-.66-2.13-.66h-3.27v5Z"/>
      <path class="cls-1" d="m244.33,356.09v-1.09h1.88v-10.98h-1.88v-1.09h5c1.72,0,3.06.44,4.01,1.31s1.44,2.23,1.44,4.07v2.43c0,1.84-.48,3.2-1.44,4.06-.96.87-2.3,1.3-4.01,1.3h-5Zm3.08-1.09h1.92c1.38,0,2.43-.33,3.16-1,.73-.66,1.09-1.74,1.09-3.22v-2.54c0-1.49-.36-2.57-1.09-3.22-.73-.66-1.78-.99-3.16-.99h-1.92v10.96Z"/>
      <path class="cls-1" d="m258.25,356.09v-13.16h7.95v1.09h-6.75v4.93h6.22v1.09h-6.22v4.96h6.83v1.09h-8.03Z"/>
      <path class="cls-1" d="m272.8,356.09l-4.23-13.16h1.26l3.93,12.47h.23l3.93-12.47h1.26l-4.23,13.16h-2.14Z"/>
      <path class="cls-1" d="m282.07,356.09v-13.16h7.95v1.09h-6.75v4.93h6.22v1.09h-6.22v4.96h6.83v1.09h-8.03Z"/>
      <path class="cls-1" d="m293.48,356.09v-13.16h1.2v12.07h6.92v1.09h-8.12Z"/>
      <path class="cls-1" d="m308.82,356.36c-1.54,0-2.77-.46-3.68-1.36-.92-.91-1.37-2.24-1.37-4v-2.97c0-1.75.46-3.09,1.37-4,.91-.91,2.14-1.36,3.68-1.36s2.77.46,3.69,1.36c.92.91,1.37,2.24,1.37,4v2.97c0,1.75-.46,3.09-1.37,4-.92.91-2.14,1.36-3.69,1.36Zm0-1.09c1.23,0,2.18-.37,2.85-1.11s1.01-1.78,1.01-3.12v-3.05c0-1.34-.33-2.38-1.01-3.12s-1.62-1.11-2.85-1.11-2.16.37-2.84,1.11-1.02,1.78-1.02,3.12v3.05c0,1.34.34,2.38,1.02,3.12s1.62,1.11,2.84,1.11Z"/>
      <path class="cls-1" d="m317.45,356.09v-13.16h4.87c.78,0,1.48.15,2.1.44.62.29,1.11.72,1.48,1.27s.54,1.22.54,2.01v.23c0,.79-.18,1.46-.55,2.02-.37.56-.86.98-1.49,1.27-.62.29-1.31.43-2.08.43h-3.67v5.49h-1.2Zm1.2-6.58h3.54c.94,0,1.68-.23,2.23-.7.54-.46.82-1.12.82-1.96v-.19c0-.85-.27-1.51-.8-1.96-.53-.46-1.28-.69-2.25-.69h-3.54v5.49Z"/>
      <path class="cls-1" d="m329.49,356.09v-13.16h7.95v1.09h-6.75v4.93h6.22v1.09h-6.22v4.96h6.83v1.09h-8.03Z"/>
      <path class="cls-1" d="m340.9,356.09v-13.16h5.15c.81,0,1.53.14,2.15.41.62.28,1.11.67,1.47,1.19s.54,1.15.54,1.89v.19c0,.89-.21,1.59-.64,2.1s-.93.84-1.5,1.01v.23c.44.01.81.15,1.11.41.3.26.45.68.45,1.26v4.47h-1.2v-4.34c0-.4-.11-.71-.33-.92-.22-.21-.55-.32-.99-.32h-5v5.58h-1.2Zm1.2-6.67h3.84c.98,0,1.73-.23,2.27-.69.53-.46.8-1.11.8-1.96v-.09c0-.85-.26-1.51-.78-1.96-.52-.46-1.28-.69-2.28-.69h-3.84v5.4Z"/>
    </g>
  </g>
  <g>
    <path class="cls-1" d="m82.48,598.64c-.89,0-1.68-.19-2.38-.57-.7-.38-1.24-.93-1.64-1.64-.4-.71-.6-1.55-.6-2.52v-.19c0-.98.2-1.82.6-2.53.4-.71.95-1.25,1.64-1.64.7-.38,1.49-.57,2.38-.57s1.62.17,2.23.5c.61.33,1.08.76,1.43,1.3s.56,1.09.65,1.68l-1.11.23c-.06-.49-.22-.94-.47-1.34-.25-.41-.6-.73-1.05-.98-.45-.24-1.01-.37-1.67-.37s-1.26.15-1.79.46c-.53.31-.94.74-1.25,1.3-.31.56-.46,1.22-.46,1.98v.15c0,.76.15,1.43.46,1.98.31.56.72.99,1.25,1.3.53.31,1.12.46,1.79.46,1,0,1.77-.26,2.29-.78s.85-1.16.98-1.91l1.11.23c-.11.59-.35,1.15-.71,1.68s-.84.96-1.45,1.3c-.61.33-1.35.5-2.23.5Z"/>
    <path class="cls-1" d="m94.46,598.64c-.93,0-1.74-.2-2.43-.59s-1.23-.95-1.62-1.65c-.38-.71-.57-1.53-.57-2.47v-.23c0-.94.19-1.76.57-2.47.38-.71.92-1.26,1.62-1.66.7-.39,1.51-.59,2.43-.59s1.74.2,2.44.59c.7.4,1.23.95,1.62,1.66.38.71.57,1.53.57,2.47v.23c0,.94-.19,1.76-.57,2.47-.38.71-.92,1.26-1.62,1.65-.7.39-1.51.59-2.44.59Zm0-1.02c1.08,0,1.93-.34,2.56-1.02.63-.68.94-1.59.94-2.72v-.15c0-1.13-.31-2.03-.94-2.72s-1.48-1.02-2.56-1.02-1.91.34-2.55,1.02c-.63.68-.95,1.59-.95,2.72v.15c0,1.13.32,2.03.95,2.72.63.68,1.48,1.02,2.55,1.02Z"/>
    <path class="cls-1" d="m102.58,598.37v-9.14h1.09v1.69h.23c.23-.49.59-.92,1.11-1.31.51-.38,1.26-.57,2.24-.57.66,0,1.27.14,1.82.41.55.28.99.69,1.33,1.25.33.56.5,1.26.5,2.1v5.57h-1.13v-5.49c0-1-.25-1.72-.75-2.16-.5-.44-1.17-.66-2.01-.66-.94,0-1.72.31-2.35.93-.63.62-.94,1.56-.94,2.81v4.57h-1.13Z"/>
    <path class="cls-1" d="m117.77,598.37c-.49,0-.86-.12-1.1-.38s-.37-.6-.37-1.05v-6.69h-2.93v-1.02h2.93v-3.42h1.13v3.42h3.2v1.02h-3.2v6.54c0,.38.19.56.56.56h2.14v1.02h-2.37Z"/>
    <path class="cls-1" d="m126.52,598.64c-.64,0-1.22-.11-1.74-.33-.52-.22-.93-.54-1.23-.97-.3-.43-.45-.94-.45-1.54s.15-1.12.45-1.52.71-.7,1.22-.9c.51-.2,1.08-.3,1.71-.3h3.35v-.73c0-.74-.21-1.32-.64-1.73-.43-.41-1.05-.62-1.86-.62s-1.44.2-1.91.59c-.47.39-.79.92-.95,1.59l-1.09-.32c.15-.54.39-1.03.71-1.46.33-.43.76-.78,1.3-1.03.54-.26,1.18-.39,1.94-.39,1.15,0,2.05.3,2.68.9s.95,1.44.95,2.52v4.44c0,.38.17.56.53.56h.88v.98h-1.2c-.39,0-.7-.12-.92-.35-.23-.23-.34-.55-.34-.95v-.13h-.19c-.16.28-.37.54-.63.81-.26.26-.59.48-1.01.64-.41.16-.93.25-1.56.25Zm.08-1.02c.96,0,1.75-.29,2.34-.87.59-.58.89-1.41.89-2.47v-.23h-3.33c-.65,0-1.19.14-1.63.42s-.65.72-.65,1.31.22,1.04.67,1.36c.45.32,1.01.48,1.7.48Z"/>
    <path class="cls-1" d="m139.04,598.64c-.89,0-1.68-.19-2.38-.57-.7-.38-1.24-.93-1.64-1.64-.4-.71-.6-1.55-.6-2.52v-.19c0-.98.2-1.82.6-2.53.4-.71.95-1.25,1.64-1.64.7-.38,1.49-.57,2.38-.57s1.62.17,2.23.5c.61.33,1.08.76,1.43,1.3s.56,1.09.65,1.68l-1.11.23c-.06-.49-.22-.94-.47-1.34-.25-.41-.6-.73-1.05-.98-.45-.24-1.01-.37-1.67-.37s-1.26.15-1.79.46c-.53.31-.94.74-1.25,1.3-.31.56-.46,1.22-.46,1.98v.15c0,.76.15,1.43.46,1.98.31.56.72.99,1.25,1.3.53.31,1.12.46,1.79.46,1,0,1.77-.26,2.29-.78s.85-1.16.98-1.91l1.11.23c-.11.59-.35,1.15-.71,1.68s-.84.96-1.45,1.3c-.61.33-1.35.5-2.23.5Z"/>
    <path class="cls-1" d="m149.76,598.37c-.49,0-.86-.12-1.1-.38s-.37-.6-.37-1.05v-6.69h-2.93v-1.02h2.93v-3.42h1.13v3.42h3.2v1.02h-3.2v6.54c0,.38.19.56.56.56h2.14v1.02h-2.37Z"/>
    <path class="cls-1" d="m164.18,602.13c-1.63,0-3.09-.32-4.37-.96-1.29-.64-2.3-1.57-3.04-2.8-.74-1.23-1.11-2.73-1.11-4.51v-.38c0-1.78.34-3.28,1.03-4.51.69-1.23,1.65-2.16,2.88-2.8s2.64-.96,4.23-.96h.38c1.55,0,2.92.31,4.1.93,1.18.62,2.1,1.51,2.76,2.68s1,2.57,1,4.21v.36c0,1.71-.3,2.96-.89,3.77-.6.81-1.43,1.21-2.49,1.21h-.43c-.48,0-.84-.11-1.08-.34s-.37-.53-.37-.92v-.24h-.23c-.11.26-.28.53-.51.8s-.54.5-.93.69c-.4.19-.91.28-1.53.28-.73,0-1.39-.2-1.98-.59s-1.07-.94-1.41-1.64-.52-1.48-.52-2.36v-.34c0-.89.17-1.68.52-2.37s.81-1.23,1.4-1.63c.59-.39,1.25-.59,1.97-.59.61,0,1.12.09,1.5.26.39.18.7.39.92.65s.4.51.53.76h.23v-1.41h1.09v7.58c0,.16.03.28.1.34.07.06.18.09.33.09h.28c.85,0,1.46-.31,1.82-.94s.54-1.69.54-3.18v-.21c0-1.47-.28-2.71-.84-3.72-.56-1.02-1.34-1.79-2.34-2.32-1-.53-2.19-.8-3.55-.8h-.34c-1.4,0-2.64.27-3.69.82-1.06.55-1.88,1.36-2.47,2.44-.59,1.08-.88,2.43-.88,4.03v.3c0,1.6.32,2.95.95,4.03.63,1.08,1.51,1.9,2.63,2.44,1.12.54,2.4.82,3.84.82h3.61v1.02h-3.65Zm-.41-4.53c.87,0,1.58-.32,2.13-.96.56-.64.84-1.53.84-2.67v-.19c0-1.14-.28-2.03-.84-2.67s-1.27-.96-2.13-.96-1.58.33-2.13.98c-.56.65-.84,1.53-.84,2.63v.23c0,1.1.28,1.98.84,2.63.56.65,1.27.98,2.13.98Z"/>
    <path class="cls-1" d="m178.6,598.64c-.64,0-1.22-.11-1.74-.33-.52-.22-.93-.54-1.23-.97-.3-.43-.45-.94-.45-1.54s.15-1.12.45-1.52.71-.7,1.22-.9c.51-.2,1.08-.3,1.71-.3h3.35v-.73c0-.74-.21-1.32-.64-1.73-.43-.41-1.05-.62-1.86-.62s-1.44.2-1.91.59c-.47.39-.79.92-.95,1.59l-1.09-.32c.15-.54.39-1.03.71-1.46.33-.43.76-.78,1.3-1.03.54-.26,1.18-.39,1.94-.39,1.15,0,2.05.3,2.68.9s.95,1.44.95,2.52v4.44c0,.38.17.56.53.56h.88v.98h-1.2c-.39,0-.7-.12-.92-.35-.23-.23-.34-.55-.34-.95v-.13h-.19c-.16.28-.37.54-.63.81-.26.26-.59.48-1.01.64-.41.16-.93.25-1.56.25Zm.08-1.02c.96,0,1.75-.29,2.34-.87.59-.58.89-1.41.89-2.47v-.23h-3.33c-.65,0-1.19.14-1.63.42s-.65.72-.65,1.31.22,1.04.67,1.36c.45.32,1.01.48,1.7.48Z"/>
    <path class="cls-1" d="m187.23,598.37v-9.14h1.09v1.69h.23c.23-.49.6-.92,1.11-1.31.51-.38,1.26-.57,2.24-.57.67,0,1.27.14,1.82.41.55.28.99.69,1.33,1.25.33.56.5,1.26.5,2.1v5.57h-1.13v-5.49c0-1-.25-1.72-.75-2.16-.5-.44-1.17-.66-2.01-.66-.94,0-1.72.31-2.35.93-.63.62-.94,1.56-.94,2.81v4.57h-1.13Z"/>
    <path class="cls-1" d="m202.18,598.64c-.64,0-1.22-.11-1.74-.33-.52-.22-.93-.54-1.23-.97-.3-.43-.45-.94-.45-1.54s.15-1.12.45-1.52.71-.7,1.22-.9c.51-.2,1.08-.3,1.71-.3h3.35v-.73c0-.74-.21-1.32-.64-1.73-.43-.41-1.05-.62-1.86-.62s-1.44.2-1.91.59c-.47.39-.79.92-.95,1.59l-1.09-.32c.15-.54.39-1.03.71-1.46.33-.43.76-.78,1.3-1.03.54-.26,1.18-.39,1.94-.39,1.15,0,2.05.3,2.68.9s.95,1.44.95,2.52v4.44c0,.38.17.56.53.56h.88v.98h-1.2c-.39,0-.7-.12-.92-.35-.23-.23-.34-.55-.34-.95v-.13h-.19c-.16.28-.37.54-.63.81-.26.26-.59.48-1.01.64-.41.16-.93.25-1.56.25Zm.08-1.02c.96,0,1.75-.29,2.34-.87.59-.58.89-1.41.89-2.47v-.23h-3.33c-.65,0-1.19.14-1.63.42s-.65.72-.65,1.31.22,1.04.67,1.36c.45.32,1.01.48,1.7.48Z"/>
    <path class="cls-1" d="m212.16,598.37v-8.12h-3.01v-1.02h3.01v-2.59c0-.45.12-.8.37-1.05.24-.25.61-.38,1.1-.38h2.26v1.02h-2.03c-.38,0-.56.19-.56.56v2.44h3.08v1.02h-3.08v8.12h-1.13Z"/>
    <path class="cls-1" d="m219.23,598.37v-9.14h1.09v1.15h.23c.18-.41.44-.71.78-.9.34-.19.82-.28,1.44-.28h1.07v1.05h-1.2c-.69,0-1.24.19-1.65.58-.41.39-.62,1-.62,1.82v5.72h-1.13Z"/>
    <path class="cls-1" d="m230.64,598.64c-.93,0-1.74-.2-2.43-.59s-1.23-.95-1.62-1.65c-.38-.71-.57-1.53-.57-2.47v-.23c0-.94.19-1.76.57-2.47.38-.71.92-1.26,1.62-1.66.7-.39,1.51-.59,2.43-.59s1.74.2,2.44.59c.7.4,1.23.95,1.62,1.66.38.71.57,1.53.57,2.47v.23c0,.94-.19,1.76-.57,2.47-.38.71-.92,1.26-1.62,1.65-.7.39-1.51.59-2.44.59Zm0-1.02c1.08,0,1.93-.34,2.56-1.02.63-.68.94-1.59.94-2.72v-.15c0-1.13-.31-2.03-.94-2.72s-1.48-1.02-2.56-1.02-1.91.34-2.55,1.02c-.63.68-.95,1.59-.95,2.72v.15c0,1.13.32,2.03.95,2.72.63.68,1.48,1.02,2.55,1.02Z"/>
    <path class="cls-1" d="m239.16,598.64c-.31,0-.57-.1-.77-.3-.2-.2-.3-.46-.3-.77s.1-.57.3-.77.46-.3.77-.3.57.1.77.3c.2.2.3.46.3.77s-.1.57-.3.77-.46.3-.77.3Z"/>
    <path class="cls-1" d="m243.66,598.37v-9.14h1.09v1.15h.23c.17-.41.44-.71.78-.9.34-.19.82-.28,1.44-.28h1.07v1.05h-1.2c-.69,0-1.24.19-1.65.58-.41.39-.62,1-.62,1.82v5.72h-1.13Z"/>
    <path class="cls-1" d="m254.75,598.56c-.65,0-1.26-.14-1.81-.41-.56-.28-1-.69-1.33-1.25-.33-.56-.5-1.26-.5-2.1v-5.57h1.13v5.49c0,.99.25,1.71.75,2.15.5.45,1.17.67,2.01.67.94,0,1.72-.31,2.35-.93.63-.62.94-1.56.94-2.81v-4.57h1.13v9.14h-1.09v-1.69h-.23c-.23.49-.6.92-1.11,1.31-.51.38-1.26.57-2.24.57Z"/>
  </g>
  <g>
    <polygon class="cls-2" points="833.25 679.86 588.51 -72.53 600.74 -90.65 845.48 661.74 833.25 679.86"/>
    <polygon class="cls-4" points="821.01 697.98 576.28 -54.4 588.51 -72.53 833.25 679.86 821.01 697.98"/>
    <polygon class="cls-3" points="808.78 716.11 564.04 -36.28 576.28 -54.4 821.01 697.98 808.78 716.11"/>
    <polygon class="cls-7" points="796.55 734.23 551.81 -18.16 564.04 -36.28 808.78 716.11 796.55 734.23"/>
  </g>
</svg>