<?xml version="1.0" encoding="UTF-8"?>
<svg id="_Слой_1" data-name="Слой 1" xmlns="http://www.w3.org/2000/svg" xmlns:xlink="http://www.w3.org/1999/xlink" viewBox="0 0 1280 817.06">
  <defs>
    <style>
      @keyframes star-1 {
        0% {
            transform: translateY(-20px);
        }

        100% {
            transform: translateY(20px);
        }
      }

      @keyframes pencil {
        0% {
            scale: 0.93;
            translate: -320px 80px;
            rotate: -3deg;
        }

        100% {
            scale: 1.07;
            translate: -50px 0px;
            rotate: 3deg;
        }
      }

      .cls-1, .cls-2, .cls-5, .cls-3, .cls-6 {
        animation: star-1 1200ms alternate ease-in-out infinite;
      }

      .cls-3x, .cls-5x, .cls-6x {
        animation: pencil 1050ms alternate ease-in-out infinite;
      }

      .cls-1, .cls-2 {
        stroke: #000;
        stroke-miterlimit: 10;
        stroke-width: 10px;
      }

      .cls-1, .cls-3, .cls-3x {
        fill: #e8da31;
      }

      .cls-4 {
        fill: url(#_Безымянный_градиент_2);
      }

      .cls-4, .cls-5, .cls-6, .cls-3 {
        stroke-width: 0px;
      }

      .cls-5 {
        fill: #000;
      }

      .cls-2 {
        fill: #fff;
      }

      .cls-6, .cls-6x {
        fill: #e53333;
      }
    </style>
    <linearGradient id="_Безымянный_градиент_2" data-name="Безымянный градиент 2" x1="640.5" y1="728.53" x2="640.5" y2="88.53" gradientUnits="userSpaceOnUse">
      <stop offset="0" stop-color="#305cd8" stop-opacity="0"/>
      <stop offset="0" stop-color="rgba(48, 92, 216, .08)" stop-opacity=".08"/>
      <stop offset=".03" stop-color="rgba(48, 92, 216, .27)" stop-opacity=".27"/>
      <stop offset=".06" stop-color="rgba(48, 92, 216, .45)" stop-opacity=".45"/>
      <stop offset=".08" stop-color="rgba(48, 92, 216, .6)" stop-opacity=".6"/>
      <stop offset=".11" stop-color="rgba(48, 92, 216, .72)" stop-opacity=".72"/>
      <stop offset=".15" stop-color="rgba(48, 92, 216, .83)" stop-opacity=".83"/>
      <stop offset=".19" stop-color="rgba(48, 92, 216, .91)" stop-opacity=".91"/>
      <stop offset=".24" stop-color="rgba(48, 92, 216, .96)" stop-opacity=".96"/>
      <stop offset=".31" stop-color="rgba(48, 92, 216, .99)" stop-opacity=".99"/>
      <stop offset=".5" stop-color="#305cd8"/>
      <stop offset=".69" stop-color="rgba(48, 92, 216, .99)" stop-opacity=".99"/>
      <stop offset=".76" stop-color="rgba(48, 92, 216, .96)" stop-opacity=".96"/>
      <stop offset=".81" stop-color="rgba(48, 92, 216, .91)" stop-opacity=".91"/>
      <stop offset=".85" stop-color="rgba(48, 92, 216, .83)" stop-opacity=".83"/>
      <stop offset=".89" stop-color="rgba(48, 92, 216, .72)" stop-opacity=".72"/>
      <stop offset=".92" stop-color="rgba(48, 92, 216, .6)" stop-opacity=".6"/>
      <stop offset=".94" stop-color="rgba(48, 92, 216, .45)" stop-opacity=".45"/>
      <stop offset=".97" stop-color="rgba(48, 92, 216, .27)" stop-opacity=".27"/>
      <stop offset=".99" stop-color="rgba(48, 92, 216, .08)" stop-opacity=".08"/>
      <stop offset="1" stop-color="#305cd8" stop-opacity="0"/>
    </linearGradient>
  </defs>
  <rect class="cls-4" x="0" y="88.53" width="1281" height="640"/>
  <path class="cls-2" d="M331.98,210.19h699.21v356.87c0,58.95-47.86,106.8-106.8,106.8H331.98V210.19h0Z"/>
  <polygon class="cls-6" points="297.83 172.37 300.35 124.35 249.8 174.9 297.83 172.37"/>
  <polygon class="cls-6" points="280.61 155.15 303.02 238.8 364.26 177.56 280.61 155.15"/>
  <polygon class="cls-3" points="386.67 261.22 338.45 203.37 328.83 213 386.67 261.22"/>
  <g>
    <path class="cls-5" d="M380.86,397.88l14.04-70.28h20.2l-1.42,7.02-3.51,18.97-2.75,18.78-5.12,25.51h-21.43ZM421.93,380.42c-3.98,0-7.48-.82-10.48-2.47-3-1.64-5.15-4.42-6.45-8.35-1.3-3.92-1.41-9.26-.33-16.03.95-5.63,2.47-10.45,4.55-14.46,2.09-4.01,4.73-7.1,7.92-9.25,3.19-2.15,6.88-3.22,11.05-3.22,3.48,0,6.84.93,10.1,2.8,3.25,1.87,5.94,4.57,8.06,8.11,2.12,3.54,3.18,7.9,3.18,13.09,0,4.24-.73,8.17-2.18,11.81-1.46,3.64-3.46,6.8-6.02,9.48-2.56,2.69-5.5,4.77-8.82,6.26-3.32,1.48-6.84,2.23-10.58,2.23ZM418.42,363.54c1.9,0,3.54-.49,4.93-1.47,1.39-.98,2.48-2.35,3.27-4.12.79-1.77,1.19-3.86,1.19-6.26s-.68-4.36-2.04-5.88c-1.36-1.52-3.24-2.28-5.64-2.28-1.83,0-3.46.49-4.88,1.47-1.42.98-2.53,2.36-3.32,4.13-.79,1.77-1.19,3.86-1.19,6.26s.68,4.36,2.04,5.88c1.36,1.52,3.24,2.28,5.64,2.28Z"/>
    <path class="cls-5" d="M450.95,379.48l10.34-51.88h20.2l-2.94,14.7-1.99-4.17c2.15-4.11,5.14-7.05,8.96-8.82,3.83-1.77,8.2-2.66,13.14-2.66l-3.79,18.97c-.89-.13-1.69-.22-2.42-.29-.73-.06-1.47-.09-2.23-.09-3.54,0-6.4.79-8.58,2.37-2.18,1.58-3.65,4.21-4.41,7.87l-4.84,23.99h-21.43Z"/>
    <path class="cls-5" d="M524.17,380.42c-5.69,0-10.66-1-14.89-2.99-4.24-1.99-7.51-4.79-9.82-8.39-2.31-3.6-3.46-7.81-3.46-12.61,0-5.69,1.39-10.78,4.17-15.27,2.78-4.49,6.61-8.03,11.48-10.62,4.87-2.59,10.43-3.89,16.69-3.89,5.75,0,10.73,1,14.94,2.99,4.2,1.99,7.46,4.77,9.77,8.35,2.31,3.57,3.46,7.79,3.46,12.66,0,5.69-1.39,10.78-4.17,15.27-2.78,4.49-6.59,8.03-11.43,10.62-4.84,2.59-10.42,3.89-16.74,3.89ZM525.4,363.73c1.9,0,3.54-.49,4.93-1.47,1.39-.98,2.48-2.37,3.27-4.17.79-1.8,1.19-3.94,1.19-6.4,0-2.21-.66-4.16-1.99-5.83-1.33-1.67-3.22-2.51-5.69-2.51-1.83,0-3.46.49-4.88,1.47-1.42.98-2.53,2.37-3.32,4.17-.79,1.8-1.19,3.94-1.19,6.4s.68,4.47,2.04,6.02c1.36,1.55,3.24,2.32,5.64,2.32Z"/>
    <path class="cls-5" d="M554.52,398.82c-2.53,0-4.93-.22-7.21-.66-2.28-.44-4.39-1.08-6.35-1.9l8.06-14.89c1.52.82,3.1,1.23,4.74,1.23,1.46,0,2.62-.47,3.51-1.42.89-.95,1.55-2.47,1.99-4.55l9.77-49.03h21.43l-9.67,48.27c-3.04,15.3-11.79,22.95-26.27,22.95ZM582.02,323.43c-3.73,0-6.69-.98-8.87-2.94-2.18-1.96-3.27-4.36-3.27-7.21,0-3.35,1.25-6.13,3.75-8.35,2.5-2.21,5.8-3.32,9.91-3.32,3.73,0,6.69.92,8.87,2.75,2.18,1.83,3.27,4.17,3.27,7.02,0,3.54-1.25,6.43-3.75,8.68-2.5,2.25-5.8,3.37-9.91,3.37Z"/>
    <path class="cls-5" d="M620.33,380.42c-5.69,0-10.67-.98-14.94-2.94-4.27-1.96-7.6-4.74-10-8.35-2.4-3.6-3.6-7.84-3.6-12.71,0-5.69,1.33-10.78,3.98-15.27,2.66-4.49,6.4-8.03,11.24-10.62,4.84-2.59,10.48-3.89,16.93-3.89,5.56,0,10.3.98,14.23,2.94,3.92,1.96,6.92,4.65,9.01,8.06,2.09,3.41,3.13,7.37,3.13,11.85,0,1.58-.11,3.13-.33,4.65-.22,1.52-.49,2.97-.81,4.36h-40.31l1.99-10.34h28.45l-8.91,2.75c.5-2.02.49-3.75-.05-5.17-.54-1.42-1.44-2.53-2.7-3.32-1.27-.79-2.81-1.19-4.65-1.19-2.59,0-4.65.7-6.17,2.09-1.52,1.39-2.61,3.19-3.27,5.41-.66,2.21-1,4.52-1,6.92,0,3.22.87,5.52,2.61,6.88,1.74,1.36,4.28,2.04,7.63,2.04,1.96,0,3.92-.3,5.88-.9,1.96-.6,3.76-1.5,5.41-2.7l8.92,12.99c-3.54,2.4-7.22,4.08-11.05,5.03-3.83.95-7.7,1.42-11.62,1.42Z"/>
    <path class="cls-5" d="M681.41,380.42c-5.69,0-10.66-1-14.89-2.99-4.24-1.99-7.53-4.79-9.86-8.39-2.34-3.6-3.51-7.81-3.51-12.61,0-5.69,1.39-10.78,4.17-15.27,2.78-4.49,6.64-8.03,11.57-10.62,4.93-2.59,10.59-3.89,16.98-3.89s11.57,1.36,16.12,4.08c4.55,2.72,7.74,6.42,9.58,11.1l-18.21,8.35c-.89-2.4-2.07-4.11-3.56-5.12-1.49-1.01-3.15-1.52-4.98-1.52s-3.6.49-5.12,1.47c-1.52.98-2.7,2.32-3.56,4.03s-1.28,3.73-1.28,6.07c0,2.47.69,4.49,2.09,6.07,1.39,1.58,3.42,2.37,6.07,2.37,2.09,0,3.92-.5,5.5-1.52,1.58-1.01,2.97-2.72,4.17-5.12l15.65,9.11c-2.53,4.55-6.12,8.09-10.76,10.62-4.65,2.53-10.04,3.79-16.17,3.79Z"/>
    <path class="cls-5" d="M711.95,346.09l3.13-15.65h39.17l-3.13,15.65h-39.17ZM734.9,380.42c-4.43,0-8.19-.82-11.29-2.47-3.1-1.64-5.28-4.06-6.54-7.25-1.27-3.19-1.46-7.03-.57-11.52l8.63-43.25h21.43l-8.63,43.15c-.32,1.77-.13,3.07.57,3.89.7.82,1.77,1.23,3.22,1.23.88,0,1.69-.11,2.42-.33.73-.22,1.5-.52,2.32-.9l2.47,14.42c-1.96,1.08-4.16,1.85-6.59,2.32-2.43.47-4.92.71-7.44.71Z"/>
    <path class="cls-5" d="M775.3,380.42c-4.62,0-9-.46-13.14-1.38-4.14-.92-7.35-2.04-9.63-3.37l7.4-14.61c2.59,1.58,5.52,2.77,8.77,3.56,3.26.79,6.34,1.19,9.25,1.19,2.4,0,4.06-.24,4.98-.71.92-.47,1.38-1.06,1.38-1.75,0-.76-.63-1.31-1.9-1.66-1.27-.35-2.89-.65-4.88-.9-1.99-.25-4.09-.63-6.31-1.14-2.21-.51-4.32-1.25-6.31-2.23-1.99-.98-3.62-2.36-4.88-4.13-1.27-1.77-1.9-4.11-1.9-7.02,0-4.49,1.31-8.17,3.94-11.05,2.62-2.88,6.15-5.03,10.58-6.45,4.42-1.42,9.33-2.13,14.7-2.13,3.79,0,7.44.33,10.95,1,3.51.66,6.62,1.63,9.34,2.89l-7.4,14.61c-2.72-1.58-5.42-2.62-8.11-3.13-2.69-.5-5.14-.76-7.35-.76-2.47,0-4.17.27-5.12.81-.95.54-1.42,1.12-1.42,1.75,0,.76.63,1.33,1.9,1.71,1.26.38,2.88.71,4.84,1,1.96.29,4.06.66,6.31,1.14,2.24.47,4.35,1.2,6.31,2.18,1.96.98,3.57,2.36,4.84,4.13,1.26,1.77,1.9,4.11,1.9,7.02,0,4.3-1.31,7.9-3.94,10.81-2.62,2.91-6.13,5.07-10.53,6.5-4.4,1.42-9.25,2.13-14.56,2.13Z"/>
  </g>
  <path class="cls-1" d="M818.26,567.4c0-41.38,23.61-77.25,58.09-94.87-206.3,74.29-412.6,148.59-618.9,222.88-1.25,2.44-16.87,34.39.51,64.85,14.11,24.73,43.98,37.96,74.03,32.17,197.58-39.52,395.16-79.04,592.74-118.57-58.8,0-106.47-47.67-106.47-106.47Z"/>
  <g>
    <rect class="cls-6x" x="824.16" y="255.96" width="79.51" height="36.77" transform="translate(59.05 691.23) rotate(-45)"/>
    <polygon class="cls-3x" points="807.64 330.61 848.8 315.45 822.81 289.45 807.64 330.61"/>
    <path class="cls-5x" d="M824.48,324.41c-.87-2.37-2.24-4.59-4.14-6.49s-4.13-3.27-6.49-4.14l-6.2,16.84,16.84-6.2Z"/>
  </g>
</svg>