<?xml version="1.0" encoding="UTF-8"?>
<svg id="_Слой_1" data-name="Слой 1" xmlns="http://www.w3.org/2000/svg" xmlns:xlink="http://www.w3.org/1999/xlink" viewBox="0 0 1280 817.06">
  <defs>
    <style>
      .cls-1 {
        fill: url(#_Безымянный_градиент_2);
      }

      .cls-1, .cls-2, .cls-3 {
        stroke-width: 0px;
      }

      @keyframes floating {
        0% {
            transform: translateY(-20px);
        }

        100% {
            transform: translateY(20px);
        }
      }

      .cls-6, .cls-2, .cls-3, .cls-4, .cls-5 {
        animation: floating 2s alternate ease-in-out infinite;
      }

      .cls-2, .cls-4 {
        fill: #000;
      }

      .cls-4, .cls-5, .cls-6 {
        stroke: #000;
        stroke-miterlimit: 10;
        stroke-width: 10px;
      }

      .cls-5, .cls-3 {
        fill: #fff;
      }

      .cls-6 {
        fill: #e5337c;
      }
    </style>
    <linearGradient id="_Безымянный_градиент_2" data-name="Безымянный градиент 2" x1="640.5" y1="728.53" x2="640.5" y2="88.53" gradientUnits="userSpaceOnUse">
      <stop offset="0" stop-color="#305cd8" stop-opacity="0"/>
      <stop offset="0" stop-color="rgba(48, 92, 216, .08)" stop-opacity=".08"/>
      <stop offset=".03" stop-color="rgba(48, 92, 216, .27)" stop-opacity=".27"/>
      <stop offset=".06" stop-color="rgba(48, 92, 216, .45)" stop-opacity=".45"/>
      <stop offset=".08" stop-color="rgba(48, 92, 216, .6)" stop-opacity=".6"/>
      <stop offset=".11" stop-color="rgba(48, 92, 216, .72)" stop-opacity=".72"/>
      <stop offset=".15" stop-color="rgba(48, 92, 216, .83)" stop-opacity=".83"/>
      <stop offset=".19" stop-color="rgba(48, 92, 216, .91)" stop-opacity=".91"/>
      <stop offset=".24" stop-color="rgba(48, 92, 216, .96)" stop-opacity=".96"/>
      <stop offset=".31" stop-color="rgba(48, 92, 216, .99)" stop-opacity=".99"/>
      <stop offset=".5" stop-color="#305cd8"/>
      <stop offset=".69" stop-color="rgba(48, 92, 216, .99)" stop-opacity=".99"/>
      <stop offset=".76" stop-color="rgba(48, 92, 216, .96)" stop-opacity=".96"/>
      <stop offset=".81" stop-color="rgba(48, 92, 216, .91)" stop-opacity=".91"/>
      <stop offset=".85" stop-color="rgba(48, 92, 216, .83)" stop-opacity=".83"/>
      <stop offset=".89" stop-color="rgba(48, 92, 216, .72)" stop-opacity=".72"/>
      <stop offset=".92" stop-color="rgba(48, 92, 216, .6)" stop-opacity=".6"/>
      <stop offset=".94" stop-color="rgba(48, 92, 216, .45)" stop-opacity=".45"/>
      <stop offset=".97" stop-color="rgba(48, 92, 216, .27)" stop-opacity=".27"/>
      <stop offset=".99" stop-color="rgba(48, 92, 216, .08)" stop-opacity=".08"/>
      <stop offset="1" stop-color="#305cd8" stop-opacity="0"/>
    </linearGradient>
  </defs>
  <rect class="cls-1" x="0" y="88.53" width="1281" height="640"/>
  <ellipse class="cls-5" cx="168.45" cy="359.52" rx="72.38" ry="101.49"/>
  <polygon class="cls-5" points="487.47 236.07 487.47 452.59 392.73 547.32 549.77 483.22 1205.43 483.22 1205.43 317.78 487.47 236.07"/>
  <ellipse class="cls-4" cx="193.72" cy="359.52" rx="47.11" ry="66.05"/>
  <ellipse class="cls-5" cx="343.85" cy="359.52" rx="72.38" ry="101.49"/>
  <ellipse class="cls-4" cx="369.13" cy="359.52" rx="47.11" ry="66.05"/>
  <g>
    <path class="cls-2" d="M521.56,385.26l12.79-64.02h18.4l-1.3,6.39-3.2,17.28-2.5,17.11-4.67,23.24h-19.53ZM558.96,369.36c-3.63,0-6.81-.75-9.55-2.25-2.74-1.5-4.7-4.03-5.88-7.6-1.18-3.57-1.28-8.44-.3-14.6.86-5.12,2.25-9.52,4.15-13.18,1.9-3.66,4.3-6.46,7.21-8.42,2.91-1.96,6.26-2.94,10.07-2.94,3.17,0,6.23.85,9.2,2.55,2.97,1.7,5.41,4.16,7.34,7.39,1.93,3.23,2.89,7.2,2.89,11.92,0,3.86-.66,7.44-1.99,10.76-1.33,3.31-3.15,6.19-5.49,8.64-2.33,2.45-5.01,4.35-8.04,5.7-3.02,1.35-6.23,2.03-9.63,2.03ZM555.77,353.98c1.73,0,3.23-.45,4.49-1.34,1.27-.89,2.26-2.14,2.98-3.76.72-1.61,1.08-3.51,1.08-5.7s-.62-3.97-1.86-5.36c-1.24-1.38-2.95-2.07-5.14-2.07-1.67,0-3.15.45-4.45,1.34-1.3.89-2.3,2.15-3.02,3.76-.72,1.61-1.08,3.51-1.08,5.7s.62,3.97,1.86,5.36c1.24,1.38,2.95,2.07,5.14,2.07Z"/>
    <path class="cls-2" d="M585.4,368.5l12.79-64.11h19.52l-12.79,64.11h-19.53Z"/>
    <path class="cls-2" d="M641.73,369.36c-5.18,0-9.72-.89-13.61-2.68s-6.93-4.32-9.12-7.6-3.28-7.14-3.28-11.58c0-5.18,1.21-9.82,3.63-13.91,2.42-4.09,5.83-7.31,10.24-9.68,4.41-2.36,9.55-3.54,15.42-3.54,5.07,0,9.39.89,12.96,2.68,3.57,1.79,6.31,4.23,8.21,7.34,1.9,3.11,2.85,6.71,2.85,10.8,0,1.44-.1,2.85-.3,4.23-.2,1.38-.45,2.71-.73,3.97h-36.72l1.81-9.42h25.92l-8.12,2.5c.46-1.84.45-3.41-.04-4.71-.49-1.3-1.31-2.3-2.46-3.03-1.15-.72-2.56-1.08-4.23-1.08-2.36,0-4.23.63-5.62,1.9-1.38,1.27-2.38,2.91-2.98,4.92-.6,2.02-.91,4.12-.91,6.31,0,2.94.79,5.03,2.38,6.26s3.9,1.86,6.96,1.86c1.79,0,3.57-.27,5.36-.82,1.78-.55,3.43-1.37,4.92-2.46l8.12,11.84c-3.23,2.19-6.58,3.71-10.07,4.58-3.49.86-7.01,1.29-10.58,1.29Z"/>
    <path class="cls-2" d="M697.71,369.36c-5.18,0-9.72-.89-13.61-2.68-3.89-1.79-6.93-4.32-9.11-7.6-2.19-3.28-3.28-7.14-3.28-11.58,0-5.18,1.21-9.82,3.63-13.91,2.42-4.09,5.83-7.31,10.24-9.68,4.41-2.36,9.55-3.54,15.42-3.54,5.07,0,9.39.89,12.96,2.68,3.57,1.79,6.31,4.23,8.21,7.34,1.9,3.11,2.85,6.71,2.85,10.8,0,1.44-.1,2.85-.3,4.23-.2,1.38-.45,2.71-.73,3.97h-36.72l1.81-9.42h25.92l-8.12,2.5c.46-1.84.45-3.41-.04-4.71-.49-1.3-1.31-2.3-2.46-3.03-1.15-.72-2.56-1.08-4.23-1.08-2.36,0-4.23.63-5.62,1.9s-2.38,2.91-2.98,4.92c-.6,2.02-.91,4.12-.91,6.31,0,2.94.79,5.03,2.38,6.26s3.9,1.86,6.96,1.86c1.79,0,3.57-.27,5.36-.82,1.78-.55,3.43-1.37,4.92-2.46l8.12,11.84c-3.23,2.19-6.58,3.71-10.06,4.58-3.49.86-7.01,1.29-10.58,1.29Z"/>
    <path class="cls-2" d="M753.7,369.36c-5.18,0-9.72-.89-13.61-2.68-3.89-1.79-6.93-4.32-9.12-7.6-2.19-3.28-3.28-7.14-3.28-11.58,0-5.18,1.21-9.82,3.63-13.91,2.42-4.09,5.83-7.31,10.24-9.68,4.41-2.36,9.55-3.54,15.42-3.54,5.07,0,9.39.89,12.96,2.68s6.31,4.23,8.21,7.34c1.9,3.11,2.85,6.71,2.85,10.8,0,1.44-.1,2.85-.3,4.23-.2,1.38-.45,2.71-.73,3.97h-36.72l1.81-9.42h25.92l-8.12,2.5c.46-1.84.45-3.41-.04-4.71-.49-1.3-1.31-2.3-2.46-3.03-1.15-.72-2.56-1.08-4.23-1.08-2.36,0-4.23.63-5.62,1.9s-2.38,2.91-2.98,4.92c-.61,2.02-.91,4.12-.91,6.31,0,2.94.79,5.03,2.38,6.26,1.58,1.24,3.9,1.86,6.96,1.86,1.78,0,3.57-.27,5.36-.82s3.43-1.37,4.92-2.46l8.12,11.84c-3.23,2.19-6.58,3.71-10.07,4.58-3.48.86-7.01,1.29-10.58,1.29Z"/>
    <path class="cls-2" d="M809.68,369.36c-5.18,0-9.72-.89-13.61-2.68s-6.93-4.32-9.12-7.6-3.28-7.14-3.28-11.58c0-5.18,1.21-9.82,3.63-13.91,2.42-4.09,5.83-7.31,10.24-9.68,4.41-2.36,9.55-3.54,15.42-3.54,5.07,0,9.39.89,12.96,2.68,3.57,1.79,6.31,4.23,8.21,7.34,1.9,3.11,2.85,6.71,2.85,10.8,0,1.44-.1,2.85-.3,4.23-.2,1.38-.45,2.71-.73,3.97h-36.72l1.81-9.42h25.92l-8.12,2.5c.46-1.84.45-3.41-.04-4.71-.49-1.3-1.31-2.3-2.46-3.03-1.15-.72-2.56-1.08-4.23-1.08-2.36,0-4.23.63-5.62,1.9-1.38,1.27-2.38,2.91-2.98,4.92-.6,2.02-.91,4.12-.91,6.31,0,2.94.79,5.03,2.38,6.26s3.9,1.86,6.96,1.86c1.79,0,3.57-.27,5.36-.82,1.78-.55,3.43-1.37,4.92-2.46l8.12,11.84c-3.23,2.19-6.58,3.71-10.07,4.58-3.49.86-7.01,1.29-10.58,1.29Z"/>
    <path class="cls-2" d="M859.1,369.36c-3.11,0-6.16-.85-9.16-2.55-3-1.7-5.46-4.18-7.39-7.43-1.93-3.25-2.89-7.21-2.89-11.88,0-3.92.66-7.52,1.99-10.8,1.32-3.28,3.15-6.15,5.49-8.6,2.33-2.45,5.01-4.35,8.04-5.7s6.23-2.03,9.63-2.03c3.69,0,6.88.75,9.59,2.25,2.71,1.5,4.65,4.02,5.83,7.56,1.18,3.54,1.28,8.42.3,14.64-.81,5.07-2.17,9.45-4.1,13.13-1.93,3.69-4.33,6.51-7.21,8.47-2.88,1.96-6.25,2.94-10.11,2.94ZM866.44,353.98c1.73,0,3.23-.45,4.49-1.34s2.26-2.14,2.98-3.76c.72-1.61,1.08-3.51,1.08-5.7s-.62-3.97-1.86-5.36c-1.24-1.38-2.95-2.07-5.14-2.07-1.67,0-3.15.45-4.45,1.34s-2.3,2.15-3.02,3.76c-.72,1.61-1.08,3.51-1.08,5.7s.62,3.97,1.86,5.36c1.24,1.38,2.95,2.07,5.14,2.07ZM871.02,368.5l1.29-6.39,3.2-17.28,2.51-17.11,1.29-6.48h19.53l-9.42,47.26h-18.4Z"/>
    <path class="cls-2" d="M917.67,369.36c-4.21,0-8.19-.42-11.97-1.25-3.77-.83-6.7-1.86-8.77-3.07l6.74-13.3c2.36,1.44,5.02,2.52,7.99,3.24,2.96.72,5.77,1.08,8.42,1.08,2.19,0,3.7-.22,4.54-.65.83-.43,1.25-.96,1.25-1.6,0-.69-.58-1.2-1.73-1.51s-2.63-.59-4.45-.82-3.73-.58-5.75-1.04c-2.02-.46-3.93-1.14-5.75-2.03-1.81-.89-3.3-2.14-4.45-3.76-1.15-1.61-1.73-3.74-1.73-6.39,0-4.09,1.19-7.44,3.58-10.06s5.6-4.58,9.63-5.88c4.03-1.3,8.5-1.95,13.39-1.95,3.46,0,6.78.3,9.98.91s6.03,1.48,8.51,2.63l-6.74,13.3c-2.48-1.44-4.94-2.39-7.39-2.85-2.45-.46-4.68-.69-6.7-.69-2.25,0-3.8.25-4.67.73-.86.49-1.3,1.02-1.3,1.6,0,.69.58,1.21,1.73,1.55s2.62.65,4.41.91c1.79.26,3.7.61,5.75,1.04,2.04.43,3.96,1.1,5.74,1.99s3.25,2.15,4.41,3.76c1.15,1.61,1.73,3.74,1.73,6.39,0,3.92-1.2,7.2-3.59,9.85-2.39,2.65-5.59,4.62-9.59,5.92-4,1.29-8.42,1.94-13.26,1.94Z"/>
    <path class="cls-2" d="M974.95,369.36c-5.18,0-9.72-.89-13.61-2.68-3.89-1.79-6.93-4.32-9.12-7.6-2.19-3.28-3.28-7.14-3.28-11.58,0-5.18,1.21-9.82,3.63-13.91,2.42-4.09,5.83-7.31,10.24-9.68,4.41-2.36,9.55-3.54,15.42-3.54,5.07,0,9.39.89,12.96,2.68,3.57,1.79,6.31,4.23,8.21,7.34,1.9,3.11,2.85,6.71,2.85,10.8,0,1.44-.1,2.85-.3,4.23-.2,1.38-.45,2.71-.73,3.97h-36.72l1.81-9.42h25.92l-8.12,2.5c.46-1.84.45-3.41-.04-4.71-.49-1.3-1.31-2.3-2.46-3.03-1.15-.72-2.56-1.08-4.23-1.08-2.36,0-4.23.63-5.62,1.9-1.38,1.27-2.38,2.91-2.98,4.92-.61,2.02-.91,4.12-.91,6.31,0,2.94.79,5.03,2.38,6.26,1.58,1.24,3.9,1.86,6.95,1.86,1.79,0,3.57-.27,5.36-.82s3.43-1.37,4.92-2.46l8.12,11.84c-3.23,2.19-6.58,3.71-10.06,4.58-3.49.86-7.01,1.29-10.58,1.29Z"/>
    <path class="cls-2" d="M998.71,382.32l12.09-24.28,2.07,11.32c-3.17,0-5.75-.96-7.73-2.89-1.99-1.93-2.98-4.39-2.98-7.39,0-3.63,1.2-6.54,3.59-8.72,2.39-2.19,5.28-3.28,8.68-3.28,3.22,0,5.8.95,7.73,2.85,1.93,1.9,2.89,4.38,2.89,7.43,0,1.61-.3,3.14-.91,4.58-.6,1.44-1.66,3.25-3.15,5.44l-10.19,14.95h-12.09Z"/>
    <path class="cls-2" d="M552.74,449.99c-5.18,0-9.71-.91-13.56-2.72-3.86-1.81-6.86-4.36-8.99-7.65s-3.2-7.11-3.2-11.49c0-5.18,1.27-9.82,3.8-13.91,2.53-4.09,6.05-7.31,10.54-9.68,4.49-2.36,9.65-3.54,15.46-3.54s10.54,1.24,14.69,3.71c4.15,2.48,7.05,5.85,8.73,10.11l-16.59,7.6c-.81-2.19-1.89-3.74-3.24-4.66s-2.87-1.38-4.54-1.38-3.28.45-4.67,1.34c-1.38.89-2.46,2.12-3.24,3.67-.78,1.55-1.17,3.4-1.17,5.53,0,2.25.63,4.09,1.9,5.53,1.27,1.44,3.11,2.16,5.53,2.16,1.9,0,3.57-.46,5.01-1.38,1.44-.92,2.71-2.48,3.8-4.67l14.26,8.29c-2.3,4.15-5.57,7.37-9.81,9.68-4.23,2.3-9.14,3.46-14.73,3.46Z"/>
    <path class="cls-2" d="M605.27,449.99c-5.18,0-9.71-.91-13.56-2.72-3.86-1.81-6.84-4.36-8.94-7.65-2.1-3.28-3.15-7.11-3.15-11.49,0-5.18,1.27-9.82,3.8-13.91,2.53-4.09,6.02-7.31,10.45-9.68,4.43-2.36,9.5-3.54,15.21-3.54,5.24,0,9.78.91,13.61,2.72,3.83,1.81,6.79,4.35,8.9,7.6,2.1,3.26,3.15,7.1,3.15,11.54,0,5.18-1.27,9.82-3.8,13.91-2.54,4.09-6,7.32-10.41,9.68-4.41,2.36-9.49,3.54-15.25,3.54ZM606.4,434.79c1.73,0,3.22-.45,4.49-1.34,1.27-.89,2.26-2.16,2.98-3.8.72-1.64,1.08-3.59,1.08-5.83,0-2.02-.6-3.79-1.81-5.31-1.21-1.53-2.94-2.29-5.18-2.29-1.67,0-3.15.45-4.45,1.34-1.3.89-2.3,2.16-3.02,3.8-.72,1.64-1.08,3.58-1.08,5.83s.62,4.08,1.86,5.49c1.24,1.41,2.95,2.12,5.14,2.12Z"/>
    <path class="cls-2" d="M676.98,401.01c3.92,0,7.27.82,10.06,2.46,2.79,1.64,4.78,4.09,5.96,7.34s1.28,7.33.3,12.22l-5.18,26.09h-19.53l4.75-23.76c.52-2.59.4-4.56-.35-5.92-.75-1.35-2.16-2.03-4.23-2.03-2.19,0-4.03.73-5.53,2.2-1.5,1.47-2.56,3.73-3.2,6.78l-4.58,22.72h-19.53l9.42-47.26h18.4l-2.68,13.22-2.25-3.63c2.25-3.63,5.02-6.28,8.34-7.95,3.31-1.67,6.58-2.51,9.81-2.51Z"/>
    <path class="cls-2" d="M698.32,418.72l2.85-14.25h35.68l-2.85,14.25h-35.68ZM719.23,449.99c-4.03,0-7.46-.75-10.28-2.25s-4.81-3.7-5.96-6.61c-1.15-2.91-1.33-6.41-.52-10.5l7.86-39.4h19.53l-7.86,39.31c-.29,1.61-.12,2.79.52,3.54.63.75,1.61,1.12,2.94,1.12.81,0,1.54-.1,2.2-.3.66-.2,1.37-.47,2.12-.82l2.25,13.13c-1.79.98-3.79,1.68-6,2.12-2.22.43-4.48.65-6.78.65Z"/>
    <path class="cls-2" d="M756.63,449.99c-3.11,0-6.16-.85-9.16-2.55-3-1.7-5.46-4.18-7.39-7.43-1.93-3.25-2.89-7.21-2.89-11.88,0-3.92.66-7.52,1.99-10.8,1.32-3.28,3.15-6.15,5.49-8.6,2.33-2.45,5.01-4.35,8.04-5.7,3.02-1.35,6.23-2.03,9.63-2.03,3.68,0,6.88.75,9.59,2.25,2.71,1.5,4.65,4.02,5.83,7.56,1.18,3.54,1.28,8.42.3,14.64-.81,5.07-2.17,9.45-4.1,13.13-1.93,3.69-4.33,6.51-7.21,8.47-2.88,1.96-6.25,2.94-10.11,2.94ZM763.98,434.61c1.73,0,3.23-.45,4.49-1.34,1.27-.89,2.26-2.14,2.98-3.76.72-1.61,1.08-3.51,1.08-5.7s-.62-3.97-1.86-5.36c-1.24-1.38-2.95-2.07-5.14-2.07-1.67,0-3.15.45-4.45,1.34-1.29.89-2.3,2.15-3.02,3.76-.72,1.61-1.08,3.51-1.08,5.7s.62,3.97,1.86,5.36,2.95,2.07,5.14,2.07ZM768.56,449.13l1.3-6.39,3.2-17.28,2.5-17.11,1.3-6.48h19.53l-9.42,47.26h-18.4Z"/>
    <path class="cls-2" d="M823.33,449.99c-5.18,0-9.71-.91-13.56-2.72-3.86-1.81-6.86-4.36-8.99-7.65-2.13-3.28-3.2-7.11-3.2-11.49,0-5.18,1.27-9.82,3.8-13.91,2.53-4.09,6.05-7.31,10.54-9.68,4.49-2.36,9.65-3.54,15.46-3.54s10.54,1.24,14.69,3.71c4.15,2.48,7.05,5.85,8.73,10.11l-16.59,7.6c-.81-2.19-1.89-3.74-3.24-4.66s-2.87-1.38-4.54-1.38-3.28.45-4.67,1.34-2.46,2.12-3.24,3.67c-.78,1.55-1.17,3.4-1.17,5.53,0,2.25.63,4.09,1.9,5.53,1.27,1.44,3.11,2.16,5.53,2.16,1.9,0,3.57-.46,5.01-1.38s2.71-2.48,3.8-4.67l14.25,8.29c-2.3,4.15-5.57,7.37-9.81,9.68-4.23,2.3-9.14,3.46-14.73,3.46Z"/>
    <path class="cls-2" d="M851.15,418.72l2.85-14.25h35.68l-2.85,14.25h-35.68ZM872.06,449.99c-4.03,0-7.46-.75-10.28-2.25-2.82-1.5-4.81-3.7-5.96-6.61-1.15-2.91-1.33-6.41-.52-10.5l7.86-39.4h19.53l-7.86,39.31c-.29,1.61-.12,2.79.52,3.54.63.75,1.61,1.12,2.94,1.12.81,0,1.54-.1,2.2-.3.66-.2,1.37-.47,2.12-.82l2.25,13.13c-1.79.98-3.79,1.68-6,2.12-2.22.43-4.48.65-6.78.65Z"/>
    <path class="cls-2" d="M985.92,401.01c3.63,0,6.8.82,9.5,2.46,2.71,1.64,4.67,4.09,5.88,7.34,1.21,3.25,1.32,7.33.35,12.22l-5.18,26.09h-19.52l4.75-23.59c.58-2.82.46-4.88-.34-6.18-.81-1.29-1.99-1.94-3.54-1.94-1.79,0-3.34.62-4.67,1.86-1.33,1.24-2.3,3.38-2.94,6.44l-4.67,23.41h-19.53l4.75-23.59c.58-2.82.46-4.88-.35-6.18-.81-1.29-1.99-1.94-3.54-1.94-1.79,0-3.36.65-4.71,1.94-1.35,1.3-2.35,3.53-2.98,6.7l-4.58,23.07h-19.52l9.42-47.26h18.4l-1.99,9.94-2.85-.35c2.13-3.57,4.75-6.21,7.86-7.91,3.11-1.7,6.28-2.55,9.5-2.55,2.59,0,5.02.51,7.3,1.51,2.27,1.01,4.19,2.54,5.75,4.58,1.55,2.04,2.48,4.65,2.76,7.82l-5.1-1.64c2.02-3.86,4.72-6.87,8.12-9.03,3.4-2.16,7.29-3.24,11.66-3.24Z"/>
    <path class="cls-2" d="M1033.53,449.99c-5.18,0-9.72-.89-13.61-2.68-3.89-1.79-6.93-4.32-9.12-7.6-2.19-3.28-3.28-7.14-3.28-11.58,0-5.18,1.21-9.82,3.63-13.91,2.42-4.09,5.83-7.31,10.24-9.68,4.41-2.36,9.55-3.54,15.42-3.54,5.07,0,9.39.89,12.96,2.68,3.57,1.79,6.31,4.23,8.21,7.34,1.9,3.11,2.85,6.71,2.85,10.8,0,1.44-.1,2.85-.3,4.23-.2,1.38-.45,2.71-.73,3.97h-36.72l1.81-9.42h25.92l-8.12,2.5c.46-1.84.45-3.41-.04-4.71-.49-1.3-1.31-2.3-2.46-3.03-1.15-.72-2.56-1.08-4.23-1.08-2.36,0-4.23.63-5.62,1.9-1.38,1.27-2.38,2.91-2.98,4.92-.61,2.02-.91,4.12-.91,6.31,0,2.94.79,5.03,2.38,6.26,1.58,1.24,3.9,1.86,6.95,1.86,1.79,0,3.57-.27,5.36-.82s3.43-1.37,4.92-2.46l8.12,11.84c-3.23,2.19-6.58,3.71-10.06,4.58-3.49.86-7.01,1.29-10.58,1.29Z"/>
    <path class="cls-2" d="M1071.88,449.99c-3.17,0-5.76-.92-7.78-2.76-2.02-1.84-3.02-4.09-3.02-6.74,0-3.22,1.15-5.88,3.46-7.95,2.3-2.07,5.15-3.11,8.55-3.11s5.83.89,7.82,2.68c1.99,1.79,2.98,4,2.98,6.65,0,2.07-.53,3.96-1.6,5.66-1.07,1.7-2.49,3.05-4.28,4.06-1.79,1.01-3.83,1.51-6.13,1.51ZM1067.48,425.97l3.54-37.32h23.33l-11.32,37.32h-15.55Z"/>
    <path class="cls-2" d="M1124.5,449.99c-3.17,0-5.75-.96-7.73-2.89-1.99-1.93-2.98-4.39-2.98-7.39,0-3.63,1.2-6.54,3.59-8.72,2.39-2.19,5.28-3.28,8.68-3.28,3.22,0,5.8.95,7.73,2.85,1.93,1.9,2.89,4.38,2.89,7.43,0,2.42-.55,4.52-1.64,6.31-1.09,1.79-2.56,3.18-4.41,4.19-1.84,1.01-3.89,1.51-6.13,1.51ZM1129.85,423.3c-3.17,0-5.75-.96-7.73-2.89-1.99-1.93-2.98-4.39-2.98-7.39,0-3.63,1.2-6.54,3.59-8.73,2.39-2.19,5.28-3.28,8.68-3.28,3.22,0,5.8.95,7.73,2.85,1.93,1.9,2.89,4.38,2.89,7.43,0,2.42-.55,4.52-1.64,6.31-1.1,1.79-2.56,3.18-4.41,4.19-1.84,1.01-3.89,1.51-6.13,1.51Z"/>
    <path class="cls-2" d="M1131.84,465.89c3.57-4.66,6.64-9.24,9.2-13.74,2.56-4.49,4.68-9,6.35-13.52,1.67-4.52,2.91-9.11,3.71-13.78s1.21-9.45,1.21-14.34c0-4.26-.35-8.51-1.04-12.74-.69-4.23-1.79-8.48-3.28-12.74h17.97c.98,1.84,1.86,4.19,2.63,7.04.78,2.85,1.41,5.95,1.9,9.29.49,3.34.73,6.74.73,10.2,0,5.07-.45,10.08-1.34,15.03-.89,4.95-2.19,9.73-3.89,14.34-1.7,4.61-3.8,9.01-6.31,13.22-2.51,4.21-5.37,8.12-8.6,11.75h-19.27Z"/>
  </g>
  <path class="cls-3" d="M259.98,359.52c-29.19,0-44.89-23.66-35.08-52.85-9.82,29.19-41.44,52.85-70.62,52.85,29.19,0,44.89,23.66,35.08,52.85,9.82-29.19,41.44-52.85,70.62-52.85Z"/>
  <path class="cls-3" d="M431.55,359.52c-29.19,0-44.89-23.66-35.08-52.85-9.82,29.19-41.44,52.85-70.62,52.85,29.19,0,44.89,23.66,35.08,52.85,9.82-29.19,41.44-52.85,70.62-52.85Z"/>
  <path class="cls-5" d="M168.45,504.67h103.02c-.62,8-3.19,26.61-16.85,44.43-19.38,25.27-46.99,30.57-53.62,31.66-23.57,2.29-44.39-12.55-49.02-32.68-3.58-15.57,2.94-32.56,16.47-43.4Z"/>
  <path class="cls-6" d="M191.02,556.02l-4.24,17.43c-.19.45-1.27,2.86-4.01,3.92-2.09.8-3.94.35-4.55.16-2.9-1.13-6.71-2.96-10.66-5.96-3.21-2.43-5.61-4.96-7.35-7.07-.28-.31-1.94-2.21-1.67-4.98.23-2.31,1.64-3.72,2.02-4.08l14.02-10.35c7.89-5.83,18.76,1.4,16.44,10.93Z"/>
</svg>