<?xml version="1.0" encoding="UTF-8"?>
<svg id="_Слой_1" data-name="Слой 1" xmlns="http://www.w3.org/2000/svg" viewBox="0 0 1280 640">
  <defs>
    <style>
      .cls-1 {
        fill: #000;
      }

      .cls-1, .cls-2, .cls-3, .cls-4 {
        stroke-width: 0px;
      }

      .cls-2 {
        fill: aqua;
      }

      .cls-3 {
        fill: #f0f;
      }

      .cls-4 {
        fill: #fff;
      }
    </style>
  </defs>
  <g>
    <rect class="cls-1" x=".5" y=".5" width="1279" height="639"/>
    <path class="cls-4" d="M1279,1v638H1V1h1278M1280,0H0v640h1280V0h0Z"/>
  </g>
  <polygon class="cls-4" points="993.14 287.34 988.19 270.34 976.14 287.56 962.36 248.6 948.59 287.56 936.53 270.34 931.58 287.34 919.74 280.24 924.05 300.9 962.36 311.88 1000.68 300.9 1004.98 280.24 993.14 287.34"/>
  <g>
    <path class="cls-4" d="M895.42,362.09v-21.55h3.11v10.48l8.34-10.48h3.57l-6.04,7.53,7.67,14.02h-3.63l-6.16-11.41-3.76,4.63v6.77h-3.11Z"/>
    <path class="cls-4" d="M917.44,343.79c-.51,0-.95-.18-1.32-.55-.37-.36-.55-.8-.55-1.32s.18-.97.54-1.34c.36-.37.8-.55,1.32-.55s.98.18,1.34.55c.36.37.54.82.54,1.34s-.18.96-.54,1.32c-.36.36-.81.54-1.34.54ZM915.91,362.09v-15.73h3.06v15.73h-3.06Z"/>
    <path class="cls-4" d="M924,362.09v-15.73h3.06v1.57c.49-.66,1.08-1.14,1.76-1.46s1.46-.48,2.35-.48c1.86,0,3.25.56,4.19,1.69.93,1.13,1.4,2.83,1.4,5.11v9.3h-3.06v-9.22c0-1.32-.27-2.32-.82-3s-1.33-1.02-2.37-1.02c-1.15,0-2.01.33-2.59.98-.57.66-.86,1.65-.86,2.97v9.28h-3.06Z"/>
    <path class="cls-4" d="M947.04,368.65l-1.57-2.46c1.44-.09,2.59-.28,3.46-.55.87-.28,1.5-.67,1.88-1.17.39-.5.59-1.14.59-1.91v-1.8c-.89,1.14-2.17,1.71-3.83,1.71-1.31,0-2.46-.34-3.43-1.02-.97-.68-1.73-1.63-2.25-2.87-.53-1.24-.79-2.69-.79-4.36s.27-3.13.81-4.36c.54-1.23,1.3-2.18,2.28-2.86s2.14-1.01,3.47-1.01c.76,0,1.46.13,2.12.4.65.27,1.2.64,1.64,1.12v-1.15h3.06v14.98c0,1.21-.14,2.26-.42,3.14-.28.88-.73,1.62-1.33,2.21s-1.38,1.04-2.31,1.36c-.93.32-2.05.52-3.36.6ZM948.15,359.57c.62,0,1.23-.18,1.82-.53.59-.35,1.06-.82,1.42-1.41v-6.91c-.33-.54-.8-.99-1.42-1.34-.62-.35-1.22-.52-1.82-.52-1.29,0-2.28.46-2.96,1.37-.68.91-1.02,2.24-1.02,3.99,0,1.1.16,2.05.48,2.86.32.81.78,1.42,1.38,1.86.59.43,1.3.65,2.11.65Z"/>
    <path class="cls-4" d="M975.55,362.46c-1.7,0-3.15-.33-4.33-.98-1.18-.65-2.13-1.52-2.85-2.6-.72-1.08-1.24-2.28-1.57-3.59-.33-1.31-.49-2.64-.49-3.97s.16-2.66.49-3.97c.33-1.31.85-2.51,1.57-3.6.72-1.08,1.67-1.95,2.85-2.6,1.18-.65,2.62-.98,4.33-.98s3.15.33,4.33.98c1.18.65,2.13,1.52,2.85,2.6.72,1.08,1.24,2.28,1.56,3.6.32,1.31.49,2.64.49,3.97s-.16,2.66-.49,3.97c-.32,1.31-.84,2.51-1.56,3.59-.72,1.08-1.67,1.95-2.85,2.6-1.18.65-2.62.98-4.33.98ZM975.55,359.51c1.11,0,2.04-.25,2.81-.75s1.38-1.16,1.86-1.97c.47-.81.81-1.7,1.02-2.66s.31-1.9.31-2.81c0-1-.1-1.98-.31-2.95s-.54-1.85-1.01-2.65c-.47-.79-1.08-1.43-1.85-1.91-.76-.48-1.71-.72-2.83-.72s-2.06.25-2.83.75-1.38,1.16-1.85,1.98c-.47.82-.81,1.7-1.02,2.66-.21.96-.32,1.9-.32,2.83,0,.99.1,1.96.32,2.93.21.97.55,1.85,1.02,2.65.47.79,1.08,1.43,1.85,1.9.76.47,1.71.71,2.83.71Z"/>
    <path class="cls-4" d="M989.49,362.09v-21.55h8.93c1.75,0,3.13.3,4.14.91,1,.61,1.72,1.39,2.15,2.36s.64,1.98.64,3.05c0,.83-.16,1.66-.49,2.49-.33.83-.84,1.57-1.55,2.2-.7.64-1.61,1.09-2.73,1.37l4.5,9.18h-3.51l-4.31-8.88h-4.65v8.88h-3.11ZM992.6,350.3h5.88c.92,0,1.66-.17,2.19-.5.54-.33.92-.76,1.16-1.28.23-.52.35-1.06.35-1.62,0-.51-.11-1.03-.32-1.56-.21-.53-.59-.97-1.12-1.34-.53-.36-1.28-.55-2.25-.55h-5.88v6.85Z"/>
    <path class="cls-4" d="M1019.75,362.46l-5.74-13.07c-.12-.3-.25-.62-.39-.97-.14-.35-.26-.68-.36-.99.02.25.04.56.05.94,0,.38.02.72.02,1.02v12.7h-3.11v-21.55h3.02l6,13.75c.09.23.19.46.28.69.09.24.18.48.28.72.08-.24.17-.47.25-.71s.18-.47.29-.71l6.02-13.75h2.96v21.55h-3.13v-12.7c0-.31,0-.66.02-1.05.02-.39.02-.7.02-.92-.1.29-.23.62-.38.99-.15.38-.28.71-.41,1.01l-5.68,13.04Z"/>
  </g>
  <g>
    <path class="cls-4" d="M834.45,386c-.53,0-1-.1-1.43-.3s-.8-.46-1.11-.79c-.31-.33-.54-.69-.7-1.08l.56-.18c.25.55.6.99,1.08,1.32.47.34,1.01.51,1.62.51.73,0,1.32-.19,1.77-.57s.67-.93.67-1.66c0-.47-.12-.87-.35-1.22s-.54-.64-.92-.89c-.38-.25-.78-.45-1.22-.62-.34-.13-.68-.28-1.02-.45s-.64-.36-.92-.59c-.28-.23-.5-.5-.67-.81-.17-.31-.25-.68-.25-1.11s.11-.81.32-1.15.53-.61.94-.81c.42-.2.92-.29,1.52-.29.43,0,.82.07,1.19.21.36.14.68.34.94.59.26.25.45.55.56.9l-.53.16c-.18-.43-.45-.76-.82-.99s-.83-.35-1.38-.35c-.68,0-1.22.16-1.6.48-.39.32-.58.75-.58,1.29,0,.44.12.81.37,1.1.25.29.56.54.95.74.39.2.79.39,1.22.56.32.13.65.29.98.47s.64.4.91.65c.28.26.5.56.67.91.17.35.25.76.25,1.23,0,.58-.13,1.07-.39,1.48-.26.41-.61.72-1.07.93-.45.21-.97.32-1.56.32Z"/>
    <path class="cls-4" d="M841.75,386c-.46,0-.8-.14-1.04-.43-.23-.29-.35-.71-.35-1.28v-5.52h-1.28v-.49h1.28v-2.85l.53-.27v3.11h1.92v.49h-1.92v5.44c0,.46.07.78.21.98.14.19.38.29.71.29.37,0,.74-.12,1.11-.35l-.06.56c-.15.09-.32.17-.52.22-.2.06-.4.08-.58.08Z"/>
    <path class="cls-4" d="M847.6,386c-.92,0-1.65-.35-2.18-1.06-.53-.71-.8-1.67-.8-2.88,0-.81.12-1.51.37-2.1.24-.59.59-1.05,1.03-1.37.45-.32.97-.48,1.58-.48s1.14.16,1.59.48.79.77,1.03,1.36c.24.59.36,1.29.36,2.1s-.12,1.51-.37,2.1-.59,1.05-1.03,1.37c-.45.32-.97.48-1.58.48ZM847.6,385.47c.76,0,1.35-.3,1.77-.9.42-.6.63-1.44.63-2.52s-.21-1.93-.63-2.52-1.01-.88-1.78-.88-1.38.29-1.79.88c-.41.59-.62,1.43-.62,2.54s.21,1.93.63,2.52,1.01.88,1.78.88Z"/>
    <path class="cls-4" d="M853.07,385.83v-7.54h.53v1.61c.22-.56.52-1,.9-1.31s.82-.47,1.31-.47c.45,0,.78.1,1,.31l-.09.53c-.12-.08-.27-.15-.45-.19s-.36-.06-.54-.06c-.42,0-.79.12-1.11.38s-.57.6-.76,1.04-.27.96-.27,1.53v4.17h-.53Z"/>
    <path class="cls-4" d="M860.84,386c-.64,0-1.18-.16-1.63-.48-.45-.32-.79-.78-1.03-1.37-.24-.59-.36-1.29-.36-2.11s.13-1.55.39-2.14c.26-.59.62-1.03,1.07-1.34.46-.31.98-.46,1.56-.46.54,0,1.01.14,1.42.41.41.28.73.7.96,1.28.23.58.35,1.33.35,2.24v.16h-5.18c.03.64.13,1.2.29,1.69.17.49.43.87.78,1.15.35.28.83.42,1.42.42.29,0,.59-.05.9-.15.31-.1.6-.26.87-.48l.31.38c-.27.23-.58.41-.96.56s-.76.22-1.17.22ZM858.39,381.73h4.62c0-.55-.07-1.06-.22-1.54-.15-.47-.38-.86-.7-1.15-.32-.29-.74-.44-1.25-.44-.67,0-1.23.25-1.68.75-.45.5-.71,1.29-.77,2.38Z"/>
    <path class="cls-4" d="M869.37,385.83v-10.33h3.23c.82,0,1.47.15,1.94.45.47.3.81.68,1.01,1.14s.3.95.3,1.45c0,.34-.06.69-.17,1.05-.12.36-.3.68-.56.98-.26.3-.59.54-1,.72s-.92.27-1.51.27h-2.7v4.26h-.53ZM869.9,381.03h2.7c.68,0,1.22-.13,1.61-.39s.68-.58.85-.96c.17-.38.25-.76.25-1.14,0-.41-.08-.81-.24-1.2-.16-.38-.44-.7-.83-.94-.39-.25-.94-.37-1.64-.37h-2.7v5Z"/>
    <path class="cls-4" d="M879.08,388.69l1.12-3.04-2.71-7.36h.53l2.18,5.95c.04.12.09.25.13.37s.09.25.13.38c.04-.13.09-.25.13-.38s.09-.25.13-.37l2.18-5.95h.53l-3.83,10.4h-.53Z"/>
    <path class="cls-4" d="M887.63,386c-.46,0-.8-.14-1.04-.43-.23-.29-.35-.71-.35-1.28v-5.52h-1.28v-.49h1.28v-2.85l.53-.27v3.11h1.92v.49h-1.92v5.44c0,.46.07.78.21.98.14.19.38.29.71.29.37,0,.74-.12,1.11-.35l-.06.56c-.15.09-.32.17-.52.22-.2.06-.4.08-.58.08Z"/>
    <path class="cls-4" d="M890.88,385.83v-10.38l.53-.27v4.47c.17-.47.46-.84.87-1.12.41-.28.86-.42,1.36-.42.59,0,1.07.13,1.42.39.35.26.61.63.76,1.09.16.47.23,1.01.23,1.62v4.6h-.53v-4.71c0-.77-.15-1.38-.44-1.83-.29-.45-.79-.68-1.49-.68s-1.25.24-1.63.72-.56,1.18-.56,2.11v4.38h-.53Z"/>
    <path class="cls-4" d="M901.72,386c-.92,0-1.65-.35-2.18-1.06-.53-.71-.8-1.67-.8-2.88,0-.81.12-1.51.37-2.1.24-.59.59-1.05,1.03-1.37.45-.32.97-.48,1.58-.48s1.14.16,1.59.48.79.77,1.03,1.36c.24.59.36,1.29.36,2.1s-.12,1.51-.37,2.1-.59,1.05-1.03,1.37c-.45.32-.97.48-1.58.48ZM901.72,385.47c.76,0,1.35-.3,1.77-.9.42-.6.63-1.44.63-2.52s-.21-1.93-.63-2.52-1.01-.88-1.78-.88-1.38.29-1.79.88c-.41.59-.62,1.43-.62,2.54s.21,1.93.63,2.52,1.01.88,1.78.88Z"/>
    <path class="cls-4" d="M907.18,385.83v-7.54h.53v1.36c.17-.47.46-.84.87-1.12.41-.28.86-.42,1.36-.42.81,0,1.41.26,1.81.78.4.52.6,1.3.6,2.33v4.6h-.53v-4.71c0-.84-.16-1.47-.48-1.88-.32-.42-.8-.62-1.45-.62-.71,0-1.25.24-1.63.72s-.56,1.18-.56,2.11v4.38h-.53Z"/>
    <path class="cls-4" d="M921.04,386c-.92,0-1.65-.35-2.18-1.06-.53-.71-.8-1.67-.8-2.88,0-.81.12-1.51.37-2.1.24-.59.59-1.05,1.03-1.37.45-.32.97-.48,1.58-.48s1.14.16,1.59.48.79.77,1.03,1.36c.24.59.36,1.29.36,2.1s-.12,1.51-.37,2.1-.59,1.05-1.03,1.37c-.45.32-.97.48-1.58.48ZM921.04,385.47c.76,0,1.35-.3,1.77-.9.42-.6.63-1.44.63-2.52s-.21-1.93-.63-2.52-1.01-.88-1.78-.88-1.38.29-1.79.88c-.41.59-.62,1.43-.62,2.54s.21,1.93.63,2.52,1.01.88,1.78.88Z"/>
    <path class="cls-4" d="M929.41,386c-.5,0-.94-.1-1.32-.3-.38-.2-.72-.52-1.03-.95v1.08h-.53v-10.38l.53-.27v4.22c.25-.4.57-.71.97-.94s.83-.34,1.29-.34c.59,0,1.1.16,1.53.48s.76.77.99,1.36c.23.59.35,1.29.35,2.1,0,1.25-.24,2.23-.73,2.92-.48.69-1.17,1.04-2.05,1.04ZM929.37,385.47c.71,0,1.26-.3,1.65-.9.39-.6.59-1.44.59-2.52s-.2-1.95-.59-2.53c-.39-.58-.96-.87-1.71-.87-.42,0-.84.14-1.26.43s-.75.66-.98,1.1v3.75c.25.48.58.85.99,1.13.41.28.85.42,1.31.42Z"/>
    <path class="cls-4" d="M933.19,388.97l-.27-.46c.66-.05,1.13-.23,1.42-.53s.43-.77.43-1.4v-8.29h.53v8.26c0,.77-.17,1.34-.51,1.73-.34.38-.87.61-1.6.69ZM935.02,376.49c-.12,0-.22-.04-.3-.12-.08-.08-.12-.18-.12-.3,0-.13.04-.24.12-.32.08-.09.18-.13.3-.13s.22.04.3.13c.08.09.12.2.12.33,0,.12-.04.22-.12.3-.08.08-.18.12-.31.12Z"/>
    <path class="cls-4" d="M940.88,386c-.64,0-1.18-.16-1.63-.48-.45-.32-.79-.78-1.03-1.37-.24-.59-.36-1.29-.36-2.11s.13-1.55.39-2.14c.26-.59.62-1.03,1.07-1.34.46-.31.98-.46,1.56-.46.54,0,1.01.14,1.42.41.41.28.73.7.96,1.28.23.58.35,1.33.35,2.24v.16h-5.18c.03.64.13,1.2.29,1.69.17.49.43.87.78,1.15.35.28.83.42,1.42.42.29,0,.59-.05.9-.15.31-.1.6-.26.87-.48l.31.38c-.27.23-.58.41-.96.56s-.76.22-1.17.22ZM938.43,381.73h4.62c0-.55-.07-1.06-.22-1.54-.15-.47-.38-.86-.7-1.15-.32-.29-.74-.44-1.25-.44-.67,0-1.23.25-1.68.75-.45.5-.71,1.29-.77,2.38Z"/>
    <path class="cls-4" d="M948.22,386c-.57,0-1.05-.16-1.46-.48s-.72-.77-.93-1.36c-.22-.59-.33-1.29-.33-2.11s.11-1.53.34-2.12c.23-.59.55-1.04.97-1.36.42-.32.92-.48,1.51-.48.52,0,.97.14,1.35.41.38.28.67.66.85,1.17l-.53.21c-.14-.4-.35-.71-.65-.93s-.63-.33-1.02-.33c-.74,0-1.29.29-1.67.86s-.57,1.43-.57,2.56c0,1.05.19,1.88.57,2.49.38.61.9.91,1.57.91.45,0,.85-.13,1.18-.38.34-.25.57-.59.69-1.01l.53.19c-.16.53-.46.95-.89,1.26-.43.31-.93.46-1.52.46Z"/>
    <path class="cls-4" d="M954.59,386c-.46,0-.8-.14-1.04-.43-.23-.29-.35-.71-.35-1.28v-5.52h-1.28v-.49h1.28v-2.85l.53-.27v3.11h1.92v.49h-1.92v5.44c0,.46.07.78.21.98.14.19.38.29.71.29.37,0,.74-.12,1.11-.35l-.06.56c-.15.09-.32.17-.52.22-.2.06-.4.08-.58.08Z"/>
    <path class="cls-4" d="M959.96,386c-.44,0-.87-.1-1.28-.29s-.77-.48-1.1-.84l.41-.35c.29.31.6.56.94.73.34.17.67.26,1,.26.56,0,.98-.13,1.28-.38.3-.25.45-.61.45-1.07,0-.28-.07-.53-.21-.76-.14-.23-.37-.44-.67-.64-.3-.2-.7-.38-1.18-.56-.73-.27-1.25-.57-1.57-.9-.32-.33-.48-.74-.48-1.22,0-.56.2-1,.61-1.35.41-.34.94-.51,1.6-.51.41,0,.8.08,1.19.24.38.16.71.39.98.69l-.4.34c-.54-.51-1.14-.77-1.79-.77-.51,0-.91.12-1.21.36-.3.24-.45.57-.45,1,0,.37.13.68.39.93s.75.5,1.45.77c.58.22,1.03.44,1.36.66s.57.48.71.76c.14.28.21.6.21.97,0,.61-.2,1.08-.6,1.43-.4.35-.95.52-1.66.52Z"/>
    <path class="cls-4" d="M969.72,386c-.46,0-.8-.14-1.04-.43-.23-.29-.35-.71-.35-1.28v-5.52h-1.28v-.49h1.28v-2.85l.53-.27v3.11h1.92v.49h-1.92v5.44c0,.46.07.78.21.98.14.19.38.29.71.29.37,0,.74-.12,1.11-.35l-.06.56c-.15.09-.32.17-.52.22-.2.06-.4.08-.58.08Z"/>
    <path class="cls-4" d="M975.58,386c-.92,0-1.65-.35-2.18-1.06-.53-.71-.8-1.67-.8-2.88,0-.81.12-1.51.37-2.1.24-.59.59-1.05,1.03-1.37.45-.32.97-.48,1.58-.48s1.14.16,1.59.48.79.77,1.03,1.36c.24.59.36,1.29.36,2.1s-.12,1.51-.37,2.1-.59,1.05-1.03,1.37c-.45.32-.97.48-1.58.48ZM975.58,385.47c.76,0,1.35-.3,1.77-.9.42-.6.63-1.44.63-2.52s-.21-1.93-.63-2.52-1.01-.88-1.78-.88-1.38.29-1.79.88c-.41.59-.62,1.43-.62,2.54s.21,1.93.63,2.52,1.01.88,1.78.88Z"/>
    <path class="cls-4" d="M987.16,386c-.53,0-1-.1-1.43-.3s-.8-.46-1.11-.79c-.31-.33-.54-.69-.7-1.08l.56-.18c.25.55.6.99,1.08,1.32.47.34,1.01.51,1.62.51.73,0,1.32-.19,1.77-.57s.67-.93.67-1.66c0-.47-.12-.87-.35-1.22s-.54-.64-.92-.89c-.38-.25-.78-.45-1.22-.62-.34-.13-.68-.28-1.02-.45s-.64-.36-.92-.59c-.28-.23-.5-.5-.67-.81-.17-.31-.25-.68-.25-1.11s.11-.81.32-1.15.53-.61.94-.81c.42-.2.92-.29,1.52-.29.43,0,.82.07,1.19.21.36.14.68.34.94.59.26.25.45.55.56.9l-.53.16c-.18-.43-.45-.76-.82-.99s-.83-.35-1.38-.35c-.68,0-1.22.16-1.6.48-.39.32-.58.75-.58,1.29,0,.44.12.81.37,1.1.25.29.56.54.95.74.39.2.79.39,1.22.56.32.13.65.29.98.47s.64.4.91.65c.28.26.5.56.67.91.17.35.25.76.25,1.23,0,.58-.13,1.07-.39,1.48-.26.41-.61.72-1.07.93-.45.21-.97.32-1.56.32Z"/>
    <path class="cls-4" d="M999.67,386.67l-.89-1.33c-.29.21-.61.37-.96.49-.36.12-.75.18-1.19.18-.74,0-1.36-.16-1.88-.47-.51-.31-.93-.73-1.24-1.25-.31-.52-.54-1.09-.69-1.72-.15-.63-.22-1.26-.22-1.9s.07-1.27.22-1.9c.14-.63.38-1.2.69-1.72s.73-.93,1.24-1.25c.51-.31,1.14-.47,1.88-.47s1.36.16,1.88.47c.51.31.93.73,1.24,1.25.31.52.54,1.09.69,1.72.14.63.22,1.26.22,1.9,0,.54-.05,1.08-.15,1.62s-.26,1.04-.48,1.52c-.22.47-.51.88-.87,1.23l.91,1.36-.4.28ZM996.63,385.47c.37,0,.71-.05,1.02-.16s.58-.25.83-.43l-.9-1.34.4-.28.87,1.3c.45-.47.77-1.06.96-1.77.19-.71.28-1.42.28-2.12,0-.61-.06-1.21-.18-1.78-.12-.57-.31-1.09-.58-1.54-.27-.45-.62-.82-1.06-1.08-.44-.27-.98-.4-1.63-.4s-1.18.14-1.62.43-.8.66-1.07,1.14c-.27.47-.46.99-.58,1.56-.12.57-.18,1.13-.18,1.69,0,.61.06,1.2.18,1.78s.31,1.09.58,1.55c.27.45.62.82,1.07,1.08.44.27.98.4,1.62.4Z"/>
    <path class="cls-4" d="M1003.47,385.83v-10.33h.53v9.84h5.12v.49h-5.65Z"/>
    <path class="cls-4" d="M1011.54,376.49c-.12,0-.22-.04-.3-.12-.08-.08-.12-.18-.12-.3,0-.13.04-.24.12-.32.08-.09.18-.13.3-.13.13,0,.23.04.31.13.08.09.12.2.12.32,0,.12-.04.22-.12.3-.08.08-.18.12-.31.12ZM1011.27,385.83v-7.54h.53v7.54h-.53Z"/>
    <path class="cls-4" d="M1016.62,386c-.46,0-.8-.14-1.04-.43-.23-.29-.35-.71-.35-1.28v-5.52h-1.28v-.49h1.28v-2.85l.53-.27v3.11h1.92v.49h-1.92v5.44c0,.46.07.78.21.98.14.19.38.29.71.29.37,0,.74-.12,1.11-.35l-.06.56c-.15.09-.32.17-.52.22-.2.06-.4.08-.58.08Z"/>
    <path class="cls-4" d="M1022.52,386c-.64,0-1.18-.16-1.63-.48-.45-.32-.79-.78-1.03-1.37-.24-.59-.36-1.29-.36-2.11s.13-1.55.39-2.14c.26-.59.62-1.03,1.07-1.34.46-.31.98-.46,1.56-.46.54,0,1.01.14,1.42.41.41.28.73.7.96,1.28.23.58.35,1.33.35,2.24v.16h-5.18c.03.64.13,1.2.29,1.69.17.49.43.87.78,1.15.35.28.83.42,1.42.42.29,0,.59-.05.9-.15.31-.1.6-.26.87-.48l.31.38c-.27.23-.58.41-.96.56s-.76.22-1.17.22ZM1020.08,381.73h4.62c0-.55-.07-1.06-.22-1.54-.15-.47-.38-.86-.7-1.15-.32-.29-.74-.44-1.25-.44-.67,0-1.23.25-1.68.75-.45.5-.71,1.29-.77,2.38Z"/>
    <path class="cls-4" d="M1033.29,386c-.88,0-1.57-.36-2.09-1.07-.52-.71-.77-1.67-.77-2.88,0-.83.12-1.54.35-2.13s.57-1.04,1.02-1.35c.45-.31.98-.46,1.61-.46.88,0,1.59.43,2.14,1.28v-3.95l.53-.27v10.65h-.53v-1.08c-.58.84-1.33,1.25-2.26,1.25ZM1033.41,385.47c.4,0,.79-.14,1.19-.43.4-.29.71-.66.95-1.12v-3.76c-.28-.47-.61-.84-.99-1.11s-.76-.41-1.15-.41c-.77,0-1.36.29-1.78.88s-.63,1.43-.63,2.52c0,.66.1,1.25.31,1.77.21.51.49.92.85,1.21s.78.44,1.24.44Z"/>
    <path class="cls-4" d="M1041.08,386c-.76,0-1.35-.22-1.77-.65s-.63-1.03-.63-1.8c0-.49.1-.92.31-1.27s.51-.63.89-.83c.39-.19.84-.29,1.38-.29.37,0,.74.06,1.11.18s.74.3,1.11.55v-1.12c0-.74-.15-1.28-.45-1.64-.3-.35-.76-.53-1.39-.53-.34,0-.71.06-1.1.19-.4.12-.79.3-1.17.53l-.16-.46c.43-.25.85-.43,1.27-.56.42-.13.82-.19,1.21-.19.75,0,1.32.21,1.73.63.4.42.6,1.02.6,1.8v5.28h-.53v-1.18c-.3.43-.66.76-1.09,1-.43.24-.86.36-1.3.36ZM1041.08,385.52c.44,0,.86-.13,1.25-.38.4-.25.78-.62,1.14-1.11v-1.64c-.36-.24-.73-.42-1.1-.55-.38-.13-.75-.19-1.11-.19-.59,0-1.08.17-1.45.52-.37.35-.56.81-.56,1.38s.17,1.07.5,1.43c.33.36.78.54,1.33.54Z"/>
    <path class="cls-4" d="M1048.27,386c-.46,0-.8-.14-1.04-.43-.23-.29-.35-.71-.35-1.28v-5.52h-1.28v-.49h1.28v-2.85l.53-.27v3.11h1.92v.49h-1.92v5.44c0,.46.07.78.21.98.14.19.38.29.71.29.37,0,.74-.12,1.11-.35l-.06.56c-.15.09-.32.17-.52.22-.2.06-.4.08-.58.08Z"/>
    <path class="cls-4" d="M1053.62,386c-.76,0-1.35-.22-1.77-.65s-.63-1.03-.63-1.8c0-.49.1-.92.31-1.27s.51-.63.89-.83c.39-.19.84-.29,1.38-.29.37,0,.74.06,1.11.18s.74.3,1.11.55v-1.12c0-.74-.15-1.28-.45-1.64-.3-.35-.76-.53-1.39-.53-.34,0-.71.06-1.1.19-.4.12-.79.3-1.17.53l-.16-.46c.43-.25.85-.43,1.27-.56.42-.13.82-.19,1.21-.19.75,0,1.32.21,1.73.63.4.42.6,1.02.6,1.8v5.28h-.53v-1.18c-.3.43-.66.76-1.09,1-.43.24-.86.36-1.3.36ZM1053.62,385.52c.44,0,.86-.13,1.25-.38.4-.25.78-.62,1.14-1.11v-1.64c-.36-.24-.73-.42-1.1-.55-.38-.13-.75-.19-1.11-.19-.59,0-1.08.17-1.45.52-.37.35-.56.81-.56,1.38s.17,1.07.5,1.43c.33.36.78.54,1.33.54Z"/>
    <path class="cls-4" d="M1062.16,386c-.5,0-.94-.1-1.32-.3-.38-.2-.72-.52-1.03-.95v1.08h-.53v-10.38l.53-.27v4.22c.25-.4.57-.71.97-.94s.83-.34,1.29-.34c.59,0,1.1.16,1.53.48s.76.77.99,1.36c.23.59.35,1.29.35,2.1,0,1.25-.24,2.23-.73,2.92-.48.69-1.17,1.04-2.05,1.04ZM1062.12,385.47c.71,0,1.26-.3,1.65-.9.39-.6.59-1.44.59-2.52s-.2-1.95-.59-2.53c-.39-.58-.96-.87-1.71-.87-.42,0-.84.14-1.26.43s-.75.66-.98,1.1v3.75c.25.48.58.85.99,1.13.41.28.85.42,1.31.42Z"/>
    <path class="cls-4" d="M1069.61,386c-.76,0-1.35-.22-1.77-.65s-.63-1.03-.63-1.8c0-.49.1-.92.31-1.27s.51-.63.89-.83c.39-.19.84-.29,1.38-.29.37,0,.74.06,1.11.18s.74.3,1.11.55v-1.12c0-.74-.15-1.28-.45-1.64-.3-.35-.76-.53-1.39-.53-.34,0-.71.06-1.1.19-.4.12-.79.3-1.17.53l-.16-.46c.43-.25.85-.43,1.27-.56.42-.13.82-.19,1.21-.19.75,0,1.32.21,1.73.63.4.42.6,1.02.6,1.8v5.28h-.53v-1.18c-.3.43-.66.76-1.09,1-.43.24-.86.36-1.3.36ZM1069.61,385.52c.44,0,.86-.13,1.25-.38.4-.25.78-.62,1.14-1.11v-1.64c-.36-.24-.73-.42-1.1-.55-.38-.13-.75-.19-1.11-.19-.59,0-1.08.17-1.45.52-.37.35-.56.81-.56,1.38s.17,1.07.5,1.43c.33.36.78.54,1.33.54Z"/>
    <path class="cls-4" d="M1077.24,386c-.44,0-.87-.1-1.28-.29s-.77-.48-1.1-.84l.41-.35c.29.31.6.56.94.73.34.17.67.26,1,.26.56,0,.98-.13,1.28-.38.3-.25.45-.61.45-1.07,0-.28-.07-.53-.21-.76-.14-.23-.37-.44-.67-.64-.3-.2-.7-.38-1.18-.56-.73-.27-1.25-.57-1.57-.9-.32-.33-.48-.74-.48-1.22,0-.56.2-1,.61-1.35.41-.34.94-.51,1.6-.51.41,0,.8.08,1.19.24.38.16.71.39.98.69l-.4.34c-.54-.51-1.14-.77-1.79-.77-.51,0-.91.12-1.21.36-.3.24-.45.57-.45,1,0,.37.13.68.39.93s.75.5,1.45.77c.58.22,1.03.44,1.36.66s.57.48.71.76c.14.28.21.6.21.97,0,.61-.2,1.08-.6,1.43-.4.35-.95.52-1.66.52Z"/>
    <path class="cls-4" d="M1084.38,386c-.64,0-1.18-.16-1.63-.48-.45-.32-.79-.78-1.03-1.37-.24-.59-.36-1.29-.36-2.11s.13-1.55.39-2.14c.26-.59.62-1.03,1.07-1.34.46-.31.98-.46,1.56-.46.54,0,1.01.14,1.42.41.41.28.73.7.96,1.28.23.58.35,1.33.35,2.24v.16h-5.18c.03.64.13,1.2.29,1.69.17.49.43.87.78,1.15.35.28.83.42,1.42.42.29,0,.59-.05.9-.15.31-.1.6-.26.87-.48l.31.38c-.27.23-.58.41-.96.56s-.76.22-1.17.22ZM1081.93,381.73h4.62c0-.55-.07-1.06-.22-1.54-.15-.47-.38-.86-.7-1.15-.32-.29-.74-.44-1.25-.44-.67,0-1.23.25-1.68.75-.45.5-.71,1.29-.77,2.38Z"/>
    <path class="cls-4" d="M1091.37,386c-.44,0-.87-.1-1.28-.29s-.77-.48-1.1-.84l.41-.35c.29.31.6.56.94.73.34.17.67.26,1,.26.56,0,.98-.13,1.28-.38.3-.25.45-.61.45-1.07,0-.28-.07-.53-.21-.76-.14-.23-.37-.44-.67-.64-.3-.2-.7-.38-1.18-.56-.73-.27-1.25-.57-1.57-.9-.32-.33-.48-.74-.48-1.22,0-.56.2-1,.61-1.35.41-.34.94-.51,1.6-.51.41,0,.8.08,1.19.24.38.16.71.39.98.69l-.4.34c-.54-.51-1.14-.77-1.79-.77-.51,0-.91.12-1.21.36-.3.24-.45.57-.45,1,0,.37.13.68.39.93s.75.5,1.45.77c.58.22,1.03.44,1.36.66s.57.48.71.76c.14.28.21.6.21.97,0,.61-.2,1.08-.6,1.43-.4.35-.95.52-1.66.52Z"/>
  </g>
  <g>
    <path class="cls-3" d="M92.28,124.38v-8.86h-3.35v-.89h3.35v-2.19c0-.78.23-1.38.68-1.81.45-.43,1.08-.65,1.88-.65h3.02v.89h-3.02c-.5,0-.89.14-1.16.41s-.41.66-.41,1.16v2.19h4.6v.89h-4.6v8.86h-.99Z"/>
    <path class="cls-3" d="M101.89,124.38v-10.85h.99v1.87h.24l-.45,1.14c.01-.96.31-1.74.89-2.33.58-.59,1.35-.89,2.31-.89,1.16,0,2.07.35,2.74,1.06.67.71,1.01,1.67,1.01,2.88v.59h-1.08v-.59c0-.97-.25-1.73-.74-2.28-.49-.55-1.19-.82-2.08-.82s-1.57.27-2.07.82c-.5.55-.75,1.31-.75,2.28v7.1h-.99Z"/>
    <path class="cls-3" d="M117.14,124.58c-.78,0-1.45-.16-2.03-.48-.58-.32-1.03-.78-1.34-1.37s-.47-1.29-.47-2.09v-3.35c0-.8.16-1.5.47-2.08.32-.59.76-1.04,1.34-1.37s1.26-.49,2.03-.49,1.45.16,2.03.49c.58.33,1.03.79,1.34,1.37.32.58.47,1.28.47,2.08v3.35c0,.8-.16,1.5-.47,2.09-.32.59-.76,1.05-1.33,1.37-.57.32-1.25.48-2.04.48ZM117.14,123.71c.91,0,1.61-.27,2.11-.81.5-.54.75-1.29.75-2.27v-3.35c0-.97-.25-1.73-.76-2.27s-1.21-.81-2.1-.81-1.59.27-2.1.81c-.51.54-.76,1.3-.76,2.27v3.35c0,.97.25,1.73.75,2.27.5.54,1.2.81,2.11.81Z"/>
    <path class="cls-3" d="M124.61,124.38v-10.85h.87v1.48h.12l-.04.28c-.01-.59.14-1.06.47-1.42.33-.35.78-.53,1.36-.53s1.02.17,1.37.51c.35.34.56.82.64,1.44l-.08-.28h.16l-.04.28c-.01-.59.14-1.06.46-1.42.32-.35.77-.53,1.35-.53.66,0,1.17.23,1.53.68.36.45.54,1.07.54,1.86v8.5h-.97v-8.38c0-.57-.12-1.01-.37-1.34-.25-.33-.59-.49-1.03-.49-.46,0-.83.17-1.1.5-.28.34-.41.78-.41,1.33v8.38h-.95v-8.38c0-.57-.12-1.01-.37-1.34-.25-.33-.59-.49-1.03-.49s-.79.16-1.06.49c-.28.33-.43.78-.45,1.34v8.38h-.97Z"/>
    <path class="cls-4" d="M148.95,124.38v-14.4h.99v8.3h2.6l3.39-4.75h1.18l-3.65,5.15,3.73,5.7h-1.18l-3.47-5.21h-2.6v5.21h-.99Z"/>
    <path class="cls-4" d="M160.43,124.38v-.89h3.96v-9.07h-3.47v-.89h4.46v9.96h3.73v.89h-8.68ZM164.77,111.46c-.34,0-.62-.1-.83-.3s-.32-.46-.32-.79.1-.59.32-.79.49-.3.83-.3.62.1.83.3.32.46.32.79-.11.59-.32.79-.49.3-.83.3Z"/>
    <path class="cls-4" d="M172.56,124.38v-10.85h.99v1.87h.45l-.59,1.01c0-.93.29-1.68.86-2.24.57-.56,1.34-.84,2.3-.84,1.06,0,1.92.34,2.56,1.03.64.68.97,1.61.97,2.78v7.24h-.99v-7.1c0-.97-.25-1.73-.74-2.28-.49-.55-1.16-.82-2-.82s-1.56.28-2.06.83c-.51.55-.76,1.31-.76,2.27v7.1h-.99Z"/>
    <path class="cls-4" d="M185.66,127.93v-.89h2.86c.78,0,1.37-.2,1.78-.6.41-.4.61-.99.61-1.77v-3.16h-.35l.49-.89c0,.89-.29,1.61-.87,2.15-.58.54-1.34.81-2.29.81-1.08,0-1.95-.36-2.6-1.07s-.99-1.67-.99-2.85v-2.39c0-1.18.33-2.14.99-2.86s1.53-1.08,2.6-1.08c.95,0,1.71.27,2.29.81.58.54.87,1.26.87,2.15l-.39-.89h.26v-1.87h.99v11.14c0,1.08-.29,1.89-.86,2.44-.57.55-1.41.82-2.52.82h-2.86ZM188.08,122.74c.89,0,1.59-.27,2.08-.82.49-.55.74-1.3.74-2.26v-2.39c0-.97-.25-1.73-.74-2.28-.49-.55-1.19-.82-2.08-.82s-1.57.27-2.06.82c-.49.55-.74,1.31-.74,2.28v2.39c0,.96.25,1.71.74,2.26.49.55,1.18.82,2.06.82Z"/>
    <path class="cls-4" d="M199.98,124.58c-.78,0-1.45-.16-2.03-.48-.58-.32-1.03-.78-1.34-1.37s-.47-1.29-.47-2.09v-3.35c0-.8.16-1.5.47-2.08.32-.59.76-1.04,1.34-1.37s1.26-.49,2.03-.49,1.45.16,2.03.49c.58.33,1.03.79,1.34,1.37.32.58.47,1.28.47,2.08v3.35c0,.8-.16,1.5-.47,2.09-.32.59-.76,1.05-1.33,1.37-.57.32-1.25.48-2.04.48ZM199.98,123.71c.91,0,1.61-.27,2.11-.81.5-.54.75-1.29.75-2.27v-3.35c0-.97-.25-1.73-.76-2.27s-1.21-.81-2.1-.81-1.59.27-2.1.81c-.51.54-.76,1.3-.76,2.27v3.35c0,.97.25,1.73.75,2.27.5.54,1.2.81,2.11.81Z"/>
    <path class="cls-4" d="M208.4,124.38v-10.85h.99v1.87h.24l-.45,1.14c.01-.96.31-1.74.89-2.33.58-.59,1.35-.89,2.31-.89,1.16,0,2.07.35,2.74,1.06.67.71,1.01,1.67,1.01,2.88v.59h-1.08v-.59c0-.97-.25-1.73-.74-2.28-.49-.55-1.19-.82-2.08-.82s-1.57.27-2.07.82c-.5.55-.75,1.31-.75,2.28v7.1h-.99Z"/>
    <path class="cls-4" d="M219.29,124.38v-10.85h.87v1.48h.12l-.04.28c-.01-.59.14-1.06.47-1.42.33-.35.78-.53,1.36-.53s1.02.17,1.37.51c.35.34.56.82.64,1.44l-.08-.28h.16l-.04.28c-.01-.59.14-1.06.46-1.42.32-.35.77-.53,1.35-.53.66,0,1.17.23,1.53.68.36.45.54,1.07.54,1.86v8.5h-.97v-8.38c0-.57-.12-1.01-.37-1.34-.25-.33-.59-.49-1.03-.49-.46,0-.83.17-1.1.5-.28.34-.41.78-.41,1.33v8.38h-.95v-8.38c0-.57-.12-1.01-.37-1.34-.25-.33-.59-.49-1.03-.49s-.79.16-1.06.49c-.28.33-.43.78-.45,1.34v8.38h-.97Z"/>
    <path class="cls-3" d="M243.27,124.38v-.89h3.96v-9.07h-3.47v-.89h4.46v9.96h3.73v.89h-8.68ZM247.61,111.46c-.34,0-.62-.1-.83-.3s-.32-.46-.32-.79.1-.59.32-.79.49-.3.83-.3.62.1.83.3.32.46.32.79-.11.59-.32.79-.49.3-.83.3Z"/>
    <path class="cls-3" d="M254.79,124.38v-10.85h.87v1.48h.12l-.04.28c-.01-.59.14-1.06.47-1.42.33-.35.78-.53,1.36-.53s1.02.17,1.37.51c.35.34.56.82.64,1.44l-.08-.28h.16l-.04.28c-.01-.59.14-1.06.46-1.42.32-.35.77-.53,1.35-.53.66,0,1.17.23,1.53.68.36.45.54,1.07.54,1.86v8.5h-.97v-8.38c0-.57-.12-1.01-.37-1.34-.25-.33-.59-.49-1.03-.49-.46,0-.83.17-1.1.5-.28.34-.41.78-.41,1.33v8.38h-.95v-8.38c0-.57-.12-1.01-.37-1.34-.25-.33-.59-.49-1.03-.49s-.79.16-1.06.49c-.28.33-.43.78-.45,1.34v8.38h-.97Z"/>
    <path class="cls-3" d="M267.24,127.93v-14.4h.99v1.48h.55l-.75,1.28c0-.89.3-1.61.89-2.15.59-.54,1.37-.81,2.33-.81,1.09,0,1.96.36,2.61,1.08.65.72.98,1.67.98,2.85v3.37c0,.79-.15,1.48-.45,2.07-.3.59-.72,1.05-1.25,1.38s-1.16.49-1.88.49c-.96,0-1.74-.27-2.33-.82-.59-.55-.89-1.26-.89-2.14l.55,1.28h-.36v5.03h-.99ZM271.05,123.73c.88,0,1.57-.27,2.06-.82.49-.55.74-1.3.74-2.28v-3.37c0-.97-.25-1.73-.74-2.27-.49-.54-1.18-.81-2.06-.81s-1.57.27-2.07.81c-.5.54-.75,1.3-.75,2.27v3.37c0,.97.25,1.73.75,2.28.5.55,1.19.82,2.07.82Z"/>
    <path class="cls-3" d="M282.82,124.58c-.78,0-1.45-.16-2.03-.48-.58-.32-1.03-.78-1.34-1.37s-.47-1.29-.47-2.09v-3.35c0-.8.16-1.5.47-2.08.32-.59.76-1.04,1.34-1.37s1.26-.49,2.03-.49,1.45.16,2.03.49c.58.33,1.03.79,1.34,1.37.32.58.47,1.28.47,2.08v3.35c0,.8-.16,1.5-.47,2.09-.32.59-.76,1.05-1.33,1.37-.57.32-1.25.48-2.04.48ZM282.82,123.71c.91,0,1.61-.27,2.11-.81.5-.54.75-1.29.75-2.27v-3.35c0-.97-.25-1.73-.76-2.27s-1.21-.81-2.1-.81-1.59.27-2.1.81c-.51.54-.76,1.3-.76,2.27v3.35c0,.97.25,1.73.75,2.27.5.54,1.2.81,2.11.81Z"/>
    <path class="cls-3" d="M291.24,124.38v-10.85h.99v1.87h.24l-.45,1.14c.01-.96.31-1.74.89-2.33.58-.59,1.35-.89,2.31-.89,1.16,0,2.07.35,2.74,1.06.67.71,1.01,1.67,1.01,2.88v.59h-1.08v-.59c0-.97-.25-1.73-.74-2.28-.49-.55-1.19-.82-2.08-.82s-1.57.27-2.07.82c-.5.55-.75,1.31-.75,2.28v7.1h-.99Z"/>
    <path class="cls-3" d="M307.67,124.38c-.83,0-1.46-.21-1.9-.63-.44-.42-.66-1.03-.66-1.83v-7.5h-3.16v-.89h3.16v-3.06h.99v3.06h4.44v.89h-4.44v7.5c0,1.05.53,1.58,1.58,1.58h2.66v.89h-2.66Z"/>
    <path class="cls-4" d="M330.16,124.58c-1.18,0-2.11-.36-2.78-1.08-.67-.72-1.01-1.7-1.01-2.95v-7.02h.99v7.02c0,.99.25,1.76.74,2.31.49.55,1.17.83,2.04.83s1.57-.28,2.07-.83c.5-.55.75-1.32.75-2.31v-7.02h.99v7.02c0,1.24-.34,2.22-1.02,2.94-.68.72-1.6,1.08-2.77,1.08Z"/>
    <path class="cls-4" d="M338.25,124.38v-10.85h.99v1.87h.45l-.59,1.01c0-.93.29-1.68.86-2.24.57-.56,1.34-.84,2.3-.84,1.06,0,1.92.34,2.56,1.03.64.68.97,1.61.97,2.78v7.24h-.99v-7.1c0-.97-.25-1.73-.74-2.28-.49-.55-1.16-.82-2-.82s-1.56.28-2.06.83c-.51.55-.76,1.31-.76,2.27v7.1h-.99Z"/>
    <path class="cls-4" d="M349.79,124.38v-.89h3.96v-9.07h-3.47v-.89h4.46v9.96h3.73v.89h-8.68ZM354.12,111.46c-.34,0-.62-.1-.83-.3s-.32-.46-.32-.79.1-.59.32-.79.49-.3.83-.3.62.1.83.3.32.46.32.79-.11.59-.32.79-.49.3-.83.3Z"/>
    <path class="cls-4" d="M368.42,127.93v-5.03h-.35l.55-1.28c0,.89-.3,1.61-.9,2.15s-1.37.81-2.32.81c-1.08,0-1.95-.36-2.6-1.08-.66-.72-.99-1.68-.99-2.86v-3.37c0-1.18.33-2.13.99-2.85s1.53-1.08,2.6-1.08c.95,0,1.72.27,2.32.81.6.54.9,1.26.9,2.15l-.75-1.28h.55v-1.48h.99v14.4h-.99ZM365.6,123.73c.89,0,1.59-.28,2.08-.83.49-.55.74-1.31.74-2.27v-3.37c0-.97-.25-1.73-.74-2.27-.49-.54-1.19-.81-2.08-.81s-1.57.27-2.06.81c-.49.54-.74,1.3-.74,2.27v3.37c0,.96.25,1.72.74,2.27s1.18.83,2.06.83Z"/>
    <path class="cls-4" d="M377.5,124.58c-1.18,0-2.11-.36-2.78-1.08-.67-.72-1.01-1.7-1.01-2.95v-7.02h.99v7.02c0,.99.25,1.76.74,2.31.49.55,1.17.83,2.04.83s1.57-.28,2.07-.83c.5-.55.75-1.32.75-2.31v-7.02h.99v7.02c0,1.24-.34,2.22-1.02,2.94-.68.72-1.6,1.08-2.77,1.08Z"/>
    <path class="cls-4" d="M389.35,124.58c-.8,0-1.49-.16-2.07-.48-.58-.32-1.02-.78-1.33-1.37-.31-.59-.46-1.29-.46-2.09v-3.35c0-.8.15-1.5.46-2.08.31-.59.75-1.04,1.33-1.37.58-.33,1.27-.49,2.07-.49s1.49.16,2.05.49c.56.33,1,.79,1.31,1.37.31.58.46,1.28.46,2.08v1.87h-6.71v1.48c0,.95.25,1.7.75,2.25.5.55,1.21.83,2.13.83.74,0,1.34-.18,1.82-.53s.81-.84,1-1.46h.99c-.2.88-.63,1.58-1.29,2.09-.66.51-1.5.77-2.52.77ZM392.19,118.48v-1.2c0-.95-.25-1.7-.74-2.25-.49-.55-1.19-.83-2.1-.83s-1.63.27-2.13.82c-.5.55-.75,1.3-.75,2.26v1.03h5.94l-.22.18Z"/>
    <path class="cls-3" d="M93.51,195.59c-.79,0-1.48-.16-2.06-.48-.58-.32-1.04-.78-1.35-1.37s-.47-1.29-.47-2.09v-3.35c0-.8.16-1.5.47-2.08.32-.59.77-1.04,1.35-1.37s1.27-.49,2.06-.49c1.2,0,2.15.34,2.85,1.02.7.68,1.06,1.59,1.06,2.73h-.99c0-.89-.26-1.59-.78-2.09-.52-.5-1.23-.75-2.14-.75s-1.6.27-2.12.8c-.52.53-.78,1.28-.78,2.24v3.35c0,.95.26,1.69.78,2.23.52.54,1.23.81,2.12.81s1.62-.25,2.14-.76c.52-.51.78-1.2.78-2.08h.99c0,1.14-.35,2.05-1.06,2.73-.7.68-1.65,1.02-2.85,1.02Z"/>
    <path class="cls-3" d="M106.58,195.39c-.59,0-1.09-.1-1.5-.31-.41-.2-.72-.51-.94-.91-.22-.4-.33-.88-.33-1.45v-10.85h-3.45v-.89h4.44v11.74c0,.58.15,1.02.45,1.32.3.3.74.45,1.32.45h3.45v.89h-3.45Z"/>
    <path class="cls-3" d="M116.52,195.59c-1.12,0-2.01-.3-2.68-.89-.67-.59-1.01-1.37-1.01-2.35s.31-1.68.93-2.24c.62-.56,1.43-.84,2.45-.84h3.73v-1.28c0-.87-.24-1.54-.71-2.02-.47-.48-1.14-.72-2.01-.72-.79,0-1.44.19-1.95.58-.51.39-.82.91-.91,1.57h-.99c.13-.92.55-1.66,1.25-2.22.7-.56,1.57-.84,2.59-.84,1.12,0,2.02.34,2.69,1.01.68.67,1.02,1.55,1.02,2.64v7.4h-.99v-2.21h-.18l.32-.39c0,.84-.33,1.52-.98,2.03-.65.51-1.51.77-2.57.77ZM116.8,194.72c.93,0,1.69-.24,2.27-.73.58-.49.87-1.12.87-1.89v-1.95h-3.75c-.71,0-1.28.19-1.72.58-.43.39-.65.9-.65,1.55,0,.72.27,1.31.82,1.77.55.45,1.27.68,2.16.68Z"/>
    <path class="cls-3" d="M128.42,195.59c-.66,0-1.24-.12-1.75-.36-.51-.24-.91-.58-1.22-1.02s-.5-.93-.56-1.48h.99c.1.57.38,1.04.84,1.41.45.37,1.02.56,1.71.56h1.32c.72,0,1.3-.19,1.72-.56.42-.38.63-.88.63-1.51,0-.57-.17-1.05-.5-1.44-.33-.39-.79-.63-1.37-.71l-2.11-.3c-.92-.13-1.64-.45-2.15-.95-.51-.5-.77-1.15-.77-1.95,0-.89.31-1.61.94-2.14.62-.53,1.46-.8,2.5-.8h.83c.99,0,1.79.24,2.42.73s.98,1.13,1.08,1.93h-.99c-.08-.51-.34-.94-.79-1.27-.45-.34-1.02-.5-1.72-.5h-.83c-.74,0-1.33.18-1.77.55s-.66.86-.66,1.48c0,.54.18.97.53,1.3s.87.55,1.54.65l2.07.3c.83.12,1.49.44,1.98.98.49.53.74,1.2.74,2,0,.93-.3,1.68-.9,2.25-.6.57-1.4.85-2.42.85h-1.32Z"/>
    <path class="cls-3" d="M140.25,195.59c-.66,0-1.24-.12-1.75-.36-.51-.24-.91-.58-1.22-1.02s-.5-.93-.56-1.48h.99c.1.57.38,1.04.84,1.41.45.37,1.02.56,1.71.56h1.32c.72,0,1.3-.19,1.72-.56.42-.38.63-.88.63-1.51,0-.57-.17-1.05-.5-1.44-.33-.39-.79-.63-1.37-.71l-2.11-.3c-.92-.13-1.64-.45-2.15-.95-.51-.5-.77-1.15-.77-1.95,0-.89.31-1.61.94-2.14.62-.53,1.46-.8,2.5-.8h.83c.99,0,1.79.24,2.42.73s.98,1.13,1.08,1.93h-.99c-.08-.51-.34-.94-.79-1.27-.45-.34-1.02-.5-1.72-.5h-.83c-.74,0-1.33.18-1.77.55s-.66.86-.66,1.48c0,.54.18.97.53,1.3s.87.55,1.54.65l2.07.3c.83.12,1.49.44,1.98.98.49.53.74,1.2.74,2,0,.93-.3,1.68-.9,2.25-.6.57-1.4.85-2.42.85h-1.32Z"/>
    <path class="cls-4" d="M164.49,195.59c-1.16,0-2.08-.36-2.77-1.08-.69-.72-1.04-1.67-1.04-2.87v-10.65h.99v10.65c0,.96.25,1.71.75,2.25.5.54,1.19.81,2.07.81s1.56-.27,2.05-.81c.49-.54.73-1.29.73-2.25v-10.65h.99v10.65c0,1.2-.34,2.15-1.03,2.87-.68.72-1.6,1.08-2.74,1.08Z"/>
    <path class="cls-4" d="M175.76,195.59c-.66,0-1.24-.12-1.75-.36-.51-.24-.91-.58-1.22-1.02s-.5-.93-.56-1.48h.99c.1.57.38,1.04.84,1.41.45.37,1.02.56,1.71.56h1.32c.72,0,1.3-.19,1.72-.56.42-.38.63-.88.63-1.51,0-.57-.17-1.05-.5-1.44-.33-.39-.79-.63-1.37-.71l-2.11-.3c-.92-.13-1.64-.45-2.15-.95-.51-.5-.77-1.15-.77-1.95,0-.89.31-1.61.94-2.14.62-.53,1.46-.8,2.5-.8h.83c.99,0,1.79.24,2.42.73s.98,1.13,1.08,1.93h-.99c-.08-.51-.34-.94-.79-1.27-.45-.34-1.02-.5-1.72-.5h-.83c-.74,0-1.33.18-1.77.55s-.66.86-.66,1.48c0,.54.18.97.53,1.3s.87.55,1.54.65l2.07.3c.83.12,1.49.44,1.98.98.49.53.74,1.2.74,2,0,.93-.3,1.68-.9,2.25-.6.57-1.4.85-2.42.85h-1.32Z"/>
    <path class="cls-4" d="M188.16,195.59c-.8,0-1.49-.16-2.07-.48-.58-.32-1.02-.78-1.33-1.37-.31-.59-.46-1.29-.46-2.09v-3.35c0-.8.15-1.5.46-2.08.31-.59.75-1.04,1.33-1.37.58-.33,1.27-.49,2.07-.49s1.49.16,2.05.49c.56.33,1,.79,1.31,1.37.31.58.46,1.28.46,2.08v1.87h-6.71v1.48c0,.95.25,1.7.75,2.25.5.55,1.21.83,2.13.83.74,0,1.34-.18,1.82-.53s.81-.84,1-1.46h.99c-.2.88-.63,1.58-1.29,2.09-.66.51-1.5.77-2.52.77ZM191,189.49v-1.2c0-.95-.25-1.7-.74-2.25-.49-.55-1.19-.83-2.1-.83s-1.63.27-2.13.82c-.5.55-.75,1.3-.75,2.26v1.03h5.94l-.22.18Z"/>
    <path class="cls-4" d="M196.57,195.39v-10.85h.99v1.87h.24l-.45,1.14c.01-.96.31-1.74.89-2.33.58-.59,1.35-.89,2.31-.89,1.16,0,2.07.35,2.74,1.06.67.71,1.01,1.67,1.01,2.88v.59h-1.08v-.59c0-.97-.25-1.73-.74-2.28-.49-.55-1.19-.82-2.08-.82s-1.57.27-2.07.82c-.5.55-.75,1.31-.75,2.28v7.1h-.99Z"/>
    <path class="cls-4" d="M215.46,197.76c-1.81-.46-3.19-1.32-4.12-2.58-.93-1.26-1.4-2.9-1.4-4.91v-3.94c0-1.34.21-2.52.62-3.53.41-1.01,1.03-1.85,1.85-2.52.82-.66,1.84-1.15,3.05-1.45v.99c-.95.24-1.75.65-2.42,1.23-.66.58-1.17,1.32-1.51,2.21s-.51,1.91-.51,3.07v3.94c0,1.13.17,2.14.52,3.04.35.89.85,1.64,1.52,2.23s1.46,1.01,2.4,1.24v.99Z"/>
    <path class="cls-4" d="M219.54,195.39v-14.4h1.48l2.01,5.52c.1.29.22.6.35.95.12.34.22.62.29.85.07-.22.16-.51.29-.85s.24-.66.35-.95l1.99-5.52h1.46v14.4h-.97v-8.68c0-.5,0-1,0-1.51,0-.51.02-.99.03-1.46.01-.47.02-.89.03-1.28,0-.39.02-.71.03-.98l-2.7,7.5h-1.05l-2.74-7.5c.01.26.03.59.04.98.01.39.03.82.04,1.28s.02.95.03,1.46c0,.51,0,1.01,0,1.51v8.68h-.97Z"/>
    <path class="cls-4" d="M235.48,195.59c-.78,0-1.45-.16-2.03-.48-.58-.32-1.03-.78-1.34-1.37s-.47-1.29-.47-2.09v-3.35c0-.8.16-1.5.47-2.08.32-.59.76-1.04,1.34-1.37s1.26-.49,2.03-.49,1.45.16,2.03.49c.58.33,1.03.79,1.34,1.37.32.58.47,1.28.47,2.08v3.35c0,.8-.16,1.5-.47,2.09-.32.59-.76,1.05-1.33,1.37-.57.32-1.25.48-2.04.48ZM235.48,194.72c.91,0,1.61-.27,2.11-.81.5-.54.75-1.29.75-2.27v-3.35c0-.97-.25-1.73-.76-2.27s-1.21-.81-2.1-.81-1.59.27-2.1.81c-.51.54-.76,1.3-.76,2.27v3.35c0,.97.25,1.73.75,2.27.5.54,1.2.81,2.11.81Z"/>
    <path class="cls-4" d="M247.06,195.59c-1.08,0-1.95-.36-2.6-1.08-.66-.72-.99-1.67-.99-2.85v-3.37c0-1.18.33-2.14.99-2.86s1.53-1.08,2.6-1.08c.95,0,1.72.27,2.32.81.6.54.9,1.26.9,2.15l-.55-1.28h.35v-5.03h.99v14.4h-.99v-1.48h-.55l.75-1.28c0,.89-.3,1.61-.9,2.15s-1.37.81-2.32.81ZM247.26,194.74c.89,0,1.59-.27,2.08-.82.49-.55.74-1.3.74-2.26v-3.37c0-.97-.25-1.73-.74-2.28-.49-.55-1.19-.82-2.08-.82s-1.57.27-2.06.82c-.49.55-.74,1.31-.74,2.28v3.37c0,.96.25,1.71.74,2.26.49.55,1.18.82,2.06.82Z"/>
    <path class="cls-4" d="M259.17,195.59c-.8,0-1.49-.16-2.07-.48-.58-.32-1.02-.78-1.33-1.37-.31-.59-.46-1.29-.46-2.09v-3.35c0-.8.15-1.5.46-2.08.31-.59.75-1.04,1.33-1.37.58-.33,1.27-.49,2.07-.49s1.49.16,2.05.49c.56.33,1,.79,1.31,1.37.31.58.46,1.28.46,2.08v1.87h-6.71v1.48c0,.95.25,1.7.75,2.25.5.55,1.21.83,2.13.83.74,0,1.34-.18,1.82-.53s.81-.84,1-1.46h.99c-.2.88-.63,1.58-1.29,2.09-.66.51-1.5.77-2.52.77ZM262.01,189.49v-1.2c0-.95-.25-1.7-.74-2.25-.49-.55-1.19-.83-2.1-.83s-1.63.27-2.13.82c-.5.55-.75,1.3-.75,2.26v1.03h5.94l-.22.18Z"/>
    <path class="cls-4" d="M272.27,195.39c-.59,0-1.09-.1-1.5-.31-.41-.2-.72-.51-.94-.91-.22-.4-.33-.88-.33-1.45v-10.85h-3.45v-.89h4.44v11.74c0,.58.15,1.02.45,1.32.3.3.74.45,1.32.45h3.45v.89h-3.45Z"/>
    <path class="cls-4" d="M279.17,197.76v-.99c.93-.24,1.73-.65,2.4-1.24.66-.59,1.17-1.33,1.52-2.23.35-.89.52-1.91.52-3.04v-3.94c0-1.16-.17-2.18-.52-3.07s-.85-1.62-1.51-2.21c-.66-.58-1.46-1-2.41-1.23v-.99c1.21.3,2.23.79,3.05,1.45.82.66,1.44,1.5,1.85,2.52s.62,2.19.62,3.53v3.94c0,2.01-.47,3.65-1.4,4.91-.93,1.26-2.31,2.12-4.12,2.58Z"/>
    <path class="cls-4" d="M294.66,187.18c-.43,0-.78-.13-1.05-.39-.26-.26-.39-.6-.39-1.03s.13-.76.39-1.03.61-.39,1.05-.39.78.13,1.05.39c.26.26.39.6.39,1.03s-.13.76-.39,1.03-.61.39-1.05.39ZM294.66,195.59c-.43,0-.78-.13-1.05-.39-.26-.26-.39-.6-.39-1.03s.13-.76.39-1.03c.26-.26.61-.39,1.05-.39s.78.13,1.05.39c.26.26.39.6.39,1.03s-.13.76-.39,1.03c-.26.26-.61.39-1.05.39Z"/>
    <path class="cls-4" d="M140.84,219.26c-.79,0-1.48-.16-2.06-.48-.58-.32-1.04-.78-1.35-1.37s-.47-1.29-.47-2.09v-3.35c0-.8.16-1.5.47-2.08.32-.59.77-1.04,1.35-1.37s1.27-.49,2.06-.49c1.2,0,2.15.34,2.85,1.02.7.68,1.06,1.59,1.06,2.73h-.99c0-.89-.26-1.59-.78-2.09-.52-.5-1.23-.75-2.14-.75s-1.6.27-2.12.8c-.52.53-.78,1.28-.78,2.24v3.35c0,.95.26,1.69.78,2.23.52.54,1.23.81,2.12.81s1.62-.25,2.14-.76c.52-.51.78-1.2.78-2.08h.99c0,1.14-.35,2.05-1.06,2.73-.7.68-1.65,1.02-2.85,1.02Z"/>
    <path class="cls-4" d="M152.64,219.26c-.78,0-1.45-.16-2.03-.48-.58-.32-1.03-.78-1.34-1.37s-.47-1.29-.47-2.09v-3.35c0-.8.16-1.5.47-2.08.32-.59.76-1.04,1.34-1.37s1.26-.49,2.03-.49,1.45.16,2.03.49c.58.33,1.03.79,1.34,1.37.32.58.47,1.28.47,2.08v3.35c0,.8-.16,1.5-.47,2.09-.32.59-.76,1.05-1.33,1.37-.57.32-1.25.48-2.04.48ZM152.64,218.39c.91,0,1.61-.27,2.11-.81.5-.54.75-1.29.75-2.27v-3.35c0-.97-.25-1.73-.76-2.27s-1.21-.81-2.1-.81-1.59.27-2.1.81c-.51.54-.76,1.3-.76,2.27v3.35c0,.97.25,1.73.75,2.27.5.54,1.2.81,2.11.81Z"/>
    <path class="cls-4" d="M165.76,219.06c-.59,0-1.09-.1-1.5-.31-.41-.2-.72-.51-.94-.91-.22-.4-.33-.88-.33-1.45v-10.85h-3.45v-.89h4.44v11.74c0,.58.15,1.02.45,1.32.3.3.74.45,1.32.45h3.45v.89h-3.45Z"/>
    <path class="cls-4" d="M176.31,219.26c-1.18,0-2.11-.36-2.78-1.08-.67-.72-1.01-1.7-1.01-2.95v-7.02h.99v7.02c0,.99.25,1.76.74,2.31.49.55,1.17.83,2.04.83s1.57-.28,2.07-.83c.5-.55.75-1.32.75-2.31v-7.02h.99v7.02c0,1.24-.34,2.22-1.02,2.94-.68.72-1.6,1.08-2.77,1.08Z"/>
    <path class="cls-4" d="M183.78,219.06v-10.85h.87v1.48h.12l-.04.28c-.01-.59.14-1.06.47-1.42.33-.35.78-.53,1.36-.53s1.02.17,1.37.51c.35.34.56.82.64,1.44l-.08-.28h.16l-.04.28c-.01-.59.14-1.06.46-1.42.32-.35.77-.53,1.35-.53.66,0,1.17.23,1.53.68.36.45.54,1.07.54,1.86v8.5h-.97v-8.38c0-.57-.12-1.01-.37-1.34-.25-.33-.59-.49-1.03-.49-.46,0-.83.17-1.1.5-.28.34-.41.78-.41,1.33v8.38h-.95v-8.38c0-.57-.12-1.01-.37-1.34-.25-.33-.59-.49-1.03-.49s-.79.16-1.06.49c-.28.33-.43.78-.45,1.34v8.38h-.97Z"/>
    <path class="cls-4" d="M196.23,219.06v-10.85h.99v1.87h.45l-.59,1.01c0-.93.29-1.68.86-2.24.57-.56,1.34-.84,2.3-.84,1.06,0,1.92.34,2.56,1.03.64.68.97,1.61.97,2.78v7.24h-.99v-7.1c0-.97-.25-1.73-.74-2.28-.49-.55-1.16-.82-2-.82s-1.56.28-2.06.83c-.51.55-.76,1.31-.76,2.27v7.1h-.99Z"/>
    <path class="cls-4" d="M211.26,219.26c-.66,0-1.24-.12-1.75-.36-.51-.24-.91-.58-1.22-1.02s-.5-.93-.56-1.48h.99c.1.57.38,1.04.84,1.41.45.37,1.02.56,1.71.56h1.32c.72,0,1.3-.19,1.72-.56.42-.38.63-.88.63-1.51,0-.57-.17-1.05-.5-1.44-.33-.39-.79-.63-1.37-.71l-2.11-.3c-.92-.13-1.64-.45-2.15-.95-.51-.5-.77-1.15-.77-1.95,0-.89.31-1.61.94-2.14.62-.53,1.46-.8,2.5-.8h.83c.99,0,1.79.24,2.42.73s.98,1.13,1.08,1.93h-.99c-.08-.51-.34-.94-.79-1.27-.45-.34-1.02-.5-1.72-.5h-.83c-.74,0-1.33.18-1.77.55s-.66.86-.66,1.48c0,.54.18.97.53,1.3s.87.55,1.54.65l2.07.3c.83.12,1.49.44,1.98.98.49.53.74,1.2.74,2,0,.93-.3,1.68-.9,2.25-.6.57-1.4.85-2.42.85h-1.32Z"/>
    <path class="cls-4" d="M231.44,210.75v-.89h8.09v.89h-8.09ZM231.44,215.21v-.89h8.09v.89h-8.09Z"/>
    <path class="cls-4" d="M262.01,221.23c-.63,0-1.18-.12-1.64-.35-.46-.23-.81-.57-1.04-1.02-.23-.45-.33-.98-.29-1.6l.3-3.89c.05-.7-.05-1.2-.31-1.5-.26-.3-.81-.45-1.67-.45h-2.17v-.91h2.17c.82,0,1.36-.15,1.65-.44s.39-.81.33-1.53l-.3-3.91c-.04-.63.06-1.17.29-1.61.23-.44.57-.78,1.04-1.01s1.01-.35,1.64-.35h1.08v.89h-1.08c-.6,0-1.1.18-1.48.55-.38.37-.55.87-.49,1.52l.3,3.91c.07.74-.1,1.33-.49,1.79s-.92.68-1.58.68v-.14c.66,0,1.18.23,1.58.69s.56,1.06.49,1.81l-.3,3.89c-.05.64.11,1.15.49,1.52.38.37.87.55,1.48.55h1.08v.89h-1.08Z"/>
    <path class="cls-2" d="M190.41,227.44l-1.48,6.13h-1.78l2.47-6.13h.79Z"/>
    <path class="cls-2" d="M195.94,242.73v-.89h3.96v-9.07h-3.47v-.89h4.46v9.96h3.73v.89h-8.68ZM200.27,229.81c-.34,0-.62-.1-.83-.3s-.32-.46-.32-.79.1-.59.32-.79.49-.3.83-.3.62.1.83.3.32.46.32.79-.11.59-.32.79-.49.3-.83.3Z"/>
    <path class="cls-2" d="M211.56,242.93c-1.08,0-1.95-.36-2.6-1.08-.66-.72-.99-1.67-.99-2.85v-3.37c0-1.18.33-2.14.99-2.86s1.53-1.08,2.6-1.08c.95,0,1.72.27,2.32.81.6.54.9,1.26.9,2.15l-.55-1.28h.35v-5.03h.99v14.4h-.99v-1.48h-.55l.75-1.28c0,.89-.3,1.61-.9,2.15s-1.37.81-2.32.81ZM211.75,242.08c.89,0,1.59-.27,2.08-.82.49-.55.74-1.3.74-2.26v-3.37c0-.97-.25-1.73-.74-2.28-.49-.55-1.19-.82-2.08-.82s-1.57.27-2.06.82c-.49.55-.74,1.31-.74,2.28v3.37c0,.96.25,1.71.74,2.26.49.55,1.18.82,2.06.82Z"/>
    <path class="cls-2" d="M221.38,233.56l1.48-6.13h1.78l-2.47,6.13h-.79Z"/>
    <path class="cls-4" d="M235.48,234.52c-.43,0-.78-.13-1.05-.39-.26-.26-.39-.6-.39-1.03s.13-.76.39-1.03.61-.39,1.05-.39.78.13,1.05.39c.26.26.39.6.39,1.03s-.13.76-.39,1.03-.61.39-1.05.39ZM235.48,242.93c-.43,0-.78-.13-1.05-.39-.26-.26-.39-.6-.39-1.03s.13-.76.39-1.03c.26-.26.61-.39,1.05-.39s.78.13,1.05.39c.26.26.39.6.39,1.03s-.13.76-.39,1.03c-.26.26-.61.39-1.05.39Z"/>
    <path class="cls-3" d="M259.15,242.93c-1.18,0-2.11-.36-2.78-1.08-.67-.72-1.01-1.7-1.01-2.95v-7.02h.99v7.02c0,.99.25,1.76.74,2.31.49.55,1.17.83,2.04.83s1.57-.28,2.07-.83c.5-.55.75-1.32.75-2.31v-7.02h.99v7.02c0,1.24-.34,2.22-1.02,2.94-.68.72-1.6,1.08-2.77,1.08Z"/>
    <path class="cls-3" d="M267.24,242.73v-10.85h.99v1.87h.45l-.59,1.01c0-.93.29-1.68.86-2.24.57-.56,1.34-.84,2.3-.84,1.06,0,1.92.34,2.56,1.03.64.68.97,1.61.97,2.78v7.24h-.99v-7.1c0-.97-.25-1.73-.74-2.28-.49-.55-1.16-.82-2-.82s-1.56.28-2.06.83c-.51.55-.76,1.31-.76,2.27v7.1h-.99Z"/>
    <path class="cls-3" d="M278.78,242.73v-.89h3.96v-9.07h-3.47v-.89h4.46v9.96h3.73v.89h-8.68ZM283.12,229.81c-.34,0-.62-.1-.83-.3s-.32-.46-.32-.79.1-.59.32-.79.49-.3.83-.3.62.1.83.3.32.46.32.79-.11.59-.32.79-.49.3-.83.3Z"/>
    <path class="cls-3" d="M297.42,246.28v-5.03h-.35l.55-1.28c0,.89-.3,1.61-.9,2.15s-1.37.81-2.32.81c-1.08,0-1.95-.36-2.6-1.08-.66-.72-.99-1.68-.99-2.86v-3.37c0-1.18.33-2.13.99-2.85s1.53-1.08,2.6-1.08c.95,0,1.72.27,2.32.81.6.54.9,1.26.9,2.15l-.75-1.28h.55v-1.48h.99v14.4h-.99ZM294.6,242.08c.89,0,1.59-.28,2.08-.83.49-.55.74-1.31.74-2.27v-3.37c0-.97-.25-1.73-.74-2.27-.49-.54-1.19-.81-2.08-.81s-1.57.27-2.06.81c-.49.54-.74,1.3-.74,2.27v3.37c0,.96.25,1.72.74,2.27s1.18.83,2.06.83Z"/>
    <path class="cls-3" d="M306.49,242.93c-1.18,0-2.11-.36-2.78-1.08-.67-.72-1.01-1.7-1.01-2.95v-7.02h.99v7.02c0,.99.25,1.76.74,2.31.49.55,1.17.83,2.04.83s1.57-.28,2.07-.83c.5-.55.75-1.32.75-2.31v-7.02h.99v7.02c0,1.24-.34,2.22-1.02,2.94-.68.72-1.6,1.08-2.77,1.08Z"/>
    <path class="cls-3" d="M318.34,242.93c-.8,0-1.49-.16-2.07-.48-.58-.32-1.02-.78-1.33-1.37-.31-.59-.46-1.29-.46-2.09v-3.35c0-.8.15-1.5.46-2.08.31-.59.75-1.04,1.33-1.37.58-.33,1.27-.49,2.07-.49s1.49.16,2.05.49c.56.33,1,.79,1.31,1.37.31.58.46,1.28.46,2.08v1.87h-6.71v1.48c0,.95.25,1.7.75,2.25.5.55,1.21.83,2.13.83.74,0,1.34-.18,1.82-.53s.81-.84,1-1.46h.99c-.2.88-.63,1.58-1.29,2.09-.66.51-1.5.77-2.52.77ZM321.19,236.83v-1.2c0-.95-.25-1.7-.74-2.25-.49-.55-1.19-.83-2.1-.83s-1.63.27-2.13.82c-.5.55-.75,1.3-.75,2.26v1.03h5.94l-.22.18Z"/>
    <path class="cls-4" d="M333.81,245.1c-1.81-.46-3.19-1.32-4.12-2.58-.93-1.26-1.4-2.9-1.4-4.91v-3.94c0-1.34.21-2.52.62-3.53.41-1.01,1.03-1.85,1.85-2.52.82-.66,1.84-1.15,3.05-1.45v.99c-.95.24-1.75.65-2.42,1.23-.66.58-1.17,1.32-1.51,2.21s-.51,1.91-.51,3.07v3.94c0,1.13.17,2.14.52,3.04.35.89.85,1.64,1.52,2.23s1.46,1.01,2.4,1.24v.99Z"/>
    <path class="cls-3" d="M337.95,242.73v-.89h3.96v-9.07h-3.47v-.89h4.46v9.96h3.73v.89h-8.68ZM342.29,229.81c-.34,0-.62-.1-.83-.3s-.32-.46-.32-.79.1-.59.32-.79.49-.3.83-.3.62.1.83.3.32.46.32.79-.11.59-.32.79-.49.3-.83.3Z"/>
    <path class="cls-3" d="M350.08,242.73v-10.85h.99v1.87h.45l-.59,1.01c0-.93.29-1.68.86-2.24.57-.56,1.34-.84,2.3-.84,1.06,0,1.92.34,2.56,1.03.64.68.97,1.61.97,2.78v7.24h-.99v-7.1c0-.97-.25-1.73-.74-2.28-.49-.55-1.16-.82-2-.82s-1.56.28-2.06.83c-.51.55-.76,1.31-.76,2.27v7.1h-.99Z"/>
    <path class="cls-3" d="M366.85,242.73c-.83,0-1.46-.21-1.9-.63-.44-.42-.66-1.03-.66-1.83v-7.5h-3.16v-.89h3.16v-3.06h.99v3.06h4.44v.89h-4.44v7.5c0,1.05.53,1.58,1.58,1.58h2.66v.89h-2.66Z"/>
    <path class="cls-4" d="M373.85,245.1v-.99c.93-.24,1.73-.65,2.4-1.24.66-.59,1.17-1.33,1.52-2.23.35-.89.52-1.91.52-3.04v-3.94c0-1.16-.17-2.18-.52-3.07s-.85-1.62-1.51-2.21c-.66-.58-1.46-1-2.41-1.23v-.99c1.21.3,2.23.79,3.05,1.45.82.66,1.44,1.5,1.85,2.52s.62,2.19.62,3.53v3.94c0,2.01-.47,3.65-1.4,4.91-.93,1.26-2.31,2.12-4.12,2.58Z"/>
    <path class="cls-4" d="M387.16,245.88l1.48-6.14h1.78l-2.47,6.14h-.79Z"/>
    <path class="cls-2" d="M190.41,251.11l-1.48,6.13h-1.78l2.47-6.13h.79Z"/>
    <path class="cls-2" d="M196.23,266.4v-10.85h.99v1.87h.45l-.59,1.01c0-.93.29-1.68.86-2.24.57-.56,1.34-.84,2.3-.84,1.06,0,1.92.34,2.56,1.03.64.68.97,1.61.97,2.78v7.24h-.99v-7.1c0-.97-.25-1.73-.74-2.28s-1.16-.82-2-.82-1.56.28-2.06.83c-.51.55-.76,1.31-.76,2.27v7.1h-.99Z"/>
    <path class="cls-2" d="M211.2,266.59c-1.12,0-2.01-.3-2.68-.89-.67-.59-1.01-1.37-1.01-2.35s.31-1.68.93-2.24,1.43-.84,2.45-.84h3.73v-1.28c0-.87-.24-1.54-.71-2.02-.47-.48-1.14-.72-2.01-.72-.79,0-1.44.19-1.95.58-.51.39-.82.91-.91,1.57h-.99c.13-.92.55-1.66,1.25-2.22.7-.56,1.57-.84,2.59-.84,1.12,0,2.02.33,2.69,1.01.68.67,1.02,1.55,1.02,2.64v7.4h-.99v-2.21h-.18l.32-.39c0,.84-.33,1.52-.98,2.03s-1.51.77-2.57.77ZM211.48,265.73c.93,0,1.69-.24,2.27-.73.58-.49.87-1.12.87-1.89v-1.95h-3.75c-.71,0-1.28.19-1.72.58-.43.39-.65.9-.65,1.55,0,.72.27,1.31.82,1.76.55.45,1.27.68,2.16.68Z"/>
    <path class="cls-2" d="M219.29,266.4v-10.85h.87v1.48h.12l-.04.28c-.01-.59.14-1.07.47-1.42.33-.35.78-.53,1.36-.53s1.02.17,1.37.51c.35.34.56.82.64,1.44l-.08-.28h.16l-.04.28c-.01-.59.14-1.07.46-1.42.32-.35.77-.53,1.35-.53.66,0,1.17.23,1.53.68.36.45.54,1.08.54,1.86v8.5h-.97v-8.38c0-.57-.12-1.01-.37-1.34-.25-.33-.59-.49-1.03-.49-.46,0-.83.17-1.1.5-.28.34-.41.78-.41,1.33v8.38h-.95v-8.38c0-.57-.12-1.01-.37-1.34-.25-.33-.59-.49-1.03-.49s-.79.17-1.06.49c-.28.33-.43.78-.45,1.34v8.38h-.97Z"/>
    <path class="cls-2" d="M235.5,266.59c-.8,0-1.49-.16-2.07-.48-.58-.32-1.02-.78-1.33-1.37-.31-.59-.46-1.29-.46-2.09v-3.35c0-.8.15-1.5.46-2.08.31-.58.75-1.04,1.33-1.37.58-.33,1.27-.49,2.07-.49s1.49.17,2.05.49c.56.33,1,.79,1.31,1.37.31.58.46,1.28.46,2.08v1.87h-6.71v1.48c0,.95.25,1.7.75,2.25.5.55,1.21.83,2.13.83.74,0,1.34-.18,1.82-.53.48-.36.81-.84,1-1.46h.99c-.2.88-.63,1.58-1.29,2.09-.66.51-1.5.77-2.52.77ZM238.34,260.5v-1.2c0-.95-.25-1.7-.74-2.25-.49-.55-1.19-.83-2.1-.83s-1.63.27-2.13.82c-.5.55-.75,1.3-.75,2.26v1.03h5.94l-.22.18Z"/>
    <path class="cls-2" d="M245.05,257.23l1.48-6.13h1.78l-2.47,6.13h-.79Z"/>
    <path class="cls-4" d="M259.15,258.19c-.43,0-.78-.13-1.05-.39-.26-.26-.39-.61-.39-1.03s.13-.76.39-1.03c.26-.26.61-.39,1.05-.39s.78.13,1.05.39c.26.26.39.61.39,1.03s-.13.76-.39,1.03c-.26.26-.61.39-1.05.39ZM259.15,266.59c-.43,0-.78-.13-1.05-.39-.26-.26-.39-.6-.39-1.03s.13-.76.39-1.03c.26-.26.61-.39,1.05-.39s.78.13,1.05.39c.26.26.39.61.39,1.03s-.13.76-.39,1.03c-.26.26-.61.39-1.05.39Z"/>
    <path class="cls-3" d="M282.27,266.59c-.66,0-1.24-.12-1.75-.37-.51-.24-.91-.58-1.22-1.02s-.5-.93-.56-1.48h.99c.1.57.38,1.04.84,1.41.45.38,1.02.56,1.71.56h1.32c.72,0,1.3-.19,1.72-.56.42-.37.63-.88.63-1.51,0-.57-.17-1.04-.5-1.44-.33-.39-.79-.63-1.37-.71l-2.11-.3c-.92-.13-1.64-.45-2.15-.95-.51-.5-.77-1.15-.77-1.95,0-.89.31-1.61.94-2.14.62-.53,1.46-.8,2.5-.8h.83c.99,0,1.79.24,2.42.73.62.49.98,1.13,1.08,1.93h-.99c-.08-.51-.34-.94-.79-1.27-.45-.33-1.02-.5-1.72-.5h-.83c-.74,0-1.33.18-1.77.55-.44.37-.66.86-.66,1.48,0,.54.18.97.53,1.3.35.33.87.55,1.54.65l2.07.3c.83.12,1.49.44,1.98.98.49.53.74,1.2.74,2,0,.93-.3,1.68-.9,2.25-.6.57-1.4.85-2.42.85h-1.32Z"/>
    <path class="cls-3" d="M295.84,266.4c-.83,0-1.46-.21-1.9-.63s-.66-1.03-.66-1.83v-7.5h-3.16v-.89h3.16v-3.06h.99v3.06h4.44v.89h-4.44v7.5c0,1.05.53,1.58,1.58,1.58h2.66v.89h-2.66Z"/>
    <path class="cls-3" d="M303.08,266.4v-10.85h.99v1.87h.24l-.45,1.14c.01-.96.31-1.74.89-2.33.58-.59,1.35-.89,2.31-.89,1.16,0,2.07.36,2.74,1.07.67.71,1.01,1.67,1.01,2.88v.59h-1.08v-.59c0-.97-.25-1.73-.74-2.28s-1.19-.82-2.08-.82-1.57.27-2.07.82c-.5.55-.75,1.3-.75,2.28v7.1h-.99Z"/>
    <path class="cls-4" d="M316.16,269.55l1.48-6.13h1.78l-2.47,6.13h-.79Z"/>
    <path class="cls-2" d="M190.41,274.78l-1.48,6.13h-1.78l2.47-6.13h.79Z"/>
    <path class="cls-2" d="M200,290.26c-.8,0-1.49-.16-2.07-.48-.58-.32-1.02-.78-1.33-1.37-.31-.59-.46-1.29-.46-2.09v-3.35c0-.8.15-1.5.46-2.08.31-.58.75-1.04,1.33-1.37.58-.33,1.27-.49,2.07-.49s1.49.17,2.05.49c.56.33,1,.79,1.31,1.37.31.58.46,1.28.46,2.08v1.87h-6.71v1.48c0,.95.25,1.7.75,2.25.5.55,1.21.83,2.13.83.74,0,1.34-.18,1.82-.53.48-.36.81-.84,1-1.46h.99c-.2.88-.63,1.58-1.29,2.09-.66.51-1.5.77-2.52.77ZM202.84,284.17v-1.2c0-.95-.25-1.7-.74-2.25-.49-.55-1.19-.83-2.1-.83s-1.63.27-2.13.82c-.5.55-.75,1.3-.75,2.26v1.03h5.94l-.22.18Z"/>
    <path class="cls-2" d="M207.45,290.07v-10.85h.87v1.48h.12l-.04.28c-.01-.59.14-1.07.47-1.42.33-.35.78-.53,1.36-.53s1.02.17,1.37.51c.35.34.56.82.64,1.44l-.08-.28h.16l-.04.28c-.01-.59.14-1.07.46-1.42.32-.35.77-.53,1.35-.53.66,0,1.17.23,1.53.68.36.45.54,1.08.54,1.86v8.5h-.97v-8.38c0-.57-.12-1.01-.37-1.34-.25-.33-.59-.49-1.03-.49-.46,0-.83.17-1.1.5-.28.34-.41.78-.41,1.33v8.38h-.95v-8.38c0-.57-.12-1.01-.37-1.34-.25-.33-.59-.49-1.03-.49s-.79.17-1.06.49c-.28.33-.43.78-.45,1.34v8.38h-.97Z"/>
    <path class="cls-2" d="M223.04,290.26c-1.12,0-2.01-.3-2.68-.89-.67-.59-1.01-1.37-1.01-2.35s.31-1.68.93-2.24,1.43-.84,2.45-.84h3.73v-1.28c0-.87-.24-1.54-.71-2.02-.47-.48-1.14-.72-2.01-.72-.79,0-1.44.19-1.95.58-.51.39-.82.91-.91,1.57h-.99c.13-.92.55-1.66,1.25-2.22.7-.56,1.57-.84,2.59-.84,1.12,0,2.02.33,2.69,1.01.68.67,1.02,1.55,1.02,2.64v7.4h-.99v-2.21h-.18l.32-.39c0,.84-.33,1.52-.98,2.03s-1.51.77-2.57.77ZM223.31,289.4c.93,0,1.69-.24,2.27-.73.58-.49.87-1.12.87-1.89v-1.95h-3.75c-.71,0-1.28.19-1.72.58-.43.39-.65.9-.65,1.55,0,.72.27,1.31.82,1.76.55.45,1.27.68,2.16.68Z"/>
    <path class="cls-2" d="M231.44,290.07v-.89h3.96v-9.07h-3.47v-.89h4.46v9.96h3.73v.89h-8.68ZM235.78,277.15c-.34,0-.62-.1-.83-.3s-.32-.46-.32-.79.1-.59.32-.79.49-.3.83-.3.62.1.83.3.32.46.32.79-.11.59-.32.79-.49.3-.83.3Z"/>
    <path class="cls-2" d="M248.6,290.07c-.59,0-1.09-.1-1.5-.31-.41-.2-.72-.51-.94-.91-.22-.4-.33-.88-.33-1.45v-10.85h-3.45v-.89h4.44v11.74c0,.58.15,1.02.45,1.32.3.3.74.45,1.32.45h3.45v.89h-3.45Z"/>
    <path class="cls-2" d="M256.88,280.9l1.48-6.13h1.78l-2.47,6.13h-.79Z"/>
    <path class="cls-4" d="M270.99,281.86c-.43,0-.78-.13-1.05-.39-.26-.26-.39-.61-.39-1.03s.13-.76.39-1.03c.26-.26.61-.39,1.05-.39s.78.13,1.05.39c.26.26.39.61.39,1.03s-.13.76-.39,1.03c-.26.26-.61.39-1.05.39ZM270.99,290.26c-.43,0-.78-.13-1.05-.39-.26-.26-.39-.6-.39-1.03s.13-.76.39-1.03c.26-.26.61-.39,1.05-.39s.78.13,1.05.39c.26.26.39.61.39,1.03s-.13.76-.39,1.03c-.26.26-.61.39-1.05.39Z"/>
    <path class="cls-3" d="M294.66,290.26c-1.18,0-2.11-.36-2.78-1.08s-1.01-1.7-1.01-2.95v-7.02h.99v7.02c0,.99.25,1.75.74,2.31.49.55,1.17.83,2.04.83s1.57-.28,2.07-.83c.5-.55.75-1.32.75-2.31v-7.02h.99v7.02c0,1.24-.34,2.22-1.02,2.94-.68.72-1.6,1.08-2.77,1.08Z"/>
    <path class="cls-3" d="M302.74,290.07v-10.85h.99v1.87h.45l-.59,1.01c0-.93.29-1.68.86-2.24.57-.56,1.34-.84,2.3-.84,1.06,0,1.92.34,2.56,1.03.64.68.97,1.61.97,2.78v7.24h-.99v-7.1c0-.97-.25-1.73-.74-2.28s-1.16-.82-2-.82-1.56.28-2.06.83c-.51.55-.76,1.31-.76,2.27v7.1h-.99Z"/>
    <path class="cls-3" d="M314.28,290.07v-.89h3.96v-9.07h-3.47v-.89h4.46v9.96h3.73v.89h-8.68ZM318.62,277.15c-.34,0-.62-.1-.83-.3s-.32-.46-.32-.79.1-.59.32-.79.49-.3.83-.3.62.1.83.3.32.46.32.79-.11.59-.32.79-.49.3-.83.3Z"/>
    <path class="cls-3" d="M332.92,293.62v-5.03h-.35l.55-1.28c0,.89-.3,1.61-.9,2.15s-1.37.81-2.32.81c-1.08,0-1.95-.36-2.6-1.08-.66-.72-.99-1.68-.99-2.86v-3.37c0-1.18.33-2.13.99-2.85s1.53-1.08,2.6-1.08c.95,0,1.72.27,2.32.81s.9,1.26.9,2.15l-.75-1.28h.55v-1.48h.99v14.4h-.99ZM330.1,289.42c.89,0,1.59-.28,2.08-.83.49-.55.74-1.31.74-2.27v-3.37c0-.97-.25-1.73-.74-2.27-.49-.54-1.19-.81-2.08-.81s-1.57.27-2.06.81-.74,1.29-.74,2.27v3.37c0,.96.25,1.72.74,2.27.49.55,1.18.83,2.06.83Z"/>
    <path class="cls-3" d="M341.99,290.26c-1.18,0-2.11-.36-2.78-1.08s-1.01-1.7-1.01-2.95v-7.02h.99v7.02c0,.99.25,1.75.74,2.31.49.55,1.17.83,2.04.83s1.57-.28,2.07-.83c.5-.55.75-1.32.75-2.31v-7.02h.99v7.02c0,1.24-.34,2.22-1.02,2.94-.68.72-1.6,1.08-2.77,1.08Z"/>
    <path class="cls-3" d="M353.85,290.26c-.8,0-1.49-.16-2.07-.48-.58-.32-1.02-.78-1.33-1.37-.31-.59-.46-1.29-.46-2.09v-3.35c0-.8.15-1.5.46-2.08.31-.58.75-1.04,1.33-1.37.58-.33,1.27-.49,2.07-.49s1.49.17,2.05.49c.56.33,1,.79,1.31,1.37.31.58.46,1.28.46,2.08v1.87h-6.71v1.48c0,.95.25,1.7.75,2.25.5.55,1.21.83,2.13.83.74,0,1.34-.18,1.82-.53.48-.36.81-.84,1-1.46h.99c-.2.88-.63,1.58-1.29,2.09-.66.51-1.5.77-2.52.77ZM356.69,284.17v-1.2c0-.95-.25-1.7-.74-2.25-.49-.55-1.19-.83-2.1-.83s-1.63.27-2.13.82c-.5.55-.75,1.3-.75,2.26v1.03h5.94l-.22.18Z"/>
    <path class="cls-4" d="M369.31,292.43c-1.81-.46-3.19-1.32-4.12-2.58s-1.4-2.9-1.4-4.91v-3.94c0-1.34.21-2.52.62-3.53.41-1.01,1.03-1.85,1.85-2.51s1.84-1.15,3.05-1.45v.99c-.95.24-1.75.65-2.42,1.23-.66.58-1.17,1.32-1.51,2.21s-.51,1.91-.51,3.07v3.94c0,1.13.17,2.14.52,3.04.35.89.85,1.64,1.52,2.23s1.46,1.01,2.4,1.24v.99Z"/>
    <path class="cls-3" d="M376.95,290.26c-.66,0-1.24-.12-1.75-.37-.51-.24-.91-.58-1.22-1.02s-.5-.93-.56-1.48h.99c.1.57.38,1.04.84,1.41.45.38,1.02.56,1.71.56h1.32c.72,0,1.3-.19,1.72-.56.42-.37.63-.88.63-1.51,0-.57-.17-1.04-.5-1.44-.33-.39-.79-.63-1.37-.71l-2.11-.3c-.92-.13-1.64-.45-2.15-.95-.51-.5-.77-1.15-.77-1.95,0-.89.31-1.61.94-2.14.62-.53,1.46-.8,2.5-.8h.83c.99,0,1.79.24,2.42.73.62.49.98,1.13,1.08,1.93h-.99c-.08-.51-.34-.94-.79-1.27-.45-.33-1.02-.5-1.72-.5h-.83c-.74,0-1.33.18-1.77.55-.44.37-.66.86-.66,1.48,0,.54.18.97.53,1.3.35.33.87.55,1.54.65l2.07.3c.83.12,1.49.44,1.98.98.49.53.74,1.2.74,2,0,.93-.3,1.68-.9,2.25-.6.57-1.4.85-2.42.85h-1.32Z"/>
    <path class="cls-3" d="M390.52,290.07c-.83,0-1.46-.21-1.9-.63s-.66-1.03-.66-1.83v-7.5h-3.16v-.89h3.16v-3.06h.99v3.06h4.44v.89h-4.44v7.5c0,1.05.53,1.58,1.58,1.58h2.66v.89h-2.66Z"/>
    <path class="cls-3" d="M397.75,290.07v-10.85h.99v1.87h.24l-.45,1.14c.01-.96.31-1.74.89-2.33.58-.59,1.35-.89,2.31-.89,1.16,0,2.07.36,2.74,1.07.67.71,1.01,1.67,1.01,2.88v.59h-1.08v-.59c0-.97-.25-1.73-.74-2.28s-1.19-.82-2.08-.82-1.57.27-2.07.82c-.5.55-.75,1.3-.75,2.28v7.1h-.99Z"/>
    <path class="cls-4" d="M409.35,292.43v-.99c.93-.24,1.73-.65,2.4-1.24.66-.59,1.17-1.33,1.52-2.23s.52-1.91.52-3.04v-3.94c0-1.16-.17-2.18-.52-3.07s-.85-1.62-1.51-2.21c-.66-.58-1.46-1-2.41-1.23v-.99c1.21.3,2.23.79,3.05,1.45.82.66,1.44,1.5,1.85,2.51.41,1.01.62,2.19.62,3.53v3.94c0,2.01-.47,3.65-1.4,4.91s-2.31,2.12-4.12,2.58Z"/>
    <path class="cls-4" d="M422.67,293.22l1.48-6.13h1.78l-2.47,6.13h-.79Z"/>
    <path class="cls-4" d="M136.86,315.91v-.89h1.06c.62,0,1.11-.18,1.49-.55.37-.37.54-.87.48-1.52l-.28-3.89c-.05-.75.12-1.35.5-1.81s.91-.69,1.57-.69v.14c-.66,0-1.18-.23-1.57-.68-.39-.45-.56-1.05-.5-1.79l.28-3.91c.05-.64-.11-1.15-.48-1.52-.38-.37-.87-.55-1.49-.55h-1.06v-.89h1.06c.63,0,1.18.12,1.64.34.46.23.81.57,1.05,1.01s.33.98.28,1.61l-.28,3.91c-.05.72.06,1.23.35,1.53.28.3.83.44,1.63.44h2.17v.91h-2.17c-.84,0-1.39.15-1.66.45s-.37.8-.32,1.5l.28,3.89c.05.62-.04,1.15-.28,1.6s-.59.79-1.05,1.02c-.46.23-1.01.35-1.64.35h-1.06Z"/>
    <path class="cls-3" d="M140.55,361.27c-1.08,0-1.95-.36-2.6-1.08s-.99-1.67-.99-2.85v-3.37c0-1.18.33-2.14.99-2.86.66-.72,1.53-1.08,2.6-1.08.95,0,1.72.27,2.32.81s.9,1.26.9,2.15l-.55-1.28h.35v-5.03h.99v14.4h-.99v-1.48h-.55l.75-1.28c0,.89-.3,1.61-.9,2.15s-1.37.81-2.32.81ZM140.75,360.43c.89,0,1.59-.27,2.08-.82.49-.54.74-1.3.74-2.26v-3.37c0-.97-.25-1.73-.74-2.28-.49-.55-1.19-.82-2.08-.82s-1.57.27-2.06.82-.74,1.3-.74,2.28v3.37c0,.96.25,1.71.74,2.26.49.55,1.18.82,2.06.82Z"/>
    <path class="cls-3" d="M152.66,361.27c-.8,0-1.49-.16-2.07-.48-.58-.32-1.02-.78-1.33-1.37-.31-.59-.46-1.29-.46-2.09v-3.35c0-.8.15-1.5.46-2.08.31-.58.75-1.04,1.33-1.37.58-.33,1.27-.49,2.07-.49s1.49.17,2.05.49c.56.33,1,.79,1.31,1.37.31.58.46,1.28.46,2.08v1.87h-6.71v1.48c0,.95.25,1.7.75,2.25.5.55,1.21.83,2.13.83.74,0,1.34-.18,1.82-.53.48-.36.81-.84,1-1.46h.99c-.2.88-.63,1.58-1.29,2.09-.66.51-1.5.77-2.52.77ZM155.5,355.18v-1.2c0-.95-.25-1.7-.74-2.25-.49-.55-1.19-.83-2.1-.83s-1.63.27-2.13.82c-.5.55-.75,1.3-.75,2.26v1.03h5.94l-.22.18Z"/>
    <path class="cls-3" d="M163.29,361.08v-8.86h-3.35v-.89h3.35v-2.19c0-.78.23-1.38.68-1.81s1.08-.65,1.88-.65h3.02v.89h-3.02c-.5,0-.89.14-1.16.41-.28.28-.41.67-.41,1.16v2.19h4.6v.89h-4.6v8.86h-.99Z"/>
    <path class="cls-4" d="M187.59,361.27c-.66,0-1.24-.12-1.75-.37-.51-.24-.91-.58-1.22-1.02s-.5-.93-.56-1.48h.99c.1.57.38,1.04.84,1.41.45.38,1.02.56,1.71.56h1.32c.72,0,1.3-.19,1.72-.56.42-.37.63-.88.63-1.51,0-.57-.17-1.04-.5-1.44-.33-.39-.79-.63-1.37-.71l-2.11-.3c-.92-.13-1.64-.45-2.15-.95-.51-.5-.77-1.15-.77-1.95,0-.89.31-1.61.94-2.14.62-.53,1.46-.8,2.5-.8h.83c.99,0,1.79.24,2.42.73.62.49.98,1.13,1.08,1.93h-.99c-.08-.51-.34-.94-.79-1.27-.45-.33-1.02-.5-1.72-.5h-.83c-.74,0-1.33.18-1.77.55-.44.37-.66.86-.66,1.48,0,.54.18.97.53,1.3.35.33.87.55,1.54.65l2.07.3c.83.12,1.49.44,1.98.98.49.53.74,1.2.74,2,0,.93-.3,1.68-.9,2.25-.6.57-1.4.85-2.42.85h-1.32Z"/>
    <path class="cls-4" d="M200,361.27c-.8,0-1.49-.16-2.07-.48-.58-.32-1.02-.78-1.33-1.37-.31-.59-.46-1.29-.46-2.09v-3.35c0-.8.15-1.5.46-2.08.31-.58.75-1.04,1.33-1.37.58-.33,1.27-.49,2.07-.49s1.49.17,2.05.49c.56.33,1,.79,1.31,1.37.31.58.46,1.28.46,2.08v1.87h-6.71v1.48c0,.95.25,1.7.75,2.25.5.55,1.21.83,2.13.83.74,0,1.34-.18,1.82-.53.48-.36.81-.84,1-1.46h.99c-.2.88-.63,1.58-1.29,2.09-.66.51-1.5.77-2.52.77ZM202.84,355.18v-1.2c0-.95-.25-1.7-.74-2.25-.49-.55-1.19-.83-2.1-.83s-1.63.27-2.13.82c-.5.55-.75,1.3-.75,2.26v1.03h5.94l-.22.18Z"/>
    <path class="cls-4" d="M211.83,361.27c-.8,0-1.49-.16-2.07-.48-.58-.32-1.02-.78-1.33-1.37-.31-.59-.46-1.29-.46-2.09v-3.35c0-.8.15-1.5.46-2.08.31-.58.75-1.04,1.33-1.37.58-.33,1.27-.49,2.07-.49s1.49.17,2.05.49c.56.33,1,.79,1.31,1.37.31.58.46,1.28.46,2.08v1.87h-6.71v1.48c0,.95.25,1.7.75,2.25.5.55,1.21.83,2.13.83.74,0,1.34-.18,1.82-.53.48-.36.81-.84,1-1.46h.99c-.2.88-.63,1.58-1.29,2.09-.66.51-1.5.77-2.52.77ZM214.67,355.18v-1.2c0-.95-.25-1.7-.74-2.25-.49-.55-1.19-.83-2.1-.83s-1.63.27-2.13.82c-.5.55-.75,1.3-.75,2.26v1.03h5.94l-.22.18Z"/>
    <path class="cls-4" d="M223.39,361.27c-1.08,0-1.95-.36-2.6-1.08s-.99-1.67-.99-2.85v-3.37c0-1.18.33-2.14.99-2.86.66-.72,1.53-1.08,2.6-1.08.95,0,1.72.27,2.32.81s.9,1.26.9,2.15l-.55-1.28h.35v-5.03h.99v14.4h-.99v-1.48h-.55l.75-1.28c0,.89-.3,1.61-.9,2.15s-1.37.81-2.32.81ZM223.59,360.43c.89,0,1.59-.27,2.08-.82.49-.54.74-1.3.74-2.26v-3.37c0-.97-.25-1.73-.74-2.28-.49-.55-1.19-.82-2.08-.82s-1.57.27-2.06.82-.74,1.3-.74,2.28v3.37c0,.96.25,1.71.74,2.26.49.55,1.18.82,2.06.82Z"/>
    <path class="cls-4" d="M239.13,363.44c-1.81-.46-3.19-1.32-4.12-2.58s-1.4-2.9-1.4-4.91v-3.94c0-1.34.21-2.52.62-3.53.41-1.01,1.03-1.85,1.85-2.51s1.84-1.15,3.05-1.45v.99c-.95.24-1.75.65-2.42,1.23-.66.58-1.17,1.32-1.51,2.21s-.51,1.91-.51,3.07v3.94c0,1.13.17,2.14.52,3.04.35.89.85,1.64,1.52,2.23s1.46,1.01,2.4,1.24v.99Z"/>
    <path class="cls-4" d="M243.67,363.44v-.99c.93-.24,1.73-.65,2.4-1.24.66-.59,1.17-1.33,1.52-2.23s.52-1.91.52-3.04v-3.94c0-1.16-.17-2.18-.52-3.07s-.85-1.62-1.51-2.21c-.66-.58-1.46-1-2.41-1.23v-.99c1.21.3,2.23.79,3.05,1.45.82.66,1.44,1.5,1.85,2.51.41,1.01.62,2.19.62,3.53v3.94c0,2.01-.47,3.65-1.4,4.91s-2.31,2.12-4.12,2.58Z"/>
    <path class="cls-4" d="M281.07,348.75h1.18l4.81,5.8-4.83,5.84h-1.16l3.89-4.69c.1-.12.21-.23.31-.35.1-.11.19-.23.29-.34h-18.6v-.89h18.56c-.09-.09-.19-.2-.29-.32s-.21-.25-.33-.39l-3.83-4.66Z"/>
    <path class="cls-3" d="M306.23,361.27c-1.08,0-1.95-.36-2.6-1.08s-.99-1.67-.99-2.85v-3.37c0-1.18.33-2.14.99-2.86.66-.72,1.53-1.08,2.6-1.08.95,0,1.72.27,2.32.81s.9,1.26.9,2.15l-.55-1.28h.35v-5.03h.99v14.4h-.99v-1.48h-.55l.75-1.28c0,.89-.3,1.61-.9,2.15s-1.37.81-2.32.81ZM306.43,360.43c.89,0,1.59-.27,2.08-.82.49-.54.74-1.3.74-2.26v-3.37c0-.97-.25-1.73-.74-2.28-.49-.55-1.19-.82-2.08-.82s-1.57.27-2.06.82-.74,1.3-.74,2.28v3.37c0,.96.25,1.71.74,2.26.49.55,1.18.82,2.06.82Z"/>
    <path class="cls-3" d="M314.28,361.08v-.89h3.96v-9.07h-3.47v-.89h4.46v9.96h3.73v.89h-8.68ZM318.62,348.16c-.34,0-.62-.1-.83-.3s-.32-.46-.32-.79.1-.59.32-.79.49-.3.83-.3.62.1.83.3.32.46.32.79-.11.59-.32.79-.49.3-.83.3Z"/>
    <path class="cls-3" d="M330.2,361.27c-.79,0-1.48-.16-2.06-.48s-1.04-.78-1.35-1.37-.47-1.29-.47-2.09v-3.35c0-.8.16-1.5.47-2.08s.77-1.04,1.35-1.37c.58-.33,1.27-.49,2.06-.49,1.2,0,2.15.34,2.85,1.02.7.68,1.06,1.59,1.06,2.73h-.99c0-.89-.26-1.59-.78-2.09-.52-.5-1.23-.75-2.14-.75s-1.6.27-2.12.8c-.52.53-.78,1.28-.78,2.24v3.35c0,.95.26,1.69.78,2.23s1.23.81,2.12.81,1.62-.25,2.14-.76c.52-.51.78-1.2.78-2.08h.99c0,1.14-.35,2.05-1.06,2.73-.7.68-1.65,1.02-2.85,1.02Z"/>
    <path class="cls-3" d="M343.18,361.08c-.83,0-1.46-.21-1.9-.63s-.66-1.03-.66-1.83v-7.5h-3.16v-.89h3.16v-3.06h.99v3.06h4.44v.89h-4.44v7.5c0,1.05.53,1.58,1.58,1.58h2.66v.89h-2.66Z"/>
    <path class="cls-4" d="M353.83,352.87c-.43,0-.78-.13-1.05-.39-.26-.26-.39-.61-.39-1.03s.13-.76.39-1.03c.26-.26.61-.39,1.05-.39s.78.13,1.05.39c.26.26.39.61.39,1.03s-.13.76-.39,1.03c-.26.26-.61.39-1.05.39ZM353.83,361.27c-.43,0-.78-.13-1.05-.39-.26-.26-.39-.6-.39-1.03s.13-.76.39-1.03c.26-.26.61-.39,1.05-.39s.78.13,1.05.39c.26.26.39.61.39,1.03s-.13.76-.39,1.03c-.26.26-.61.39-1.05.39Z"/>
    <path class="cls-3" d="M184.73,384.75v-10.85h.99v1.87h.24l-.45,1.14c.01-.96.31-1.74.89-2.33.58-.59,1.35-.89,2.31-.89,1.16,0,2.07.36,2.74,1.07.67.71,1.01,1.67,1.01,2.88v.59h-1.08v-.59c0-.97-.25-1.73-.74-2.28s-1.19-.82-2.08-.82-1.57.27-2.07.82c-.5.55-.75,1.3-.75,2.28v7.1h-.99Z"/>
    <path class="cls-3" d="M200,384.94c-.8,0-1.49-.16-2.07-.48-.58-.32-1.02-.78-1.33-1.37-.31-.59-.46-1.29-.46-2.09v-3.35c0-.8.15-1.5.46-2.08.31-.58.75-1.04,1.33-1.37.58-.33,1.27-.49,2.07-.49s1.49.17,2.05.49c.56.33,1,.79,1.31,1.37.31.58.46,1.28.46,2.08v1.87h-6.71v1.48c0,.95.25,1.7.75,2.25.5.55,1.21.83,2.13.83.74,0,1.34-.18,1.82-.53.48-.36.81-.84,1-1.46h.99c-.2.88-.63,1.58-1.29,2.09-.66.51-1.5.77-2.52.77ZM202.84,378.85v-1.2c0-.95-.25-1.7-.74-2.25-.49-.55-1.19-.83-2.1-.83s-1.63.27-2.13.82c-.5.55-.75,1.3-.75,2.26v1.03h5.94l-.22.18Z"/>
    <path class="cls-3" d="M213,384.75c-.83,0-1.46-.21-1.9-.63s-.66-1.03-.66-1.83v-7.5h-3.16v-.89h3.16v-3.06h.99v3.06h4.44v.89h-4.44v7.5c0,1.05.53,1.58,1.58,1.58h2.66v.89h-2.66Z"/>
    <path class="cls-3" d="M223.65,384.94c-1.18,0-2.11-.36-2.78-1.08s-1.01-1.7-1.01-2.95v-7.02h.99v7.02c0,.99.25,1.75.74,2.31.49.55,1.17.83,2.04.83s1.57-.28,2.07-.83c.5-.55.75-1.32.75-2.31v-7.02h.99v7.02c0,1.24-.34,2.22-1.02,2.94-.68.72-1.6,1.08-2.77,1.08Z"/>
    <path class="cls-3" d="M232.07,384.75v-10.85h.99v1.87h.24l-.45,1.14c.01-.96.31-1.74.89-2.33.58-.59,1.35-.89,2.31-.89,1.16,0,2.07.36,2.74,1.07.67.71,1.01,1.67,1.01,2.88v.59h-1.08v-.59c0-.97-.25-1.73-.74-2.28s-1.19-.82-2.08-.82-1.57.27-2.07.82c-.5.55-.75,1.3-.75,2.28v7.1h-.99Z"/>
    <path class="cls-3" d="M243.57,384.75v-10.85h.99v1.87h.45l-.59,1.01c0-.93.29-1.68.86-2.24.57-.56,1.34-.84,2.3-.84,1.06,0,1.92.34,2.56,1.03.64.68.97,1.61.97,2.78v7.24h-.99v-7.1c0-.97-.25-1.73-.74-2.28s-1.16-.82-2-.82-1.56.28-2.06.83c-.51.55-.76,1.31-.76,2.27v7.1h-.99Z"/>
    <path class="cls-4" d="M273.85,386.92c-.63,0-1.18-.12-1.64-.35-.46-.23-.81-.57-1.04-1.02-.23-.45-.33-.98-.29-1.6l.3-3.89c.05-.7-.05-1.2-.31-1.5s-.81-.45-1.67-.45h-2.17v-.91h2.17c.82,0,1.36-.15,1.65-.44s.39-.81.33-1.53l-.3-3.91c-.04-.63.06-1.17.29-1.61.23-.44.57-.78,1.04-1.01.46-.23,1.01-.34,1.64-.34h1.08v.89h-1.08c-.6,0-1.1.18-1.48.55-.38.37-.55.88-.49,1.52l.3,3.91c.07.74-.1,1.33-.49,1.79-.39.45-.92.68-1.58.68v-.14c.66,0,1.18.23,1.58.69s.56,1.07.49,1.81l-.3,3.89c-.05.64.11,1.15.49,1.52.38.37.87.55,1.48.55h1.08v.89h-1.08Z"/>
    <path class="cls-4" d="M238.34,410.59c-.63,0-1.18-.12-1.64-.35-.46-.23-.81-.57-1.04-1.02-.23-.45-.33-.98-.29-1.6l.3-3.89c.05-.7-.05-1.2-.31-1.5s-.81-.45-1.67-.45h-2.17v-.91h2.17c.82,0,1.36-.15,1.65-.44s.39-.81.33-1.53l-.3-3.91c-.04-.63.06-1.17.29-1.61.23-.44.57-.78,1.04-1.01.46-.23,1.01-.34,1.64-.34h1.08v.89h-1.08c-.6,0-1.1.18-1.48.55-.38.37-.55.88-.49,1.52l.3,3.91c.07.74-.1,1.33-.49,1.79-.39.45-.92.68-1.58.68v-.14c.66,0,1.18.23,1.58.69s.56,1.07.49,1.81l-.3,3.89c-.05.64.11,1.15.49,1.52.38.37.87.55,1.48.55h1.08v.89h-1.08Z"/>
    <path class="cls-2" d="M280.55,422.91l1.48-6.13h1.78l-2.47,6.13h-.79Z"/>
    <path class="cls-2" d="M290.91,432.09v-10.85h.99v1.87h.45l-.59,1.01c0-.93.29-1.68.86-2.24.57-.56,1.34-.84,2.3-.84,1.06,0,1.92.34,2.56,1.03.64.68.97,1.61.97,2.78v7.24h-.99v-7.1c0-.97-.25-1.73-.74-2.28s-1.16-.82-2-.82-1.56.28-2.06.83c-.51.55-.76,1.31-.76,2.27v7.1h-.99Z"/>
    <path class="cls-2" d="M305.88,432.28c-1.12,0-2.01-.3-2.68-.89-.67-.59-1.01-1.37-1.01-2.35s.31-1.68.93-2.24,1.43-.84,2.45-.84h3.73v-1.28c0-.87-.24-1.54-.71-2.02-.47-.48-1.14-.72-2.01-.72-.79,0-1.44.19-1.95.58-.51.39-.82.91-.91,1.57h-.99c.13-.92.55-1.66,1.25-2.22.7-.56,1.57-.84,2.59-.84,1.12,0,2.02.33,2.69,1.01.68.67,1.02,1.55,1.02,2.64v7.4h-.99v-2.21h-.18l.32-.39c0,.84-.33,1.52-.98,2.03s-1.51.77-2.57.77ZM306.15,431.42c.93,0,1.69-.24,2.27-.73.58-.49.87-1.12.87-1.89v-1.95h-3.75c-.71,0-1.28.19-1.72.58-.43.39-.65.9-.65,1.55,0,.72.27,1.31.82,1.76.55.45,1.27.68,2.16.68Z"/>
    <path class="cls-2" d="M313.97,432.09v-10.85h.87v1.48h.12l-.04.28c-.01-.59.14-1.07.47-1.42.33-.35.78-.53,1.36-.53s1.02.17,1.37.51c.35.34.56.82.64,1.44l-.08-.28h.16l-.04.28c-.01-.59.14-1.07.46-1.42.32-.35.77-.53,1.35-.53.66,0,1.17.23,1.53.68.36.45.54,1.08.54,1.86v8.5h-.97v-8.38c0-.57-.12-1.01-.37-1.34-.25-.33-.59-.49-1.03-.49-.46,0-.83.17-1.1.5-.28.34-.41.78-.41,1.33v8.38h-.95v-8.38c0-.57-.12-1.01-.37-1.34-.25-.33-.59-.49-1.03-.49s-.79.17-1.06.49c-.28.33-.43.78-.45,1.34v8.38h-.97Z"/>
    <path class="cls-2" d="M330.18,432.28c-.8,0-1.49-.16-2.07-.48-.58-.32-1.02-.78-1.33-1.37-.31-.59-.46-1.29-.46-2.09v-3.35c0-.8.15-1.5.46-2.08.31-.58.75-1.04,1.33-1.37.58-.33,1.27-.49,2.07-.49s1.49.17,2.05.49c.56.33,1,.79,1.31,1.37.31.58.46,1.28.46,2.08v1.87h-6.71v1.48c0,.95.25,1.7.75,2.25.5.55,1.21.83,2.13.83.74,0,1.34-.18,1.82-.53.48-.36.81-.84,1-1.46h.99c-.2.88-.63,1.58-1.29,2.09-.66.51-1.5.77-2.52.77ZM333.02,426.19v-1.2c0-.95-.25-1.7-.74-2.25-.49-.55-1.19-.83-2.1-.83s-1.63.27-2.13.82c-.5.55-.75,1.3-.75,2.26v1.03h5.94l-.22.18Z"/>
    <path class="cls-2" d="M339.73,422.91l1.48-6.13h1.78l-2.47,6.13h-.79Z"/>
    <path class="cls-4" d="M353.83,423.88c-.43,0-.78-.13-1.05-.39-.26-.26-.39-.61-.39-1.03s.13-.76.39-1.03c.26-.26.61-.39,1.05-.39s.78.13,1.05.39c.26.26.39.61.39,1.03s-.13.76-.39,1.03c-.26.26-.61.39-1.05.39ZM353.83,432.28c-.43,0-.78-.13-1.05-.39-.26-.26-.39-.6-.39-1.03s.13-.76.39-1.03c.26-.26.61-.39,1.05-.39s.78.13,1.05.39c.26.26.39.61.39,1.03s-.13.76-.39,1.03c-.26.26-.61.39-1.05.39Z"/>
    <path class="cls-2" d="M379.77,416.8l-1.48,6.13h-1.78l2.47-6.13h.79Z"/>
    <path class="cls-2" d="M384.76,432.09l3.96-14.4h1.22l3.96,14.4h-1.03l-1.1-4.14h-4.93l-1.1,4.14h-.99ZM387.08,427.06h4.46l-1.56-5.82c-.18-.71-.33-1.3-.44-1.79-.11-.48-.18-.79-.21-.94-.03.14-.1.46-.22.94-.12.48-.27,1.08-.45,1.79l-1.58,5.82Z"/>
    <path class="cls-2" d="M397.42,432.09v-10.85h.99v1.87h.45l-.59,1.01c0-.93.29-1.68.86-2.24.57-.56,1.34-.84,2.3-.84,1.06,0,1.92.34,2.56,1.03.64.68.97,1.61.97,2.78v7.24h-.99v-7.1c0-.97-.25-1.73-.74-2.28s-1.16-.82-2-.82-1.56.28-2.06.83c-.51.55-.76,1.31-.76,2.27v7.1h-.99Z"/>
    <path class="cls-2" d="M412.39,432.28c-1.12,0-2.01-.3-2.68-.89-.67-.59-1.01-1.37-1.01-2.35s.31-1.68.93-2.24,1.43-.84,2.45-.84h3.73v-1.28c0-.87-.24-1.54-.71-2.02-.47-.48-1.14-.72-2.01-.72-.79,0-1.44.19-1.95.58-.51.39-.82.91-.91,1.57h-.99c.13-.92.55-1.66,1.25-2.22.7-.56,1.57-.84,2.59-.84,1.12,0,2.02.33,2.69,1.01.68.67,1.02,1.55,1.02,2.64v7.4h-.99v-2.21h-.18l.32-.39c0,.84-.33,1.52-.98,2.03s-1.51.77-2.57.77ZM412.67,431.42c.93,0,1.69-.24,2.27-.73.58-.49.87-1.12.87-1.89v-1.95h-3.75c-.71,0-1.28.19-1.72.58-.43.39-.65.9-.65,1.55,0,.72.27,1.31.82,1.76.55.45,1.27.68,2.16.68Z"/>
    <path class="cls-2" d="M426.02,432.09c-.83,0-1.46-.21-1.9-.63s-.66-1.03-.66-1.83v-7.5h-3.16v-.89h3.16v-3.06h.99v3.06h4.44v.89h-4.44v7.5c0,1.05.53,1.58,1.58,1.58h2.66v.89h-2.66Z"/>
    <path class="cls-2" d="M436.67,432.28c-.78,0-1.45-.16-2.03-.48s-1.03-.78-1.34-1.37-.47-1.29-.47-2.09v-3.35c0-.8.16-1.5.47-2.08s.76-1.04,1.34-1.37c.58-.33,1.26-.49,2.03-.49s1.45.17,2.03.49c.58.33,1.03.79,1.34,1.37.32.58.47,1.28.47,2.08v3.35c0,.8-.16,1.5-.47,2.09-.32.59-.76,1.05-1.33,1.37-.57.32-1.25.48-2.04.48ZM436.67,431.42c.91,0,1.61-.27,2.11-.81s.75-1.29.75-2.27v-3.35c0-.97-.25-1.73-.76-2.27s-1.21-.81-2.1-.81-1.59.27-2.1.81c-.51.54-.76,1.29-.76,2.27v3.35c0,.97.25,1.73.75,2.27.5.54,1.2.81,2.11.81Z"/>
    <path class="cls-2" d="M449.79,432.09c-.59,0-1.09-.1-1.5-.31-.41-.2-.72-.51-.94-.91-.22-.4-.33-.88-.33-1.45v-10.85h-3.45v-.89h4.44v11.74c0,.58.15,1.02.45,1.32.3.3.74.45,1.32.45h3.45v.89h-3.45Z"/>
    <path class="cls-2" d="M458.35,435.64l1.6-4.32-4.02-10.08h1.1l2.68,6.9c.14.37.29.74.43,1.1.14.37.25.65.32.85.08-.2.18-.48.32-.86.13-.37.26-.75.39-1.13l2.5-6.86h1.08l-5.4,14.4h-1.01Z"/>
    <path class="cls-2" d="M469.91,422.91l1.48-6.13h1.78l-2.47,6.13h-.79Z"/>
    <path class="cls-4" d="M481.84,435.24l1.48-6.13h1.78l-2.47,6.13h-.79Z"/>
    <path class="cls-2" d="M285.09,440.47l-1.48,6.13h-1.78l2.47-6.13h.79Z"/>
    <path class="cls-2" d="M294.68,455.95c-.8,0-1.49-.16-2.07-.48-.58-.32-1.02-.78-1.33-1.37-.31-.59-.46-1.29-.46-2.09v-3.35c0-.8.15-1.5.46-2.08.31-.58.75-1.04,1.33-1.37.58-.33,1.27-.49,2.07-.49s1.49.17,2.05.49c.56.33,1,.79,1.31,1.37.31.58.46,1.28.46,2.08v1.87h-6.71v1.48c0,.95.25,1.7.75,2.25.5.55,1.21.83,2.13.83.74,0,1.34-.18,1.82-.53.48-.36.81-.84,1-1.46h.99c-.2.88-.63,1.58-1.29,2.09-.66.51-1.5.77-2.52.77ZM297.52,449.86v-1.2c0-.95-.25-1.7-.74-2.25-.49-.55-1.19-.83-2.1-.83s-1.63.27-2.13.82c-.5.55-.75,1.3-.75,2.26v1.03h5.94l-.22.18Z"/>
    <path class="cls-2" d="M302.13,455.76v-10.85h.87v1.48h.12l-.04.28c-.01-.59.14-1.07.47-1.42.33-.35.78-.53,1.36-.53s1.02.17,1.37.51c.35.34.56.82.64,1.44l-.08-.28h.16l-.04.28c-.01-.59.14-1.07.46-1.42.32-.35.77-.53,1.35-.53.66,0,1.17.23,1.53.68.36.45.54,1.08.54,1.86v8.5h-.97v-8.38c0-.57-.12-1.01-.37-1.34-.25-.33-.59-.49-1.03-.49-.46,0-.83.17-1.1.5-.28.34-.41.78-.41,1.33v8.38h-.95v-8.38c0-.57-.12-1.01-.37-1.34-.25-.33-.59-.49-1.03-.49s-.79.17-1.06.49c-.28.33-.43.78-.45,1.34v8.38h-.97Z"/>
    <path class="cls-2" d="M317.71,455.95c-1.12,0-2.01-.3-2.68-.89-.67-.59-1.01-1.37-1.01-2.35s.31-1.68.93-2.24,1.43-.84,2.45-.84h3.73v-1.28c0-.87-.24-1.54-.71-2.02-.47-.48-1.14-.72-2.01-.72-.79,0-1.44.19-1.95.58-.51.39-.82.91-.91,1.57h-.99c.13-.92.55-1.66,1.25-2.22.7-.56,1.57-.84,2.59-.84,1.12,0,2.02.33,2.69,1.01.68.67,1.02,1.55,1.02,2.64v7.4h-.99v-2.21h-.18l.32-.39c0,.84-.33,1.52-.98,2.03s-1.51.77-2.57.77ZM317.99,455.08c.93,0,1.69-.24,2.27-.73.58-.49.87-1.12.87-1.89v-1.95h-3.75c-.71,0-1.28.19-1.72.58-.43.39-.65.9-.65,1.55,0,.72.27,1.31.82,1.76.55.45,1.27.68,2.16.68Z"/>
    <path class="cls-2" d="M326.12,455.76v-.89h3.96v-9.07h-3.47v-.89h4.46v9.96h3.73v.89h-8.68ZM330.46,442.84c-.34,0-.62-.1-.83-.3s-.32-.46-.32-.79.1-.59.32-.79.49-.3.83-.3.62.1.83.3.32.46.32.79-.11.59-.32.79-.49.3-.83.3Z"/>
    <path class="cls-2" d="M343.28,455.76c-.59,0-1.09-.1-1.5-.31-.41-.2-.72-.51-.94-.91-.22-.4-.33-.88-.33-1.45v-10.85h-3.45v-.89h4.44v11.74c0,.58.15,1.02.45,1.32.3.3.74.45,1.32.45h3.45v.89h-3.45Z"/>
    <path class="cls-2" d="M351.56,446.58l1.48-6.13h1.78l-2.47,6.13h-.79Z"/>
    <path class="cls-4" d="M365.66,447.55c-.43,0-.78-.13-1.05-.39-.26-.26-.39-.61-.39-1.03s.13-.76.39-1.03c.26-.26.61-.39,1.05-.39s.78.13,1.05.39c.26.26.39.61.39,1.03s-.13.76-.39,1.03c-.26.26-.61.39-1.05.39ZM365.66,455.95c-.43,0-.78-.13-1.05-.39-.26-.26-.39-.6-.39-1.03s.13-.76.39-1.03c.26-.26.61-.39,1.05-.39s.78.13,1.05.39c.26.26.39.61.39,1.03s-.13.76-.39,1.03c-.26.26-.61.39-1.05.39Z"/>
    <path class="cls-2" d="M391.6,440.47l-1.48,6.13h-1.78l2.47-6.13h.79Z"/>
    <path class="cls-2" d="M401.21,455.95c-.79,0-1.48-.16-2.06-.48s-1.04-.78-1.35-1.37-.47-1.29-.47-2.09v-3.35c0-.8.16-1.5.47-2.08s.77-1.04,1.35-1.37c.58-.33,1.27-.49,2.06-.49,1.2,0,2.15.34,2.85,1.02.7.68,1.06,1.59,1.06,2.73h-.99c0-.89-.26-1.59-.78-2.09-.52-.5-1.23-.75-2.14-.75s-1.6.27-2.12.8c-.52.53-.78,1.28-.78,2.24v3.35c0,.95.26,1.69.78,2.23s1.23.81,2.12.81,1.62-.25,2.14-.76c.52-.51.78-1.2.78-2.08h.99c0,1.14-.35,2.05-1.06,2.73-.7.68-1.65,1.02-2.85,1.02Z"/>
    <path class="cls-2" d="M413,455.95c-.78,0-1.45-.16-2.03-.48s-1.03-.78-1.34-1.37-.47-1.29-.47-2.09v-3.35c0-.8.16-1.5.47-2.08s.76-1.04,1.34-1.37c.58-.33,1.26-.49,2.03-.49s1.45.17,2.03.49c.58.33,1.03.79,1.34,1.37.32.58.47,1.28.47,2.08v3.35c0,.8-.16,1.5-.47,2.09-.32.59-.76,1.05-1.33,1.37-.57.32-1.25.48-2.04.48ZM413,455.08c.91,0,1.61-.27,2.11-.81s.75-1.29.75-2.27v-3.35c0-.97-.25-1.73-.76-2.27s-1.21-.81-2.1-.81-1.59.27-2.1.81c-.51.54-.76,1.29-.76,2.27v3.35c0,.97.25,1.73.75,2.27.5.54,1.2.81,2.11.81Z"/>
    <path class="cls-2" d="M421.09,455.76v-10.85h.99v1.87h.45l-.59,1.01c0-.93.29-1.68.86-2.24.57-.56,1.34-.84,2.3-.84,1.06,0,1.92.34,2.56,1.03.64.68.97,1.61.97,2.78v7.24h-.99v-7.1c0-.97-.25-1.73-.74-2.28s-1.16-.82-2-.82-1.56.28-2.06.83c-.51.55-.76,1.31-.76,2.27v7.1h-.99Z"/>
    <path class="cls-2" d="M437.86,455.76c-.83,0-1.46-.21-1.9-.63s-.66-1.03-.66-1.83v-7.5h-3.16v-.89h3.16v-3.06h.99v3.06h4.44v.89h-4.44v7.5c0,1.05.53,1.58,1.58,1.58h2.66v.89h-2.66Z"/>
    <path class="cls-2" d="M447.9,455.95c-1.12,0-2.01-.3-2.68-.89-.67-.59-1.01-1.37-1.01-2.35s.31-1.68.93-2.24,1.43-.84,2.45-.84h3.73v-1.28c0-.87-.24-1.54-.71-2.02-.47-.48-1.14-.72-2.01-.72-.79,0-1.44.19-1.95.58-.51.39-.82.91-.91,1.57h-.99c.13-.92.55-1.66,1.25-2.22.7-.56,1.57-.84,2.59-.84,1.12,0,2.02.33,2.69,1.01.68.67,1.02,1.55,1.02,2.64v7.4h-.99v-2.21h-.18l.32-.39c0,.84-.33,1.52-.98,2.03s-1.51.77-2.57.77ZM448.17,455.08c.93,0,1.69-.24,2.27-.73.58-.49.87-1.12.87-1.89v-1.95h-3.75c-.71,0-1.28.19-1.72.58-.43.39-.65.9-.65,1.55,0,.72.27,1.31.82,1.76.55.45,1.27.68,2.16.68Z"/>
    <path class="cls-2" d="M460.38,455.95c-.79,0-1.48-.16-2.06-.48s-1.04-.78-1.35-1.37-.47-1.29-.47-2.09v-3.35c0-.8.16-1.5.47-2.08s.77-1.04,1.35-1.37c.58-.33,1.27-.49,2.06-.49,1.2,0,2.15.34,2.85,1.02.7.68,1.06,1.59,1.06,2.73h-.99c0-.89-.26-1.59-.78-2.09-.52-.5-1.23-.75-2.14-.75s-1.6.27-2.12.8c-.52.53-.78,1.28-.78,2.24v3.35c0,.95.26,1.69.78,2.23s1.23.81,2.12.81,1.62-.25,2.14-.76c.52-.51.78-1.2.78-2.08h.99c0,1.14-.35,2.05-1.06,2.73-.7.68-1.65,1.02-2.85,1.02Z"/>
    <path class="cls-2" d="M473.36,455.76c-.83,0-1.46-.21-1.9-.63s-.66-1.03-.66-1.83v-7.5h-3.16v-.89h3.16v-3.06h.99v3.06h4.44v.89h-4.44v7.5c0,1.05.53,1.58,1.58,1.58h2.66v.89h-2.66Z"/>
    <path class="cls-2" d="M484.5,459.29c-1.07,0-1.98-.24-2.74-.72-.76-.48-1.35-1.15-1.77-2.02-.41-.87-.62-1.89-.62-3.08v-6.49c0-1.21.19-2.25.58-3.12.39-.87.95-1.54,1.69-2,.74-.47,1.62-.7,2.66-.7.93,0,1.74.2,2.42.61.68.41,1.2.99,1.57,1.75.37.76.55,1.65.55,2.67v8.28h-.89v-1.28h-.47l.37-.39c0,.57-.21,1.02-.63,1.36-.42.34-.98.51-1.68.51-.84,0-1.49-.26-1.94-.79-.45-.53-.68-1.28-.68-2.27v-2.56c0-.93.23-1.64.68-2.13.45-.49,1.1-.73,1.94-.73.74,0,1.3.16,1.71.48.4.32.6.79.6,1.39l-.43-.39h.53l-.1-1.38v-.1c0-.87-.14-1.61-.42-2.23-.28-.62-.69-1.09-1.22-1.43s-1.17-.5-1.9-.5c-1.28,0-2.25.43-2.93,1.3s-1.02,2.08-1.02,3.65v6.49c0,1.51.36,2.71,1.09,3.6.73.89,1.75,1.33,3.05,1.33h1.48v.89h-1.48ZM485.88,453.78c.63,0,1.12-.19,1.46-.57.34-.38.51-.91.51-1.6v-2.56c0-.63-.17-1.12-.51-1.46-.34-.34-.83-.51-1.46-.51s-1.13.16-1.47.49c-.34.33-.5.82-.5,1.48v2.56c0,.72.17,1.27.5,1.63s.83.54,1.47.54Z"/>
    <path class="cls-2" d="M495.23,455.95c-1.12,0-2.01-.3-2.68-.89-.67-.59-1.01-1.37-1.01-2.35s.31-1.68.93-2.24,1.43-.84,2.45-.84h3.73v-1.28c0-.87-.24-1.54-.71-2.02-.47-.48-1.14-.72-2.01-.72-.79,0-1.44.19-1.95.58-.51.39-.82.91-.91,1.57h-.99c.13-.92.55-1.66,1.25-2.22.7-.56,1.57-.84,2.59-.84,1.12,0,2.02.33,2.69,1.01.68.67,1.02,1.55,1.02,2.64v7.4h-.99v-2.21h-.18l.32-.39c0,.84-.33,1.52-.98,2.03s-1.51.77-2.57.77ZM495.51,455.08c.93,0,1.69-.24,2.27-.73.58-.49.87-1.12.87-1.89v-1.95h-3.75c-.71,0-1.28.19-1.72.58-.43.39-.65.9-.65,1.55,0,.72.27,1.31.82,1.76.55.45,1.27.68,2.16.68Z"/>
    <path class="cls-2" d="M503.93,455.76v-10.85h.99v1.87h.45l-.59,1.01c0-.93.29-1.68.86-2.24.57-.56,1.34-.84,2.3-.84,1.06,0,1.92.34,2.56,1.03.64.68.97,1.61.97,2.78v7.24h-.99v-7.1c0-.97-.25-1.73-.74-2.28s-1.16-.82-2-.82-1.56.28-2.06.83c-.51.55-.76,1.31-.76,2.27v7.1h-.99Z"/>
    <path class="cls-2" d="M518.9,455.95c-1.12,0-2.01-.3-2.68-.89-.67-.59-1.01-1.37-1.01-2.35s.31-1.68.93-2.24,1.43-.84,2.45-.84h3.73v-1.28c0-.87-.24-1.54-.71-2.02-.47-.48-1.14-.72-2.01-.72-.79,0-1.44.19-1.95.58-.51.39-.82.91-.91,1.57h-.99c.13-.92.55-1.66,1.25-2.22.7-.56,1.57-.84,2.59-.84,1.12,0,2.02.33,2.69,1.01.68.67,1.02,1.55,1.02,2.64v7.4h-.99v-2.21h-.18l.32-.39c0,.84-.33,1.52-.98,2.03s-1.51.77-2.57.77ZM519.18,455.08c.93,0,1.69-.24,2.27-.73.58-.49.87-1.12.87-1.89v-1.95h-3.75c-.71,0-1.28.19-1.72.58-.43.39-.65.9-.65,1.55,0,.72.27,1.31.82,1.76.55.45,1.27.68,2.16.68Z"/>
    <path class="cls-2" d="M530.17,455.76v-8.86h-3.35v-.89h3.35v-2.19c0-.78.23-1.38.68-1.81s1.08-.65,1.88-.65h3.02v.89h-3.02c-.5,0-.89.14-1.16.41-.28.28-.41.67-.41,1.16v2.19h4.6v.89h-4.6v8.86h-.99Z"/>
    <path class="cls-2" d="M539.77,455.76v-10.85h.99v1.87h.24l-.45,1.14c.01-.96.31-1.74.89-2.33.58-.59,1.35-.89,2.31-.89,1.16,0,2.07.36,2.74,1.07.67.71,1.01,1.67,1.01,2.88v.59h-1.08v-.59c0-.97-.25-1.73-.74-2.28s-1.19-.82-2.08-.82-1.57.27-2.07.82c-.5.55-.75,1.3-.75,2.28v7.1h-.99Z"/>
    <path class="cls-2" d="M555.02,455.95c-.78,0-1.45-.16-2.03-.48s-1.03-.78-1.34-1.37-.47-1.29-.47-2.09v-3.35c0-.8.16-1.5.47-2.08s.76-1.04,1.34-1.37c.58-.33,1.26-.49,2.03-.49s1.45.17,2.03.49c.58.33,1.03.79,1.34,1.37.32.58.47,1.28.47,2.08v3.35c0,.8-.16,1.5-.47,2.09-.32.59-.76,1.05-1.33,1.37-.57.32-1.25.48-2.04.48ZM555.02,455.08c.91,0,1.61-.27,2.11-.81s.75-1.29.75-2.27v-3.35c0-.97-.25-1.73-.76-2.27s-1.21-.81-2.1-.81-1.59.27-2.1.81c-.51.54-.76,1.29-.76,2.27v3.35c0,.97.25,1.73.75,2.27.5.54,1.2.81,2.11.81Z"/>
    <path class="cls-2" d="M566.85,455.95c-.45,0-.8-.13-1.06-.4s-.38-.63-.38-1.08.13-.8.38-1.05c.26-.26.61-.38,1.06-.38s.8.13,1.06.38c.26.26.38.61.38,1.05s-.13.81-.38,1.08-.61.4-1.06.4Z"/>
    <path class="cls-2" d="M575.27,455.76v-10.85h.99v1.87h.24l-.45,1.14c.01-.96.31-1.74.89-2.33.58-.59,1.35-.89,2.31-.89,1.16,0,2.07.36,2.74,1.07.67.71,1.01,1.67,1.01,2.88v.59h-1.08v-.59c0-.97-.25-1.73-.74-2.28s-1.19-.82-2.08-.82-1.57.27-2.07.82c-.5.55-.75,1.3-.75,2.28v7.1h-.99Z"/>
    <path class="cls-2" d="M590.52,455.95c-1.18,0-2.11-.36-2.78-1.08s-1.01-1.7-1.01-2.95v-7.02h.99v7.02c0,.99.25,1.75.74,2.31.49.55,1.17.83,2.04.83s1.57-.28,2.07-.83c.5-.55.75-1.32.75-2.31v-7.02h.99v7.02c0,1.24-.34,2.22-1.02,2.94-.68.72-1.6,1.08-2.77,1.08Z"/>
    <path class="cls-2" d="M600.09,446.58l1.48-6.13h1.78l-2.47,6.13h-.79Z"/>
    <path class="cls-4" d="M231.54,481.6v-.89h1.06c.62,0,1.11-.18,1.49-.55.37-.37.54-.87.48-1.52l-.28-3.89c-.05-.75.12-1.35.5-1.81s.91-.69,1.57-.69v.14c-.66,0-1.18-.23-1.57-.68-.39-.45-.56-1.05-.5-1.79l.28-3.91c.05-.64-.11-1.15-.48-1.52-.38-.37-.87-.55-1.49-.55h-1.06v-.89h1.06c.63,0,1.18.12,1.64.34.46.23.81.57,1.05,1.01s.33.98.28,1.61l-.28,3.91c-.05.72.06,1.23.35,1.53.28.3.83.44,1.63.44h2.17v.91h-2.17c-.84,0-1.39.15-1.66.45s-.37.8-.32,1.5l.28,3.89c.05.62-.04,1.15-.28,1.6s-.59.79-1.05,1.02c-.46.23-1.01.35-1.64.35h-1.06Z"/>
    <path class="cls-4" d="M184.2,505.26v-.89h1.06c.62,0,1.11-.18,1.49-.55.37-.37.54-.87.48-1.52l-.28-3.89c-.05-.75.12-1.35.5-1.81s.91-.69,1.57-.69v.14c-.66,0-1.18-.23-1.57-.68-.39-.45-.56-1.05-.5-1.79l.28-3.91c.05-.64-.11-1.15-.48-1.52-.38-.37-.87-.55-1.49-.55h-1.06v-.89h1.06c.63,0,1.18.12,1.64.34.46.23.81.57,1.05,1.01s.33.98.28,1.61l-.28,3.91c-.05.72.06,1.23.35,1.53.28.3.83.44,1.63.44h2.17v.91h-2.17c-.84,0-1.39.15-1.66.45s-.37.8-.32,1.5l.28,3.89c.05.62-.04,1.15-.28,1.6s-.59.79-1.05,1.02c-.46.23-1.01.35-1.64.35h-1.06Z"/>
  </g>
</svg>