<?xml version="1.0" encoding="utf-8"?>
<!-- Generator: Adobe Illustrator 26.1.0, SVG Export Plug-In . SVG Version: 6.00 Build 0)  -->
<svg version="1.1" id="a" xmlns="http://www.w3.org/2000/svg" xmlns:xlink="http://www.w3.org/1999/xlink" x="0px" y="0px"
	 viewBox="0 0 2240.3 235.5" style="enable-background:new 0 0 2240.3 235.5;" xml:space="preserve">
<style type="text/css">
	.st0{fill:#FFFFFF;stroke:#CCCCCC;stroke-width:2;stroke-miterlimit:10;}
	.st1{fill:#0081FF;}
	.st2{fill:#FFFFFF;}
	.st3{fill:url(#SVGID_1_);}
	.st4{filter:url(#Adobe_OpacityMaskFilter);}
	.st5{opacity:0.3;mask:url(#SVGID_00000167384588434302676360000001107848590627569324_);}
	.st6{enable-background:new    ;}
	.st7{clip-path:url(#SVGID_00000142136775852277056500000004166206083335433401_);}
	.st8{clip-path:url(#SVGID_00000041288753722307371950000012119228348130383541_);enable-background:new    ;}
	.st9{opacity:0.33;}
	.st10{clip-path:url(#SVGID_00000016781936704738508860000002611361979731038886_);}
	.st11{clip-path:url(#SVGID_00000111899261344864113670000005008738569526838164_);enable-background:new    ;}
	.st12{fill:#E8E8E8;stroke:#CECECE;stroke-width:2;stroke-miterlimit:10;}
	.st13{fill:#8C9496;}
	.st14{fill:#A7B2B5;}
</style>
<rect y="0.3" class="st0" width="2239.6" height="235.2"/>
<g>
	<path class="st1" d="M1140,262.3l-57.3-109.9c-9.2-17.7-2.4-39.5,15.3-48.8l109.9-57.3c17.7-9.2,39.5-2.4,48.8,15.3l57.3,109.9
		c9.2,17.7,2.4,39.5-15.3,48.8l-109.9,57.3C1171.1,286.9,1149.2,280,1140,262.3z"/>
	<circle class="st2" cx="1123.5" cy="141.2" r="37.1"/>
	<circle class="st2" cx="1214" cy="169.6" r="37.1"/>
	<circle cx="1107" cy="138.9" r="16.5"/>
	<circle cx="1197.5" cy="167.4" r="16.5"/>
	<path d="M1291.3,163.6l-66.3-60.1c-4.3-3.9-4.6-10.5-0.7-14.7l7.1-7.8c3.9-4.3,10.5-4.6,14.7-0.7l66.3,60.1
		c4.3,3.9,4.6,10.5,0.7,14.7l-7.1,7.8C1302.2,167.2,1295.6,167.5,1291.3,163.6z"/>
	<path d="M1190.4,95.8h-89.5c-5.8,0-10.4-4.7-10.4-10.4V74.8c0-5.8,4.7-10.4,10.4-10.4h89.5c5.8,0,10.4,4.7,10.4,10.4v10.6
		C1200.9,91.1,1196.2,95.8,1190.4,95.8z"/>
	<circle class="st1" cx="1431.4" cy="180.4" r="33"/>
	<circle class="st1" cx="1181" cy="13.6" r="33"/>
	<path class="st2" d="M1136.7,197.2c-0.2,1.7-1,10,4.9,17.3c1,1.2,6.7,8.3,14.5,8.2c10.6-0.1,20.8-13.3,20.8-13.3l0,0"/>
</g>
<g>
	
		<image style="overflow:visible;opacity:0.4;enable-background:new    ;" width="150" height="150" xlink:href="729900E7.png"  transform="matrix(1 0 0 1 95 44.53)">
	</image>
	<g>
		<g>
			
				<linearGradient id="SVGID_1_" gradientUnits="userSpaceOnUse" x1="116.7438" y1="69.0437" x2="219.1562" y2="171.4563" gradientTransform="matrix(1 0 0 -1 0 238)">
				<stop  offset="0" style="stop-color:#00FFFF"/>
				<stop  offset="1" style="stop-color:#0000FF"/>
			</linearGradient>
			<path class="st3" d="M132.3,175.4c-12.2,0-22-9.9-22-22V82.1c0-12.2,9.9-22,22-22h71.3c12.2,0,22,9.9,22,22v71.3
				c0,12.2-9.9,22-22,22H132.3z"/>
			<path class="st1" d="M203.6,62c11.1,0,20,9,20,20v71.3c0,11.1-9,20-20,20h-71.3c-11.1,0-20-9-20-20V82.1c0-11.1,9-20,20-20
				L203.6,62 M203.6,58h-71.3c-13.3,0-24,10.8-24,24v71.3c0,13.3,10.8,24,24,24h71.3c13.3,0,24-10.8,24-24V82.1
				C227.6,68.8,216.8,58,203.6,58L203.6,58z"/>
		</g>
		<defs>
			<filter id="Adobe_OpacityMaskFilter" filterUnits="userSpaceOnUse" x="108.3" y="58" width="119.3" height="119.3">
				<feColorMatrix  type="matrix" values="1 0 0 0 0  0 1 0 0 0  0 0 1 0 0  0 0 0 1 0"/>
			</filter>
		</defs>
		
			<mask maskUnits="userSpaceOnUse" x="108.3" y="58" width="119.3" height="119.3" id="SVGID_00000167384588434302676360000001107848590627569324_">
			<g class="st4">
				
					<image style="overflow:visible;enable-background:new    ;" width="124" height="124" xlink:href="729900E7.jpg"  transform="matrix(1 0 0 1 106 55.53)">
				</image>
			</g>
		</mask>
		<g class="st5">
			<path class="st2" d="M132.3,175.4c-12.2,0-22-9.9-22-22V82.1c0-12.2,9.9-22,22-22h71.3c12.2,0,22,9.9,22,22v71.3
				c0,12.2-9.9,22-22,22H132.3z"/>
			<path class="st2" d="M203.6,62c11.1,0,20,9,20,20v71.3c0,11.1-9,20-20,20h-71.3c-11.1,0-20-9-20-20V82.1c0-11.1,9-20,20-20
				L203.6,62 M203.6,58h-71.3c-13.3,0-24,10.8-24,24v71.3c0,13.3,10.8,24,24,24h71.3c13.3,0,24-10.8,24-24V82.1
				C227.6,68.8,216.8,58,203.6,58L203.6,58z"/>
		</g>
	</g>
</g>
<g>
	
		<image style="overflow:visible;opacity:0.6;enable-background:new    ;" width="76" height="97" xlink:href="729900ED.png"  transform="matrix(1 0 0 1 130 72.53)">
	</image>
	<g>
		<g class="st6">
			<path class="st2" d="M193.4,117.4c0,6.5-2.2,12.2-6.5,17.1l5.2,5.4l-5.7,5.2l-5.4-5.6c-4.2,2.4-8.6,3.6-13.2,3.6
				c-7.1,0-13.1-2.5-18.2-7.4c-5-5-7.5-11.1-7.5-18.2c0-7.2,2.5-13.2,7.5-18.2c5-5,11-7.5,18.2-7.5c7.1,0,13.2,2.5,18.2,7.5
				C190.9,104.2,193.4,110.2,193.4,117.4z M167.7,135.1c2.5,0,5-0.5,7.4-1.6l-9-9.3l5.7-5.2l9.5,9.7c2.6-3.3,4-7.1,4-11.4
				c0-5-1.7-9.3-5.1-12.7c-3.4-3.4-7.5-5.1-12.4-5.1c-4.9,0-9,1.7-12.4,5.1c-3.4,3.4-5.1,7.6-5.1,12.7c0,5,1.7,9.3,5.1,12.6
				C158.7,133.4,162.8,135.1,167.7,135.1z"/>
		</g>
	</g>
</g>
<g>
	<g>
		<defs>
			<polygon id="SVGID_00000072265157700427718960000006660712792894282118_" points="1300.6,58 1301.6,58 1300.6,59 			"/>
		</defs>
		<clipPath id="SVGID_00000011001799664271148710000017518852492084933048_">
			<use xlink:href="#SVGID_00000072265157700427718960000006660712792894282118_"  style="overflow:visible;"/>
		</clipPath>
	</g>
	<g>
		<defs>
			<polygon id="SVGID_00000013898767888420168000000013366873532070411652_" points="1300.6,58 1301.6,58 1300.6,59 			"/>
		</defs>
		<defs>
			<polygon id="SVGID_00000013914873929595004300000002237973617011500735_" points="1298.6,56 1297.6,56 1298.6,55 			"/>
		</defs>
		<clipPath id="SVGID_00000088842379091280968050000000123282545831304075_">
			<use xlink:href="#SVGID_00000013898767888420168000000013366873532070411652_"  style="overflow:visible;"/>
		</clipPath>
		
			<clipPath id="SVGID_00000114070257799852593890000011752086752952095905_" style="clip-path:url(#SVGID_00000088842379091280968050000000123282545831304075_);">
			<use xlink:href="#SVGID_00000013914873929595004300000002237973617011500735_"  style="overflow:visible;"/>
		</clipPath>
		<g style="clip-path:url(#SVGID_00000114070257799852593890000011752086752952095905_);enable-background:new    ;">
			
				<image style="overflow:visible;enable-background:new    ;" width="270" height="283" xlink:href="729900EE.png"  transform="matrix(1 0 0 1 1164.55 -84.46)">
			</image>
		</g>
	</g>
</g>
<g class="st9">
	<g>
		<g>
			<defs>
				<polygon id="SVGID_00000031925599312858090470000002771383868778031772_" points="1300.6,58 1301.6,58 1300.6,59 				"/>
			</defs>
			<clipPath id="SVGID_00000042711014567699336640000014950298676102412186_">
				<use xlink:href="#SVGID_00000031925599312858090470000002771383868778031772_"  style="overflow:visible;"/>
			</clipPath>
		</g>
		<g>
			<defs>
				<polygon id="SVGID_00000154404894754561467250000005454506449446600360_" points="1300.6,58 1301.6,58 1300.6,59 				"/>
			</defs>
			<defs>
				<polygon id="SVGID_00000123423976010450172560000015587309645487080838_" points="1298.6,56 1297.6,56 1298.6,55 				"/>
			</defs>
			<clipPath id="SVGID_00000011727421260263161740000012118373569646627245_">
				<use xlink:href="#SVGID_00000154404894754561467250000005454506449446600360_"  style="overflow:visible;"/>
			</clipPath>
			
				<clipPath id="SVGID_00000168839375967668792770000008714036480855489976_" style="clip-path:url(#SVGID_00000011727421260263161740000012118373569646627245_);">
				<use xlink:href="#SVGID_00000123423976010450172560000015587309645487080838_"  style="overflow:visible;"/>
			</clipPath>
			<g style="clip-path:url(#SVGID_00000168839375967668792770000008714036480855489976_);enable-background:new    ;">
				
					<image style="overflow:visible;enable-background:new    ;" width="270" height="283" xlink:href="729900EC.png"  transform="matrix(1 0 0 1 1164.55 -84.46)">
				</image>
			</g>
		</g>
	</g>
</g>
<path class="st12" d="M1584.6,78.6h577.3c8.5,0,15.3,6.9,15.3,15.3v49c0,8.5-6.9,15.3-15.3,15.3h-577.3c-8.5,0-15.3-6.9-15.3-15.3
	v-49C1569.3,85.4,1576.1,78.6,1584.6,78.6z"/>
<g>
	<path class="st13" d="M1751.4,129v-22.1h6.5c1.7,0,3.1,0.2,4.5,0.7c1.3,0.5,2.4,1.1,3.3,2s1.6,2,2.1,3.3s0.7,2.8,0.7,4.6v0.6
		c0,1.8-0.2,3.3-0.7,4.7s-1.2,2.5-2.1,3.4s-2.1,1.6-3.4,2.1c-1.3,0.5-2.9,0.7-4.6,0.7H1751.4z M1754.4,126.4h2.9
		c1.2,0,2.4-0.2,3.4-0.5s1.8-0.8,2.5-1.5s1.2-1.5,1.6-2.6s0.6-2.3,0.6-3.8v-0.6c0-1.4-0.2-2.6-0.5-3.6c-0.4-1-0.9-1.8-1.5-2.5
		c-0.7-0.6-1.5-1.1-2.4-1.4c-1-0.3-2-0.5-3.2-0.5h-3.2v17H1754.4z"/>
	<path class="st13" d="M1779.8,129.3c-1.1,0-2.1-0.2-3.1-0.5s-1.8-0.9-2.6-1.6s-1.3-1.6-1.8-2.7c-0.4-1.1-0.7-2.3-0.7-3.8v-0.6
		c0-1.4,0.2-2.6,0.7-3.6c0.4-1,1-1.9,1.8-2.6c0.7-0.7,1.6-1.2,2.6-1.5s2-0.5,3.1-0.5s2.1,0.2,3.1,0.5s1.8,0.9,2.6,1.5
		c0.7,0.7,1.3,1.5,1.8,2.6c0.4,1,0.7,2.2,0.7,3.6v0.6c0,1.4-0.2,2.7-0.7,3.8c-0.4,1.1-1,2-1.8,2.7c-0.7,0.7-1.6,1.2-2.6,1.6
		C1781.9,129.1,1780.9,129.3,1779.8,129.3z M1779.8,126.8c0.6,0,1.3-0.1,1.9-0.3c0.6-0.2,1.2-0.6,1.7-1c0.5-0.5,0.9-1.1,1.2-1.8
		c0.3-0.8,0.5-1.7,0.5-2.8v-0.6c0-1-0.2-1.9-0.5-2.6s-0.7-1.3-1.2-1.8s-1-0.8-1.7-1c-0.6-0.2-1.3-0.3-1.9-0.3s-1.3,0.1-1.9,0.3
		c-0.6,0.2-1.2,0.5-1.7,1s-0.9,1.1-1.2,1.8c-0.3,0.7-0.5,1.6-0.5,2.6v0.6c0,1.1,0.2,2,0.5,2.8s0.7,1.4,1.2,1.8s1,0.8,1.7,1
		C1778.6,126.6,1779.2,126.8,1779.8,126.8z"/>
	<path class="st13" d="M1794.5,129l-4.6-16.7h3l3.2,12.9l4.4-12.9h2.5l4.5,12.9l3.2-12.9h2.9L1809,129h-2.8l-4.5-12.9l-4.4,12.9
		H1794.5z"/>
	<path class="st13" d="M1817.1,129v-16.7h2.6v3.2c0.4-0.9,1-1.7,2-2.4c1-0.7,2.2-1,3.7-1c2.1,0,3.7,0.6,4.7,1.7s1.5,2.8,1.5,4.9V129
		h-2.8v-9.8c0-1.6-0.3-2.8-1-3.6s-1.7-1.2-3.3-1.2c-0.8,0-1.5,0.1-2.1,0.4s-1.1,0.6-1.5,1.1s-0.7,0.9-0.8,1.5
		c-0.2,0.6-0.3,1.1-0.3,1.7v9.8h-2.7V129z"/>
	<path class="st13" d="M1841.5,129.1c-0.9,0-1.6-0.1-2.2-0.3s-1.1-0.5-1.5-1c-0.4-0.4-0.7-1-0.9-1.7c-0.2-0.7-0.3-1.5-0.3-2.4v-16.9
		h2.8v16.9c0,0.5,0,1,0.1,1.4s0.2,0.6,0.4,0.9s0.4,0.4,0.8,0.5s0.7,0.1,1.1,0.1c0.2,0,0.4,0,0.6,0s0.3,0,0.5,0v2.5
		c-0.1,0-0.2,0-0.3,0.1c-0.1,0-0.3,0-0.4,0s-0.3,0-0.4,0C1841.7,129.1,1841.6,129.1,1841.5,129.1z"/>
	<path class="st13" d="M1853.2,129.3c-1.1,0-2.1-0.2-3.1-0.5s-1.8-0.9-2.6-1.6s-1.3-1.6-1.8-2.7c-0.4-1.1-0.7-2.3-0.7-3.8v-0.6
		c0-1.4,0.2-2.6,0.7-3.6c0.4-1,1-1.9,1.8-2.6c0.7-0.7,1.6-1.2,2.6-1.5s2-0.5,3.1-0.5s2.1,0.2,3.1,0.5s1.8,0.9,2.6,1.5
		c0.7,0.7,1.3,1.5,1.8,2.6c0.4,1,0.7,2.2,0.7,3.6v0.6c0,1.4-0.2,2.7-0.7,3.8c-0.4,1.1-1,2-1.8,2.7c-0.7,0.7-1.6,1.2-2.6,1.6
		C1855.3,129.1,1854.3,129.3,1853.2,129.3z M1853.2,126.8c0.6,0,1.3-0.1,1.9-0.3c0.6-0.2,1.2-0.6,1.7-1c0.5-0.5,0.9-1.1,1.2-1.8
		c0.3-0.8,0.5-1.7,0.5-2.8v-0.6c0-1-0.2-1.9-0.5-2.6s-0.7-1.3-1.2-1.8s-1-0.8-1.7-1c-0.6-0.2-1.3-0.3-1.9-0.3s-1.3,0.1-1.9,0.3
		c-0.6,0.2-1.2,0.5-1.7,1s-0.9,1.1-1.2,1.8c-0.3,0.7-0.5,1.6-0.5,2.6v0.6c0,1.1,0.2,2,0.5,2.8s0.7,1.4,1.2,1.8s1,0.8,1.7,1
		C1851.9,126.6,1852.6,126.8,1853.2,126.8z"/>
	<path class="st13" d="M1870,129.3c-0.9,0-1.7-0.1-2.4-0.4c-0.7-0.3-1.3-0.6-1.8-1.1c-0.5-0.5-0.9-1-1.1-1.6
		c-0.3-0.6-0.4-1.3-0.4-2.1c0-1.7,0.5-2.9,1.5-3.6s2.4-1.1,4.2-1.1h5.4v-1.1c0-1.5-0.3-2.4-1-3s-1.6-0.8-2.9-0.8
		c-1.2,0-2.1,0.2-2.6,0.7s-0.9,1-0.9,1.5h-2.8c0-0.7,0.2-1.3,0.6-1.9c0.3-0.6,0.8-1.1,1.3-1.5c0.6-0.4,1.2-0.8,2-1s1.6-0.4,2.6-0.4
		s1.9,0.1,2.7,0.3c0.8,0.2,1.5,0.6,2,1.1c0.6,0.5,1,1.1,1.3,1.9s0.5,1.7,0.5,2.7v6.8c0,0.9,0,1.7,0,2.3c0,0.7,0.1,1.3,0.1,1.9h-2.4
		c-0.1-0.5-0.1-0.9-0.1-1.4c0-0.4,0-0.9,0-1.5c-0.2,0.4-0.5,0.9-0.9,1.2s-0.8,0.7-1.3,1c-0.5,0.3-1,0.5-1.6,0.7
		S1870.7,129.3,1870,129.3z M1870.6,126.8c0.7,0,1.3-0.1,1.8-0.3s1.1-0.4,1.5-0.8c0.4-0.3,0.8-0.8,1-1.3c0.3-0.5,0.4-1.1,0.4-1.8
		v-1.1h-5c-1,0-1.8,0.2-2.4,0.6s-0.9,1.1-0.9,1.9s0.3,1.4,0.8,1.9C1868.5,126.5,1869.4,126.8,1870.6,126.8z"/>
	<path class="st13" d="M1888.9,129.3c-1,0-2-0.2-2.8-0.5c-0.9-0.4-1.6-0.9-2.2-1.6s-1.1-1.6-1.4-2.7s-0.5-2.3-0.5-3.7v-0.6
		c0-1.3,0.2-2.5,0.5-3.5s0.8-1.9,1.4-2.6s1.3-1.2,2.2-1.6c0.9-0.4,1.8-0.5,2.8-0.5c1.3,0,2.5,0.3,3.5,0.9s1.7,1.4,2.2,2.4v-8.4h2.8
		V129h-2.6v-3.2c-0.4,1-1.2,1.9-2.2,2.5C1891.5,129,1890.3,129.3,1888.9,129.3z M1889.5,126.8c0.8,0,1.5-0.1,2.1-0.4s1.2-0.6,1.6-1
		s0.8-1,1-1.6c0.3-0.6,0.4-1.3,0.4-2.1v-2.5c0-0.7-0.1-1.3-0.4-1.9s-0.6-1.1-1-1.5s-1-0.8-1.6-1s-1.3-0.4-2.1-0.4
		c-0.7,0-1.3,0.1-1.9,0.4s-1.1,0.6-1.5,1.1s-0.8,1.1-1,1.8c-0.2,0.7-0.4,1.5-0.4,2.4v0.6c0,1,0.1,1.9,0.4,2.6c0.2,0.8,0.6,1.4,1,1.9
		s0.9,0.9,1.5,1.2S1888.8,126.8,1889.5,126.8z"/>
	<path class="st13" d="M1927.2,129.9l-2.2-2.2c-0.8,0.5-1.7,0.9-2.6,1.2s-1.9,0.4-2.9,0.4c-1.3,0-2.5-0.2-3.7-0.6
		c-1.2-0.4-2.2-1.1-3.1-2s-1.6-2.1-2.2-3.5c-0.5-1.4-0.8-3.1-0.8-5.1v-0.6c0-1.9,0.3-3.5,0.8-4.9s1.3-2.5,2.2-3.4
		c0.9-0.9,1.9-1.6,3.1-2s2.4-0.6,3.7-0.6s2.5,0.2,3.7,0.6s2.2,1.1,3.1,2s1.6,2,2.2,3.4c0.5,1.4,0.8,3,0.8,4.9v0.6
		c0,1.8-0.2,3.3-0.7,4.6c-0.4,1.3-1,2.4-1.8,3.3l2.1,2.1L1927.2,129.9z M1919.5,126.6c0.6,0,1.2-0.1,1.8-0.2s1.1-0.4,1.6-0.7
		l-3.4-3.4l1.8-1.8l3.4,3.4c0.4-0.7,0.8-1.5,1-2.4c0.3-1,0.4-2.1,0.4-3.4v-0.6c0-1.5-0.2-2.7-0.6-3.7s-0.9-1.9-1.5-2.6
		s-1.3-1.2-2.1-1.5c-0.8-0.3-1.6-0.5-2.5-0.5s-1.7,0.2-2.5,0.5s-1.5,0.8-2.1,1.5s-1.1,1.5-1.5,2.6s-0.6,2.3-0.6,3.7v0.6
		c0,1.5,0.2,2.8,0.6,3.9s0.9,2,1.5,2.7s1.3,1.2,2.1,1.5C1917.8,126.5,1918.6,126.6,1919.5,126.6z"/>
	<path class="st13" d="M1939.6,129.3c-2,0-3.6-0.6-4.6-1.7c-1-1.2-1.5-2.9-1.5-5.4v-9.9h2.8v9.8c0,1.6,0.3,2.8,1,3.6
		s1.7,1.2,3.1,1.2c0.8,0,1.5-0.1,2.1-0.4s1-0.6,1.4-1.1c0.4-0.4,0.6-0.9,0.8-1.5c0.2-0.6,0.3-1.1,0.3-1.7v-9.8h2.8V129h-2.6v-3.2
		c-0.4,0.9-1,1.8-2,2.4S1941,129.3,1939.6,129.3z"/>
	<path class="st13" d="M1957.6,129.3c-0.9,0-1.7-0.1-2.4-0.4c-0.7-0.3-1.3-0.6-1.8-1.1c-0.5-0.5-0.9-1-1.1-1.6
		c-0.3-0.6-0.4-1.3-0.4-2.1c0-1.7,0.5-2.9,1.5-3.6s2.4-1.1,4.2-1.1h5.4v-1.1c0-1.5-0.3-2.4-1-3s-1.6-0.8-2.9-0.8
		c-1.2,0-2.1,0.2-2.6,0.7s-0.9,1-0.9,1.5h-2.8c0-0.7,0.2-1.3,0.6-1.9c0.3-0.6,0.8-1.1,1.3-1.5c0.6-0.4,1.2-0.8,2-1s1.6-0.4,2.6-0.4
		s1.9,0.1,2.7,0.3c0.8,0.2,1.5,0.6,2,1.1c0.6,0.5,1,1.1,1.3,1.9s0.5,1.7,0.5,2.7v6.8c0,0.9,0,1.7,0,2.3c0,0.7,0.1,1.3,0.1,1.9h-2.4
		c-0.1-0.5-0.1-0.9-0.1-1.4c0-0.4,0-0.9,0-1.5c-0.2,0.4-0.5,0.9-0.9,1.2s-0.8,0.7-1.3,1c-0.5,0.3-1,0.5-1.6,0.7
		S1958.2,129.3,1957.6,129.3z M1958.2,126.8c0.7,0,1.3-0.1,1.8-0.3s1.1-0.4,1.5-0.8c0.4-0.3,0.8-0.8,1-1.3c0.3-0.5,0.4-1.1,0.4-1.8
		v-1.1h-5c-1,0-1.8,0.2-2.4,0.6s-0.9,1.1-0.9,1.9s0.3,1.4,0.8,1.9C1956.1,126.5,1957,126.8,1958.2,126.8z"/>
	<path class="st13" d="M1970.6,129v-16.7h2.6v3.2c0.2-0.5,0.4-1,0.7-1.4c0.3-0.4,0.6-0.8,1.1-1.1c0.4-0.3,0.9-0.5,1.4-0.7
		s1.1-0.3,1.7-0.3c0.4,0,0.8,0,1,0.1c0.3,0,0.5,0.1,0.7,0.2v2.6c-0.3-0.1-0.5-0.2-0.8-0.2s-0.6-0.1-1.1-0.1c-0.6,0-1.2,0.1-1.8,0.3
		c-0.5,0.2-1,0.6-1.4,1s-0.7,0.9-0.9,1.5c-0.2,0.6-0.3,1.2-0.3,1.9v9.8h-2.9V129z"/>
	<path class="st13" d="M1982.9,129v-22.1h2.8V120l7.7-7.7h3.4l-6.9,6.9l7.6,9.8h-3.5l-6-7.9l-2.2,2.1v5.8H1982.9z"/>
</g>
<g>
	<path d="M342.9,123.3h-4l-4.8-12.6h-24.9l-4.8,12.6h-4l19.3-49.7h4L342.9,123.3z M321.7,78.2l-11.1,28.9h22.2L321.7,78.2z"/>
	<path d="M365.7,87c4.2,0,7.6,1.3,10.1,3.9s3.7,6,3.7,10.3v22.1h-3.6v-22.1c0-3.3-0.9-5.9-2.8-7.9c-1.8-1.9-4.4-2.9-7.7-2.9
		c-3.7,0-6.8,1.2-9,3.7c-2.3,2.5-3.4,5.9-3.4,10.4v18.8h-3.6V87.8h3.6v6.8C355.6,89.5,359.8,87,365.7,87z"/>
	<path d="M420.8,95.8v-8h3.6v35.5h-3.6v-8c-1.6,2.7-3.7,4.9-6.3,6.5c-2.7,1.6-5.6,2.3-9,2.3c-5,0-9.4-1.8-13-5.3
		c-3.6-3.6-5.4-8-5.4-13.2s1.8-9.6,5.4-13.1c3.6-3.6,7.9-5.4,13-5.4c3.3,0,6.3,0.8,9,2.3C417.1,90.9,419.2,93.1,420.8,95.8z
		 M395.1,116.3c2.9,2.9,6.5,4.4,10.7,4.4s7.7-1.5,10.7-4.4c2.9-2.9,4.3-6.5,4.3-10.7c0-4.3-1.4-7.8-4.3-10.7
		c-2.9-2.9-6.5-4.4-10.7-4.4s-7.8,1.5-10.7,4.4c-2.9,2.9-4.3,6.5-4.3,10.7C390.7,109.8,392.2,113.4,395.1,116.3z"/>
	<path d="M452.1,72.8v3.4c-7.1-0.6-10.6,2.7-10.6,9.7v1.9h10.6v3.5h-10.6v32h-3.6v-32h-6.1v-3.5h6.1v-1.9c0-4.5,1.2-7.8,3.7-10.1
		C444.1,73.4,447.6,72.5,452.1,72.8z"/>
	<path d="M461.2,87.8v7c2.1-5,6.1-7.5,11.9-7.5v3.4c-3.5,0-6.4,1.1-8.6,3.3c-2.2,2.2-3.3,5.4-3.3,9.5v19.8h-3.6V87.8H461.2z"/>
	<path d="M494.4,124.1c-5.2,0-9.6-1.8-13.3-5.3c-3.6-3.6-5.4-8-5.4-13.2s1.8-9.6,5.4-13.1c3.6-3.6,8-5.4,13.3-5.4
		c5.2,0,9.5,1.8,13.1,5.4s5.5,7.9,5.5,13.1s-1.8,9.6-5.5,13.2C503.8,122.3,499.5,124.1,494.4,124.1z M483.6,116.3
		c2.9,2.9,6.5,4.4,10.7,4.4s7.7-1.5,10.7-4.4c2.9-2.9,4.3-6.5,4.3-10.7c0-4.3-1.4-7.8-4.3-10.7c-2.9-2.9-6.5-4.4-10.7-4.4
		s-7.8,1.5-10.7,4.4c-2.9,2.9-4.3,6.5-4.3,10.7C479.3,109.8,480.7,113.4,483.6,116.3z"/>
	<path d="M589.1,98.4c0,6.6-2.2,12.3-6.5,17.2l5.3,5.4l-5.8,5.2l-5.5-5.6c-4.2,2.4-8.6,3.6-13.3,3.6c-7.1,0-13.2-2.5-18.3-7.5
		c-5-5-7.5-11.1-7.5-18.3s2.5-13.3,7.5-18.3s11.1-7.5,18.3-7.5s13.2,2.5,18.3,7.5C586.6,85.1,589.1,91.2,589.1,98.4z M563.3,116.3
		c2.6,0,5-0.5,7.5-1.6l-9.1-9.3l5.8-5.2l9.5,9.7c2.7-3.3,4-7.1,4-11.4c0-5.1-1.7-9.3-5.1-12.7c-3.4-3.4-7.6-5.1-12.5-5.1
		s-9.1,1.7-12.5,5.1s-5.1,7.7-5.1,12.7c0,5.1,1.7,9.3,5.1,12.7C554.2,114.6,558.4,116.3,563.3,116.3z"/>
	<path d="M620.8,106.8v-19h7.7v35.5h-7.7v-4.5c-2.4,3.6-6,5.5-11,5.5c-4.1,0-7.4-1.3-9.9-3.9s-3.7-6.2-3.7-10.7V87.8h7.7v21
		c0,2.7,0.7,4.7,2.1,6.1c1.4,1.4,3.4,2.1,5.8,2.1c2.8,0,5-0.9,6.6-2.6C620,112.7,620.8,110.2,620.8,106.8z"/>
	<path d="M665.5,92.8v-5h7.7v35.5h-7.7v-5.1c-2.9,4-7,6-12.4,6c-4.9,0-9-1.8-12.5-5.4s-5.2-8-5.2-13.3s1.7-9.7,5.2-13.3
		c3.5-3.6,7.6-5.4,12.5-5.4C658.5,86.9,662.6,88.8,665.5,92.8z M646.3,113.7c2.1,2.1,4.8,3.2,8,3.2s5.9-1.1,8-3.2
		c2.1-2.2,3.2-4.9,3.2-8.2c0-3.3-1.1-6-3.2-8.1c-2.1-2.2-4.8-3.3-8-3.3s-5.9,1.1-8,3.3c-2.1,2.1-3.2,4.8-3.2,8.1
		C643.1,108.8,644.1,111.5,646.3,113.7z"/>
	<path d="M689.8,87.8v6c1.9-4.4,5.6-6.6,10.9-6.6v8.3c-2.9-0.2-5.4,0.5-7.7,2.1c-2.2,1.6-3.3,4.2-3.3,7.8v17.9H682V87.8H689.8z"/>
	<path d="M721.7,105.2l16.2,18.1h-9.2l-14.6-16.4v16.4h-7.7V73.6h7.7v29.9l13.8-15.7h9.4L721.7,105.2z"/>
</g>
<g>
	<path d="M318.8,161.9H317l-2.2-5.7h-11.1l-2.2,5.7h-1.8l8.6-22.2h1.8L318.8,161.9z M309.3,141.8l-5,12.9h9.9L309.3,141.8z"/>
	<path d="M331.3,150.2c0,1.3,1.1,2.3,3.4,2.9c0.7,0.1,1.1,0.3,1.4,0.3c0.3,0.1,0.8,0.2,1.4,0.4s1.1,0.4,1.4,0.6
		c0.3,0.2,0.6,0.5,1,0.8s0.6,0.7,0.8,1.1c0.2,0.4,0.2,0.9,0.2,1.5c0,1.3-0.5,2.4-1.6,3.3c-1,0.8-2.4,1.3-4.1,1.3
		c-1.5,0-2.8-0.3-3.8-1c-1.1-0.6-1.8-1.5-2.2-2.6l1.4-0.8c0.3,0.9,0.9,1.6,1.7,2.1c0.8,0.5,1.8,0.7,3,0.7s2.2-0.3,3-0.8
		s1.1-1.3,1.1-2.2c0-1.4-1.1-2.4-3.4-2.9c-2.1-0.5-3.5-1-4.3-1.4c-1.3-0.8-2-1.9-2-3.3c0-1.3,0.5-2.3,1.5-3.2s2.3-1.3,3.9-1.3
		c1.2,0,2.3,0.3,3.3,0.9c1,0.6,1.7,1.3,2.1,2.3l-1.3,0.8c-0.3-0.8-0.8-1.4-1.6-1.8c-0.7-0.4-1.6-0.6-2.5-0.6c-1.1,0-2,0.3-2.7,0.8
		C331.6,148.6,331.3,149.3,331.3,150.2z"/>
	<path d="M344.1,140.9c0-0.5,0.2-0.9,0.6-1.1c0.4-0.2,0.9-0.2,1.3,0s0.6,0.6,0.6,1.1s-0.2,0.9-0.6,1.1c-0.4,0.2-0.9,0.2-1.3,0
		C344.3,141.8,344.1,141.5,344.1,140.9z M346.2,161.9h-1.6V146h1.6V161.9z"/>
	<path d="M368,145.7c1.8,0,3.2,0.5,4.2,1.6s1.6,2.6,1.6,4.5v10.1h-1.6v-10.1c0-1.5-0.4-2.6-1.1-3.4c-0.8-0.8-1.8-1.2-3.1-1.2
		c-1.5,0-2.6,0.5-3.5,1.5s-1.3,2.4-1.3,4.4v8.9h-1.6v-10.1c0-1.5-0.4-2.6-1.1-3.4c-0.7-0.8-1.7-1.2-3-1.2c-1.5,0-2.6,0.5-3.6,1.5
		c-0.9,1-1.4,2.5-1.4,4.3v8.9H351v-15.9h1.6v2.7c1.1-2.1,2.8-3.1,5.1-3.1c1.2,0,2.2,0.3,3,0.8c0.9,0.6,1.5,1.4,1.9,2.4
		c0.6-1.1,1.3-1.9,2.2-2.4C365.9,146,366.9,145.7,368,145.7z"/>
	<path d="M386.7,145.7c2.3,0,4.2,0.8,5.8,2.4c1.6,1.6,2.4,3.5,2.4,5.9c0,2.3-0.8,4.3-2.4,5.9c-1.6,1.6-3.5,2.4-5.8,2.4
		c-1.5,0-2.9-0.4-4-1.1c-1.2-0.7-2.1-1.7-2.8-3v10h-1.6V146h1.6v3.7c0.7-1.3,1.6-2.3,2.8-3S385.2,145.7,386.7,145.7z M381.8,158.8
		c1.3,1.3,2.9,2,4.8,2s3.5-0.7,4.8-2s2-2.9,2-4.8s-0.7-3.5-2-4.8s-2.9-2-4.8-2s-3.5,0.7-4.8,2s-1.9,2.9-1.9,4.8
		C379.8,155.9,380.5,157.5,381.8,158.8z"/>
	<path d="M400.3,161.9h-1.6v-23.2h1.6V161.9z"/>
	<path d="M412.4,145.7c2.3,0,4.2,0.8,5.7,2.5s2.2,3.6,2.2,5.9c0,0,0,0.2,0,0.4s0,0.3,0,0.4h-14.4c0.2,1.8,0.9,3.2,2.1,4.3
		s2.8,1.6,4.6,1.6c1.2,0,2.3-0.3,3.3-0.8s1.7-1.2,2.2-2.1l1.4,0.8c-0.7,1.1-1.6,2-2.8,2.6s-2.6,1-4.1,1c-2.5,0-4.5-0.8-6-2.3
		c-1.6-1.6-2.3-3.6-2.3-6s0.8-4.3,2.3-5.9C408,146.5,410,145.7,412.4,145.7z M412.4,147.2c-1.8,0-3.3,0.6-4.5,1.7
		c-1.2,1.1-1.9,2.6-2.1,4.4h12.8c-0.2-1.9-0.8-3.4-2-4.4C415.3,147.8,413.9,147.2,412.4,147.2z"/>
	<path d="M446.4,149.7v-10h1.6v22.2h-1.6v-3.7c-0.7,1.3-1.6,2.3-2.8,3c-1.2,0.7-2.5,1.1-4,1.1c-2.3,0-4.2-0.8-5.8-2.4
		c-1.6-1.6-2.4-3.6-2.4-5.9c0-2.3,0.8-4.3,2.4-5.9c1.6-1.6,3.6-2.4,5.8-2.4c1.5,0,2.9,0.4,4,1.1S445.7,148.5,446.4,149.7z
		 M434.9,158.8c1.3,1.3,2.9,2,4.8,2s3.5-0.7,4.8-2s2-2.9,2-4.8s-0.7-3.5-2-4.8s-2.9-2-4.8-2s-3.5,0.7-4.8,2s-1.9,2.9-1.9,4.8
		C432.9,155.9,433.6,157.5,434.9,158.8z"/>
	<path d="M466.8,149.6V146h1.6v15.9h-1.6v-3.6c-0.7,1.2-1.6,2.2-2.8,2.9c-1.2,0.7-2.5,1-4,1c-2.2,0-4.2-0.8-5.8-2.4
		c-1.6-1.6-2.4-3.6-2.4-5.9c0-2.3,0.8-4.3,2.4-5.9c1.6-1.6,3.5-2.4,5.8-2.4c1.5,0,2.8,0.3,4,1C465.2,147.5,466.1,148.4,466.8,149.6z
		 M455.3,158.8c1.3,1.3,2.9,2,4.8,2s3.5-0.7,4.8-2s1.9-2.9,1.9-4.8c0-1.9-0.6-3.5-1.9-4.8s-2.9-2-4.8-2s-3.5,0.7-4.8,2
		s-1.9,2.9-1.9,4.8C453.4,155.9,454.1,157.5,455.3,158.8z"/>
	<path d="M481.5,146.1v1.6h-4.7V158c0,1.3,0.3,2.1,1,2.4c0.7,0.3,1.9,0.4,3.7,0.2v1.4c-2.2,0.3-3.8,0.2-4.8-0.5
		c-1-0.6-1.5-1.8-1.5-3.5v-10.3h-3.5v-1.6h3.5v-4l1.6-0.5v4.4h4.7V146.1z"/>
	<path d="M498.3,149.6V146h1.6v15.9h-1.6v-3.6c-0.7,1.2-1.6,2.2-2.8,2.9c-1.2,0.7-2.5,1-4,1c-2.2,0-4.2-0.8-5.8-2.4
		c-1.6-1.6-2.4-3.6-2.4-5.9c0-2.3,0.8-4.3,2.4-5.9c1.6-1.6,3.5-2.4,5.8-2.4c1.5,0,2.8,0.3,4,1C496.7,147.5,497.6,148.4,498.3,149.6z
		 M486.8,158.8c1.3,1.3,2.9,2,4.8,2s3.5-0.7,4.8-2s1.9-2.9,1.9-4.8c0-1.9-0.6-3.5-1.9-4.8s-2.9-2-4.8-2s-3.5,0.7-4.8,2
		s-1.9,2.9-1.9,4.8C484.9,155.9,485.5,157.5,486.8,158.8z"/>
	<path d="M513.2,145.7c2.3,0,4.2,0.8,5.8,2.4c1.6,1.6,2.4,3.5,2.4,5.9c0,2.3-0.8,4.3-2.4,5.9c-1.6,1.6-3.5,2.4-5.8,2.4
		c-1.5,0-2.9-0.4-4-1.1c-1.2-0.7-2.1-1.7-2.8-3v3.7h-1.6v-22.2h1.6v10c0.7-1.3,1.6-2.3,2.8-3S511.7,145.7,513.2,145.7z M508.3,158.8
		c1.3,1.3,2.9,2,4.8,2c1.9,0,3.5-0.7,4.8-2s2-2.9,2-4.8s-0.7-3.5-2-4.8s-2.9-2-4.8-2c-1.9,0-3.5,0.7-4.8,2s-1.9,2.9-1.9,4.8
		C506.4,155.9,507,157.5,508.3,158.8z"/>
	<path d="M539.3,149.6V146h1.6v15.9h-1.6v-3.6c-0.7,1.2-1.6,2.2-2.8,2.9s-2.5,1-4,1c-2.2,0-4.2-0.8-5.8-2.4
		c-1.6-1.6-2.4-3.6-2.4-5.9c0-2.3,0.8-4.3,2.4-5.9c1.6-1.6,3.5-2.4,5.8-2.4c1.5,0,2.8,0.3,4,1C537.6,147.5,538.6,148.4,539.3,149.6z
		 M527.8,158.8c1.3,1.3,2.9,2,4.8,2c1.9,0,3.5-0.7,4.8-2s1.9-2.9,1.9-4.8c0-1.9-0.6-3.5-1.9-4.8c-1.3-1.3-2.9-2-4.8-2
		c-1.9,0-3.5,0.7-4.8,2s-1.9,2.9-1.9,4.8C525.8,155.9,526.5,157.5,527.8,158.8z"/>
	<path d="M546.9,150.2c0,1.3,1.1,2.3,3.4,2.9c0.7,0.1,1.1,0.3,1.4,0.3c0.3,0.1,0.8,0.2,1.4,0.4c0.6,0.2,1.1,0.4,1.4,0.6
		c0.3,0.2,0.6,0.5,1,0.8s0.6,0.7,0.8,1.1c0.2,0.4,0.2,0.9,0.2,1.5c0,1.3-0.5,2.4-1.6,3.3c-1,0.8-2.4,1.3-4.1,1.3
		c-1.5,0-2.8-0.3-3.8-1c-1.1-0.6-1.8-1.5-2.2-2.6l1.4-0.8c0.3,0.9,0.9,1.6,1.7,2.1s1.8,0.7,3,0.7s2.2-0.3,3-0.8s1.1-1.3,1.1-2.2
		c0-1.4-1.1-2.4-3.4-2.9c-2.1-0.5-3.5-1-4.3-1.4c-1.3-0.8-2-1.9-2-3.3c0-1.3,0.5-2.3,1.5-3.2s2.3-1.3,3.9-1.3c1.2,0,2.3,0.3,3.3,0.9
		c1,0.6,1.7,1.3,2.1,2.3l-1.3,0.8c-0.3-0.8-0.8-1.4-1.6-1.8c-0.7-0.4-1.6-0.6-2.5-0.6c-1.1,0-2,0.3-2.7,0.8
		C547.2,148.6,546.9,149.3,546.9,150.2z"/>
	<path d="M567,145.7c2.3,0,4.2,0.8,5.7,2.5s2.2,3.6,2.2,5.9c0,0,0,0.2,0,0.4s0,0.3,0,0.4h-14.4c0.2,1.8,0.9,3.2,2.1,4.3
		c1.2,1.1,2.8,1.6,4.6,1.6c1.2,0,2.3-0.3,3.3-0.8s1.7-1.2,2.2-2.1l1.4,0.8c-0.7,1.1-1.6,2-2.8,2.6s-2.6,1-4.1,1
		c-2.5,0-4.5-0.8-6-2.3c-1.6-1.6-2.3-3.6-2.3-6s0.8-4.3,2.3-5.9C562.6,146.5,564.6,145.7,567,145.7z M567,147.2
		c-1.8,0-3.3,0.6-4.5,1.7c-1.2,1.1-1.9,2.6-2.1,4.4h12.8c-0.2-1.9-0.8-3.4-2-4.4C570,147.8,568.6,147.2,567,147.2z"/>
	<path d="M604,145.7c1.8,0,3.2,0.5,4.2,1.6s1.6,2.6,1.6,4.5v10.1h-1.6v-10.1c0-1.5-0.4-2.6-1.1-3.4c-0.8-0.8-1.8-1.2-3.1-1.2
		c-1.5,0-2.6,0.5-3.5,1.5s-1.3,2.4-1.3,4.4v8.9h-1.6v-10.1c0-1.5-0.4-2.6-1.1-3.4c-0.7-0.8-1.7-1.2-3-1.2c-1.5,0-2.6,0.5-3.6,1.5
		c-0.9,1-1.4,2.5-1.4,4.3v8.9H587v-15.9h1.6v2.7c1.1-2.1,2.8-3.1,5.1-3.1c1.2,0,2.2,0.3,3,0.8c0.9,0.6,1.5,1.4,1.9,2.4
		c0.6-1.1,1.3-1.9,2.2-2.4C601.8,146,602.9,145.7,604,145.7z"/>
	<path d="M628.2,149.6V146h1.6v15.9h-1.6v-3.6c-0.7,1.2-1.6,2.2-2.8,2.9s-2.5,1-4,1c-2.2,0-4.2-0.8-5.8-2.4
		c-1.6-1.6-2.4-3.6-2.4-5.9c0-2.3,0.8-4.3,2.4-5.9c1.6-1.6,3.5-2.4,5.8-2.4c1.5,0,2.8,0.3,4,1C626.6,147.5,627.5,148.4,628.2,149.6z
		 M616.7,158.8c1.3,1.3,2.9,2,4.8,2c1.9,0,3.5-0.7,4.8-2s1.9-2.9,1.9-4.8c0-1.9-0.6-3.5-1.9-4.8c-1.3-1.3-2.9-2-4.8-2
		c-1.9,0-3.5,0.7-4.8,2s-1.9,2.9-1.9,4.8C614.8,155.9,615.4,157.5,616.7,158.8z"/>
	<path d="M642,145.7c1.9,0,3.4,0.6,4.5,1.7c1.1,1.2,1.7,2.7,1.7,4.6v9.9h-1.6V152c0-1.5-0.4-2.7-1.2-3.5c-0.8-0.9-2-1.3-3.4-1.3
		c-1.7,0-3,0.6-4,1.7s-1.5,2.7-1.5,4.7v8.4h-1.6v-15.9h1.6v3C637.4,146.8,639.3,145.7,642,145.7z"/>
	<path d="M666.6,149.6V146h1.6v15.9h-1.6v-3.6c-0.7,1.2-1.6,2.2-2.8,2.9s-2.5,1-4,1c-2.2,0-4.2-0.8-5.8-2.4
		c-1.6-1.6-2.4-3.6-2.4-5.9c0-2.3,0.8-4.3,2.4-5.9c1.6-1.6,3.5-2.4,5.8-2.4c1.5,0,2.8,0.3,4,1C664.9,147.5,665.9,148.4,666.6,149.6z
		 M655.1,158.8c1.3,1.3,2.9,2,4.8,2c1.9,0,3.5-0.7,4.8-2s1.9-2.9,1.9-4.8c0-1.9-0.6-3.5-1.9-4.8c-1.3-1.3-2.9-2-4.8-2
		c-1.9,0-3.5,0.7-4.8,2s-1.9,2.9-1.9,4.8C653.2,155.9,653.8,157.5,655.1,158.8z"/>
	<path d="M687.2,149.7V146h1.6v15.1c0,2.3-0.8,4.1-2.3,5.5c-1.5,1.3-3.4,2-5.7,2c-1.8,0-3.4-0.3-4.7-1s-2.2-1.6-2.8-2.8l1.4-0.8
		c1,2.1,3,3.1,6.1,3.1c2,0,3.5-0.5,4.6-1.6s1.7-2.5,1.7-4.3v-2.9c-0.7,1.3-1.6,2.3-2.8,3s-2.5,1.1-4,1.1c-2.3,0-4.2-0.8-5.8-2.4
		c-1.6-1.6-2.4-3.6-2.4-5.9c0-2.3,0.8-4.3,2.4-5.9c1.6-1.6,3.6-2.4,5.8-2.4c1.5,0,2.9,0.4,4,1.1S686.5,148.5,687.2,149.7z
		 M675.7,158.8c1.3,1.3,2.9,2,4.8,2c1.9,0,3.5-0.7,4.8-2s2-2.9,2-4.8s-0.7-3.5-2-4.8s-2.9-2-4.8-2c-1.9,0-3.5,0.7-4.8,2
		s-1.9,2.9-1.9,4.8C673.7,155.9,674.4,157.5,675.7,158.8z"/>
	<path d="M700.8,145.7c2.3,0,4.2,0.8,5.7,2.5s2.2,3.6,2.2,5.9c0,0,0,0.2,0,0.4s0,0.3,0,0.4h-14.4c0.2,1.8,0.9,3.2,2.1,4.3
		c1.2,1.1,2.8,1.6,4.6,1.6c1.2,0,2.3-0.3,3.3-0.8s1.7-1.2,2.2-2.1l1.4,0.8c-0.7,1.1-1.6,2-2.8,2.6s-2.6,1-4.1,1
		c-2.5,0-4.5-0.8-6-2.3c-1.6-1.6-2.3-3.6-2.3-6s0.8-4.3,2.3-5.9C696.4,146.5,698.4,145.7,700.8,145.7z M700.8,147.2
		c-1.8,0-3.3,0.6-4.5,1.7c-1.2,1.1-1.9,2.6-2.1,4.4H707c-0.2-1.9-0.8-3.4-2-4.4C703.8,147.8,702.4,147.2,700.8,147.2z"/>
	<path d="M729.3,145.7c1.8,0,3.2,0.5,4.2,1.6s1.6,2.6,1.6,4.5v10.1h-1.6v-10.1c0-1.5-0.4-2.6-1.1-3.4c-0.8-0.8-1.8-1.2-3.1-1.2
		c-1.5,0-2.6,0.5-3.5,1.5s-1.3,2.4-1.3,4.4v8.9h-1.6v-10.1c0-1.5-0.4-2.6-1.1-3.4c-0.7-0.8-1.7-1.2-3-1.2c-1.5,0-2.6,0.5-3.6,1.5
		c-0.9,1-1.4,2.5-1.4,4.3v8.9h-1.6v-15.9h1.6v2.7c1.1-2.1,2.8-3.1,5.1-3.1c1.2,0,2.2,0.3,3,0.8c0.9,0.6,1.5,1.4,1.9,2.4
		c0.6-1.1,1.3-1.9,2.2-2.4C727.2,146,728.2,145.7,729.3,145.7z"/>
	<path d="M746.7,145.7c2.3,0,4.2,0.8,5.7,2.5s2.2,3.6,2.2,5.9c0,0,0,0.2,0,0.4s0,0.3,0,0.4h-14.4c0.2,1.8,0.9,3.2,2.1,4.3
		c1.2,1.1,2.8,1.6,4.6,1.6c1.2,0,2.3-0.3,3.3-0.8s1.7-1.2,2.2-2.1l1.4,0.8c-0.7,1.1-1.6,2-2.8,2.6s-2.6,1-4.1,1
		c-2.5,0-4.5-0.8-6-2.3c-1.6-1.6-2.3-3.6-2.3-6s0.8-4.3,2.3-5.9S744.3,145.7,746.7,145.7z M746.7,147.2c-1.8,0-3.3,0.6-4.5,1.7
		c-1.2,1.1-1.9,2.6-2.1,4.4h12.8c-0.2-1.9-0.8-3.4-2-4.4C749.7,147.8,748.3,147.2,746.7,147.2z"/>
	<path d="M765.6,145.7c1.9,0,3.4,0.6,4.5,1.7c1.1,1.2,1.7,2.7,1.7,4.6v9.9h-1.6V152c0-1.5-0.4-2.7-1.2-3.5c-0.8-0.9-2-1.3-3.4-1.3
		c-1.7,0-3,0.6-4,1.7s-1.5,2.7-1.5,4.7v8.4h-1.6v-15.9h1.6v3C761,146.8,762.9,145.7,765.6,145.7z"/>
	<path d="M784.3,146.1v1.6h-4.7V158c0,1.3,0.3,2.1,1,2.4c0.7,0.3,1.9,0.4,3.7,0.2v1.4c-2.2,0.3-3.8,0.2-4.8-0.5
		c-1-0.6-1.5-1.8-1.5-3.5v-10.3h-3.5v-1.6h3.5v-4l1.6-0.5v4.4h4.7V146.1z"/>
	<path d="M797.7,150.2c0,1.3,1.1,2.3,3.4,2.9c0.7,0.1,1.1,0.3,1.4,0.3c0.3,0.1,0.8,0.2,1.4,0.4c0.6,0.2,1.1,0.4,1.4,0.6
		c0.3,0.2,0.6,0.5,1,0.8s0.6,0.7,0.8,1.1c0.2,0.4,0.2,0.9,0.2,1.5c0,1.3-0.5,2.4-1.6,3.3c-1,0.8-2.4,1.3-4.1,1.3
		c-1.5,0-2.8-0.3-3.8-1c-1.1-0.6-1.8-1.5-2.2-2.6l1.4-0.8c0.3,0.9,0.9,1.6,1.7,2.1s1.8,0.7,3,0.7s2.2-0.3,3-0.8s1.1-1.3,1.1-2.2
		c0-1.4-1.1-2.4-3.4-2.9c-2.1-0.5-3.5-1-4.3-1.4c-1.3-0.8-2-1.9-2-3.3c0-1.3,0.5-2.3,1.5-3.2s2.3-1.3,3.9-1.3c1.2,0,2.3,0.3,3.3,0.9
		c1,0.6,1.7,1.3,2.1,2.3l-1.3,0.8c-0.3-0.8-0.8-1.4-1.6-1.8c-0.7-0.4-1.6-0.6-2.5-0.6c-1.1,0-2,0.3-2.7,0.8
		C798,148.6,797.7,149.3,797.7,150.2z"/>
	<path d="M816.5,160.2l5.5-14.1h1.7l-6.9,17.3c-0.6,1.6-1.5,2.8-2.6,3.7s-2.3,1.3-3.7,1.2v-1.5c1,0.1,1.9-0.2,2.7-0.9s1.5-1.6,2-2.9
		l0.3-0.9l-7.3-16.2h1.7L816.5,160.2z"/>
	<path d="M826.7,150.2c0,1.3,1.1,2.3,3.4,2.9c0.7,0.1,1.1,0.3,1.4,0.3c0.3,0.1,0.8,0.2,1.4,0.4c0.6,0.2,1.1,0.4,1.4,0.6
		c0.3,0.2,0.6,0.5,1,0.8s0.6,0.7,0.8,1.1c0.2,0.4,0.2,0.9,0.2,1.5c0,1.3-0.5,2.4-1.6,3.3c-1,0.8-2.4,1.3-4.1,1.3
		c-1.5,0-2.8-0.3-3.8-1c-1.1-0.6-1.8-1.5-2.2-2.6l1.4-0.8c0.3,0.9,0.9,1.6,1.7,2.1s1.8,0.7,3,0.7s2.2-0.3,3-0.8s1.1-1.3,1.1-2.2
		c0-1.4-1.1-2.4-3.4-2.9c-2.1-0.5-3.5-1-4.3-1.4c-1.3-0.8-2-1.9-2-3.3c0-1.3,0.5-2.3,1.5-3.2s2.3-1.3,3.9-1.3c1.2,0,2.3,0.3,3.3,0.9
		c1,0.6,1.7,1.3,2.1,2.3l-1.3,0.8c-0.3-0.8-0.8-1.4-1.6-1.8c-0.7-0.4-1.6-0.6-2.5-0.6c-1.1,0-2,0.3-2.7,0.8
		C827,148.6,826.7,149.3,826.7,150.2z"/>
	<path d="M847.6,146.1v1.6h-4.7V158c0,1.3,0.3,2.1,1,2.4c0.7,0.3,1.9,0.4,3.7,0.2v1.4c-2.2,0.3-3.8,0.2-4.8-0.5
		c-1-0.6-1.5-1.8-1.5-3.5v-10.3h-3.5v-1.6h3.5v-4l1.6-0.5v4.4h4.7V146.1z"/>
	<path d="M857.6,145.7c2.3,0,4.2,0.8,5.7,2.5s2.2,3.6,2.2,5.9c0,0,0,0.2,0,0.4s0,0.3,0,0.4h-14.4c0.2,1.8,0.9,3.2,2.1,4.3
		c1.2,1.1,2.8,1.6,4.6,1.6c1.2,0,2.3-0.3,3.3-0.8s1.7-1.2,2.2-2.1l1.4,0.8c-0.7,1.1-1.6,2-2.8,2.6s-2.6,1-4.1,1
		c-2.5,0-4.5-0.8-6-2.3c-1.6-1.6-2.3-3.6-2.3-6s0.8-4.3,2.3-5.9S855.2,145.7,857.6,145.7z M857.6,147.2c-1.8,0-3.3,0.6-4.5,1.7
		c-1.2,1.1-1.9,2.6-2.1,4.4h12.8c-0.2-1.9-0.8-3.4-2-4.4C860.6,147.8,859.2,147.2,857.6,147.2z"/>
	<path d="M886.1,145.7c1.8,0,3.2,0.5,4.2,1.6s1.6,2.6,1.6,4.5v10.1h-1.6v-10.1c0-1.5-0.4-2.6-1.1-3.4c-0.8-0.8-1.8-1.2-3.1-1.2
		c-1.5,0-2.6,0.5-3.5,1.5s-1.3,2.4-1.3,4.4v8.9h-1.6v-10.1c0-1.5-0.4-2.6-1.1-3.4c-0.7-0.8-1.7-1.2-3-1.2c-1.5,0-2.6,0.5-3.6,1.5
		c-0.9,1-1.4,2.5-1.4,4.3v8.9H869v-15.9h1.6v2.7c1.1-2.1,2.8-3.1,5.1-3.1c1.2,0,2.2,0.3,3,0.8c0.9,0.6,1.5,1.4,1.9,2.4
		c0.6-1.1,1.3-1.9,2.2-2.4C884,146,885,145.7,886.1,145.7z"/>
</g>
<g>
	<path class="st14" d="M1729.8,203.9l-2.2-2.2c-0.8,0.5-1.7,0.9-2.6,1.2s-1.9,0.4-2.9,0.4c-1.3,0-2.5-0.2-3.7-0.6
		c-1.2-0.4-2.2-1.1-3.1-2s-1.6-2.1-2.2-3.5c-0.5-1.4-0.8-3.1-0.8-5.1v-0.6c0-1.9,0.3-3.5,0.8-4.9s1.3-2.5,2.2-3.4
		c0.9-0.9,1.9-1.6,3.1-2s2.4-0.6,3.7-0.6s2.5,0.2,3.7,0.6s2.2,1.1,3.1,2s1.6,2,2.2,3.4s0.8,3,0.8,4.9v0.6c0,1.8-0.2,3.3-0.7,4.6
		c-0.4,1.3-1,2.4-1.8,3.3l2.1,2.1L1729.8,203.9z M1722.1,200.6c0.6,0,1.2-0.1,1.8-0.2c0.6-0.2,1.1-0.4,1.6-0.7l-3.4-3.4l1.8-1.8
		l3.4,3.4c0.4-0.7,0.8-1.5,1-2.4c0.3-1,0.4-2.1,0.4-3.4v-0.6c0-1.5-0.2-2.7-0.6-3.7s-0.9-1.9-1.5-2.6c-0.6-0.7-1.3-1.2-2.1-1.5
		c-0.8-0.3-1.6-0.5-2.5-0.5s-1.7,0.2-2.5,0.5s-1.5,0.8-2.1,1.5s-1.1,1.5-1.5,2.6c-0.4,1-0.6,2.3-0.6,3.7v0.6c0,1.5,0.2,2.8,0.6,3.9
		s0.9,2,1.5,2.7s1.3,1.2,2.1,1.5C1720.4,200.5,1721.2,200.6,1722.1,200.6z"/>
	<path class="st14" d="M1742.2,203.3c-2,0-3.6-0.6-4.6-1.7c-1-1.2-1.5-2.9-1.5-5.4v-9.9h2.8v9.8c0,1.6,0.3,2.8,1,3.6
		s1.7,1.2,3.1,1.2c0.8,0,1.5-0.1,2.1-0.4s1-0.6,1.4-1.1c0.4-0.4,0.6-0.9,0.8-1.5c0.2-0.6,0.3-1.1,0.3-1.7v-9.8h2.8V203h-2.6v-3.2
		c-0.4,0.9-1,1.8-2,2.4S1743.6,203.3,1742.2,203.3z"/>
	<path class="st14" d="M1760.1,203.3c-0.9,0-1.7-0.1-2.4-0.4c-0.7-0.3-1.3-0.6-1.8-1.1s-0.9-1-1.1-1.6c-0.3-0.6-0.4-1.3-0.4-2.1
		c0-1.7,0.5-2.9,1.5-3.6c1-0.7,2.4-1.1,4.2-1.1h5.4v-1.1c0-1.5-0.3-2.4-1-3c-0.6-0.5-1.6-0.8-2.9-0.8c-1.2,0-2.1,0.2-2.6,0.7
		s-0.9,1-0.9,1.5h-2.8c0-0.7,0.2-1.3,0.6-1.9c0.3-0.6,0.8-1.1,1.3-1.5s1.2-0.8,2-1s1.6-0.4,2.6-0.4s1.9,0.1,2.7,0.3
		c0.8,0.2,1.5,0.6,2,1.1c0.6,0.5,1,1.1,1.3,1.9c0.3,0.8,0.5,1.7,0.5,2.7v6.8c0,0.9,0,1.7,0,2.3c0,0.7,0.1,1.3,0.1,1.9h-2.4
		c-0.1-0.5-0.1-0.9-0.1-1.4c0-0.4,0-0.9,0-1.5c-0.2,0.4-0.5,0.9-0.9,1.2s-0.8,0.7-1.3,1s-1,0.5-1.6,0.7
		C1761.5,203.2,1760.8,203.3,1760.1,203.3z M1760.7,200.7c0.7,0,1.3-0.1,1.8-0.3s1.1-0.4,1.5-0.8c0.4-0.3,0.8-0.8,1-1.3
		c0.3-0.5,0.4-1.1,0.4-1.8v-1.1h-5c-1,0-1.8,0.2-2.4,0.6s-0.9,1.1-0.9,1.9c0,0.8,0.3,1.4,0.8,1.9
		C1758.7,200.5,1759.5,200.7,1760.7,200.7z"/>
	<path class="st14" d="M1773.2,203v-16.7h2.6v3.2c0.2-0.5,0.4-1,0.7-1.4c0.3-0.4,0.6-0.8,1.1-1.1c0.4-0.3,0.9-0.5,1.4-0.7
		s1.1-0.3,1.7-0.3c0.4,0,0.8,0,1,0.1c0.3,0,0.5,0.1,0.7,0.2v2.6c-0.3-0.1-0.5-0.2-0.8-0.2s-0.6-0.1-1.1-0.1c-0.6,0-1.2,0.1-1.8,0.3
		c-0.5,0.2-1,0.6-1.4,1s-0.7,0.9-0.9,1.5c-0.2,0.6-0.3,1.2-0.3,1.9v9.8h-2.9V203z"/>
	<path class="st14" d="M1785.5,203v-22.1h2.8V194l7.7-7.7h3.4l-6.9,6.9l7.6,9.8h-3.5l-6-7.9l-2.2,2.1v5.8L1785.5,203L1785.5,203z"/>
	<path class="st14" d="M1813,184c-0.5,0-1-0.2-1.4-0.5c-0.4-0.4-0.5-0.8-0.5-1.4s0.2-1,0.5-1.4s0.8-0.5,1.4-0.5s1,0.2,1.4,0.5
		c0.4,0.4,0.5,0.8,0.5,1.4s-0.2,1-0.5,1.4C1814,183.8,1813.5,184,1813,184z M1811.6,203v-16.7h2.8V203H1811.6z"/>
	<path class="st14" d="M1825.5,203.3c-1.1,0-2.1-0.1-2.9-0.4c-0.8-0.3-1.5-0.6-2.1-1.1c-0.6-0.4-1-1-1.3-1.6s-0.6-1.2-0.7-1.9h2.8
		c0.1,0.7,0.5,1.3,1.2,1.8c0.6,0.5,1.6,0.7,3,0.7c1.6,0,2.6-0.2,3.3-0.7c0.6-0.5,0.9-1.1,0.9-1.8c0-0.4-0.1-0.7-0.2-0.9
		c-0.1-0.3-0.4-0.5-0.7-0.8c-0.3-0.2-0.8-0.4-1.4-0.6c-0.6-0.2-1.3-0.3-2.3-0.4c-0.9-0.1-1.8-0.3-2.5-0.6s-1.4-0.6-1.9-1
		s-0.9-0.9-1.2-1.5s-0.4-1.2-0.4-2c0-0.6,0.1-1.2,0.4-1.8s0.7-1.1,1.2-1.5s1.2-0.8,2-1c0.8-0.3,1.7-0.4,2.8-0.4c1,0,1.9,0.1,2.6,0.4
		c0.7,0.3,1.4,0.6,1.9,1.1c0.5,0.4,0.9,1,1.2,1.5c0.3,0.6,0.5,1.2,0.6,1.9h-2.8c-0.2-0.7-0.5-1.3-1.1-1.8s-1.4-0.7-2.5-0.7
		c-1.4,0-2.4,0.2-2.9,0.7s-0.8,1-0.8,1.7c0,0.8,0.3,1.3,0.9,1.7s1.7,0.7,3.3,0.9c1,0.1,1.9,0.3,2.7,0.6c0.8,0.2,1.5,0.6,2,1
		s1,0.9,1.2,1.5c0.3,0.6,0.4,1.3,0.4,2.1c0,0.7-0.1,1.3-0.4,1.9c-0.3,0.6-0.7,1.1-1.3,1.6c-0.6,0.4-1.3,0.8-2.2,1.1
		C1827.8,203.1,1826.7,203.3,1825.5,203.3z"/>
	<path class="st14" d="M1846,184c-0.5,0-1-0.2-1.4-0.5c-0.4-0.4-0.5-0.8-0.5-1.4s0.2-1,0.5-1.4s0.8-0.5,1.4-0.5s1,0.2,1.4,0.5
		c0.4,0.4,0.5,0.8,0.5,1.4s-0.2,1-0.5,1.4C1847,183.8,1846.6,184,1846,184z M1844.6,203v-16.7h2.8V203H1844.6z"/>
	<path class="st14" d="M1852.8,203v-16.7h2.6v3.2c0.4-0.9,1-1.7,2-2.4s2.2-1,3.7-1c2.1,0,3.7,0.6,4.7,1.7c1,1.1,1.5,2.8,1.5,4.9V203
		h-2.8v-9.8c0-1.6-0.3-2.8-1-3.6s-1.7-1.2-3.3-1.2c-0.8,0-1.5,0.1-2.1,0.4s-1.1,0.6-1.5,1.1c-0.4,0.4-0.7,0.9-0.8,1.5
		c-0.2,0.6-0.3,1.1-0.3,1.7v9.8h-2.7V203z"/>
	<path class="st14" d="M1885.9,203.3c-1,0-2-0.2-2.8-0.5c-0.9-0.4-1.6-0.9-2.2-1.6c-0.6-0.7-1.1-1.6-1.4-2.7
		c-0.3-1.1-0.5-2.3-0.5-3.7v-0.6c0-1.3,0.2-2.5,0.5-3.5s0.8-1.9,1.4-2.6s1.3-1.2,2.2-1.6c0.9-0.4,1.8-0.5,2.8-0.5
		c1.3,0,2.5,0.3,3.5,0.9c1,0.6,1.7,1.4,2.2,2.4v-8.4h2.8V203h-2.6v-3.2c-0.4,1-1.2,1.9-2.2,2.5
		C1888.6,202.9,1887.4,203.3,1885.9,203.3z M1886.6,200.8c0.8,0,1.5-0.1,2.1-0.4c0.6-0.3,1.2-0.6,1.6-1s0.8-1,1-1.6
		c0.3-0.6,0.4-1.3,0.4-2.1v-2.5c0-0.7-0.1-1.3-0.4-1.9c-0.3-0.6-0.6-1.1-1-1.5s-1-0.8-1.6-1s-1.3-0.4-2.1-0.4
		c-0.7,0-1.3,0.1-1.9,0.4c-0.6,0.3-1.1,0.6-1.5,1.1s-0.8,1.1-1,1.8s-0.4,1.5-0.4,2.4v0.6c0,1,0.1,1.9,0.4,2.6s0.6,1.4,1,1.9
		s0.9,0.9,1.5,1.2C1885.3,200.7,1885.9,200.8,1886.6,200.8z"/>
	<path class="st14" d="M1906.4,203.3c-1.1,0-2.1-0.2-3.1-0.5s-1.8-0.9-2.6-1.6s-1.3-1.6-1.8-2.7c-0.4-1.1-0.7-2.3-0.7-3.8v-0.6
		c0-1.4,0.2-2.6,0.6-3.6s1-1.9,1.7-2.6s1.5-1.2,2.5-1.5c0.9-0.3,1.9-0.5,3-0.5c2.5,0,4.4,0.7,5.7,2c1.3,1.3,2,3.2,2,5.7v1.8H1901
		c0,1,0.2,1.8,0.5,2.5s0.7,1.2,1.2,1.7s1.1,0.7,1.7,0.9s1.2,0.3,1.9,0.3c1.3,0,2.2-0.2,2.9-0.6s1.2-1,1.5-1.7h2.7
		c-0.2,0.8-0.5,1.5-0.9,2.1s-1,1.1-1.6,1.5s-1.3,0.7-2.1,0.9S1907.3,203.3,1906.4,203.3z M1901.2,193.1h10.1c0-0.9-0.2-1.6-0.4-2.2
		c-0.3-0.6-0.6-1.1-1.1-1.5c-0.4-0.4-1-0.6-1.6-0.8s-1.2-0.3-1.9-0.3c-0.7,0-1.3,0.1-1.9,0.3s-1.2,0.5-1.6,0.9
		c-0.5,0.4-0.9,0.9-1.2,1.5S1901.2,192.3,1901.2,193.1z"/>
	<path class="st14" d="M1922.2,203l-6.9-16.7h3.1l5.4,13.9l4.9-13.9h3l-6.3,16.7H1922.2z"/>
	<path class="st14" d="M1941.2,203.3c-1.1,0-2.1-0.2-3.1-0.5s-1.8-0.9-2.6-1.6s-1.3-1.6-1.8-2.7c-0.4-1.1-0.7-2.3-0.7-3.8v-0.6
		c0-1.4,0.2-2.6,0.6-3.6s1-1.9,1.7-2.6s1.5-1.2,2.5-1.5c0.9-0.3,1.9-0.5,3-0.5c2.5,0,4.4,0.7,5.7,2c1.3,1.3,2,3.2,2,5.7v1.8h-12.7
		c0,1,0.2,1.8,0.5,2.5s0.7,1.2,1.2,1.7s1.1,0.7,1.7,0.9s1.2,0.3,1.9,0.3c1.3,0,2.2-0.2,2.9-0.6s1.2-1,1.5-1.7h2.7
		c-0.2,0.8-0.5,1.5-0.9,2.1s-1,1.1-1.6,1.5s-1.3,0.7-2.1,0.9S1942,203.3,1941.2,203.3z M1935.9,193.1h10.1c0-0.9-0.2-1.6-0.4-2.2
		c-0.3-0.6-0.6-1.1-1.1-1.5c-0.4-0.4-1-0.6-1.6-0.8s-1.2-0.3-1.9-0.3c-0.7,0-1.3,0.1-1.9,0.3s-1.2,0.5-1.6,0.9
		c-0.5,0.4-0.9,0.9-1.2,1.5C1936,191.6,1935.9,192.3,1935.9,193.1z"/>
	<path class="st14" d="M1957.6,203.1c-0.9,0-1.6-0.1-2.2-0.3s-1.1-0.5-1.5-1c-0.4-0.4-0.7-1-0.9-1.7c-0.2-0.7-0.3-1.5-0.3-2.4v-16.9
		h2.8v16.9c0,0.5,0,1,0.1,1.4s0.2,0.6,0.4,0.9c0.2,0.2,0.4,0.4,0.8,0.5s0.7,0.1,1.1,0.1c0.2,0,0.4,0,0.6,0s0.3,0,0.5,0v2.5
		c-0.1,0-0.2,0-0.3,0.1c-0.1,0-0.3,0-0.4,0s-0.3,0-0.4,0C1957.8,203.1,1957.7,203.1,1957.6,203.1z"/>
	<path class="st14" d="M1969.3,203.3c-1.1,0-2.1-0.2-3.1-0.5s-1.8-0.9-2.6-1.6s-1.3-1.6-1.8-2.7c-0.4-1.1-0.7-2.3-0.7-3.8v-0.6
		c0-1.4,0.2-2.6,0.7-3.6c0.4-1,1-1.9,1.8-2.6c0.7-0.7,1.6-1.2,2.6-1.5s2-0.5,3.1-0.5s2.1,0.2,3.1,0.5s1.8,0.9,2.6,1.5
		c0.7,0.7,1.3,1.5,1.8,2.6c0.4,1,0.7,2.2,0.7,3.6v0.6c0,1.4-0.2,2.7-0.7,3.8c-0.4,1.1-1,2-1.8,2.7c-0.7,0.7-1.6,1.2-2.6,1.6
		C1971.4,203.1,1970.3,203.3,1969.3,203.3z M1969.3,200.7c0.6,0,1.3-0.1,1.9-0.3s1.2-0.6,1.7-1c0.5-0.5,0.9-1.1,1.2-1.8
		c0.3-0.8,0.5-1.7,0.5-2.8v-0.6c0-1-0.2-1.9-0.5-2.6c-0.3-0.7-0.7-1.3-1.2-1.8s-1-0.8-1.7-1c-0.6-0.2-1.3-0.3-1.9-0.3
		s-1.3,0.1-1.9,0.3s-1.2,0.5-1.7,1s-0.9,1.1-1.2,1.8c-0.3,0.7-0.5,1.6-0.5,2.6v0.6c0,1.1,0.2,2,0.5,2.8s0.7,1.4,1.2,1.8s1,0.8,1.7,1
		C1968,200.6,1968.6,200.7,1969.3,200.7z"/>
	<path class="st14" d="M1981.3,209.3v-23h2.6v3.2c0.6-1.1,1.4-2,2.4-2.6s2.2-0.9,3.6-0.9c2.1,0,3.8,0.7,5,2.1
		c1.3,1.4,1.9,3.4,1.9,6.1v0.6c0,1.4-0.2,2.7-0.5,3.7s-0.8,2-1.4,2.7s-1.3,1.2-2.2,1.6c-0.9,0.4-1.8,0.5-2.8,0.5
		c-1.5,0-2.7-0.3-3.6-0.9c-0.9-0.6-1.7-1.4-2.1-2.4v9.3L1981.3,209.3L1981.3,209.3z M1989.1,200.8c0.7,0,1.3-0.1,1.9-0.4
		c0.6-0.3,1.1-0.6,1.5-1.2c0.4-0.5,0.8-1.1,1-1.9s0.4-1.6,0.4-2.6v-0.6c0-0.9-0.1-1.7-0.4-2.4s-0.6-1.3-1-1.8s-0.9-0.9-1.5-1.1
		c-0.6-0.3-1.2-0.4-1.9-0.4c-0.8,0-1.5,0.1-2.1,0.4c-0.6,0.2-1.2,0.6-1.6,1s-0.8,0.9-1,1.5c-0.3,0.6-0.4,1.2-0.4,1.9v2.5
		c0,0.8,0.1,1.5,0.4,2.1s0.6,1.2,1,1.6c0.4,0.4,1,0.8,1.6,1C1987.7,200.7,1988.4,200.8,1989.1,200.8z"/>
	<path class="st14" d="M2000.7,203v-16.7h2.6v3.2c0.4-1,1-1.9,1.8-2.5c0.9-0.6,1.9-1,3-1c1.5,0,2.6,0.3,3.3,0.9
		c0.8,0.6,1.3,1.4,1.6,2.4c0.5-1,1.2-1.8,2.1-2.4c0.9-0.6,1.9-0.9,3.1-0.9c1.7,0,3.1,0.5,4,1.6c1,1,1.5,2.7,1.5,4.9V203h-2.8v-10
		c0-1.7-0.3-2.8-0.9-3.5s-1.5-1-2.7-1c-0.5,0-1,0.1-1.5,0.3s-0.9,0.5-1.2,0.9c-0.4,0.4-0.6,0.9-0.9,1.5c-0.2,0.6-0.3,1.2-0.3,1.9
		v9.9h-2.8v-10c0-1.7-0.3-2.8-0.9-3.5s-1.5-1-2.6-1c-0.5,0-1,0.1-1.5,0.3s-0.9,0.5-1.2,0.9c-0.4,0.4-0.6,0.9-0.9,1.5
		s-0.3,1.2-0.3,1.9v9.9L2000.7,203L2000.7,203z"/>
	<path class="st14" d="M2035.5,203.3c-1.1,0-2.1-0.2-3.1-0.5s-1.8-0.9-2.6-1.6s-1.3-1.6-1.8-2.7c-0.4-1.1-0.7-2.3-0.7-3.8v-0.6
		c0-1.4,0.2-2.6,0.6-3.6s1-1.9,1.7-2.6s1.5-1.2,2.5-1.5c0.9-0.3,1.9-0.5,3-0.5c2.5,0,4.4,0.7,5.7,2c1.3,1.3,2,3.2,2,5.7v1.8h-12.7
		c0,1,0.2,1.8,0.5,2.5s0.7,1.2,1.2,1.7s1.1,0.7,1.7,0.9s1.2,0.3,1.9,0.3c1.3,0,2.2-0.2,2.9-0.6s1.2-1,1.5-1.7h2.7
		c-0.2,0.8-0.5,1.5-0.9,2.1s-1,1.1-1.6,1.5s-1.3,0.7-2.1,0.9S2036.4,203.3,2035.5,203.3z M2030.3,193.1h10.1c0-0.9-0.2-1.6-0.4-2.2
		c-0.3-0.6-0.6-1.1-1.1-1.5c-0.4-0.4-1-0.6-1.6-0.8s-1.2-0.3-1.9-0.3c-0.7,0-1.3,0.1-1.9,0.3s-1.2,0.5-1.6,0.9
		c-0.5,0.4-0.9,0.9-1.2,1.5C2030.4,191.6,2030.3,192.3,2030.3,193.1z"/>
	<path class="st14" d="M2046.9,203v-16.7h2.6v3.2c0.4-0.9,1-1.7,2-2.4s2.2-1,3.7-1c2.1,0,3.7,0.6,4.7,1.7c1,1.1,1.5,2.8,1.5,4.9V203
		h-2.8v-9.8c0-1.6-0.3-2.8-1-3.6s-1.7-1.2-3.3-1.2c-0.8,0-1.5,0.1-2.1,0.4s-1.1,0.6-1.5,1.1c-0.4,0.4-0.7,0.9-0.8,1.5
		c-0.2,0.6-0.3,1.1-0.3,1.7v9.8h-2.7V203z"/>
	<path class="st14" d="M2072.2,203.1c-0.9,0-1.6-0.1-2.3-0.3c-0.6-0.2-1.2-0.5-1.6-0.9s-0.7-0.9-0.9-1.5s-0.3-1.3-0.3-2.1v-9.5h-2.5
		v-2.5h2.5v-3.8h2.8v3.8h4.5v2.5h-4.5v9.2c0,0.5,0,0.9,0.1,1.2s0.3,0.6,0.5,0.8s0.5,0.4,0.9,0.5s0.8,0.2,1.4,0.2c0.3,0,0.6,0,0.9,0
		c0.3,0,0.6,0,0.9-0.1v2.5c-0.4,0-0.8,0.1-1.2,0.1C2073.1,203.1,2072.6,203.1,2072.2,203.1z"/>
</g>
<path class="st14" d="M1638.7,184l-8.8,15.2c-1,1.7,0.2,3.7,2.2,3.7h17.6c1.9,0,3.1-2.1,2.2-3.7L1643,184
	C1642.1,182.3,1639.7,182.3,1638.7,184z"/>
<circle class="st2" cx="1640.9" cy="199.4" r="1.3"/>
<rect x="1639.5" y="187.7" class="st2" width="2.6" height="8.6"/>
</svg>
